<svg xmlns="http://www.w3.org/2000/svg" viewBox="0 0 577.13 1015.87"><defs><style>.cls-1{fill:#5c5c5c;}.cls-2{fill:#d8a79c;}.cls-3{fill:#fbc1b4;}.cls-4{fill:#c2c5c7;}.cls-5{fill:#fafafa;}</style></defs><title>jew</title><g id="Слой_2" data-name="Слой 2"><g id="Слой_1-2" data-name="Слой 1"><path class="cls-1" d="M514,482.87c-18.3.6-34.3-4.1-50.3-9.7-9.3-3.3-18.6-6.5-26.9-11.7-11.3-7.1-23.9-11.9-34.8-19.7-8.6-6.1-18.1-10.6-26.6-16.8-15.3-11.1-32.1-16.1-51.3-10.8-15.4,4.2-31.1,7.4-47.3,5.8a131.32,131.32,0,0,1-25-4.7c-18.9-5.7-35.8-3.4-52.2,8.1a464.61,464.61,0,0,1-40.9,25.4c-15.1,8.5-30.5,16.6-46.6,23.2a157.36,157.36,0,0,1-33.9,9.6c-11.9,2-24.4,3.2-36.1-.9-9.5-3.4-18.6-7.6-25.8-15.9-9-10.4-13.5-25.5-14.8-35-2.2-16.9-1.5-56.3-1-68.3.6-13,2.4-25.8,3.9-38.7,2.4-21.1,8.9-47.1,14.1-62.1,3.8-10.8,14.8-35.9,17.4-41.9,6.9-16,17-30.2,24.6-45.7,7.4-15.1,16-29.6,24.2-44.2a428.31,428.31,0,0,1,26-39.6c11.6-15.9,25.1-29.8,39.7-42.7,9.3-8.2,19.9-14.7,30.6-21,23.3-13.7,48.8-20.2,75.4-23.7a242,242,0,0,1,53.8-.7c39.2,3.7,74.9,16.4,106.2,40.9,14.9,11.6,27.8,25.1,39.5,39.6a365.16,365.16,0,0,1,36.6,56.1c14.3,26.4,29.1,52.5,43.3,79a277.12,277.12,0,0,1,27.2,77.5c4.1,20.8,7.7,41.7,8.8,62.8,1.2,24.4,3.4,48.8-.7,73.2-2.7,15.8-8.8,30-21.3,40.5-7,5.8-15.5,9.2-24.4,11.1A29.1,29.1,0,0,1,514,482.87Zm-385.6-24.8a9.51,9.51,0,0,0,2.4-.7c23.3-12,45.5-25.7,67.6-39.6,8.3-5.2,16.7-10.1,27-11.1,13.1-1.2,25.4,2.2,38,4.8,12.1,2.5,24.2,4.6,36.6,1.9,7.6-1.7,15.3-3.1,23-4.8,18-4,34.6-2.5,50.6,8.2,20.8,13.8,42.1,26.9,64.4,38.2,1.7.9,3.2,2.1,5.7,1.9-2.1-5.7-4.7-10.7-6.1-16.2-4.4-17.7-4.8-35.6-3.8-53.6a234.36,234.36,0,0,0-.6-38.4c-4.5-41.6-14.3-81.9-30.7-120.5-11.9-28.1-26.7-54.4-49.1-75.7-17.3-16.5-37.5-27-61.7-28.5-29.4-1.8-53.5,9.7-74.1,29.7-20.8,20.1-34.9,44.8-46.4,71-13.5,30.8-22.5,62.9-28.3,96-3.2,18.2-5.6,36.6-4.9,55.1.5,13.2,1,26.3.5,39.4a105.94,105.94,0,0,1-7,35.1c-1.2,2.7-3.4,4.8-3.1,7.8a5.27,5.27,0,0,1-1.2.3c.1.1.1.4.2.4C127.92,459,128.32,458.67,128.42,458.07Zm310.8-71.5c-.4,18.3-.9,36.7,4.2,54.6,2.9,10.2,7.1,20.1,17.3,24.5,18.6,8.1,38.1,13.2,58.8,11.3,20.5-1.9,34.6-12.6,42.2-31.8,4.8-12.1,6.3-24.9,6.4-37.7.2-40.4-2.2-80.6-11.9-120.1-4.4-17.8-9.6-35.3-17.3-52.1-11.4-25-25.9-48.4-38.9-72.6-12.1-22.5-24.2-44.8-39.2-65.6-20.4-28.4-44.6-52.5-75.8-68.9-28.9-15.2-59.9-21.8-92.3-22.5-45.1-1-87.3,8.5-124.9,34.8-29.1,20.3-50.9,47.3-69.3,77.1-17.9,29.1-33.2,59.6-50.1,89.3-10.1,17.8-18.8,36.4-24.8,56-14.4,46.8-19.1,94.9-18.5,143.6.1,11.7,1.4,23.3,4.9,34.5,7.3,22.8,23.9,35.3,47.8,36.2,15.6.6,30.4-3,45.1-7.6,11.7-3.7,19.3-11.4,23.6-22.6,6.4-16.5,7.2-33.9,6.4-51.2-1-24.1-.5-47.9,3.6-71.7,7.3-42.9,19.3-84.4,39.7-123.1,12.2-23.2,27.1-44.3,47.9-60.7,33.8-26.6,75.3-29.7,112.1-8,20.4,12,35.5,29.5,48.2,49.2,20,31.1,33,65.3,42.2,101C435.32,316.57,441.32,351.07,439.22,386.57Z"/><path class="cls-1" d="M289.62,1015.87c-9.3,0-18.4-.2-27.7-1a220.25,220.25,0,0,1-29-4.2,270.12,270.12,0,0,1-44.2-13,204.29,204.29,0,0,1-31.6-16.1,230.8,230.8,0,0,1-51.8-42.7,291.09,291.09,0,0,1-23.8-30.3c-7.7-11-15.2-22.2-20.9-34.3-3.8-8.1-7.8-16.3-11-24.7-2.9-7.5-12.7-33.9-14.9-39.5-6.5-16.3-10.4-33.5-14.7-50.4a482.85,482.85,0,0,1-9.8-49.3c-1.3-9.4-3.8-18.6-4.7-28-1.3-14.2-1.1-28.5-1.1-42.7,0-13.3-.4-26.7.1-40,.4-11.6,2.5-23.4,7.5-33.7,5.7-11.9,17-18,30-20,20.1-3.1,40.1-1.1,58.5,7.4,17.3,7.9,28,22,31.2,41.4,2,11.9-.5,23.5-1.5,35.2-.8,10-1,19.9-1.8,29.9-.6,7.3-1.3,14.8-.6,21.9.7,7.7,1.5,15.5,2.3,23.2a336.2,336.2,0,0,0,6.3,40c6.1,27.2,15.1,53.3,28.8,77.7a238.8,238.8,0,0,0,18.6,28.7c17.7,23.2,38.9,42.6,66,54.2,13.5,5.8,27.8,10,42.8,9.2,20.2-1,38.8-7.5,56-18.3a165,165,0,0,0,36.7-30.8c10.6-12.1,20.6-24.7,28.6-39,8.4-15,15-30.7,21-46.6a188.57,188.57,0,0,0,9.6-34c1.2-7,3.7-13.7,4.2-20.8.8-10.1,1.9-20.3,2.9-30.4,1.1-10.8,2-21.5,1.5-32.3-.7-15.6-1.5-31.1-3.3-46.6-2.2-20.1.7-38.8,16.6-53.3,11.4-10.3,25.5-14.2,40.1-16.4a109.25,109.25,0,0,1,31.8-.4c16.9,2.4,29.9,13.9,34.1,30.5,4.5,17.6,4.8,35.5,4.7,53.4-.1,14.5-.7,28.9-1.1,43.4-.3,11.6-3.1,22.7-4.1,34.1a129.68,129.68,0,0,1-3.2,17.9c-4.1,17.3-8.2,34.6-11.8,52-1.1,5.1-10.7,34.6-11.4,36.9-3.2,9.7-6.6,19.3-10.4,28.6-2.5,6.2-4.2,9.1-6.3,13.7-1.1,2.3-1.7,3.7-3.2,7.5-.3.6-8,16.5-12.1,23.6-3.1,5.2-6.6,10.2-9.8,15.4-8,13.2-18,25-27.7,36.8s-22.3,20.8-34.2,30.3c-9.9,8-21.4,13.5-32.3,19.9-10.1,5.9-21.1,8.8-31.8,12.7-15,5.5-30.9,8.1-46.7,10.5A261.88,261.88,0,0,1,289.62,1015.87ZM9.92,639.47c.1,14.8-.1,29.7,2,44.4,6.5,46.8,16.6,92.8,32.4,137.4,14.3,40.3,33.3,78,61.8,110.5,39,44.6,88.6,68.9,146.9,76.1a307.63,307.63,0,0,0,80.2-.7c36.7-5.1,70.7-17.2,101.3-38.5,35.4-24.7,61-57.7,80.6-95.7,19.1-36.9,31.4-76.2,41.1-116.5,10.4-43.4,17.1-87.2,15.7-132.1-.5-14.6-.2-29.3-3.7-43.7-4.4-18-14.6-27.6-33-29.8a97,97,0,0,0-47.1,5.7c-23.5,9.1-36.3,30.4-33.1,55.5a424.41,424.41,0,0,1,2.8,82.8c-3.2,45.8-14.2,89.4-36.3,129.8-16.7,30.6-38.4,56.9-68.1,75.7-36.7,23.3-74.7,26.7-113.8,6.4-26.1-13.5-46.8-33.4-63.6-57.3-36-51.2-50.6-109-52.8-170.7-.8-22.5,1.3-44.9,3.6-67.3,2.8-28.3-11.4-48.8-38.7-56.9a107.54,107.54,0,0,0-39.5-3.9c-17.6,1.3-29.2,10.1-34,27.2-.7,2.6-1.4,5.1-1.9,7.7C9.22,603.47,9.62,621.47,9.92,639.47Z"/><path class="cls-2" d="M128.42,458.17c-.4-3.1,1.9-5.2,2.9-7.8,4.4-11.3,6.4-23.1,7-35.1.6-13.1,0-26.3-.5-39.4-.7-18.5,1.7-36.9,4.9-55.1,5.8-33,14.8-65.2,28.3-96,11.5-26.2,25.6-50.9,46.4-71,20.6-20,44.8-31.5,74.1-29.7,24.2,1.5,44.4,12,61.7,28.5,22.4,21.3,37.2,47.6,49.1,75.7,16.4,38.6,26.1,78.9,30.7,120.5a234.19,234.19,0,0,1,.6,38.4c-1,18-.6,36,3.8,53.6,1.4,5.5,4,10.5,6.1,16.2-2.4.2-4-1-5.7-1.9a661,661,0,0,1-64.4-38.2c-16-10.6-32.6-12.1-50.6-8.2-7.6,1.7-15.3,3.1-23,4.8-12.4,2.8-24.5.7-36.6-1.9-12.5-2.6-24.9-6-38-4.8-10.3.9-18.6,5.9-27,11.1-22.1,13.9-44.4,27.6-67.6,39.6-.6.3-1.5.4-2.2.7Z"/><path class="cls-3" d="M439.22,386.57c2.1-35.5-3.9-70-12.7-104.2-9.2-35.7-22.1-69.8-42.2-101-12.7-19.7-27.8-37.2-48.2-49.2-36.8-21.7-78.3-18.6-112.1,8-20.8,16.4-35.7,37.5-47.9,60.7-20.3,38.7-32.4,80.2-39.7,123.1-4.1,23.8-4.6,47.6-3.6,71.7.7,17.3,0,34.7-6.4,51.2-4.3,11.2-12,19-23.6,22.6-14.7,4.6-29.5,8.2-45.1,7.6-23.9-.9-40.5-13.4-47.8-36.2-3.6-11.2-4.8-22.8-4.9-34.5-.6-48.7,4.1-96.8,18.5-143.6,6-19.7,14.7-38.2,24.8-56,16.8-29.7,32.1-60.3,50.1-89.3,18.4-29.9,40.3-56.8,69.3-77.1,37.5-26.3,79.7-35.8,124.9-34.8,32.4.7,63.4,7.3,92.3,22.5,31.3,16.4,55.5,40.5,75.8,68.9,14.9,20.7,27.1,43.1,39.2,65.6,13,24.2,27.5,47.6,38.9,72.6,7.7,16.7,12.9,34.3,17.3,52.1,9.7,39.5,12.2,79.7,11.9,120.1-.1,12.9-1.6,25.6-6.4,37.7-7.6,19.2-21.7,29.9-42.2,31.8s-40.1-3.2-58.8-11.3c-10.2-4.4-14.4-14.3-17.3-24.5C438.22,423.27,438.82,405,439.22,386.57ZM221.82,73.67c5.6,7.3,11.3,14.4,19.4,19.2,12.1,7.1,23.3,4.9,31.7-6.2a53.17,53.17,0,0,0,7.7-14.5c1.8-5.2,3.5-10.4,5.2-15.7,1.2,1.4,1.3,3.1,1.7,4.7,2.5,9,5.7,17.8,11.2,25.5,7.4,10.3,18.2,13,29.5,7.5a46,46,0,0,0,8.3-5.5c5.5-4.6,9.6-10.4,14.5-16.2-.5,6.1-1.3,11.5-1.4,17-.4,19.6,9,26.9,27.8,22,4.6-1.2,9-2.9,14.4-4.7-2.2,7.4-3.9,14.1-3.5,21.2.9,16,9,24,25,24.1.9,0,2-.5,2.6.8-7.8,16.8-2.7,30.6,9.7,42.9a46.77,46.77,0,0,0,14.9,9.9c1.5.7,3.1.8,2.2,3.4-2.5,6.7-1.7,13.5.3,20.1,3.8,12.8,7.5,25.7,19.6,33.8,1.9,1.3.7,2.5,0,3.8-1.9,3.6-2.5,7.5-1.1,11.1,4.2,10.7,6.5,22,11.6,32.4,2,4.1,6.7,7.1,7.6,10.7s-3.8,7.9-4.6,12.6c-1.4,9-.9,17.9-.8,26.9s1.7,17.6,8.9,24c1.3,1.2,1.4,1.9-.3,2.9a16.44,16.44,0,0,0-7.3,9.8,238.6,238.6,0,0,0-8.2,40c-1.1,9.6,2.9,15.4,12,19.1a77.11,77.11,0,0,0,34.3,5,27.48,27.48,0,0,0,20.5-11,100.26,100.26,0,0,0,14.7-26.6c3.8-10.2,3.9-20.7-1.1-30.6-1.9-3.7-2.5-6.3,1-9.3,2.3-1.9,3.2-5,3.9-8,2.4-9.5,2.5-19.2,1.6-28.8-1-10.8-1.1-22-10.5-30.1-1.6-1.4-2.8-3.7-4.6-5.1-2-1.5-2.2-2.9-.9-5a23.83,23.83,0,0,0,3.6-12.4c0-12.1,0-24.3-3.9-36.1-2.2-6.8-6.5-12.1-13.1-15-3.1-1.4-3.6-3-3.5-6.1.3-8.4-1.9-16.6-8.6-21.4-5.1-3.6-6.3-7.7-7.4-13-1.8-9.3-7-16.2-16.5-18.7-2.7-.7-2.5-1.9-2-3.9a23.5,23.5,0,0,0-1.4-16.1c-7.6-16.3-18.1-29.7-37.2-34a43.19,43.19,0,0,0,5.5-12.2c3.5-13.3-3.4-24.3-16.8-27.2-5.7-1.2-11.5-1.3-18.1-1.3a16.84,16.84,0,0,0,1-15.8c-8.8-20-23.9-32.3-45.6-36.1-4.1-.7-8.6,2.6-11.5.9-3.2-1.8-4.9-6.6-8.5-8.8-18.9-11.8-39-14.4-60.3-7.2-3.6,1.2-6.2,5.6-9.1,5.5s-5.6-4.2-9.1-5.6c-11-4.5-22.4-4.6-33.9-2.8-10.5,1.6-21,4.3-28.5,12.1-4.6,4.8-8.5,8.5-15.5,5.8-1.3-.5-3,0-4.4.3-16.5,3.1-28.9,12.4-38.4,25.7-5.5,7.7-9,16-4.6,25.9-5.9.2-11.3-.1-16.7,1-15.3,3.2-22.2,15.4-16.9,30.3,1.2,3.4,3,6.6,4.6,10.1a22.48,22.48,0,0,0-13,4c-10.3,7.2-18.5,16.2-23.6,27.8a30.36,30.36,0,0,0-2.7,12.6c.1,3.6-3,8.7-5.9,10.5a24.82,24.82,0,0,0-7.1,6.2c-3.7,4.6-4.9,10.1-5.7,15.7-.3,2-.3,4.1-2.3,5.2-10.2,5.6-12.9,15-12.8,25.8,0,2.1-.2,3.4-2.4,4.3-8.7,3.4-12.9,10.4-15.2,19.1-2.8,10.8-2.8,21.8-2.8,32.7a20.69,20.69,0,0,0,3.2,11.4c1.8,2.8,1,4.3-1.2,6.2-7.1,5.9-12.1,13.2-13.3,22.7-1.7,12.3-2.3,24.5-.4,36.8.8,5,2,9.9,6.1,13.3,2.4,2,1.9,3.6.6,5.9-4.8,8.9-6.1,18.3-3.3,28.1a90.11,90.11,0,0,0,16.9,32.1c4.7,5.9,11.1,8.9,18.5,9.8,11,1.3,21.7-.3,32.1-3.5,12.4-3.9,17-11,15-23.8-1.8-11.7-4.6-23.2-7.3-34.7a18.29,18.29,0,0,0-7.6-11.4c-2.5-1.6-1.6-2.6,0-4,5.4-4.9,7.3-11.4,7.9-18.3.3-4,.7-8,.6-12-.4-10.6,1.1-21.5-5.7-30.9-1-1.4-.3-2,.7-2.9,4.8-4.2,7.4-9.8,9.5-15.6,2.8-7.5,4.8-15.2,7.8-22.6,2.2-5.3,2.6-10.3-.1-15.3-.9-1.6-1.2-2.6.6-3.6,7-4.1,10.7-10.9,13.7-18,4.6-10.7,9-21.7,6.3-33.7-.7-3.3-.1-4.4,2.9-5.9,13.1-6.5,22.9-16,26.2-30.9,1.7-7.6.5-14.8-3.7-22.1h5.8c11.2-.2,19.2-6.7,21.6-17.7a43.62,43.62,0,0,0-1.2-23.2c-.4-1.3-1.7-2.6-.2-4.3,6.5,2.3,13,4.9,20,5.8,11.6,1.5,18.8-4.1,20.5-15.8,1.1-7.6.1-14.9-.7-22.4C221.22,74.27,221.52,74,221.82,73.67Z"/><path class="cls-4" d="M128.42,458.07c-.1.6-.4.9-1,.7-.1,0-.1-.3-.2-.4l1.2-.3Z"/><path class="cls-3" d="M9.92,639.47c-.3-18-.7-36,2.5-53.8.5-2.6,1.2-5.2,1.9-7.7,4.9-17.2,16.4-25.9,34-27.2a109.72,109.72,0,0,1,39.5,3.9c27.3,8.1,41.5,28.6,38.7,56.9-2.2,22.4-4.4,44.8-3.6,67.3,2.2,61.6,16.8,119.5,52.8,170.7,16.8,23.9,37.5,43.8,63.6,57.3,39.1,20.3,77.1,16.9,113.8-6.4,29.7-18.9,51.4-45.2,68.1-75.7,22.1-40.4,33.1-84,36.3-129.8a424.67,424.67,0,0,0-2.8-82.8c-3.2-25.1,9.6-46.4,33.1-55.5a97,97,0,0,1,47.1-5.7c18.4,2.2,28.7,11.8,33,29.8,3.5,14.4,3.2,29.1,3.7,43.7,1.5,44.8-5.2,88.6-15.7,132.1-9.7,40.3-22,79.6-41.1,116.5-19.6,38-45.2,71-80.6,95.7-30.5,21.3-64.5,33.5-101.3,38.5a307.63,307.63,0,0,1-80.2.69c-58.3-7.19-107.9-31.5-146.9-76.09-28.4-32.5-47.5-70.2-61.8-110.5-15.8-44.6-25.9-90.6-32.4-137.41C9.82,669.17,10,654.27,9.92,639.47Zm149,288.9.9,1.2c-2.7,7-6.3,13.7-6.5,21.4-.2,6.8,2,9.7,8.5,11.5,8.1,2.2,16.2,1.9,24.2.3,2.6-.5,4.5-1.1,4.4,2.7,0,2.4,1.5,4.4,3.2,6.1,11.8,11.8,26,17.6,42.8,16.5a7.35,7.35,0,0,1,5,1.4c14.6,9.6,30.2,11.5,46.6,5.5,1.6-.6,2.9-1,4.7-.3,16.9,6.6,32.9,4.6,47.9-5.6a4.77,4.77,0,0,1,3.6-1c11.1,1.6,21.2-1.5,30.7-6.7,7.2-4,14.9-7.9,16.4-17.5.3-2.3,1.9-1.2,3.1-1,7.6,1.3,15.2,1.8,22.9.3,9.2-1.7,12-6,10.5-15.2-1.1-6.8-4.1-12.9-6.8-19.5a12.77,12.77,0,0,1,2.8,0c12.7,3.7,22.6-.8,30.3-10.8,8.3-10.8,13.3-23,13.9-36.7.1-1.9.3-3.2,2.7-3,11.4.7,19-5.7,24.8-14.2a244.29,244.29,0,0,0,15.7-26.6c4.4-8.5,5.6-17.5-.7-25.9-1.9-2.6-.1-2.7,1.7-2.7,7.6-.1,11.7-4.8,14.6-11,1.9-4.1,2.6-8.6,3.5-13a40.43,40.43,0,0,1,5.5-14.3c6.1-9.4,7.2-19.6,1.8-29.9-1.3-2.4-.5-3.5,1-5.1a34.25,34.25,0,0,0,8.7-22.3,21.84,21.84,0,0,1,4.4-13.5,14.29,14.29,0,0,0,2.8-8.9,50.74,50.74,0,0,0-10-30.3c-1.9-2.6-1.6-3.7.6-5.5,5.7-4.6,8.6-10.8,9.7-18a189.68,189.68,0,0,0,1.5-38.4c-.5-8.7-5.1-15.6-13.9-17.5-12.7-2.7-25.7-4.2-38.6-.6-16.4,4.5-23.5,13.2-25.3,30-.7,6.8-.6,13.6-.8,20.5-.3,10.3,2.3,19.1,11.2,25.2,1.4,1,2.1,1.8.6,3.5-3.6,4.2-4.8,9.4-5.3,14.8a200.82,200.82,0,0,0-.1,32.9c.4,5.8.8,11.7,3.2,17.1,1.5,3.4.8,5-2.4,6.5-7.4,3.5-13.1,9.1-15.3,17-3.9,14.7-6,29.7-1.8,44.8.5,1.7.6,2.4-1.2,3.4-14.7,8-24.4,19.6-26.5,36.8a67,67,0,0,0,.1,17.9c.4,2.9.5,4.6-3.5,4.2a20.11,20.11,0,0,0-15.7,5.2c-13,11.9-20.4,26.8-22.6,44.2-.3,2.3-.7,3-3,3.3-10.9,1.2-17.2,7.8-20.6,17.8-1.5,4.4-1.4,9.1-2.5,14.1-2.2-1.6-4-3-5.9-4.2-10.4-6.8-21.9-2.2-24.2,9.9a89.42,89.42,0,0,0-.9,8.9c-.7,6.8-.4,13.8-2.4,21.1-1-1.4-1.7-2.1-2.2-2.9-4.5-7.4-8.6-15.1-13.6-22.1-6.7-9.3-17.2-7.9-22.1,2.5-2,4.2-3.2,8.7-4.7,13.2-1.6,4.8-2.6,10-5.4,14.4-1.9-1.2-2.1-3.1-2.7-4.8-2.9-7.3-4.1-15.1-7.5-22.2-5.4-11.3-15.3-12.5-23-2.5-4.1,5.3-6.7,11.5-10.2,17.1-1.4,2.2-2.5,4.9-4.9,6.4-1.3-1.6-1.1-3.1-1.2-4.6-.7-8.5-1.1-17-2.3-25.4s-6.5-12.3-15-12c-4.6.2-8.3,2.2-11.8,4.9-1,.8-1.6,2.2-3.6,1.8-.2-1.9-.2-3.8-.5-5.8-1.5-11.3-5.7-21-17.4-24.4-5.4-1.6-7-3.3-8.2-9a78.34,78.34,0,0,0-17.9-35.8,27,27,0,0,0-15.7-9.1c-2.6-.5-6.3,1.8-7.6-1.2-1-2.3.1-5.5.3-8.4,0-.3.1-.7.1-1,1.5-18.9-6.4-33.6-20.7-45.2-6.4-5.2-6.4-5-5.8-13.3s-.1-16.3-.7-24.4c-1-13.8-6.2-24.8-19-31.1-2.2-1.1-2.6-2.3-1.9-4.7a84.39,84.39,0,0,0,3.7-27.4,136.62,136.62,0,0,1,.1-14.3c.6-8.4.2-17.2-5.7-24.2-1.8-2.1-.6-2.6.8-3.7,6-4.6,10.6-10.2,10.7-18.3.1-8.5.3-17-.2-25.5-.9-14.9-7.1-26.1-22.3-30.9-14.7-4.6-29.4-3.4-43.8.5-7.2,1.9-10.7,8-11.7,15.4-1.2,9.5,0,19,.2,28.4.2,11.5,2,22.7,12.1,30.4,1.1.8,1.9,1.6.4,3.1-6.6,6.7-8.7,15.6-10.5,24.4-1.3,6.3-1,12.6,3.5,18,2.4,2.9,3.1,6.6,3.1,10.3a35,35,0,0,0,9.3,24.1c1.3,1.4,1.6,2.2.5,4.1-5.1,9-5,18.7.2,27.2,4.6,7.5,6.4,15.5,8.3,23.7,2.1,9.1,6,16.8,16.8,17.7,2.1.2,2.6,1,1.3,2.9-6.2,8.8-4.7,17.8,0,26.4s9.5,17.1,15,25.3c5.9,8.7,13.5,15.3,25,14.7,2.2-.1,2.8.7,2.8,2.9-.1,12.1,4.4,22.9,10.8,32.7C132.72,926.37,142.52,932.47,158.92,928.37Z"/><path class="cls-1" d="M220.82,74.57c.7,7.4,1.8,14.8.7,22.4-1.7,11.6-8.9,17.3-20.5,15.8-7-.9-13.5-3.6-20-5.8-1.5,1.7-.2,3,.2,4.3a43.52,43.52,0,0,1,1.2,23.2c-2.5,10.9-10.4,17.5-21.6,17.7H155c4.2,7.3,5.4,14.5,3.7,22.1-3.4,14.8-13.2,24.3-26.2,30.9-3,1.5-3.7,2.6-2.9,5.9,2.8,12.1-1.7,23-6.3,33.7-3,7.1-6.7,13.9-13.7,18-1.8,1.1-1.5,2-.6,3.6,2.7,5,2.3,10,.1,15.3-3,7.4-5,15.2-7.8,22.6-2.2,5.8-4.7,11.4-9.5,15.6-1,.8-1.7,1.5-.7,2.9,6.8,9.3,5.4,20.3,5.7,30.9a96.45,96.45,0,0,1-.6,12c-.6,7-2.5,13.5-7.9,18.3-1.6,1.5-2.5,2.5,0,4a17.78,17.78,0,0,1,7.6,11.4c2.6,11.5,5.4,23,7.3,34.7,2,12.9-2.6,19.9-15,23.8-10.4,3.2-21.1,4.8-32.1,3.5-7.5-.9-13.8-3.9-18.5-9.8a92.52,92.52,0,0,1-16.9-32.1,36.79,36.79,0,0,1,3.3-28.1c1.2-2.3,1.8-3.9-.6-5.9-4.1-3.4-5.3-8.3-6.1-13.3-1.9-12.3-1.3-24.6.4-36.8,1.3-9.5,6.2-16.7,13.3-22.7,2.3-1.9,3.1-3.4,1.2-6.2a20.69,20.69,0,0,1-3.2-11.4c0-11-.1-22,2.8-32.7,2.3-8.7,6.5-15.6,15.2-19.1,2.1-.8,2.4-2.2,2.4-4.3-.2-10.7,2.6-20.1,12.8-25.8,2.1-1.1,2-3.3,2.3-5.2.8-5.7,2-11.1,5.7-15.7a24.82,24.82,0,0,1,7.1-6.2c3-1.7,6-6.9,5.9-10.5a28.87,28.87,0,0,1,2.7-12.6c5.1-11.6,13.3-20.6,23.6-27.8a23,23,0,0,1,13-4c-1.6-3.5-3.4-6.7-4.6-10.1-5.3-14.9,1.6-27.1,16.9-30.3,5.4-1.1,10.9-.9,16.7-1-4.4-9.9-.9-18.3,4.6-25.9,9.5-13.4,21.9-22.6,38.4-25.7,1.5-.3,3.2-.8,4.4-.3,7,2.7,10.8-.9,15.5-5.8,7.5-7.8,18-10.5,28.5-12.1,11.5-1.8,22.9-1.7,33.9,2.8,3.4,1.4,6.2,5.5,9.1,5.6s5.5-4.3,9.1-5.5c21.2-7.1,41.3-4.6,60.3,7.2,3.6,2.2,5.3,7,8.5,8.8,2.9,1.6,7.4-1.7,11.5-.9,21.8,3.8,36.8,16.1,45.6,36.1a16.84,16.84,0,0,1-1,15.8c6.6,0,12.4.1,18.1,1.3,13.3,2.9,20.2,13.9,16.8,27.2a42,42,0,0,1-5.5,12.2c19.1,4.3,29.6,17.7,37.2,34a23.5,23.5,0,0,1,1.4,16.1c-.5,2-.7,3.2,2,3.9,9.6,2.5,14.7,9.4,16.5,18.7,1,5.3,2.3,9.4,7.4,13,6.8,4.8,8.9,13,8.6,21.4-.1,3,.4,4.7,3.5,6.1,6.6,2.9,10.8,8.2,13.1,15,3.8,11.7,3.9,23.9,3.9,36.1a24.1,24.1,0,0,1-3.6,12.4c-1.3,2.1-1.2,3.5.9,5,1.8,1.4,3,3.7,4.6,5.1,9.4,8.1,9.5,19.3,10.5,30.1.9,9.6.8,19.3-1.6,28.8-.8,3-1.6,6-3.9,8-3.6,3-2.9,5.5-1,9.3,5,9.9,4.9,20.3,1.1,30.6a100.26,100.26,0,0,1-14.7,26.6,27.15,27.15,0,0,1-20.5,11,75.72,75.72,0,0,1-34.3-5c-9.1-3.6-13.1-9.5-12-19.1a238.6,238.6,0,0,1,8.2-40,16.44,16.44,0,0,1,7.3-9.8c1.7-1,1.6-1.8.3-2.9-7.2-6.4-8.7-14.9-8.9-24s-.6-18,.8-26.9c.8-4.7,5.4-9,4.6-12.6s-5.5-6.6-7.6-10.7c-5.1-10.4-7.4-21.7-11.6-32.4a13.21,13.21,0,0,1,1.1-11.1c.7-1.3,1.9-2.6,0-3.8-12-8.1-15.8-21-19.6-33.8-2-6.6-2.8-13.4-.3-20.1,1-2.6-.7-2.7-2.2-3.4a51,51,0,0,1-14.9-9.9c-12.3-12.3-17.5-26.1-9.7-42.9-.6-1.3-1.7-.8-2.6-.8-16-.1-24-8-25-24.1-.4-7.1,1.3-13.8,3.5-21.2-5.3,1.7-9.8,3.4-14.4,4.7-18.9,5-28.2-2.4-27.8-22,.1-5.5.9-10.9,1.4-17-4.9,5.7-9,11.6-14.5,16.2a46,46,0,0,1-8.3,5.5c-11.3,5.5-22.1,2.8-29.5-7.5-5.5-7.7-8.7-16.4-11.2-25.5-.4-1.6-.5-3.3-1.7-4.7-1.8,5.3-3.4,10.5-5.2,15.7a53.17,53.17,0,0,1-7.7,14.5c-8.4,11.1-19.6,13.3-31.7,6.2-8.1-4.8-13.8-11.9-19.4-19.2-.4-.4-.4-1.3-1.1-.9C220.52,73,220.82,74,220.82,74.57ZM65.42,455.67c2.7.6,5.2-.3,7.8-.7a40.1,40.1,0,0,0,16.4-3.7c7.1-3.2,9.8-8,8.4-15.7-2-11-4.1-21.9-6.8-32.7-2.8-11.6-7.7-14-19.1-10.4-13.2,4.3-26.4,5.8-39.3-.5-2.6-1.3-3.2.3-4.1,1.9a31.87,31.87,0,0,0-2.2,26.1,89.16,89.16,0,0,0,14.1,26.3C47,454.67,55.42,457.17,65.42,455.67Zm440.9,0c10.9,1.7,19.7-1.6,26-10.8a102.06,102.06,0,0,0,12.5-23.8,32.75,32.75,0,0,0-2-27.5c-.7-1.3-1.1-3-3.6-1.8-13.3,6.5-26.7,5-40.2.4-10.2-3.5-15.6-.8-18.3,9.7-2.8,11.1-4.9,22.4-7.1,33.7-1.2,6.3.7,11.7,6.8,14.7,5.6,2.8,11.6,4.8,18.1,4.6C501.12,455.37,503.62,456.27,506.32,455.67ZM64.22,318c17.5,4.1,24.8,1,30.9-13,4.1-9.3,6.2-19.3,10-28.7a8,8,0,0,0-6-10.8c-14-3.1-26.2-11.3-40.2-14.4a4.77,4.77,0,0,1-2.2-1.2c-4-4.2-7.7-2.2-11.4.4a18.77,18.77,0,0,0-7,10c-3.7,11.1-4,22.6-3.8,34.1A20,20,0,0,0,45.22,312a43.53,43.53,0,0,0,16.4,5.8A24.62,24.62,0,0,1,64.22,318Zm446-.3c2.4-.6,4.9-.9,7.3-1.7,9.6-3.2,18.2-7.9,19.4-19.1,1.4-13.3.7-26.6-4.4-39.3a17.72,17.72,0,0,0-10.2-9.7,4.72,4.72,0,0,0-4.6.2c-12.7,6.9-27,10.1-40,16.3a12.9,12.9,0,0,1-3.9.8c-5.5,1.1-9,5.9-7,11,3.8,9.8,6.1,20.1,10.4,29.7,6,13.5,14.6,16,30.5,12.1C508.42,317.87,509.32,317.77,510.22,317.67Zm-467.7,71.6a7.14,7.14,0,0,0,4.5,1c13.7,1.6,26-2.1,37-10,3.6-2.6,5.5-6.7,6.1-11.1a126.11,126.11,0,0,0,.5-31.9,23.38,23.38,0,0,0-2.3-8.6c-1.4-2.8-3.2-4.2-6.7-3.9-14.8,1.1-28.8-1.8-41.6-9.6-1.2-.8-2.1-1.3-3.4-.1-5.8,5.1-11.3,10.2-12.8,18.4a122.81,122.81,0,0,0-1.3,36.8C23.92,380.77,31.42,387.67,42.52,389.27Zm482.9.6a3.75,3.75,0,0,0,3.8-.7c12.9-2.3,19.1-9.4,20.1-19.3,1.1-10.7.6-21.2-.5-31.9-.9-9.7-5.8-17-13.4-22.7a2.9,2.9,0,0,0-3.9-.2c-12.9,8-27,10.9-42,9.5a5.57,5.57,0,0,0-5.5,2.6,18.75,18.75,0,0,0-2.8,7.9c-1.6,10.4-1.2,20.9-.2,31.3.7,7.2,4,13.1,10.5,16.6C502.22,388.77,513.32,392,525.42,389.87ZM318.22,24.07c-8.9,0-16.6.9-23.6,4.9-3.5,1.9-6.4,4.5-5.9,9,1.6,12.9,4.3,25.7,9.8,37.5,8.9,18.9,22.4,21.2,37.3,6.5,8.5-8.4,14.5-18.6,19.8-29.2,4.8-9.6,3.9-13.6-5.1-19.5C340.52,26.57,329.12,24.37,318.22,24.07Zm-63.5,0a58.64,58.64,0,0,0-14,1.5c-9,2-17.7,4.7-24.3,11.7-3.3,3.5-4.3,7.2-2,11.8,3.4,6.7,6.6,13.4,10.9,19.6,4.9,7.2,10.2,14,17.7,18.8,10.3,6.6,19.4,4.8,26.3-5.2a51,51,0,0,0,5-9.2,119,119,0,0,0,8.3-32.3c.8-6.7-.6-9.7-6.7-12.7C269.52,25,262.62,24.07,254.72,24.07Zm262.5,211.5c-1-5.9-2.1-12.8-7.8-16.1s-7.3-7.6-7.9-13.2a20,20,0,0,0-7.5-14.1c-4.4-3.5-9.5-3.9-13.2-.5a57.87,57.87,0,0,1-24.3,13.2c-7.4,2-10.8,5.4-9.4,16.3,1.2,9.3,4.7,17.9,9,26.2,6.6,12.5,14.9,15.4,27.5,8.9a98.65,98.65,0,0,1,21.3-8.2,36.12,36.12,0,0,0,7.3-3C515.92,243.17,516.92,239.87,517.22,235.57Zm-392-16.1c0-9.4-1.9-12-9.5-14.4-8.2-2.6-15.8-6.1-22.5-11.6-7.6-6.2-14.4-4.8-19.7,3.6-2.6,4.1-3,8.8-3.8,13.3-.5,2.8-1.1,5.9-4,7.1-6.6,2.8-9,8.5-10.4,14.8-1.7,8.1.2,12,8.1,14.6a215,215,0,0,1,29.2,11.3c7,3.4,13.6,2,18.1-3.5C119.52,244.07,123.32,231.47,125.22,219.47Zm29-51.8a18.81,18.81,0,0,0-4.9-13.8,65.6,65.6,0,0,0-21.6-15.7c-4.8-2.1-9.7-2.2-14.3.9-9.8,6.5-17.5,14.9-22.3,25.7-4.7,10.5-2.7,18,6.3,25.1a48.27,48.27,0,0,0,11.1,6.7c6.1,2.6,12.3,6,19.1,4.5C140.62,198.07,153.92,181.07,154.22,167.67Zm296.4-31.1c-1.8.4-3.7.4-5.3,1.1a61.8,61.8,0,0,0-23.5,17.2,18.58,18.58,0,0,0-3.8,15.5c2.6,14.8,12,24,25.1,30.1a10.1,10.1,0,0,0,6.4.5,57,57,0,0,0,27.8-13.7c5.6-5.1,7.4-11.5,4.9-18.6-4.6-13.3-13.3-23.2-25.3-30.4A12.39,12.39,0,0,0,450.62,136.57Zm-95.4-48.2v4c.5,12.6,6.3,17.1,18.6,14.4.5-.1,1-.3,1.4-.4,12.8-3.3,24.1-9.6,35.2-16.4,6.9-4.2,8.3-8.6,4.8-15.9-7.5-15.8-20.1-25.7-36.9-30.4a20.42,20.42,0,0,0-7.4-.4,8.15,8.15,0,0,0-7.5,5.7C359.22,61.77,355.72,74.77,355.22,88.37Zm-138.3,5.1c-.8-18.1-4-29.8-7.4-41.5-2.1-7.2-4.8-10.5-14.2-8.6-18.5,3.8-31.6,15.1-39.4,32.2-2.5,5.5-1,10.1,3.2,12.9,10.8,7,22,13.2,34.3,17.1C210.42,111,217.52,105.37,216.92,93.47Zm209,1.5c-9.6.6-19.5.6-26,9.7a31.67,31.67,0,0,0-6.1,18.7c-.1,17.2,6.2,25.1,21.7,22.5s27.3-11.9,33.3-27c3.6-9,.6-21.8-13.4-23.1C432.22,95.47,429.12,95.07,425.92,95Zm-279.7.1a43.19,43.19,0,0,0-12.4,1.2c-8.3,1.8-13.2,8.9-12,17.4a32.83,32.83,0,0,0,4.5,12.1c3.6,6.1,9.1,10,14.7,14,6.9,5,14.4,7.8,22.9,6.3,6-1,10.7-4,12.6-10.5a37.56,37.56,0,0,0-1.7-25.8c-3.4-7.8-9.1-12.5-17.6-13.8A58.33,58.33,0,0,0,146.22,95.07Z"/><path class="cls-1" d="M158.92,928.37c-16.4,4.1-26.3-2-34.7-15-6.4-9.9-10.9-20.6-10.8-32.7,0-2.1-.6-3-2.8-2.9-11.6.6-19.2-5.9-25-14.7a290.25,290.25,0,0,1-15-25.3c-4.6-8.7-6.1-17.7,0-26.4,1.3-1.8.8-2.7-1.3-2.9-10.8-.9-14.7-8.6-16.8-17.7-1.9-8.2-3.7-16.2-8.3-23.7-5.2-8.5-5.3-18.2-.2-27.2,1.1-1.91.8-2.7-.5-4.1a35.34,35.34,0,0,1-9.3-24.1c0-3.7-.7-7.4-3.1-10.3-4.5-5.4-4.8-11.7-3.5-18,1.8-8.8,3.9-17.6,10.5-24.4,1.5-1.5.7-2.3-.4-3.1-10.1-7.7-11.9-18.9-12.1-30.4-.2-9.5-1.4-19-.2-28.4,1-7.4,4.6-13.5,11.7-15.4,14.4-3.91,29.1-5.1,43.8-.5,15.2,4.79,21.4,16,22.3,30.9.5,8.5.3,17,.2,25.5-.1,8.1-4.7,13.6-10.7,18.3-1.4,1.09-2.6,1.5-.8,3.7,5.9,7,6.3,15.8,5.7,24.2a136.62,136.62,0,0,0-.1,14.3,84.39,84.39,0,0,1-3.7,27.4c-.7,2.4-.4,3.6,1.9,4.7,12.9,6.4,18.1,17.3,19,31.1.6,8.2,1.3,16.3.7,24.4-.6,8.3-.6,8.1,5.8,13.3,14.3,11.6,22.2,26.3,20.7,45.2,0,.3-.1.7-.1,1-.2,2.8-1.3,6.1-.3,8.4,1.3,3,5,.7,7.6,1.2a27,27,0,0,1,15.7,9.1,78.34,78.34,0,0,1,17.9,35.8c1.2,5.7,2.7,7.4,8.2,9,11.7,3.4,15.9,13.2,17.4,24.4.3,1.9.3,3.9.5,5.8,2,.4,2.6-1,3.6-1.8,3.5-2.7,7.2-4.8,11.8-4.9,8.5-.3,13.9,3.6,15,12s1.6,16.9,2.3,25.4c.1,1.5-.1,3,1.2,4.6,2.5-1.5,3.5-4.1,4.9-6.4,3.5-5.6,6.1-11.9,10.2-17.1,7.8-9.9,17.6-8.8,23,2.5,3.4,7.1,4.6,15,7.5,22.2.7,1.69.8,3.59,2.7,4.8,2.8-4.5,3.7-9.6,5.4-14.4,1.5-4.4,2.7-9,4.7-13.2,4.9-10.4,15.4-11.8,22.1-2.5,5.1,7,9.1,14.7,13.6,22.1.5.8,1.1,1.5,2.2,2.9,2-7.4,1.7-14.3,2.4-21.1a86.51,86.51,0,0,1,.9-8.9c2.4-12.1,13.9-16.7,24.2-9.9,1.9,1.3,3.7,2.7,5.9,4.2,1.1-5,1-9.7,2.5-14.1,3.5-9.9,9.7-16.6,20.6-17.8,2.3-.3,2.7-.9,3-3.3,2.2-17.4,9.6-32.3,22.6-44.2a19.75,19.75,0,0,1,15.7-5.2c4,.4,4-1.2,3.5-4.2a67.06,67.06,0,0,1-.1-17.9c2.1-17.2,11.9-28.7,26.5-36.8,1.8-1,1.7-1.6,1.2-3.4-4.1-15.1-2.1-30.1,1.8-44.8,2.1-7.9,7.8-13.5,15.3-17,3.2-1.5,4-3.1,2.4-6.5-2.4-5.4-2.8-11.3-3.2-17.1a200.75,200.75,0,0,1,.1-32.9c.5-5.4,1.7-10.6,5.3-14.8,1.5-1.7.8-2.6-.6-3.5-9-6.1-11.5-14.9-11.2-25.2.2-6.8.1-13.6.8-20.5,1.7-16.9,8.9-25.6,25.3-30,12.9-3.5,25.9-2,38.6.6,8.8,1.9,13.5,8.8,13.9,17.5a190,190,0,0,1-1.5,38.4c-1.1,7.2-4,13.4-9.7,18-2.1,1.7-2.5,2.9-.6,5.5a50.52,50.52,0,0,1,10,30.3,14.29,14.29,0,0,1-2.8,8.9c-3.1,4-4.2,8.4-4.4,13.5a34.05,34.05,0,0,1-8.7,22.3c-1.4,1.6-2.2,2.7-1,5.1,5.4,10.2,4.2,20.4-1.8,29.9a39,39,0,0,0-5.5,14.3c-.8,4.4-1.5,8.9-3.5,13-2.9,6.3-7.1,10.9-14.6,11-1.9,0-3.7.1-1.7,2.7,6.3,8.5,5.1,17.4.7,25.9a285.34,285.34,0,0,1-15.7,26.6c-5.8,8.6-13.4,14.9-24.8,14.2-2.4-.2-2.6,1.1-2.7,3-.6,13.8-5.6,26-13.9,36.7-7.7,9.9-17.6,14.5-30.3,10.8a12.87,12.87,0,0,0-2.8,0c2.8,6.6,5.8,12.7,6.8,19.5,1.5,9.2-1.4,13.5-10.5,15.2-7.6,1.5-15.3.9-22.9-.3-1.2-.2-2.7-1.31-3.1,1-1.5,9.6-9.2,13.5-16.4,17.5-9.5,5.19-19.6,8.3-30.7,6.69a4.81,4.81,0,0,0-3.6,1c-15,10.2-31,12.2-47.9,5.6-1.8-.69-3-.3-4.7.31-16.4,6-32,4.09-46.6-5.5a7.41,7.41,0,0,0-5-1.41c-16.8,1.1-31-4.69-42.8-16.5-1.7-1.69-3.2-3.69-3.2-6.09.1-3.81-1.8-3.31-4.4-2.7a50.78,50.78,0,0,1-24.2-.3c-6.6-1.81-8.7-4.7-8.5-11.5.2-7.7,3.8-14.41,6.5-21.41a9.19,9.19,0,0,1,.4-1.29C159.72,928.27,159.32,928.27,158.92,928.37ZM30.42,615.17c.4,5.8.7,11.6,1.1,17.4A26.8,26.8,0,0,0,43,653.17a6.59,6.59,0,0,0,5.5,1.3,124.71,124.71,0,0,1,29.9-1.2c9.4.6,17.9-4.4,19.1-13.6,1.7-12.9,2.1-26-2-38.5-4.2-12.8-15.5-15.5-26.9-17.1-8.3-1.1-16.6,0-24.9,1.2s-12.5,5.8-13.2,14.4C30.12,604.77,30.42,610,30.42,615.17ZM483,625h.3c0,4-.2,8,0,12,.4,7.9,9.4,18,15.4,17.1,11.6-1.8,23.2-.9,34.8.4,1.4.2,2.6.5,3.8-.4,4.7-3.8,9.5-7.6,11-13.8,3.2-14.2,3.2-28.7,2.2-43.1a11.6,11.6,0,0,0-9-10.8c-11.7-2.7-23.7-3.9-35.6-1-13,3.1-21.1,10.8-22,24.8C483.52,615,483.32,620,483,625Zm34.4,33.7c-5.1,0-9.8-.5-14.4.2-7.6,1.1-11.6,4.2-12.6,11.9a144.6,144.6,0,0,0,1.1,49.1c.9,4.2,2.2,7.2,7.5,5.5,1.6-.5,3.6.1,5.4.6,8,2.2,16.1,4.3,23.8,7.1,3.3,1.2,5,.3,6.7-2,3.8-5.2,6.4-10.9,6.7-17.4.3-5.2.5-10.5,3.8-14.7,4.2-5.3,4.3-11,2.6-17-1.3-4.6-3-9.1-4.7-13.6s-5.3-7.1-10-8.2C527.92,658.77,522.42,659,517.42,658.67Zm-425,36.8c.2-8.5.6-16.7-1.2-24.7s-5.1-11.2-13.2-11.9a119.77,119.77,0,0,0-29.9,1.2c-3.4.6-6.5,2-8.2,5.1a55,55,0,0,0-7.6,24.1,9.82,9.82,0,0,0,2.2,7c3.6,4.9,5,10.3,5.2,16.4a28.93,28.93,0,0,0,7.6,19.1c1.2,1.3,2.2,2.5,4.6,1.7,6.7-2.4,13.6-4.4,20.5-6.3,3.7-1.1,7.4-2.6,11.2-1.7s5.1-1,5.9-4.1C91.82,712.77,93.42,704.07,92.42,695.47Zm378.7,80.2c.2,3.5.1,7,.5,10.5s1.8,7.5,5.9,7.8c8.7.7,16.3,4.3,24.1,7.5,11.8,4.8,18.7.9,21.9-11.5.5-2.1,1-4.2,1.4-6.3a39.53,39.53,0,0,1,6.6-17c3.8-5.3,4.6-11.7,3.5-18.2-.9-5.6-4.2-9.6-9.7-10.9-7-1.7-13.7-4-20.6-6-2.2-.6-4.6-1.3-6.9-.6-11.7,3.6-21.4,9.5-24.4,22.4C471.72,760.67,471.52,768.17,471.12,775.67Zm-361,1.2h.5c-.7-7.3-1.5-14.6-2.2-21.8-1.3-13.8-21.7-29.7-36.8-22.1-4.5,2.3-9.8,3-14.8,4.3-5.5,1.5-9.1,5-10.2,10.5-1.3,7.1-.4,14.1,4,20a28.9,28.9,0,0,1,5.1,11.8c.8,3.6,1.3,7.2,2.3,10.7,3.3,12,8.8,15.1,20.7,11.6a29.59,29.59,0,0,0,5.5-2.4,48.09,48.09,0,0,1,16.1-5.1c7-.9,9-3,9.8-10C110.32,781.87,110.12,779.37,110.12,776.87Zm334.8,65.2c.2,2.8.3,5.7.5,8.5.4,3.8,1.3,6.8,5.8,8s8.2,4.4,11.3,7.9c6,6.9,12.8,7.8,20.3,2.4,4-2.8,7-6.6,9.7-10.6,3.9-5.8,6.4-12.3,10.5-18.1,10.5-15.2,7.8-26-8.1-35.6a5.67,5.67,0,0,0-1.3-.8c-10.3-4.7-21.2-7.4-30.7.2C451.22,813.47,443.22,825.67,444.92,842.07Zm-308.6-.3c.1-15.3-1.8-19.6-14.7-35a18.74,18.74,0,0,0-12.8-6.8,35.05,35.05,0,0,0-23.8,5.4c-13.9,8.8-16.4,19.3-7.6,33.3a163.84,163.84,0,0,1,8.4,14.1c3.4,6.7,7.7,12.9,14.3,16.9,7,4.3,13.5,3.2,18.6-3,2.5-3,5.3-5.8,9-6.9,7.5-2.1,8.8-7.6,8.7-14.1C136.32,844.47,136.32,843.07,136.32,841.77Zm326.3,41a19.74,19.74,0,0,0-2-9.3c-7.1-14.2-30-17.4-40.4-5.6-8,9.2-12.6,20.3-16.3,31.7-1.4,4.2.1,7.9,3,11a52.29,52.29,0,0,0,12.8,10.2c8.3,4.4,16.7,5.4,24.2-1C455.52,910.07,460.12,896.87,462.62,882.77Zm-343.8,2.7c.1,7.9,9.1,26.8,17.8,33.8,6.7,5.4,14,6.3,22,2.9,5.5-2.3,9.9-6.1,14.3-9.9,4.9-4.3,6.1-9.4,3.9-15.3a125.31,125.31,0,0,0-10.7-22.5c-9.9-16-22.7-18.7-38.5-8.5C121.72,869.87,118.82,875.27,118.82,885.47Zm288,73c2.5-.2,5-.2,7.5-.5,8.2-1.2,9.8-3.4,7.8-11.3-2.6-9.9-6.9-19.1-13.7-26.9-9.2-10.6-21.6-8.6-27.4,4.3-2.5,5.5-2.6,11.2-2.8,17.1-.2,6.4,3,10.3,8.3,12.9C392.92,957.37,399.72,958.37,406.82,958.47Zm-232.3-.2a40.44,40.44,0,0,0,20.8-4.3c3.6-1.9,6.8-4.4,7.5-8.7a36.83,36.83,0,0,0-2.6-21.5c-5.6-12.4-17.9-14.4-26.9-4.3a63.26,63.26,0,0,0-14.6,30.2c-.9,4.4.9,7,5.4,7.9A51.49,51.49,0,0,0,174.52,958.27ZM351,983a54.07,54.07,0,0,0,30.5-12.8c5.3-4.4,5.1-6.2.4-11.1l-3-3.3c-4.7-5.2-8.5-11.2-14.2-15.4-8.8-6.4-16.2-3.1-17.5,7.5-1.2,9.6-.6,19.3-2.8,28.8C343.12,982.37,343.72,983.07,351,983Zm-121.4,0c8.1.1,8.6-.6,7.3-6.5a106.5,106.5,0,0,1-1.8-16.9,115,115,0,0,0-1.3-14.4c-1.2-6.8-7.1-9.6-13.5-6.8a24.33,24.33,0,0,0-8.2,6.4c-4.5,5.1-8.7,10.5-13.6,15.3-3.6,3.5-3.1,6.1.1,9A54.76,54.76,0,0,0,229.62,983Zm40.6,9.8c4.8-.2,9.6-.4,14.2-2.2,2.8-1.1,3.9-2.5,2.1-5.6-3.6-6.2-5.3-13.2-7.3-20.1-1.3-4.3-2.3-8.7-5.1-12.4-3-4-6.6-4.3-10.1-.8a31.14,31.14,0,0,0-5.3,7.2c-4.1,7.2-7.6,14.8-13.4,20.9-2.8,3-1.9,4.7,1,6.5C253.72,990.87,261.82,992.37,270.22,992.77Zm40.8-.1c8.5-.2,16.5-1.8,23.7-6.1,2.5-1.5,4.7-3.2,1.5-6.5-4.6-4.7-7.5-10.5-10.7-16.2-2.3-4-4.3-8.3-7.5-11.8-3.9-4.2-8.1-3.9-11.1.9a30,30,0,0,0-3.2,7.3c-2.9,8.8-4.8,18-9.5,26.2-1.4,2.5.7,2.9,2,3.5C300.92,992.37,306,992.57,311,992.67Z"/><path class="cls-5" d="M525.42,389.87c-12.1,2.1-23.2-1.1-33.7-6.8-6.5-3.5-9.8-9.4-10.5-16.6-1.1-10.4-1.5-20.9.2-31.3a18.75,18.75,0,0,1,2.8-7.9,5.24,5.24,0,0,1,5.5-2.6c15,1.4,29.1-1.5,42-9.5,1.6-1,2.5-.8,3.9.2,7.6,5.8,12.4,13,13.4,22.7,1,10.6,1.6,21.2.5,31.9-1.1,9.9-7.2,17-20.1,19.3.5-2.5-.5-4.5-1.8-6.5a90.46,90.46,0,0,1-5.7-9.4c-.8-1.6-2.5-4.1-.3-5.4,5.1-2.9,4.1-6.3,1.9-10.4-1.2-2.3-1.5-5-2.6-7.4-1.2-2.8-.8-5.5,3.4-6.1a16.37,16.37,0,0,0,8.1-3.8c.8-.7,1.4-1.5.4-2.5a1.48,1.48,0,0,0-2.2.1c-4.7,5.5-9.5,3.6-14.6.6-5.9-3.5-6.1-3.3-9.1,2.9-2.2,4.6-4.8,8.4-10.8,7.9-1.5-.1-3.5,0-3,2.1.4,1.5,2.3,2,3.8,1.3,4.4-2,8.7-4.1,12.1-7.6s5.2-3,7.4,1.3c3.6,7.4-1.8,17.1-8.5,19.7-1.6.6-3.7.9-2.9,3.1.6,1.6,2.6,1,4,.6a9.6,9.6,0,0,0,2.7-1.3c3.4-2.9,4.9-1.2,5.7,2.2.8,3.1,1.4,6.2,2.3,9.2C520.92,383.47,521.72,387.47,525.42,389.87Z"/><path class="cls-5" d="M42.52,389.27c-11.1-1.6-18.6-8.5-19.9-19a119.62,119.62,0,0,1,1.3-36.8c1.5-8.2,7-13.3,12.8-18.4,1.4-1.2,2.2-.7,3.4.1,12.8,7.8,26.8,10.7,41.6,9.6,3.5-.3,5.3,1.2,6.7,3.9a28.07,28.07,0,0,1,2.3,8.6,126.18,126.18,0,0,1-.5,31.9c-.6,4.4-2.5,8.5-6.1,11.1-11,8-23.3,11.6-37,10,4.6-5.1,5.3-11.7,7-17.9,1.8-6.6,1.7-6.6,7.6-3.6,1.9,1,4.7,2.5,5.8.2,1.3-2.8-2.2-2.4-3.8-3.1-8.2-3.6-12.2-15.1-7.3-21.3,1.7-2.2,3.2-3.5,5.8-.5,3.5,4.1,8.4,6.5,13.3,8.6,1.4.6,4,1.3,4.5-1.3.4-1.6-1.5-2.3-2.8-2.1-7,.7-10.2-3.5-12.5-9.2-1.5-3.6-3.5-5-7.7-2.6-4.8,2.7-10.2,6.7-15.6.3a1.36,1.36,0,0,0-2.2.1,1.5,1.5,0,0,0,.4,2.5,45.08,45.08,0,0,0,6.3,2.9c5.7,2.1,6,2.8,4.6,8.9-.7,3-2.2,5.5-3.4,8.3-1,2.3-1.5,4.6,1.3,6,3.3,1.7,2.7,4.1,1.4,6.6-1.7,3.2-3.6,6.4-5.5,9.5C43.12,384.77,42,386.77,42.52,389.27Z"/><path class="cls-5" d="M507.52,318c-15.9,3.8-24.5,1.3-30.5-12.1-4.3-9.6-6.5-19.9-10.4-29.7-2-5.1,1.4-9.9,7-11a24.5,24.5,0,0,0,3.9-.8c13-6.3,27.2-9.4,40-16.3a5,5,0,0,1,4.6-.2c4.8,1.9,8.4,5.1,10.2,9.7,5.1,12.6,5.8,26,4.4,39.3-1.2,11.2-9.8,15.9-19.4,19.1a59.53,59.53,0,0,1-7.3,1.7c.1-3.5.3-7,.2-10.5-.1-3.9,1.2-4.9,4.6-2.8,1.8,1.1,3.6,2.3,5.5,3.4,1.3.8,2.6,2.1,5,.1-5.8-2.1-9.3-6.5-13.3-10.4s-2.6-8.6-1.5-12.7c.9-3.4,4.9-2.4,7.8-2.7.8-.1,1.9.4,3.1-1.5-12,1.9-18.8-5.4-25.4-13.3a23.86,23.86,0,0,0,5.9,11.1c4.8,5.2,4.3,9.7-1.6,13.7-2.8,1.9-5.7,3.4-8.6,5.1a22.3,22.3,0,0,0,7.5.9c7,.1,9.7,3.1,8.6,10.1C507.52,311.37,507.52,314.67,507.52,318Z"/><path class="cls-5" d="M61.52,317.57c-5.9-.6-11.3-2.9-16.4-5.8a20.08,20.08,0,0,1-10.7-17.6c-.3-11.5,0-23,3.8-34.1a19.32,19.32,0,0,1,7-10c3.7-2.6,7.4-4.7,11.4-.4a4.32,4.32,0,0,0,2.2,1.2c14,3.2,26.2,11.3,40.2,14.4a8,8,0,0,1,6,10.8c-3.8,9.4-5.9,19.4-10,28.7-6.1,14-13.5,17.1-30.9,13a56.52,56.52,0,0,0-.6-10.9c-.9-6,1.5-8.7,7.6-9.1,2.5-.2,5.2.6,7.9-.6-1.7-2.3-4.1-2.8-6-4-8.2-5.4-8.7-8.8-2.4-16.3,2.3-2.7,4.8-5.5,5.2-10.9-3.1,3.5-5.2,6-7.5,8.4s-4.9,5-8.6,5.5c-3,.4-6.1.8-9.1,1.3,2.2.8,4.4.8,6.5,1.2,1.5.3,3.7,0,4,2.3.7,4.9,1.6,9.9-2.8,13.9-3.7,3.3-6.8,7.4-11.5,9.7,3.7.2,6.2-1.9,9-3.4,1.4-.8,2.8-2.4,4.5-1.5s.8,3,.9,4.6C61.52,311.27,61.52,314.47,61.52,317.57Z"/><path class="cls-5" d="M498.52,455c-6.5.2-12.4-1.8-18.1-4.6-6-3-8-8.4-6.8-14.7,2.1-11.3,4.3-22.5,7.1-33.7,2.6-10.5,8-13.1,18.3-9.7,13.5,4.6,26.9,6.1,40.2-.4,2.5-1.2,2.9.5,3.6,1.8,4.8,8.8,5.3,18.1,2,27.5a104.08,104.08,0,0,1-12.5,23.8c-6.4,9.2-15.1,12.5-26,10.8a79.52,79.52,0,0,1-.8-8.4c-.1-11,1.9-13,12.2-12,.4-2.3-1.5-3.5-2.3-5.3-3-6.1-1.3-9.1,5.2-9.1,1.2,0,2.3.1,3.5,0,1.4-.2,4,.9,3.7-1.7-.2-1.8-2.4-1-3.9-.8-5.2.6-7.3-1.2-7.6-6.4v-3.5c0-2.8-1.4-6-3.6-5.7-2.9.5-1,3.7-.6,5.8.9,5-.9,6.9-5.9,6.2-2.1-.3-4.3-1.4-6.6.2a10.72,10.72,0,0,0,6,3c1.7.3,2.4,1.4,2.7,3.1,1.7,8.6,0,12-7.9,15.9-.7.4-1.5.7-2.2,1.1-2.4,1.5-4.1,2.9,0,4.4,3.8,1.4,3.7,4.3,2.5,7.4A31.65,31.65,0,0,1,498.52,455Z"/><path class="cls-5" d="M65.42,455.67c-10,1.5-18.4-1-24.7-9.3a91.54,91.54,0,0,1-14.1-26.3,32.59,32.59,0,0,1,2.2-26.1c.9-1.6,1.4-3.2,4.1-1.9,13,6.4,26.1,4.8,39.3.5,11.4-3.7,16.2-1.2,19.1,10.4,2.7,10.8,4.8,21.8,6.8,32.7,1.4,7.7-1.4,12.5-8.4,15.7a38.9,38.9,0,0,1-16.4,3.7,13.89,13.89,0,0,0-.6-1.9c-3.6-6.4-3.6-6.8,2.2-11.1,2.2-1.7.6-2.6-.6-3.3-2.4-1.5-5-2.6-7.4-4.1-5.4-3.2-3-8.6-3.4-13.1-.3-3.7,3-3.2,5.1-4.2,1.2-.6,3-.7,3.3-2.8a16.25,16.25,0,0,0-1.9-.4c-10.2.7-10.3.7-9.3-9.6.1-.8.6-1.7-.4-2.2a1.9,1.9,0,0,0-2.2.7c-2,2-2.6,4.5-2.7,7.3-.1,7.1-.8,7.7-7.7,7.8a13.35,13.35,0,0,0-2,0c-.9.1-1.8.3-1.6,1.4a1.89,1.89,0,0,0,1.4,1.2,47,47,0,0,0,7.5.2c3.9-.4,4.9,1.5,4.7,5s-2.8,6.2-3.9,9.9c1.5-.3,2.5-.6,3.4-.8,6.4-1.4,7-.8,8.6,5.8C66.92,445.87,66,450.77,65.42,455.67Z"/><path class="cls-5" d="M318.22,24.07c10.9.4,22.3,2.5,32.3,9.1,9,5.9,9.9,9.9,5.1,19.5-5.3,10.6-11.3,20.8-19.8,29.2-14.9,14.7-28.4,12.4-37.3-6.5-5.6-11.9-8.2-24.6-9.8-37.5-.6-4.5,2.4-7.1,5.9-9C301.62,25,309.42,24.07,318.22,24.07Zm-16.5,16.1c15-.4,28.9-.9,42.9,5.3C337.22,32.57,315.42,30.07,301.72,40.17Z"/><path class="cls-5" d="M254.72,24.07c7.9,0,14.8,1,21.2,4.1,6.1,3,7.5,5.9,6.7,12.7a124.84,124.84,0,0,1-8.3,32.3,48.34,48.34,0,0,1-5,9.2c-7,10-16,11.8-26.3,5.2-7.5-4.8-12.8-11.6-17.7-18.8-4.2-6.2-7.5-12.9-10.9-19.6-2.3-4.6-1.4-8.3,2-11.8,6.6-7,15.3-9.8,24.3-11.7A50.2,50.2,0,0,1,254.72,24.07ZM227.22,45c13.4-5.6,27.5-5.2,41.5-5.3C255.82,30.07,236.52,32.47,227.22,45Z"/><path class="cls-5" d="M517.22,235.57c-.3,4.3-1.3,7.6-5.1,9.5a33,33,0,0,1-7.3,3,96.7,96.7,0,0,0-21.3,8.2c-12.6,6.5-20.9,3.6-27.5-8.9-4.4-8.3-7.9-16.9-9-26.2-1.4-11,2-14.4,9.4-16.3a57.87,57.87,0,0,0,24.3-13.2c3.7-3.4,8.8-3,13.2.5a20,20,0,0,1,7.5,14.1c.6,5.6,2.2,10,7.9,13.2S516.22,229.67,517.22,235.57Zm-50.5-7.4c1.9-.4,3-.7,4.1-1,9.9-2.3,11-1.2,8.3,8.6-.8,2.8-3.3,7.2-.9,8.1,3.3,1.3,4.5-3.4,5.8-6.1s2.5-2.5,4.4-.6a23.62,23.62,0,0,0,4.8,3.5c1.1.6,2.4,1.8,3.6.5s-.3-2.4-1.1-3.4c-1.6-2-3.9-3-6-4.4-6.1-3.8-7.4-7.6-4.8-14.3.5-1.4,1.4-2.7,1.9-4.1.5-1.2,2-2.4.8-3.6s-2.4.3-3.4,1c-2.1,1.4-3.6,1.4-4.2-1.5a29.4,29.4,0,0,0-1.2-3.5c-.8,4.8-.7,9-2.3,12.5C474.82,223.67,469.22,223.37,466.72,228.17Z"/><path class="cls-5" d="M125.22,219.47c-1.9,12-5.7,24.6-14.4,35.2-4.5,5.5-11.1,6.9-18.1,3.5a215,215,0,0,0-29.2-11.3c-7.9-2.6-9.8-6.5-8.1-14.6,1.4-6.3,3.7-12,10.4-14.8,2.9-1.2,3.4-4.3,4-7.1.9-4.5,1.2-9.2,3.8-13.3,5.3-8.4,12.1-9.7,19.7-3.6a67.85,67.85,0,0,0,22.5,11.6C123.32,207.37,125.22,210,125.22,219.47Zm-40.7-8.4c.1,4,2.1,6.6,3,9.5,1.8,5.9.8,9-4.3,12.3a67.35,67.35,0,0,0-6.2,4.2c-1.2,1-3.3,2.2-2.1,4,1,1.5,3.2.3,4-.5,5.5-5.6,9.2-4.3,12,2.5.4.9,1.6,2.1,2.9,1.3,1.1-.7.7-2.1.5-3.2-.7-3.2-1.6-6.4-2.3-9.7-1-4.7.5-6.1,5.2-5.2,2.4.5,4.6,2.1,7.6,1.4-3.5-3.6-10.8-15.7-12.3-20.8C92.72,215.07,88.82,213.57,84.52,211.07Z"/><path class="cls-5" d="M154.22,167.67c-.3,13.4-13.6,30.3-26.5,33.2-6.9,1.5-13-1.9-19.1-4.5a48.27,48.27,0,0,1-11.1-6.7c-9-7.1-11-14.6-6.3-25.1,4.8-10.8,12.5-19.1,22.3-25.7,4.6-3.1,9.6-3,14.3-.9a66,66,0,0,1,21.6,15.7A20.43,20.43,0,0,1,154.22,167.67Zm-50,.8a8.82,8.82,0,0,0,4.6,5.8,10,10,0,0,1,4.4,5.3c.9,2.3,1.4,6.1,3.9,5.6,2.8-.5,1.2-4.2,1.2-6.5.1-8.7,5.7-12.6,13.3-9.2.9.4,1.9,1,2.8.2,1.3-1.2-.1-2.1-.6-3-1.1-1.9-3.6-2.8-3.5-5.7s1.4-7.3-1.9-7.8c-2.6-.4-2.1,4.5-3,7-1.8,5.2-5.6,8.5-10.3,11-3.7,2-6.2-1.2-9.2-2.2C105.42,168.77,104.82,168.67,104.22,168.47Z"/><path class="cls-5" d="M450.62,136.57a11.48,11.48,0,0,1,6.3,1.7c12,7.2,20.7,17.1,25.3,30.4,2.5,7.1.7,13.6-4.9,18.6a57.44,57.44,0,0,1-27.8,13.7,10.1,10.1,0,0,1-6.4-.5c-13.1-6.1-22.5-15.3-25.1-30.1-1-5.8.2-11.2,3.8-15.5a61.8,61.8,0,0,1,23.5-17.2C446.92,137,448.82,137,450.62,136.57Zm17.4,32.3c-1.8-.6-2.9.3-3.8,1.1-3.9,3.2-7.4,1.9-10.9-.7a19.62,19.62,0,0,1-7.9-12.8c-.2-1.4-.2-3.5-2-3.5s-1.9,2.2-1.9,3.6c.1,3.9.1,7.6-3.7,10.1-.7.5-1.7,2-.4,3,1,.9,2.3.3,3.2-.5,3.9-3.3,6.9-1.2,10.1,1.5,4,3.3,2.5,7.6,2.8,11.6.1,1.1-.5,2.6.9,3.1,1.7.6,2.6-1,2.8-2.2,1.3-5.5,5.5-8.5,9.5-11.7C467.42,171,468.42,170.37,468,168.87Z"/><path class="cls-5" d="M355.22,88.37c.5-13.6,4-26.6,8.2-39.5a8,8,0,0,1,7.5-5.7,20.29,20.29,0,0,1,7.4.4c16.7,4.7,29.3,14.6,36.9,30.4,3.5,7.3,2.1,11.7-4.8,15.9-11.1,6.8-22.4,13.1-35.2,16.4-.5.1-1,.3-1.4.4-12.2,2.7-18.1-1.8-18.6-14.4Zm48.5-7c1.3-13.6-17.2-26.6-31.2-22.2C384.92,64,395.22,70.67,403.72,81.37Z"/><path class="cls-5" d="M216.92,93.47c.6,11.9-6.5,17.5-23.4,12.1-12.3-3.9-23.6-10.1-34.3-17.1-4.2-2.8-5.7-7.4-3.2-12.9,7.8-17.1,20.8-28.4,39.4-32.2,9.4-1.9,12.1,1.5,14.2,8.6C212.92,63.67,216.12,75.37,216.92,93.47Zm-49.2-12.1c8.7-10.5,19.1-17.3,31.6-22.6C183.32,56,168.22,66.67,167.72,81.37Z"/><path class="cls-5" d="M425.92,95c3.2.1,6.3.5,9.5.8,14.1,1.3,17,14.1,13.4,23.1-6,15.1-17.8,24.4-33.3,27s-21.8-5.3-21.7-22.5a31.9,31.9,0,0,1,6.1-18.7C406.52,95.57,416.32,95.57,425.92,95Z"/><path class="cls-5" d="M146.22,95.07c3.7-.3,7.3.4,10.9.9,8.5,1.3,14.3,6,17.6,13.8a37,37,0,0,1,1.7,25.8c-1.9,6.5-6.6,9.5-12.6,10.5-8.5,1.4-16-1.3-22.9-6.3-5.5-4-11.1-7.9-14.7-14a31.16,31.16,0,0,1-4.5-12.1c-1.1-8.5,3.7-15.6,12-17.4A44.23,44.23,0,0,1,146.22,95.07Z"/><path class="cls-4" d="M42.52,389.27c-.5-2.5.5-4.5,1.8-6.5,1.9-3.1,3.8-6.2,5.5-9.5,1.3-2.5,1.9-4.9-1.4-6.6-2.8-1.4-2.2-3.7-1.3-6,1.2-2.7,2.7-5.3,3.4-8.3,1.4-6.1,1.1-6.8-4.6-8.9a45.08,45.08,0,0,1-6.3-2.9,1.5,1.5,0,0,1-.4-2.5,1.36,1.36,0,0,1,2.2-.1c5.3,6.4,10.7,2.3,15.6-.3,4.2-2.4,6.3-1,7.7,2.6,2.3,5.7,5.5,9.9,12.5,9.2,1.3-.1,3.1.5,2.8,2.1-.6,2.6-3.1,1.9-4.5,1.3-4.9-2.1-9.8-4.6-13.3-8.6-2.6-3-4.1-1.7-5.8.5-4.9,6.2-.9,17.7,7.3,21.3,1.6.7,5,.3,3.8,3.1-1.1,2.3-3.8.8-5.8-.2-5.9-3-5.9-3-7.6,3.6-1.7,6.2-2.5,12.8-7,17.9A10.49,10.49,0,0,1,42.52,389.27Z"/><path class="cls-4" d="M525.42,389.87c-3.7-2.4-4.5-6.4-5.7-10.2-.9-3-1.6-6.1-2.3-9.2-.9-3.4-2.4-5.1-5.7-2.2a7.54,7.54,0,0,1-2.7,1.3c-1.4.5-3.4,1.1-4-.6-.8-2.2,1.3-2.5,2.9-3.1,6.7-2.5,12.2-12.3,8.5-19.7-2.1-4.3-4.1-4.7-7.4-1.3-3.4,3.6-7.8,5.6-12.1,7.6-1.5.7-3.4.2-3.8-1.3-.6-2.2,1.5-2.3,3-2.1,5.9.5,8.6-3.3,10.8-7.9,3-6.3,3.2-6.4,9.1-2.9,5.1,3,9.9,4.9,14.6-.6a1.48,1.48,0,0,1,2.2-.1c.9,1,.4,1.8-.4,2.5a16.43,16.43,0,0,1-8.1,3.8c-4.1.6-4.6,3.3-3.4,6.1,1.1,2.5,1.4,5.1,2.6,7.4,2.1,4.2,3.1,7.5-1.9,10.4-2.2,1.3-.5,3.8.3,5.4a90.46,90.46,0,0,0,5.7,9.4c1.3,2,2.3,4.1,1.8,6.5A4.24,4.24,0,0,1,525.42,389.87Z"/><path class="cls-4" d="M498.52,455c.8-1.6,1.7-3.2,2.4-4.9,1.1-3.1,1.2-6-2.5-7.4-4.1-1.5-2.4-3,0-4.4a22.56,22.56,0,0,1,2.2-1.1c7.9-3.9,9.6-7.3,7.9-15.9-.3-1.7-1-2.8-2.7-3.1a10.72,10.72,0,0,1-6-3c2.3-1.6,4.5-.5,6.6-.2,5,.7,6.8-1.2,5.9-6.2-.4-2-2.3-5.3.6-5.8,2.3-.4,3.6,2.9,3.6,5.7v3.5c.2,5.3,2.4,7.1,7.6,6.4,1.4-.2,3.7-1,3.9.8.3,2.6-2.3,1.5-3.7,1.7a20.44,20.44,0,0,1-3.5,0c-6.5,0-8.2,3-5.2,9.1.8,1.7,2.7,3,2.3,5.3-10.3-1-12.4.9-12.2,12a79.52,79.52,0,0,0,.8,8.4C503.62,456.27,501.12,455.37,498.52,455Z"/><path class="cls-4" d="M65.42,455.67c.6-4.9,1.5-9.8.2-14.8-1.6-6.6-2.2-7.2-8.6-5.8-.9.2-1.9.4-3.4.8,1.1-3.8,3.8-6.4,3.9-9.9s-.8-5.4-4.7-5a47,47,0,0,1-7.5-.2,1.89,1.89,0,0,1-1.4-1.2c-.2-1,.8-1.3,1.6-1.4h2c6.9-.1,7.6-.7,7.7-7.8.1-2.8.6-5.3,2.7-7.3a1.9,1.9,0,0,1,2.2-.7c1,.5.5,1.4.4,2.2-1,10.2-1,10.2,9.3,9.6a7.19,7.19,0,0,1,1.9.4c-.3,2.2-2,2.2-3.3,2.8-2.1,1-5.4.5-5.1,4.2.4,4.6-2,9.9,3.4,13.1,2.4,1.4,5,2.6,7.4,4.1,1.1.7,2.8,1.6.6,3.3-5.8,4.3-5.8,4.6-2.2,11.1a10.56,10.56,0,0,1,.6,1.9C70.62,455.37,68.12,456.27,65.42,455.67Z"/><path class="cls-4" d="M507.52,318a54.77,54.77,0,0,1,.5-9.9c1.1-7-1.5-10-8.6-10.1a22,22,0,0,1-7.5-.9c2.9-1.7,5.9-3.2,8.6-5.1,5.9-4,6.4-8.5,1.6-13.7a23.38,23.38,0,0,1-5.9-11.1c6.5,8,13.4,15.2,25.4,13.3-1.2,1.9-2.3,1.4-3.1,1.5-2.9.3-6.9-.8-7.8,2.7-1.1,4.1-2.4,8.8,1.5,12.7s7.5,8.3,13.3,10.4c-2.3,2-3.6.7-5-.1-1.8-1.1-3.6-2.3-5.5-3.4-3.4-2.1-4.8-1.1-4.6,2.8.1,3.5-.1,7-.2,10.5A25.12,25.12,0,0,1,507.52,318Z"/><path class="cls-4" d="M61.52,317.57c-.1-3.2,0-6.3-.2-9.5-.1-1.6.8-3.6-.9-4.6s-3,.7-4.5,1.5c-2.8,1.5-5.4,3.6-9,3.4,4.7-2.3,7.8-6.4,11.5-9.7,4.4-4,3.6-8.9,2.8-13.9-.3-2.2-2.5-2-4-2.3-2.1-.5-4.3-.5-6.5-1.2,3-.4,6.1-.9,9.1-1.3,3.7-.5,6.2-3,8.6-5.5,2.2-2.4,4.3-4.9,7.5-8.4-.4,5.4-2.9,8.2-5.2,10.9-6.3,7.4-5.8,10.9,2.4,16.3,1.9,1.2,4.3,1.8,6,4-2.7,1.3-5.3.5-7.9.6-6,.4-8.5,3-7.6,9.1a57.41,57.41,0,0,1,.6,10.9A12.41,12.41,0,0,1,61.52,317.57Z"/><path class="cls-4" d="M220.82,74.57c-.1-.6-.4-1.5-.2-1.7.8-.5.8.5,1.1.9A8.18,8.18,0,0,1,220.82,74.57Z"/><path class="cls-5" d="M30.42,615.17c0-5.2-.3-10.3.1-15.5.7-8.6,4.9-13.2,13.2-14.4s16.6-2.3,24.9-1.2c11.4,1.6,22.8,4.3,26.9,17.1,4.1,12.6,3.7,25.7,2,38.5-1.2,9.2-9.8,14.3-19.1,13.6a124.71,124.71,0,0,0-29.9,1.2,6.77,6.77,0,0,1-5.5-1.3,26.52,26.52,0,0,1-11.5-20.6C31.12,626.77,30.82,621,30.42,615.17Zm50.3,1.5c-3.6.4-6.2,3-10,2.6-2.2-.3-3.7-.6-2.5-3.2,3.5-7.8,1.4-16.8,6.1-24.8-4.4.5-6.2,3.5-8.8,5.4-3.1,2.2-6.1-1.3-9.6-1.3,7.6,10.1,7.4,12.8-1.3,21.3-2.3,2.3-2.7,3.9,1,5.3a12.68,12.68,0,0,1,8.3,10.5c.6,4.3-3.6,6.9-6.9,9.1-2.5,1.7-5.4,3.1-8.1,4.6,5.7.2,9.7-3.1,13.6-6.3,3-2.5,5.4-3.7,8.2-.1.7.8,1.8,1.8,3,.6.9-.8.3-1.9-.2-2.7-1.4-2.4-2.8-4.9-4.4-7.2-3.5-5.2-3.4-5.4,2.5-8C75,621.07,78.22,619.47,80.72,616.67Z"/><path class="cls-5" d="M483,625c.3-5,.5-10,.8-14.9.9-13.9,9-21.7,22-24.8,11.9-2.8,23.8-1.7,35.6,1,5.4,1.2,8.6,5.4,9,10.8,1.1,14.4,1,28.9-2.2,43.1-1.4,6.2-6.2,10-11,13.8-1.2.9-2.4.6-3.8.4-11.6-1.3-23.1-2.2-34.8-.4-6,.9-15-9.2-15.4-17.1-.2-4,0-8,0-12C483.22,625,483.12,625,483,625Zm49.2,21.7a56.54,56.54,0,0,1-11.4-7.9c-2.3-2.2-4.7-4.8-3-8.3a18,18,0,0,1,7.6-8.3c4.6-2.4,4.6-3,.4-6.2-6.8-5.2-7.6-10.6-2.4-17.5.6-.8,2-1.4.8-3.4-6.8,6.2-10.9-1.4-17.1-4.4,1.2,3.3,2.3,5.4,2.7,7.5,1.1,6,.7,12.3,3.2,18.1.9,2.1-.7,2.7-2.7,2.9-4,.3-7-2.2-11.4-4.1,3.2,5.1,7.5,6.2,11.4,7.8,4.4,1.8,4.8,3.6,2.1,7.3-2.4,3.4-5.5,6.5-5.8,11a2.16,2.16,0,0,0,2.9-.7c3.6-4.1,6.6-3,10.3.4C523.32,644,527.32,646.47,532.22,646.67Zm-4.4-53.2a10.54,10.54,0,0,0-.7,1.1c.3.1.7.4.8.3a7.64,7.64,0,0,0,.9-.9A9.25,9.25,0,0,1,527.82,593.47Z"/><path class="cls-5" d="M517.42,658.67c5,.4,10.5.1,15.9,1.4,4.7,1.1,8.2,3.6,10,8.2s3.4,9,4.7,13.6c1.7,6,1.6,11.7-2.6,17-3.3,4.2-3.6,9.6-3.8,14.7-.3,6.6-2.9,12.2-6.7,17.4-1.7,2.3-3.3,3.2-6.7,2-7.8-2.8-15.9-4.8-23.8-7.1-1.7-.5-3.8-1.1-5.4-.6-5.3,1.7-6.7-1.3-7.5-5.5a144.6,144.6,0,0,1-1.1-49.1c1.1-7.7,5-10.8,12.6-11.9C507.62,658.17,512.32,658.57,517.42,658.67Zm-21.1,29.7c17.8,3.7,14.2,18.2,15.8,30.1,2-3,2.3-6.2,2.1-9.5a6.31,6.31,0,0,1,3.7-6.5c2.8-1.4,4.6.7,6.6,2.3,1.7,1.3,2.7,3.6,6.1,4-3.2-4.8-7.2-8.1-8.5-13-1.3-4.7.5-8,5.4-8.5a53.58,53.58,0,0,1,8,.1c1.1.1,2.5.7,2.8-1a2.26,2.26,0,0,0-1.8-2.6c-2.1-.4-4.3-.5-6.4-.8-5.2-.8-6-2-4.5-6.9.8-2.7,1.6-5.3.5-8.1-1.9.3-2.2,1.7-2.7,2.9-2.5,6.5-5,13.1-5.9,20-.2,1.8-.1,4-2,4.8-2.4,1-3.6-1.4-4.7-2.8C507.12,688.27,502.32,687.67,496.32,688.37Z"/><path class="cls-5" d="M92.42,695.47c1.1,8.6-.6,17.2-2.9,25.8-.8,3.2-2.1,5-5.9,4.1s-7.6.6-11.2,1.7c-6.9,2-13.7,4-20.5,6.3-2.4.8-3.4-.3-4.6-1.7a28.93,28.93,0,0,1-7.6-19.1,27.58,27.58,0,0,0-5.2-16.4,11,11,0,0,1-2.2-7,55.87,55.87,0,0,1,7.6-24.1c1.8-3.1,4.8-4.5,8.2-5.1a115.2,115.2,0,0,1,29.9-1.2c8.1.7,11.5,4,13.2,11.9C93,678.87,92.52,687,92.42,695.47Zm-36.6-27.9c-1.6,3.3-1.6,3.3-.4,6.6,2.3,6.2.7,8.6-6.1,9a26.93,26.93,0,0,0-4,.3c-1.3.3-2.7,1.1-2.5,2.7.2,2,1.7,1.4,3.1,1.2a19.16,19.16,0,0,1,7.9.3c5.5,1.5,7,4.2,4.9,9.5a26.24,26.24,0,0,1-3,5.1c-1.3,2-2.8,3.9-4.8,6.5,3.1-.3,4-2,5.3-3.1,2.1-1.8,3.6-4.7,7.1-3.1s4.2,4.4,4.1,7.8a13,13,0,0,0,2.6,9.2c.7-7.3-.1-13.5,1.3-19.5,1.7-7.3,8.4-8.6,14.4-11.7-6.7-1.4-9.7-.2-15.6,5.5-1.2,1.1-2.2,2.9-4.1,2-1.6-.7-1.4-2.4-1.7-3.9C62.22,683.67,60.92,675.07,55.82,667.57Z"/><path class="cls-5" d="M471.12,775.67c.5-7.5.6-15,2.4-22.3,3-12.9,12.7-18.8,24.4-22.4,2.3-.7,4.6-.1,6.9.6,6.9,2,13.6,4.3,20.6,6,5.5,1.3,8.7,5.4,9.7,10.9,1.1,6.5.2,12.9-3.5,18.2a39.53,39.53,0,0,0-6.6,17c-.4,2.1-.8,4.2-1.4,6.3-3.2,12.3-10.1,16.3-21.9,11.5-7.9-3.2-15.4-6.8-24.1-7.5-4-.3-5.4-4.2-5.9-7.8A74,74,0,0,1,471.12,775.67Zm29.7-34.9c4.5,3.3,2.9,7.3,1.9,11.3-2.3,9.3-2.6,9.5-11.6,5.5-2-.9-4-2.1-7-.2,2.2,1.1,3.6,1.9,5.1,2.5,7.8,3.2,9.2,6,6.9,13.7-1.8,5.9-2.5,11.8-.8,17.8,2.5-6.7,2.9-14,6.6-20.1,4.2-6.9,12-6.2,19-6.8-2.8-2-5.6-2.2-8.4-2.2-5.2-.1-6-1.5-3.2-5.9,1.3-2.1,3.3-3.7,4.9-5.6,1-1.2,3-1.7,2.7-3.8-1.8-.6-2.8.9-3.9,1.7-3.3,2.1-5.3,2.6-5.7-2.5C506.92,743,504.62,740.87,500.82,740.77Z"/><path class="cls-5" d="M110.12,776.87c0,2.5.2,5,0,7.5-.7,7.1-2.8,9.1-9.8,10a50.47,50.47,0,0,0-16.1,5.1,38.17,38.17,0,0,1-5.5,2.4c-11.9,3.4-17.5.3-20.7-11.6-1-3.5-1.6-7.1-2.3-10.7a29.49,29.49,0,0,0-5.1-11.8c-4.4-5.9-5.3-12.9-4-20,1-5.5,4.7-9,10.2-10.5,5-1.3,10.3-2.1,14.8-4.3,15.2-7.6,35.6,8.3,36.8,22.1.7,7.3,1.5,14.6,2.2,21.8Zm-24.2,14.7c1.8-3.8,1.9-7.9.6-13.7-2.9-12.4-2.9-12.4,8-19,.7-.4,1.6-.8,1.3-1.8s-1.4-.9-2.1-.7a76.08,76.08,0,0,0-7.9,3.1c-2.8,1.3-4.9.9-5.7-2.4-1.3-5.4-5.9-11,1.2-16.2-5.2.2-6.7,1.3-7.1,5.6s-2.3,4.3-5.3,2.6c-1.6-.9-2.9-2.6-5.5-2,3.4,3.8,7.4,6.3,9.6,10.6,1.6,3.29.7,4.7-2.8,4.7s-7,0-10.3,1.8c1.1,1.29,2.1,1,3.1,1,13.9.5,16,2.29,19.8,15.5C83.92,784.17,83.62,788.17,85.92,791.57Z"/><path class="cls-5" d="M444.92,842.07c-1.8-16.4,6.2-28.5,18-38,9.5-7.6,20.4-4.9,30.7-.2a5.67,5.67,0,0,1,1.3.8c15.9,9.6,18.6,20.4,8.1,35.6-4,5.8-6.6,12.3-10.5,18.1-2.7,4-5.7,7.8-9.7,10.6-7.5,5.3-14.2,4.4-20.3-2.4-3.1-3.5-6.8-6.7-11.3-7.9s-5.4-4.3-5.8-8C445.22,847.67,445.12,844.87,444.92,842.07Zm32.6,9.7c-3.8-2.6-4.5-6.6-2.6-8.6,3.5-3.8,3.5-8,4.1-12.4.7-4.7,4-7,7.5-9.4.8-.5,1.9-1.2,1.4-2.4s-1.7-.6-2.6-.3c-4.3,1.3-8.6,1.9-12.1-2.6.8,4.1,3.8,6.9,2.6,11.1-1.5,5.4-3,10.4-8.1,13.7-2.2,1.4-6.3,3.9.2,5.5,1.4.4,2,1.6,2.8,2.8C471.92,851.17,473.72,852.37,477.52,851.77Z"/><path class="cls-5" d="M136.32,841.77v4c.1,6.5-1.2,12-8.7,14.1-3.7,1-6.5,3.9-9,6.9-5.2,6.3-11.6,7.3-18.6,3-6.6-4.1-10.9-10.2-14.3-16.9-2.5-4.9-5.5-9.4-8.4-14.1-8.8-14-6.3-24.5,7.6-33.3a35.05,35.05,0,0,1,23.8-5.4,19.14,19.14,0,0,1,12.8,6.8C134.52,822.17,136.42,826.47,136.32,841.77Zm-32.4,10c3.7,1,6.1.1,7.4-3a3.52,3.52,0,0,1,3.2-2.6c1.1-.1,2.5,0,2.6-1.6.1-1.4-1.1-1.9-2-2.6-3.8-3-7-6.2-8.6-11.2-1.7-5.4-.9-9.8,2.4-14.6-3.9,2.1-7,5.1-11.5,2.9-1-.5-2.7-1.6-3.5.1-.7,1.5,1,2.4,2,3,5.7,3.2,7.1,8.4,7.3,14.3a7.68,7.68,0,0,0,1.8,5C108.62,845.37,108.42,847.57,103.92,851.77Z"/><path class="cls-5" d="M462.62,882.77c-2.5,14.1-7.2,27.3-18.6,37-7.6,6.4-16,5.5-24.2,1a48.8,48.8,0,0,1-12.8-10.2c-2.9-3.1-4.4-6.8-3-11,3.7-11.4,8.3-22.5,16.3-31.7,10.4-11.9,33.2-8.6,40.4,5.6A21,21,0,0,1,462.62,882.77Zm-27.3-10.4c-1.4,1.9-.8,3.5-.6,5.1,1.8,11.4-.8,15.1-12,17.5-3.5.7-8.9,1.2-8.2,5.1.5,2.7,5.8.6,8.9-.2,1.4-.4,3-1.5,4.2-.2s-.2,2.8-.6,4.1-1.4,3.1-.3,4.2c1.6,1.5,2.5-.8,3.7-1.4a8.59,8.59,0,0,0,4.4-5.8c2.1-7.5,5.2-13.8,14.3-14a.76.76,0,0,0,.5-.2c.4-.5,1.1-.9,1.1-1.4.1-.71-.6-1.1-1.4-1.1h-3.5c-7.6.2-7.6.2-8.9-7.3A5.11,5.11,0,0,0,435.32,872.37Z"/><path class="cls-5" d="M118.82,885.47c0-10.1,2.9-15.6,8.8-19.4,15.8-10.2,28.5-7.5,38.5,8.5a125.31,125.31,0,0,1,10.7,22.5c2.2,5.9,1,11-3.9,15.3-4.4,3.8-8.8,7.6-14.3,9.9-7.9,3.4-15.3,2.5-22-2.9C128,912.17,118.92,893.37,118.82,885.47Zm11.1-.7a2.77,2.77,0,0,0,2.9,2.2c8.6.5,11.9,5.9,13.4,13.4.7,3.6,3.5,5.5,6.3,7.4.7.5,1.5,1.1,2.2.6,1-.7.7-1.8.3-2.7a22.88,22.88,0,0,0-1-2.3c-.5-1.1-1.1-2.2-.4-3.3.9-1.3,2.1-.3,3.2-.1,2.1.4,4.2,1,6.3,1.5,1.6.4,3.2.2,3.8-1.4.7-1.9-1-2.7-2.4-3.2-3.8-1.2-7.7-2.1-11.5-3.4-4.7-1.6-7.5-4.7-6.9-10.2.3-2.8.5-5.6.7-8.4.1-1,.4-2.2-1-2.3s-1.3,1.2-1.4,2.2-.1,2-.2,3c-.5,4.4-2.2,7.2-7.3,6.6C134.82,884,132.42,883.47,129.92,884.77Z"/><path class="cls-5" d="M406.82,958.47c-7.1-.2-14-1.1-20.4-4.3-5.3-2.6-8.5-6.6-8.3-12.9.2-5.9.4-11.6,2.8-17.1,5.8-12.9,18.2-15,27.4-4.3a65,65,0,0,1,13.7,26.9c2,7.9.4,10.1-7.8,11.3C411.82,958.37,409.32,958.37,406.82,958.47Z"/><path class="cls-5" d="M174.52,958.27a45.18,45.18,0,0,1-10.4-.8c-4.4-.9-6.2-3.5-5.4-7.9a63.7,63.7,0,0,1,14.6-30.2c8.9-10.1,21.3-8.1,26.9,4.3a36,36,0,0,1,2.6,21.5c-.7,4.3-3.9,6.8-7.5,8.7A39.53,39.53,0,0,1,174.52,958.27Z"/><path class="cls-5" d="M351,983c-7.3,0-7.9-.6-6.6-6.2,2.2-9.5,1.6-19.2,2.8-28.8,1.3-10.6,8.7-13.9,17.5-7.5,5.7,4.2,9.5,10.2,14.2,15.4,1,1.1,2,2.3,3,3.3,4.8,4.9,4.9,6.7-.4,11.1C372.32,977.87,361.62,982.27,351,983Z"/><path class="cls-5" d="M229.62,983a54.1,54.1,0,0,1-31-13.9c-3.2-2.9-3.7-5.5-.1-9,4.9-4.7,9.1-10.2,13.6-15.3a24.33,24.33,0,0,1,8.2-6.4c6.4-2.8,12.3,0,13.5,6.8a98.81,98.81,0,0,1,1.3,14.4,119.6,119.6,0,0,0,1.8,16.9C238.22,982.37,237.72,983.07,229.62,983Z"/><path class="cls-5" d="M270.22,992.77c-8.4-.3-16.5-1.8-23.8-6.4-3-1.8-3.9-3.6-1-6.5,5.8-6.1,9.3-13.7,13.4-20.9a31.14,31.14,0,0,1,5.3-7.2c3.6-3.4,7.1-3.2,10.1.8,2.8,3.7,3.8,8.1,5.1,12.4,2,6.8,3.7,13.8,7.3,20.1,1.8,3.1.7,4.6-2.1,5.6C279.82,992.27,275,992.57,270.22,992.77Z"/><path class="cls-5" d="M311,992.67c-4.9-.1-10.1-.3-14.9-2.7-1.3-.6-3.5-1-2-3.5,4.7-8.2,6.6-17.4,9.5-26.2a31.73,31.73,0,0,1,3.2-7.3c3.1-4.8,7.2-5,11.1-.9,3.2,3.4,5.2,7.7,7.5,11.8,3.2,5.6,6.1,11.5,10.7,16.2,3.2,3.3,1,5-1.5,6.5C327.42,990.87,319.52,992.47,311,992.67Z"/><path class="cls-4" d="M158.92,928.37c.4,0,.8-.1,1.2-.1a9.29,9.29,0,0,1-.4,1.3A3.6,3.6,0,0,0,158.92,928.37Z"/><path class="cls-4" d="M301.72,40.17c13.7-10.1,35.5-7.6,42.9,5.3C330.62,39.27,316.62,39.77,301.72,40.17Z"/><path class="cls-4" d="M227.22,45c9.3-12.5,28.5-14.9,41.5-5.3C254.72,39.77,240.62,39.37,227.22,45Z"/><path class="cls-4" d="M466.72,228.17c2.6-4.8,8.1-4.6,9.7-8.1s1.5-7.7,2.3-12.5c.6,1.7,1,2.6,1.2,3.5.6,2.9,2.1,3,4.2,1.5,1-.7,2.1-2.3,3.4-1s-.3,2.4-.8,3.6c-.6,1.4-1.4,2.7-1.9,4.1-2.5,6.7-1.3,10.5,4.8,14.3,2.1,1.3,4.4,2.4,6,4.4.8,1,2.3,2,1.1,3.4s-2.5.1-3.6-.5a28.14,28.14,0,0,1-4.8-3.5c-1.9-1.8-3.1-2.1-4.4.6s-2.5,7.4-5.8,6.1c-2.4-1,.1-5.4.9-8.1,2.7-9.8,1.6-11-8.3-8.6A34.72,34.72,0,0,0,466.72,228.17Z"/><path class="cls-4" d="M84.52,211.07c4.4,2.5,8.2,4,8.1-4.2,1.5,5.1,8.8,17.2,12.3,20.8-3,.7-5.2-.9-7.6-1.4-4.7-1-6.2.4-5.2,5.2.7,3.2,1.6,6.4,2.3,9.7.2,1.1.6,2.5-.5,3.2s-2.5-.4-2.9-1.3c-2.8-6.8-6.5-8.1-12-2.5-.8.8-3,2-4,.5-1.2-1.8.9-3,2.1-4a67.35,67.35,0,0,1,6.2-4.2c5-3.4,6.1-6.5,4.3-12.3C86.62,217.67,84.62,215.07,84.52,211.07Z"/><path class="cls-4" d="M104.22,168.47c.6.2,1.2.3,1.8.5,3,1.1,5.5,4.2,9.2,2.2,4.6-2.5,8.4-5.8,10.3-11,.9-2.5.4-7.4,3-7,3.3.5,2,5,1.9,7.8s2.3,3.8,3.5,5.7c.5.9,1.9,1.8.6,3-.8.8-1.8.2-2.8-.2-7.6-3.4-13.2.5-13.3,9.2,0,2.3,1.6,5.9-1.2,6.5-2.5.5-3.1-3.3-3.9-5.6a10.42,10.42,0,0,0-4.4-5.3A8.46,8.46,0,0,1,104.22,168.47Z"/><path class="cls-4" d="M468,168.87c.4,1.6-.6,2.1-1.3,2.7-4.1,3.2-8.2,6.2-9.5,11.7-.3,1.1-1.2,2.7-2.8,2.2-1.4-.5-.8-2-.9-3.1-.3-4,1.2-8.3-2.8-11.6-3.2-2.6-6.1-4.8-10.1-1.5-.9.8-2.1,1.4-3.2.5-1.3-1-.3-2.5.4-3,3.7-2.5,3.7-6.3,3.7-10.1,0-1.4.1-3.5,1.9-3.6s1.8,2.1,2,3.5a19,19,0,0,0,7.9,12.8c3.5,2.6,7,3.9,10.9.7C465.12,169.17,466.22,168.27,468,168.87Z"/><path class="cls-4" d="M403.72,81.37c-8.5-10.7-18.9-17.4-31.2-22.2C386.52,54.77,405,67.77,403.72,81.37Z"/><path class="cls-4" d="M167.72,81.37c.5-14.7,15.6-25.4,31.6-22.6C186.82,64.07,176.52,71,167.72,81.37Z"/><path class="cls-4" d="M80.72,616.67c-2.5,2.8-5.7,4.4-9,5.8-6,2.6-6,2.7-2.5,8,1.6,2.4,3,4.8,4.4,7.2.5.9,1.1,1.9.2,2.7-1.2,1.1-2.3.2-3-.6-2.9-3.6-5.3-2.5-8.2.1-3.9,3.2-7.9,6.5-13.6,6.3,2.7-1.5,5.5-2.9,8.1-4.6,3.3-2.3,7.4-4.8,6.9-9.1a12.81,12.81,0,0,0-8.3-10.5c-3.7-1.4-3.3-3-1-5.3,8.7-8.5,8.9-11.2,1.3-21.3,3.4,0,6.5,3.5,9.6,1.3,2.6-1.8,4.4-4.8,8.8-5.4-4.7,8-2.6,17-6.1,24.8-1.2,2.6.3,2.9,2.5,3.2C74.52,619.67,77.22,617.07,80.72,616.67Z"/><path class="cls-4" d="M532.22,646.67c-5-.2-9-2.7-12.3-5.8-3.7-3.4-6.7-4.5-10.3-.4a2.07,2.07,0,0,1-2.9.7c.3-4.5,3.4-7.6,5.8-11,2.6-3.7,2.2-5.6-2.1-7.3-3.8-1.5-8.2-2.7-11.4-7.8,4.5,2,7.5,4.5,11.4,4.1,2-.2,3.7-.8,2.7-2.9-2.5-5.8-2.1-12.1-3.2-18.1-.4-2.2-1.5-4.2-2.7-7.5,6.2,3,10.2,10.5,17.1,4.4,1.2,2-.2,2.6-.8,3.4-5.1,6.9-4.4,12.3,2.4,17.5,4.2,3.2,4.2,3.8-.4,6.2-3.6,1.8-5.9,4.9-7.6,8.3s.7,6.1,3,8.3A65.18,65.18,0,0,0,532.22,646.67Z"/><path class="cls-4" d="M527.82,593.47a3.6,3.6,0,0,1,.9.5c-.3.3-.5.7-.9.9-.2.1-.5-.2-.8-.3A7.63,7.63,0,0,0,527.82,593.47Z"/><path class="cls-4" d="M496.32,688.37c5.9-.7,10.8-.1,14.4,4.5,1.1,1.4,2.3,3.8,4.7,2.8,1.9-.8,1.7-3,2-4.8.9-7,3.4-13.5,5.9-20,.5-1.2.8-2.6,2.7-2.9,1.1,2.8.4,5.4-.5,8.1-1.5,4.9-.7,6.1,4.5,6.9,2.1.3,4.3.4,6.4.8a2.1,2.1,0,0,1,1.8,2.6c-.3,1.7-1.7,1-2.8,1a53.42,53.42,0,0,0-8-.1c-4.9.5-6.7,3.8-5.4,8.5,1.4,5,5.3,8.2,8.5,13-3.4-.4-4.4-2.7-6.1-4-1.9-1.5-3.7-3.7-6.6-2.3a6.31,6.31,0,0,0-3.7,6.5c.2,3.2,0,6.4-2.1,9.5C510.52,706.57,514.12,692.07,496.32,688.37Z"/><path class="cls-4" d="M55.82,667.57c5.1,7.5,6.4,16,8.5,24.4.4,1.4.1,3.2,1.7,3.9,2,.8,3-.9,4.1-2,5.9-5.7,8.9-6.9,15.6-5.5-6,3.2-12.7,4.5-14.4,11.7-1.4,6-.6,12.2-1.3,19.5-2.6-3.5-2.6-6.3-2.6-9.2.1-3.4-.6-6.3-4.1-7.8s-5.1,1.3-7.1,3.1c-1.3,1.1-2.2,2.8-5.3,3.1,2-2.6,3.4-4.5,4.8-6.5a26.24,26.24,0,0,0,3-5.1c2.2-5.3.6-8.1-4.9-9.5a19.22,19.22,0,0,0-7.9-.3c-1.3.2-2.9.8-3.1-1.2-.2-1.6,1.2-2.4,2.5-2.7a17.54,17.54,0,0,1,4-.3c6.8-.4,8.3-2.7,6.1-9C54.22,670.87,54.22,670.87,55.82,667.57Z"/><path class="cls-4" d="M500.82,740.77c3.8.2,6.2,2.2,6.4,5.3.4,5.1,2.4,4.6,5.7,2.5,1.1-.7,2.1-2.2,3.9-1.7.3,2.1-1.7,2.7-2.7,3.8-1.6,1.9-3.6,3.6-4.9,5.6-2.8,4.5-2.1,5.8,3.2,5.9,2.8.1,5.6.3,8.4,2.2-7,.6-14.7-.2-19,6.8-3.7,6.1-4.1,13.5-6.6,20.1-1.7-6-1-11.9.8-17.8,2.3-7.8.9-10.6-6.9-13.7-1.5-.6-2.9-1.4-5.1-2.5,3-1.9,5-.7,7,.2,9,4,9.3,3.8,11.6-5.5C503.72,748,505.22,744.07,500.82,740.77Z"/><path class="cls-4" d="M85.92,791.57c-2.4-3.4-2-7.4-3-11-3.9-13.2-6-15-19.8-15.5-1,0-2,.3-3.1-1,3.3-1.8,6.8-1.8,10.3-1.8s4.4-1.4,2.8-4.7c-2.1-4.3-6.2-6.8-9.6-10.6,2.7-.6,4,1.1,5.5,2,3,1.7,4.9,1.6,5.3-2.6s1.9-5.3,7.1-5.6c-7.1,5.3-2.5,10.8-1.2,16.2.8,3.3,2.8,3.7,5.7,2.4,2.6-1.1,5.2-2.1,7.9-3.1.7-.3,1.8-.4,2.1.7s-.6,1.4-1.3,1.8c-10.9,6.6-10.9,6.6-8,19C87.82,783.57,87.72,787.77,85.92,791.57Z"/><path class="cls-4" d="M477.52,851.77c-3.7.6-5.6-.6-7-2.7-.8-1.1-1.4-2.4-2.8-2.8-6.5-1.7-2.4-4.2-.2-5.5,5.2-3.3,6.7-8.2,8.1-13.7,1.2-4.3-1.9-7-2.6-11.1,3.5,4.6,7.8,3.9,12.1,2.6.9-.3,2.1-.9,2.6.3s-.6,1.8-1.4,2.4c-3.4,2.4-6.8,4.8-7.5,9.4-.6,4.3-.6,8.6-4.1,12.4C472.92,845.27,473.62,849.27,477.52,851.77Z"/><path class="cls-4" d="M103.92,851.77c4.5-4.2,4.7-6.4,1.2-10.4a7.18,7.18,0,0,1-1.8-5c-.2-5.9-1.7-11.1-7.3-14.3-1-.6-2.7-1.5-2-3,.8-1.7,2.5-.6,3.5-.1,4.4,2.3,7.6-.8,11.5-2.9-3.3,4.8-4.1,9.3-2.4,14.6,1.6,5,4.8,8.2,8.6,11.2.9.7,2.2,1.1,2,2.6s-1.5,1.5-2.6,1.6a3.65,3.65,0,0,0-3.2,2.6C109.92,851.87,107.52,852.67,103.92,851.77Z"/><path class="cls-4" d="M435.32,872.37c1.6,1.4,1.6,2.9,1.8,4.4,1.2,7.5,1.2,7.5,8.9,7.3h3.5a1.26,1.26,0,0,1,1.4,1.1c-.1.5-.7,1-1.1,1.4a.76.76,0,0,1-.5.2c-9.1.2-12.2,6.5-14.3,14a8.88,8.88,0,0,1-4.4,5.8c-1.2.6-2,2.9-3.7,1.4-1.2-1.1-.2-2.8.3-4.2s2-2.7.6-4.1c-1.2-1.3-2.8-.2-4.2.2-3.1.8-8.5,2.9-8.9.2-.7-3.9,4.7-4.3,8.2-5.1,11.2-2.4,13.8-6.2,12-17.5C434.52,876,434,874.27,435.32,872.37Z"/><path class="cls-4" d="M129.92,884.77c2.5-1.2,4.9-.8,7.1-.5,5.1.6,6.9-2.2,7.3-6.6.1-1,.1-2,.2-3s.1-2.3,1.4-2.2,1.1,1.4,1,2.3c-.2,2.8-.4,5.6-.7,8.4-.7,5.4,2.1,8.5,6.9,10.2,3.8,1.3,7.7,2.2,11.5,3.4,1.4.5,3.1,1.3,2.4,3.2-.6,1.6-2.2,1.8-3.8,1.4-2.1-.5-4.2-1.1-6.3-1.5-1-.2-2.3-1.3-3.2.1-.7,1.1-.1,2.2.4,3.3.3.8.7,1.5,1,2.3s.7,2-.3,2.7c-.8.5-1.5-.1-2.2-.6-2.8-1.9-5.7-3.8-6.3-7.4-1.4-7.6-4.8-13-13.4-13.4A2.72,2.72,0,0,1,129.92,884.77Z"/></g></g></svg>