<?xml version="1.0" encoding="UTF-8"?>
<svg version="1.1" xmlns="http://www.w3.org/2000/svg" width="512" height="512">
<path d="M0 0 C0.64211426 0.46083984 1.28422852 0.92167969 1.94580078 1.39648438 C3.22713077 2.34385597 4.48339635 3.32593257 5.71435547 4.33789062 C7.69943112 5.98431397 7.69943112 5.98431397 10.83984375 7.796875 C15.79385867 7.16359478 20.27805863 2.68246788 24.21484375 -0.265625 C43.28296556 -14.2406706 64.56570549 -26.24018398 88.83984375 -27.203125 C89.89816406 -27.2546875 90.95648438 -27.30625 92.046875 -27.359375 C120.80396554 -28.09438051 148.50370586 -18.23898482 169.73828125 1.31640625 C190.0419739 20.67163468 203.02368137 45.59358398 204.05859375 73.8984375 C204.65667079 100.16322091 204.65667079 100.16322091 199.83984375 109.796875 C200.70609375 109.879375 201.57234375 109.961875 202.46484375 110.046875 C209.27930212 111.56119908 213.9653113 116.18347106 217.83984375 121.796875 C221.06291936 128.24302622 220.96656194 136.332789 219.22265625 143.2421875 C216.54433594 149.28618465 211.42028953 153.78121664 205.73046875 156.984375 C201.34330787 158.21752292 197.0585524 158.00513396 192.52734375 157.921875 C191.59599609 157.91285156 190.66464844 157.90382812 189.70507812 157.89453125 C187.41638636 157.87105749 185.128296 157.8364731 182.83984375 157.796875 C182.58277397 158.79402779 182.58277397 158.79402779 182.32051086 159.81132507 C180.51179656 166.65360853 178.3566617 173.29021229 175.9453125 179.94140625 C175.56565338 180.99970642 175.18599426 182.05800659 174.79483032 183.14837646 C173.97323919 185.43722619 173.14977351 187.72540374 172.32461548 190.01296997 C170.30426354 195.61395834 168.29492097 201.21889606 166.28449821 206.8234539 C165.57623635 208.79740056 164.86744667 210.77115711 164.15858459 212.74488831 C159.64764537 225.30936793 155.1891119 237.8922215 150.7355442 250.47712612 C149.11952579 255.0426655 147.4997007 259.60684067 145.87744141 264.17016602 C145.53626691 265.12991443 145.53626691 265.12991443 145.1882 266.1090517 C144.27876221 268.66714434 143.36922996 271.2252033 142.45940781 273.78315926 C139.66038209 281.65333944 136.8771083 289.52878823 134.11213684 297.41099548 C132.57787791 301.77620631 131.03137858 306.1370093 129.48178101 310.49679565 C128.77352435 312.49805973 128.07056103 314.50120669 127.3734436 316.50637817 C122.22446295 331.30663258 116.58326883 345.78304458 101.7734375 353.3671875 C88.76881162 358.95199616 75.17002347 359.78904276 61.7421875 355.05859375 C57.32522216 353.1384325 53.57526621 350.8277777 49.83984375 347.796875 C49.21464844 347.29542969 48.58945312 346.79398437 47.9453125 346.27734375 C38.63120265 337.93725846 35.63523768 325.66817531 32.96484375 313.921875 C32.60722367 312.40167674 32.24844637 310.88175038 31.88867188 309.36206055 C30.5126313 303.5130251 29.1771712 297.6548609 27.83984375 291.796875 C27.36033803 289.7009017 26.88054194 287.60499498 26.40073586 285.50909042 C25.51276253 281.62986992 24.6254815 277.75049112 23.73828125 273.87109375 C23.55828709 273.08407074 23.37829292 272.29704773 23.19284439 271.48617554 C21.35411845 263.44470463 19.51784665 255.40270967 17.69652748 247.35727596 C17.00403773 244.29911949 16.30973951 241.24137492 15.61528397 238.18366432 C15.28746521 236.73773205 14.96058933 235.29158566 14.63468552 233.84522057 C14.18518348 231.85047829 13.73232824 229.85649251 13.27929688 227.86254883 C13.02442505 226.73504715 12.76955322 225.60754547 12.50695801 224.44587708 C11.95244151 221.84270057 11.95244151 221.84270057 10.83984375 219.796875 C10.57310852 221.04809143 10.30637329 222.29930786 10.03155518 223.58843994 C7.50877813 235.41802159 4.97875853 247.24603431 2.44176102 259.07257462 C1.13790517 265.15178587 -0.16345198 271.23150904 -1.45898438 277.3125 C-2.71088315 283.18822189 -3.96949466 289.06247005 -5.23264313 294.93578339 C-5.71180523 297.16938521 -6.18860467 299.40349532 -6.66292572 301.63813019 C-14.6794189 339.38107424 -14.6794189 339.38107424 -28.16015625 349.796875 C-40.83084456 357.38181117 -54.06056094 360.00674918 -68.61328125 357.109375 C-79.67688124 353.70519039 -89.61085277 347.04731394 -95.30178833 336.72645569 C-98.42777044 330.58195365 -100.90330017 324.38760686 -103.13671875 317.87109375 C-103.49928268 316.83193314 -103.86184662 315.79277252 -104.23539734 314.72212219 C-105.01604203 312.48281613 -105.79374093 310.24248134 -106.5687561 308.0012207 C-108.67512061 301.91131766 -110.80421248 295.82934728 -112.9296875 289.74609375 C-113.37066925 288.48209601 -113.81162277 287.21808842 -114.25254822 285.95407104 C-118.58512606 273.5416061 -123.02176935 261.1673011 -127.47265625 248.796875 C-134.29138865 229.82082355 -141.08582122 210.83623633 -147.84286499 191.83813477 C-148.84221771 189.02868516 -149.84311109 186.21979199 -150.84536743 183.41137695 C-152.23902312 179.50598373 -153.6275959 175.59880281 -155.015625 171.69140625 C-155.43649384 170.51391312 -155.85736267 169.33641998 -156.29098511 168.12324524 C-156.67086578 167.05108261 -157.05074646 165.97891998 -157.44213867 164.87426758 C-157.77565842 163.93714432 -158.10917816 163.00002106 -158.45280457 162.03450012 C-159.16015625 159.796875 -159.16015625 159.796875 -159.16015625 157.796875 C-159.72412109 157.81782227 -160.28808594 157.83876953 -160.86914062 157.86035156 C-163.46595874 157.94436001 -166.06248987 157.99579729 -168.66015625 158.046875 C-169.54703125 158.08039063 -170.43390625 158.11390625 -171.34765625 158.1484375 C-178.69759419 158.25652482 -183.83715305 156.7088447 -189.40234375 151.83203125 C-190.21058594 150.85556641 -190.21058594 150.85556641 -191.03515625 149.859375 C-191.58945313 149.21097656 -192.14375 148.56257812 -192.71484375 147.89453125 C-197.19427722 141.39329943 -196.83479353 134.42546583 -196.16015625 126.796875 C-194.45848046 120.05479243 -189.66346167 115.75443129 -184.16015625 111.796875 C-181.06783084 110.21635312 -179.62242757 109.796875 -176.16015625 109.796875 C-176.36511719 109.01183594 -176.57007813 108.22679687 -176.78125 107.41796875 C-177.05066406 106.36738281 -177.32007813 105.31679687 -177.59765625 104.234375 C-177.86449219 103.20183594 -178.13132812 102.16929687 -178.40625 101.10546875 C-184.42078277 74.71008399 -178.86043038 45.96905413 -164.78759766 23.02954102 C-160.62996584 16.63015197 -155.53704314 11.19005548 -150.16015625 5.796875 C-149.2990625 4.92933594 -148.43796875 4.06179687 -147.55078125 3.16796875 C-105.03326917 -39.00217803 -45.26437931 -32.78430394 0 0 Z M-141.97265625 21.671875 C-156.0950902 38.07045215 -165.20390972 60.09098865 -164.04638672 81.94482422 C-163.87160715 84.27571637 -163.65357166 86.5971729 -163.41015625 88.921875 C-163.29957886 89.99538208 -163.29957886 89.99538208 -163.18676758 91.09057617 C-162.43197264 97.31322147 -160.85514402 102.58191986 -159.16015625 108.796875 C-129.13015625 108.796875 -99.10015625 108.796875 -68.16015625 108.796875 C-67.83015625 99.886875 -67.50015625 90.976875 -67.16015625 81.796875 C-65.16015625 78.796875 -65.16015625 78.796875 -62.16015625 77.796875 C-60.17778967 77.70134557 -58.19232149 77.66623207 -56.20765686 77.66316223 C-54.34219963 77.65676476 -54.34219963 77.65676476 -52.4390564 77.65023804 C-51.05841061 77.65058756 -49.67776485 77.65104909 -48.29711914 77.65161133 C-46.84505629 77.64861961 -45.39299423 77.64521706 -43.94093323 77.64143372 C-39.99468292 77.63259126 -36.04845428 77.63025551 -32.10219502 77.62961793 C-28.80935926 77.62866893 -25.51652856 77.62499078 -22.22369474 77.62144583 C-14.45617475 77.61330052 -6.68866635 77.61086169 1.07885742 77.61157227 C9.09557797 77.61217325 17.11223127 77.60161745 25.1289348 77.5858286 C32.00883423 77.57276077 38.88871166 77.56738804 45.76862341 77.56802768 C49.87898055 77.56828286 53.98927793 77.56542012 58.09962273 77.55484962 C61.96474599 77.54518123 65.82975219 77.54508076 69.69487953 77.55236626 C71.11386663 77.55341364 72.53286098 77.55104014 73.95183563 77.5450058 C75.88799596 77.53730499 77.82419604 77.5431214 79.76036072 77.54963684 C80.84417998 77.54909207 81.92799925 77.54854731 83.04466152 77.54798603 C85.85693944 77.79839724 87.49662782 78.25163891 89.83984375 79.796875 C94.17317708 88.46354167 91.48121453 99.1138861 91.83984375 108.796875 C121.86984375 108.796875 151.89984375 108.796875 182.83984375 108.796875 C189.45301367 80.69090284 188.77265297 57.80649988 173.83984375 32.796875 C160.31011414 12.20295028 139.93018674 -2.51631805 115.83984375 -8.203125 C90.47673985 -13.05399187 65.84167649 -8.01168098 44.46533203 6.39746094 C35.2430359 12.59243713 35.2430359 12.59243713 26.83984375 19.796875 C52.09720621 37.20142521 78.34932349 51.96411384 109.37109375 55.2421875 C112.18475986 55.87437197 113.20061617 56.44116385 114.83984375 58.796875 C115.55229994 62.26136784 115.50448064 65.65222258 113.71484375 68.734375 C105.43645358 73.42546276 92.56646778 69.31486807 83.93310547 67.02636719 C53.05870157 58.06888447 27.45642261 40.66801223 1.48852539 22.31542969 C-0.65233477 20.80240274 -2.79490781 19.29182283 -4.9375 17.78125 C-7.7104384 15.82598109 -10.47141876 13.85523874 -13.2265625 11.875 C-55.47033682 -18.2065185 -105.55666356 -16.73951455 -141.97265625 21.671875 Z M-52.16015625 93.796875 C-52.16015625 104.026875 -52.16015625 114.256875 -52.16015625 124.796875 C-46.88015625 124.796875 -41.60015625 124.796875 -36.16015625 124.796875 C-36.12277344 123.46011719 -36.08539063 122.12335938 -36.046875 120.74609375 C-35.9812197 118.99215923 -35.91477221 117.23825424 -35.84765625 115.484375 C-35.82509766 114.60330078 -35.80253906 113.72222656 -35.77929688 112.81445312 C-35.74384766 111.96689453 -35.70839844 111.11933594 -35.671875 110.24609375 C-35.64569092 109.46580811 -35.61950684 108.68552246 -35.5925293 107.8815918 C-35.05459836 105.28792028 -34.23416144 104.40598005 -32.16015625 102.796875 C-26.89575442 101.04207439 -21.29504955 101.56978516 -15.78515625 101.546875 C-14.5528125 101.52625 -13.32046875 101.505625 -12.05078125 101.484375 C-10.86226562 101.47921875 -9.67375 101.4740625 -8.44921875 101.46875 C-6.82040771 101.45473145 -6.82040771 101.45473145 -5.15869141 101.44042969 C-1.76172963 101.84423723 0.10588108 102.77486255 2.83984375 104.796875 C3.9580819 107.03335131 4.03380436 108.44579029 4.15625 110.9296875 C4.19814453 111.73535156 4.24003906 112.54101562 4.28320312 113.37109375 C4.32251953 114.21285156 4.36183594 115.05460937 4.40234375 115.921875 C4.44552734 116.77136719 4.48871094 117.62085938 4.53320312 118.49609375 C4.63938611 120.59615723 4.74012872 122.69649448 4.83984375 124.796875 C9.45984375 124.796875 14.07984375 124.796875 18.83984375 124.796875 C18.87722656 123.54390625 18.91460937 122.2909375 18.953125 121 C19.0187926 119.34892879 19.08523968 117.69788845 19.15234375 116.046875 C19.17490234 115.221875 19.19746094 114.396875 19.22070312 113.546875 C19.49141626 107.44352429 19.49141626 107.44352429 21.1953125 104.28125 C25.78709798 100.13664553 33.44437067 101.61237421 39.21484375 101.609375 C41.06335938 101.59100586 41.06335938 101.59100586 42.94921875 101.57226562 C44.73199219 101.56936523 44.73199219 101.56936523 46.55078125 101.56640625 C48.17959229 101.56024292 48.17959229 101.56024292 49.84130859 101.55395508 C52.92483588 101.80376046 55.0933967 102.39088945 57.83984375 103.796875 C58.98638857 106.08996463 59.03713492 107.59597156 59.15625 110.1484375 C59.19814453 110.99921875 59.24003906 111.85 59.28320312 112.7265625 C59.32251953 113.61601562 59.36183594 114.50546875 59.40234375 115.421875 C59.44552734 116.3190625 59.48871094 117.21625 59.53320312 118.140625 C59.6394109 120.35918739 59.74014334 122.57801065 59.83984375 124.796875 C65.11984375 124.796875 70.39984375 124.796875 75.83984375 124.796875 C75.83984375 114.566875 75.83984375 104.336875 75.83984375 93.796875 C33.59984375 93.796875 -8.64015625 93.796875 -52.16015625 93.796875 Z M-20.16015625 117.796875 C-20.16015625 128.356875 -20.16015625 138.916875 -20.16015625 149.796875 C-17.52015625 149.796875 -14.88015625 149.796875 -12.16015625 149.796875 C-12.16015625 139.236875 -12.16015625 128.676875 -12.16015625 117.796875 C-14.80015625 117.796875 -17.44015625 117.796875 -20.16015625 117.796875 Z M35.83984375 117.796875 C35.83984375 128.356875 35.83984375 138.916875 35.83984375 149.796875 C38.47984375 149.796875 41.11984375 149.796875 43.83984375 149.796875 C43.83984375 139.236875 43.83984375 128.676875 43.83984375 117.796875 C41.19984375 117.796875 38.55984375 117.796875 35.83984375 117.796875 Z M-177.16015625 127.796875 C-179.4876497 131.28811517 -179.66314941 132.68909751 -179.16015625 136.796875 C-176.92809194 139.64468119 -175.61022626 140.64685166 -172.16015625 141.796875 C-170.72599161 141.88540478 -169.28804394 141.9188628 -167.85115051 141.91712952 C-166.9719545 141.91850418 -166.09275848 141.91987885 -165.18692017 141.92129517 C-164.22522919 141.91769989 -163.26353821 141.91410461 -162.27270508 141.91040039 C-161.25789566 141.91054642 -160.24308624 141.91069244 -159.19752502 141.9108429 C-155.8373909 141.91014526 -152.47731196 141.90235978 -149.1171875 141.89453125 C-146.7897698 141.89266654 -144.46235171 141.89124289 -142.13493347 141.89024353 C-136.00451578 141.88642251 -129.87412172 141.87659574 -123.74371338 141.86553955 C-117.4899528 141.85531652 -111.2361884 141.85074399 -104.98242188 141.84570312 C-92.70832294 141.83497313 -80.43424156 141.81790166 -68.16015625 141.796875 C-68.16015625 136.516875 -68.16015625 131.236875 -68.16015625 125.796875 C-81.63370399 125.75055339 -95.10723281 125.71500663 -108.58084393 125.69325066 C-114.83704629 125.68280939 -121.09319421 125.66864379 -127.34936523 125.64599609 C-133.38586272 125.62428015 -139.4223078 125.61230896 -145.45884132 125.60712051 C-147.76294594 125.60342253 -150.06704766 125.5962014 -152.37112999 125.58541489 C-155.59603469 125.57091674 -158.8207223 125.56889638 -162.0456543 125.56982422 C-163.00015472 125.56263367 -163.95465515 125.55544312 -164.93807983 125.54803467 C-171.30057827 125.52112291 -171.30057827 125.52112291 -177.16015625 127.796875 Z M91.83984375 125.796875 C91.83984375 130.746875 91.83984375 135.696875 91.83984375 140.796875 C105.72177097 140.88947297 119.60362496 140.96058837 133.48579788 141.00412369 C139.93156069 141.02501634 146.37711253 141.05336518 152.82275391 141.09863281 C159.04081044 141.14202983 165.25866378 141.16599946 171.47686005 141.17638397 C173.85159251 141.18378632 176.2263136 141.198241 178.60095978 141.21979523 C181.92204498 141.2487467 185.24228589 141.25283435 188.56347656 141.25097656 C189.54962448 141.26535767 190.5357724 141.27973877 191.55180359 141.29455566 C196.8479979 141.31596152 196.8479979 141.31596152 201.45477295 138.95599365 C203.34241921 136.01343487 203.34063852 134.23089629 202.83984375 130.796875 C201.0599997 127.6609593 200.31676168 126.95584764 196.83984375 125.796875 C195.39301087 125.70825751 193.94241733 125.67488865 192.49287415 125.67662048 C191.60526398 125.67524582 190.71765381 125.67387115 189.80314636 125.67245483 C188.83210464 125.67605011 187.86106293 125.67964539 186.8605957 125.68334961 C185.83603271 125.68320358 184.81146973 125.68305756 183.75585938 125.6829071 C180.36325985 125.68360477 176.97071496 125.69139038 173.578125 125.69921875 C171.22828705 125.70108345 168.87844871 125.70250711 166.52861023 125.70350647 C160.33900889 125.70732757 154.14943095 125.7171544 147.95983887 125.72821045 C141.64575517 125.73843331 135.33166771 125.74300597 129.01757812 125.74804688 C116.62498971 125.75877701 104.23241867 125.77584857 91.83984375 125.796875 Z M-52.16015625 141.796875 C-52.16015625 152.356875 -52.16015625 162.916875 -52.16015625 173.796875 C-9.92015625 173.796875 32.31984375 173.796875 75.83984375 173.796875 C75.83984375 163.236875 75.83984375 152.676875 75.83984375 141.796875 C70.55984375 141.796875 65.27984375 141.796875 59.83984375 141.796875 C59.80246094 143.20582031 59.76507813 144.61476562 59.7265625 146.06640625 C59.66090878 147.91408939 59.59446124 149.76174445 59.52734375 151.609375 C59.50478516 152.53814453 59.48222656 153.46691406 59.45898438 154.42382812 C59.40581055 155.7628418 59.40581055 155.7628418 59.3515625 157.12890625 C59.32537842 157.95108643 59.29919434 158.7732666 59.2722168 159.62036133 C58.83984375 161.796875 58.83984375 161.796875 57.77075195 163.56152344 C54.8208745 165.44878857 51.82684015 165.24476173 48.43359375 165.23046875 C47.35192932 165.23833153 47.35192932 165.23833153 46.24841309 165.24635315 C44.72535489 165.2527703 43.20224711 165.25144024 41.67919922 165.24291992 C39.34773693 165.23440383 37.0187205 165.26317948 34.6875 165.29492188 C33.20703198 165.29653387 31.72655963 165.29595639 30.24609375 165.29296875 C29.2006842 165.30981972 29.2006842 165.30981972 28.13415527 165.32701111 C25.003713 165.28188565 23.27407599 165.18970996 20.90893555 163.05004883 C19.75198122 160.61169956 19.41893239 158.93789884 19.328125 156.25 C19.29267578 155.40566406 19.25722656 154.56132812 19.22070312 153.69140625 C19.19814453 152.81871094 19.17558594 151.94601563 19.15234375 151.046875 C19.11818359 150.15871094 19.08402344 149.27054688 19.04882812 148.35546875 C18.96656833 146.16970861 18.90152341 143.98331267 18.83984375 141.796875 C14.21984375 141.796875 9.59984375 141.796875 4.83984375 141.796875 C4.80246094 143.12203125 4.76507813 144.4471875 4.7265625 145.8125 C4.66089724 147.55731971 4.59445009 149.30211012 4.52734375 151.046875 C4.50478516 151.91957031 4.48222656 152.79226562 4.45898438 153.69140625 C4.42353516 154.53574219 4.38808594 155.38007813 4.3515625 156.25 C4.32537842 157.02504883 4.29919434 157.80009766 4.2722168 158.59863281 C3.69957263 161.51003208 3.05562742 162.7923318 0.83984375 164.796875 C-1.77121575 165.19118182 -3.95712546 165.33502777 -6.56640625 165.29296875 C-7.64807068 165.2951516 -7.64807068 165.2951516 -8.75158691 165.29737854 C-10.27469934 165.29572012 -11.79782862 165.28416485 -13.32080078 165.26342773 C-15.65209126 165.23447516 -17.98110717 165.24281696 -20.3125 165.25585938 C-21.7929798 165.24962162 -23.27345242 165.24123039 -24.75390625 165.23046875 C-25.45084595 165.23340439 -26.14778564 165.23634003 -26.86584473 165.23936462 C-29.66665978 165.1847743 -31.69921135 165.09177716 -34.09106445 163.56152344 C-35.45353847 161.3126168 -35.58830553 159.75298763 -35.671875 157.12890625 C-35.72504883 155.78989258 -35.72504883 155.78989258 -35.77929688 154.42382812 C-35.80185547 153.49505859 -35.82441406 152.56628906 -35.84765625 151.609375 C-35.88181641 150.66900391 -35.91597656 149.72863281 -35.95117188 148.75976562 C-36.03362776 146.4392214 -36.09856928 144.11806683 -36.16015625 141.796875 C-41.44015625 141.796875 -46.72015625 141.796875 -52.16015625 141.796875 Z M-141.16015625 157.796875 C-138.76877155 165.82296177 -138.76877155 165.82296177 -136.11743164 173.73486328 C-135.74099014 174.79678391 -135.36454865 175.85870453 -134.97669983 176.95280457 C-134.57446701 178.07955093 -134.17223419 179.2062973 -133.7578125 180.3671875 C-133.11319313 182.18208427 -133.11319313 182.18208427 -132.45555115 184.03364563 C-131.29007013 187.31466729 -130.12151448 190.59458589 -128.95230103 193.87427902 C-127.71912177 197.33493955 -126.48868602 200.79657551 -125.2578125 204.25805664 C-122.47305699 212.08731429 -119.68359702 219.91489115 -116.89279938 227.74199677 C-116.18011259 229.74090254 -115.46756342 231.73985731 -114.75506592 233.73883057 C-108.97231907 249.96380629 -108.97231907 249.96380629 -103.17163086 266.18237305 C-102.36307418 268.43927449 -101.55456113 270.69619157 -100.74609375 272.953125 C-100.35613724 274.04168289 -99.96618073 275.13024078 -99.56440735 276.25178528 C-97.35703256 282.4225841 -95.17097575 288.60029058 -93.00921631 294.78721619 C-91.73505052 298.43205306 -90.4523048 302.07384044 -89.16870117 305.71536255 C-88.59104947 307.36226448 -88.01778165 309.01071233 -87.44946289 310.66085815 C-83.16545102 323.09755043 -79.27267999 333.32369655 -67.16015625 339.796875 C-60.72804355 342.74492665 -54.15900479 342.60681066 -47.47265625 340.546875 C-40.54762897 337.94998977 -35.16256103 334.02841093 -31.16015625 327.796875 C-26.6393917 316.41554143 -24.53937543 303.90762086 -21.84375 292.00390625 C-21.34151007 289.80429869 -20.83873874 287.60481241 -20.33546448 285.40544128 C-19.01907084 279.6481858 -17.70788797 273.88975861 -16.3984375 268.13092041 C-14.30057973 258.90530305 -12.19806253 249.68075991 -10.08922005 240.45764732 C-9.35790402 237.25342139 -8.63087595 234.04824357 -7.90415955 230.8429718 C-7.45248126 228.86377925 -7.00063168 226.88462579 -6.54858398 224.90551758 C-6.35058701 224.02682007 -6.15259003 223.14812256 -5.94859314 222.24279785 C-4.3599569 215.31777972 -2.40680909 208.53683351 -0.16015625 201.796875 C5.26189597 198.54364367 10.66026959 198.20458355 16.83984375 198.796875 C19.83984375 200.296875 19.83984375 200.296875 21.83984375 201.796875 C22.49984375 201.796875 23.15984375 201.796875 23.83984375 201.796875 C25.60233377 205.84477563 26.68382075 209.94048801 27.66015625 214.23046875 C27.83581116 214.98796921 28.01146606 215.74546967 28.19244385 216.52592468 C28.58039447 218.20218091 28.96641015 219.8788858 29.35076904 221.55596924 C29.97791277 224.29137807 30.61081282 227.02540739 31.24462891 229.75927734 C33.81883138 240.88821556 36.34646718 252.02741252 38.85317993 263.17170715 C40.09959456 268.71221835 41.35200994 274.25137002 42.60530663 279.79032803 C43.67471419 284.51981943 44.73531663 289.25118059 45.789711 293.98404026 C46.46025314 296.98475058 47.13863515 299.98365134 47.8189621 302.98215675 C48.13540906 304.38439242 48.44862821 305.78736119 48.75830841 307.1911068 C51.24152096 318.43504353 53.82122836 329.01127344 62.83984375 336.796875 C70.84296755 341.47437641 78.70675153 343.04053964 87.77734375 340.671875 C96.58662436 337.79346264 101.52746584 332.81506771 105.83984375 324.796875 C107.57228882 320.70053165 109.02410701 316.52031555 110.47265625 312.31640625 C111.13140333 310.44437975 111.79015228 308.57235392 112.44897652 306.70035458 C113.14701447 304.71103957 113.84027047 302.7201182 114.53210449 300.7286377 C115.9845053 296.5483516 117.4504473 292.37289644 118.91894531 288.19824219 C120.42768218 283.90771599 121.93591996 279.61702325 123.43981934 275.32479858 C127.71638508 263.12123442 132.05806026 250.9416162 136.43093872 238.7722168 C137.58599742 235.5575797 138.73935115 232.34233528 139.89233398 229.12695312 C143.4885723 219.10205835 147.09601435 209.08128221 150.71829224 199.06576538 C152.41560039 194.37269862 154.11098064 189.67893605 155.80651855 184.98522949 C157.00427407 181.67316782 158.20565448 178.36243642 159.40722656 175.05175781 C160.12841342 173.05669781 160.84945066 171.06158371 161.5703125 169.06640625 C161.90365097 168.15149918 162.23698944 167.2365921 162.58042908 166.29396057 C162.88026199 165.46194626 163.18009491 164.62993195 163.48901367 163.77270508 C163.75147385 163.04876053 164.01393402 162.32481598 164.28434753 161.57893372 C164.93904143 159.78974914 164.93904143 159.78974914 164.83984375 157.796875 C140.74984375 157.796875 116.65984375 157.796875 91.83984375 157.796875 C91.50984375 167.036875 91.17984375 176.276875 90.83984375 185.796875 C86.82298529 189.81373346 84.4222505 189.92202756 78.97000122 189.93058777 C77.74463654 189.93485275 76.51927185 189.93911774 75.2567749 189.94351196 C73.89660641 189.94316244 72.53643795 189.9427009 71.17626953 189.94213867 C69.74553337 189.94513045 68.31479801 189.94853303 66.88406372 189.95231628 C62.9955956 189.96115884 59.10714948 189.96349451 55.21867228 189.96413207 C51.97315198 189.96508122 48.72763681 189.96875961 45.48211849 189.97230417 C37.82482765 189.9804498 30.16754858 189.98288831 22.51025391 189.98217773 C14.61056849 189.98157699 6.71095137 189.9921279 -1.18871677 190.0079214 C-7.97011889 190.02099622 -14.75149869 190.02636165 -21.53291333 190.02572232 C-25.58349896 190.02546731 -29.63402393 190.02832048 -33.68459702 190.03890038 C-37.49473193 190.04858032 -41.30474815 190.04866127 -45.11488724 190.04138374 C-46.51249108 190.04033775 -47.91010231 190.04270167 -49.30769348 190.0487442 C-51.21722948 190.0564647 -53.12680591 190.05061967 -55.03634644 190.04411316 C-56.10449522 190.04465793 -57.172644 190.04520269 -58.27316093 190.04576397 C-61.29715315 189.78506445 -63.46104337 189.1707839 -66.16015625 187.796875 C-70.64221927 178.83274897 -67.80244868 167.81268699 -68.16015625 157.796875 C-92.25015625 157.796875 -116.34015625 157.796875 -141.16015625 157.796875 Z " fill="#000000" transform="translate(244.16015625,90.203125)"/>
<path d="M0 0 C3.45625074 2.42672924 4.77688975 3.90675979 5.625 8.0625 C4.88305414 12.73675894 3.26079835 16.55621879 1.2890625 20.83984375 C-2.46734475 30.04873303 -2.10625542 38.25834648 -1.65820312 48.06445312 C-1.46695222 56.24901105 -1.46695222 56.24901105 -4.29296875 60.23046875 C-7.87668173 62.57306901 -9.79661705 62.7506041 -14 62 C-17.10362019 59.70601986 -18.71617984 58.20036043 -19.61328125 54.40625 C-21.78941438 35.23869355 -19.13448045 17.59958004 -9 1 C-5.86128812 -0.56935594 -3.46144178 -0.35201103 0 0 Z " fill="#000000" transform="translate(116,130)"/>
<path d="M0 0 C2.375 1.5625 2.375 1.5625 4 4 C4.78847612 8.96739955 4.78847612 8.96739955 4 12 C1.93986188 14.21464848 0.47969424 15.4311064 -2 17 C-2.63808594 17.46664062 -3.27617187 17.93328125 -3.93359375 18.4140625 C-7.2687063 20.74148997 -9.62637017 21.93667291 -13.6875 22.625 C-18.01569357 21.8083597 -19.47865801 20.59100223 -22 17 C-22.625 13.5 -22.625 13.5 -22 10 C-17.23004816 3.25627499 -8.1788252 -2.22436669 0 0 Z " fill="#000000" transform="translate(146,103)"/>
</svg>
