<?xml version="1.0" encoding="UTF-8"?>
<svg version="1.1" xmlns="http://www.w3.org/2000/svg" width="512" height="512">
<path d="M0 0 C1.22154282 -0.00524185 2.44308563 -0.0104837 3.7016449 -0.0158844 C6.27057135 -0.0222645 8.83952718 -0.02102017 11.40844727 -0.01245117 C15.27480026 -0.00398029 19.13965308 -0.03270036 23.00585938 -0.06445312 C45.57623454 -0.12906056 66.26996491 2.60263187 86.37109375 13.37109375 C89.17899847 14.81236046 90.54855995 15.42536317 93.74609375 15.55859375 C96.31483516 14.59531572 98.57184454 13.5118157 100.99609375 12.24609375 C117.18180485 3.86160376 135.0236079 0.24787042 153.12109375 -0.00390625 C154.11963379 -0.02630371 155.11817383 -0.04870117 156.14697266 -0.07177734 C165.3574033 -0.04266435 173.38518315 2.35182347 180.21484375 8.73046875 C188.36885112 17.79972185 189.98260955 28.15363169 189.60546875 39.97265625 C189.57412407 42.47605336 189.55423786 44.97939575 189.53466797 47.48291016 C189.50910579 49.18975165 189.46215621 50.89641662 189.39306641 52.60205078 C188.87064992 63.80794762 188.87064992 63.80794762 193.72460938 73.54199219 C196.82557182 76.82457644 200.17543612 79.67558143 203.74609375 82.43359375 C206.89796742 80.93769931 208.9627532 79.41205218 211.37109375 76.87109375 C215.13348279 72.91976377 217.10731363 72.31481927 222.67578125 72.0078125 C225.76136424 72.64239466 226.80541093 73.9780359 228.74609375 76.43359375 C230.23046875 79.78125 230.23046875 79.78125 231.49609375 83.49609375 C231.9240625 84.72457031 232.35203125 85.95304687 232.79296875 87.21875 C233.74609375 90.43359375 233.74609375 90.43359375 233.74609375 93.43359375 C234.65230469 93.07265625 235.55851562 92.71171875 236.4921875 92.33984375 C249.50521784 87.38249886 249.50521784 87.38249886 256.74609375 88.43359375 C260.89987217 91.52249443 261.48038708 94.43635021 262.24609375 99.43359375 C262.35864502 100.14692871 262.47119629 100.86026367 262.5871582 101.59521484 C262.99163221 104.20554278 263.36791019 106.81932834 263.74609375 109.43359375 C264.10371485 111.80084955 264.46181922 114.16803237 264.8203125 116.53515625 C265.193059 119.04272363 265.56414981 121.55053767 265.93359375 124.05859375 C266.11277344 125.26773438 266.29195313 126.476875 266.4765625 127.72265625 C267.27929544 133.34178681 267.98754327 138.75536722 267.74609375 144.43359375 C268.33100586 144.40740967 268.91591797 144.38122559 269.51855469 144.35424805 C272.17745941 144.25009619 274.83593519 144.18521603 277.49609375 144.12109375 C278.87667969 144.05825195 278.87667969 144.05825195 280.28515625 143.99414062 C287.01214491 143.87227489 287.01214491 143.87227489 290.38671875 146.453125 C297.40837985 161.84831873 285.40938893 189.30951535 280.0390625 204.25 C274.53083557 218.98009839 267.04766539 232.72488452 259.60742188 246.54931641 C250.2182434 264.05720604 244.26669407 282.92409902 240.74609375 302.43359375 C240.47116089 303.95364014 240.47116089 303.95364014 240.19067383 305.50439453 C238.6692337 314.88512441 238.37234868 324.15403278 238.22564697 333.64041138 C238.16822078 337.28397409 238.08885698 340.92696974 238.01104736 344.57014465 C237.95416191 347.2480618 237.89992463 349.92602187 237.84619141 352.60400391 C237.06200431 390.97869932 231.6437001 428.25612365 217.24609375 464.05859375 C216.71278442 465.39144409 216.71278442 465.39144409 216.16870117 466.7512207 C211.14623908 478.83854462 205.39242444 488.4268446 193.37109375 494.37109375 C184.15510073 497.90311138 172.53359817 498.22600953 163.18359375 494.87109375 C152.94125333 489.80271911 146.10488705 482.4715867 141.68164062 471.88623047 C140.45518765 467.36000448 140.4097444 463.1151446 140.3671875 458.4453125 C140.35064621 457.47799194 140.33410492 456.51067139 140.31706238 455.51403809 C140.28259427 453.45037009 140.25223712 451.38663 140.22564697 449.32284546 C140.16921238 445.02615781 140.08952142 440.73000223 140.01104736 436.43367004 C139.95402562 433.29565651 139.89992213 430.15760264 139.84619141 427.01953125 C139.06851981 354.92885494 139.06851981 354.92885494 110.09375 291.70703125 C105.03616525 287.05084211 99.74712174 283.92556555 92.93359375 282.80859375 C85.28922162 283.27416455 78.5248569 288.22007306 73.37109375 293.55859375 C66.66925167 301.90568312 63.81390362 312.69918707 60.74609375 322.80859375 C60.40288086 323.9385376 60.05966797 325.06848145 59.70605469 326.23266602 C51.84556588 352.57047974 47.2584976 379.76721359 46.24609375 407.24609375 C46.20331299 408.30634766 46.16053223 409.36660156 46.11645508 410.45898438 C45.86280399 417.28927845 45.7126343 424.11363309 45.63607788 430.94792175 C45.58953969 435.07367011 45.5298917 439.19920782 45.47119141 443.32479858 C45.44629156 445.38366407 45.42845488 447.44262809 45.41796875 449.50161743 C45.40274379 452.43774457 45.36354052 455.37276299 45.3203125 458.30859375 C45.3222612 459.1807402 45.3242099 460.05288666 45.32621765 460.95146179 C45.12363928 471.2101465 41.0209068 480.21227197 33.74609375 487.43359375 C22.6399883 495.8923136 12.39394533 497.88536388 -1.25390625 496.43359375 C-9.61580713 494.44266497 -16.84997351 490.14542015 -22.25390625 483.43359375 C-25.4113823 478.29743271 -27.89506822 472.97523152 -30.25390625 467.43359375 C-30.58777344 466.65322754 -30.92164062 465.87286133 -31.265625 465.06884766 C-40.19333418 443.80567823 -45.97772012 421.24269889 -49.25390625 398.43359375 C-49.42833252 397.22952881 -49.60275879 396.02546387 -49.7824707 394.78491211 C-51.39362351 382.91137716 -51.65433342 371.08931637 -51.81640625 359.12109375 C-51.92172707 331.69666335 -51.92172707 331.69666335 -54.94140625 304.49609375 C-55.11365723 303.50230713 -55.2859082 302.50852051 -55.46337891 301.48461914 C-59.82569461 277.53752165 -68.76662858 256.03732656 -80.33984375 234.7421875 C-91.37394923 214.28416627 -99.59399862 193.24335181 -104.25390625 170.43359375 C-104.41616699 169.67916992 -104.57842773 168.92474609 -104.74560547 168.14746094 C-109.71750028 144.14485626 -110.2940024 115.01465655 -103.25390625 91.43359375 C-103.05023438 90.69415527 -102.8465625 89.9547168 -102.63671875 89.19287109 C-93.79522547 57.3539443 -71.92241133 27.07013513 -43.12011719 10.44287109 C-29.64804071 3.15695218 -15.25457561 -0.03932235 0 0 Z M-42.25390625 30.43359375 C-40.72716809 36.24081864 -37.69945925 40.72757117 -34.44140625 45.68359375 C-25.58510197 59.19246827 -19.64121957 71.35216919 -19.81640625 87.80859375 C-19.82397949 88.81374023 -19.83155273 89.81888672 -19.83935547 90.85449219 C-20.01264652 98.68927156 -21.00057703 105.22762155 -24.25390625 112.43359375 C-24.67800781 113.38105469 -25.10210937 114.32851562 -25.5390625 115.3046875 C-32.71273712 129.71198388 -44.97039327 140.55623448 -60.16015625 145.81982422 C-67.00827106 147.82730564 -74.18755881 148.58183261 -81.25390625 149.43359375 C-82.77739593 149.62458424 -84.30083653 149.81596678 -85.82421875 150.0078125 C-86.95601562 150.14832031 -88.0878125 150.28882813 -89.25390625 150.43359375 C-88.77566909 158.63077831 -87.64167953 166.39761836 -85.69140625 174.37109375 C-85.4289209 175.44866943 -85.16643555 176.52624512 -84.89599609 177.63647461 C-80.16292841 196.31739555 -72.33392074 213.24378137 -63.17578125 230.1015625 C-52.1510445 250.56820458 -43.89949375 271.61390487 -39.25390625 294.43359375 C-39.01849121 295.54130127 -39.01849121 295.54130127 -38.77832031 296.67138672 C-35.09539516 314.73356052 -35.65046322 333.41272515 -35.33789062 351.76416016 C-34.77531358 384.05624498 -30.38698412 414.57272418 -20.25390625 445.30859375 C-19.85099365 446.53787598 -19.44808105 447.7671582 -19.03295898 449.03369141 C-13.38050853 465.94497588 -13.38050853 465.94497588 -1.25390625 478.43359375 C4.24316645 480.26595132 10.7125662 480.61085645 16.171875 478.4921875 C21.40431655 475.348781 25.48245824 471.17974543 27.74609375 465.43359375 C28.55072739 461.34898286 28.87788703 457.46487238 28.90380859 453.3059082 C28.91407074 452.11218094 28.92433289 450.91845367 28.93490601 449.68855286 C28.94220734 448.40429916 28.94950867 447.12004547 28.95703125 445.796875 C28.97003971 444.43522878 28.9838605 443.07359011 28.9984436 441.71195984 C29.05933421 435.96958489 29.11325617 430.22721995 29.14746094 424.48461914 C29.29891422 400.40984727 30.66817585 376.66466972 35.43359375 352.99609375 C35.68560547 351.72241943 35.93761719 350.44874512 36.19726562 349.13647461 C38.92404757 335.68066971 42.60657452 322.51716056 46.74609375 309.43359375 C47.00890137 308.59183594 47.27170898 307.75007813 47.54248047 306.8828125 C52.39041101 291.6751426 60.12872741 278.68293564 74.578125 270.91015625 C77.26910952 269.63644812 79.96738473 268.50034272 82.74609375 267.43359375 C83.92171875 266.97984375 85.09734375 266.52609375 86.30859375 266.05859375 C97.70983313 263.98564114 108.09216964 268.73368653 117.43359375 274.99609375 C128.0512644 283.19648492 133.6526175 293.94234219 137.74609375 306.43359375 C138.05401855 307.37090332 138.36194336 308.30821289 138.67919922 309.27392578 C148.81829663 340.70067426 155.03608642 373.34661451 156.24609375 406.37109375 C156.28959961 407.43505371 156.33310547 408.49901367 156.37792969 409.59521484 C156.6306675 416.29276689 156.77516072 422.98156738 156.83032227 429.68330383 C156.86412736 433.64840757 156.91530315 437.61323737 156.96606445 441.57815552 C156.9859775 443.55454606 156.99697935 445.5310478 156.9987793 447.50753784 C157.00186256 450.31949894 157.03533537 453.12974275 157.07421875 455.94140625 C157.06710876 456.78011765 157.05999878 457.61882904 157.05267334 458.48295593 C157.17909382 464.60796607 158.91675285 468.65342289 162.74609375 473.43359375 C168.55134136 478.81406714 172.96735169 479.90343107 180.7734375 479.7421875 C187.31267724 479.06334395 191.1446916 475.44103572 195.24316406 470.55493164 C197.99093725 466.67653638 199.54198263 462.36752369 201.18359375 457.93359375 C201.7554541 456.42116089 201.7554541 456.42116089 202.33886719 454.87817383 C215.37147384 419.82786557 220.39687444 384.79600758 220.88671875 347.6015625 C221.27346153 320.25944167 222.99024262 294.57988897 231.74609375 268.43359375 C232.02404785 267.59586426 232.30200195 266.75813477 232.58837891 265.89501953 C237.76844794 250.61220716 245.12901228 236.61987781 252.74609375 222.43359375 C262.42575468 204.37355524 273.74609375 181.32288167 273.74609375 160.43359375 C271.95751953 160.37751953 271.95751953 160.37751953 270.1328125 160.3203125 C268.56637475 160.25465343 266.99996991 160.18820607 265.43359375 160.12109375 C264.64791016 160.09853516 263.86222656 160.07597656 263.05273438 160.05273438 C262.29541016 160.01728516 261.53808594 159.98183594 260.7578125 159.9453125 C260.06131592 159.91912842 259.36481934 159.89294434 258.6472168 159.8659668 C256.19028331 159.3071856 255.28771708 158.39913454 253.74609375 156.43359375 C252.9375 153.40625 252.9375 153.40625 252.30859375 149.49609375 C252.19080566 148.78114746 252.07301758 148.06620117 251.95166016 147.32958984 C250.53114133 138.50636728 249.32012785 129.64646677 248.10375977 120.79321289 C247.8609729 119.0412561 247.8609729 119.0412561 247.61328125 117.25390625 C247.39841064 115.68020264 247.39841064 115.68020264 247.17919922 114.07470703 C246.80186283 111.33666849 246.80186283 111.33666849 245.74609375 108.43359375 C244.30815983 108.74409101 242.87076195 109.05707135 241.43359375 109.37109375 C240.63308594 109.54511719 239.83257812 109.71914062 239.0078125 109.8984375 C236.60069275 110.43245534 236.60069275 110.43245534 233.74609375 111.43359375 C231.58984375 111.63671875 231.58984375 111.63671875 229.24609375 111.68359375 C228.47265625 111.709375 227.69921875 111.73515625 226.90234375 111.76171875 C224.12278967 111.33874313 223.40645912 110.68728853 221.74609375 108.43359375 C220.578125 105.734375 220.578125 105.734375 219.55859375 102.74609375 C219.21441406 101.75222656 218.87023437 100.75835937 218.515625 99.734375 C218.26167969 98.97511719 218.00773437 98.21585937 217.74609375 97.43359375 C215.20180706 98.62021485 213.57001553 99.59988985 211.49609375 101.55859375 C208.53298733 103.57889359 206.43205198 104.20356811 202.83105469 104.00537109 C200.27118263 103.30335466 199.02786828 102.26238125 197.07421875 100.47265625 C196.38094482 99.83900146 195.6876709 99.20534668 194.97338867 98.55249023 C191.02724723 94.7984004 187.15038473 90.98176331 183.30859375 87.12109375 C182.49455078 86.31091797 181.68050781 85.50074219 180.84179688 84.66601562 C180.06900391 83.89193359 179.29621094 83.11785156 178.5 82.3203125 C177.80205322 81.62123779 177.10410645 80.92216309 176.38500977 80.2019043 C173.89984139 77.52052867 173.61917704 75.86662785 173.58837891 72.31030273 C173.57298569 71.03273354 173.57298569 71.03273354 173.55728149 69.72935486 C173.5463295 68.34351952 173.5463295 68.34351952 173.53515625 66.9296875 C173.50706667 64.97199715 173.47840209 63.01431498 173.44921875 61.05664062 C173.40811427 57.9716025 173.37122792 54.88671365 173.34472656 51.80151367 C173.31692436 48.82308283 173.27103075 45.84534617 173.22265625 42.8671875 C173.21777695 41.50260658 173.21777695 41.50260658 173.21279907 40.11045837 C173.09398489 33.84375045 172.65684088 26.69668676 168.29458618 21.80638123 C160.81384656 15.43176055 151.07246416 16.71999601 141.74609375 17.43359375 C126.76390837 19.45857826 111.96058174 24.68792121 99.11328125 32.6796875 C95.44618322 34.58981165 93.796958 35.08152132 89.74609375 34.43359375 C87.26546324 33.28846878 85.02361464 32.12282902 82.68359375 30.74609375 C65.87487765 21.38845168 47.9748085 16.7555526 28.74609375 16.43359375 C27.64587891 16.41312988 26.54566406 16.39266602 25.41210938 16.37158203 C0.79421151 15.98311494 -21.04076911 16.29150232 -42.25390625 30.43359375 Z M-58.22265625 45.34765625 C-73.44161674 61.64697505 -82.83920501 80.88439811 -88.25390625 102.43359375 C-88.50011719 103.36042969 -88.74632813 104.28726563 -89 105.2421875 C-91.07972666 114.43601362 -90.41902992 124.06741209 -90.25390625 133.43359375 C-74.26512472 133.05471267 -60.51636708 130.76486721 -48.1875 119.5546875 C-38.4661842 109.1614881 -35.50180468 96.81305388 -35.90625 82.97265625 C-36.77031231 68.38294905 -46.89523473 54.92135345 -55.25390625 43.43359375 C-56.59204632 43.31741402 -56.59204632 43.31741402 -58.22265625 45.34765625 Z " fill="#000000" transform="translate(123.25390625,7.56640625)"/>
<path d="M0 0 C7.71558881 4.58068352 13.27072147 11.03491366 15.8515625 19.77734375 C16.64131638 23.84855561 17.07270047 27.92164158 17.484375 32.046875 C18.83731681 45.13164201 21.88012862 56.38238935 31.10546875 66.25 C31.65460938 66.85199219 32.20375 67.45398438 32.76953125 68.07421875 C40.66664235 75.81477919 51.79894071 79.84206675 61.796875 84.14453125 C63.57130981 84.91373901 63.57130981 84.91373901 65.3815918 85.69848633 C67.72685015 86.70955185 70.0783756 87.70623974 72.43676758 88.6862793 C86.83630919 94.87341008 96.23819722 103.77147317 102.37890625 118.2421875 C106.17737729 128.73903759 105.6069694 143.32988571 101.49609375 153.578125 C94.62134952 166.78690324 84.93870776 175.38582839 70.984375 180.36328125 C57.36299906 183.47713053 42.12149481 182.03989759 29.10546875 177.25 C27.30529297 176.59644531 27.30529297 176.59644531 25.46875 175.9296875 C17.43985727 172.75284994 10.76905699 168.71575289 4.10546875 163.25 C3.25210938 162.56035156 2.39875 161.87070313 1.51953125 161.16015625 C-8.86159153 152.3282164 -15.28340453 142.33547416 -20.71313477 130.01220703 C-24.68084486 121.07531932 -28.42622391 114.93180771 -37.89453125 111.25 C-41.31511069 110.44783167 -44.71274657 110.07645788 -48.20703125 109.75 C-63.56208948 107.91846553 -75.39657428 102.52298715 -85.390625 90.44140625 C-94.28623092 79.06124206 -97.05603435 67.42326697 -96.14160156 53.15087891 C-95.42398505 47.62977001 -92.23840421 44.49554079 -88.33203125 40.875 C-83.72898348 37.80630149 -80.46709435 36.98759927 -74.89453125 36.5 C-66.14499214 35.51192483 -57.79361692 32.75870379 -51.58203125 26.1875 C-48.35664801 21.94706968 -46.05993502 17.09477211 -43.703125 12.3359375 C-41.08919295 7.87588066 -37.62976075 4.57447021 -33.45703125 1.5625 C-32.92207031 1.16675781 -32.38710937 0.77101563 -31.8359375 0.36328125 C-22.78563366 -4.82653081 -9.30131465 -4.48706636 0 0 Z M-28.89453125 20.8125 C-30.04043358 22.78201962 -31.15871403 24.76961251 -32.19140625 26.80078125 C-38.31986805 38.7117433 -46.98757211 46.85458856 -59.89453125 51.0625 C-64.13790384 52.22039189 -68.27902444 52.67219517 -72.66796875 52.84375 C-75.50070257 53.36059968 -76.86851428 54.21035511 -78.89453125 56.25 C-80.61050284 63.12650379 -78.32266531 70.29003648 -74.89453125 76.25 C-68.52266547 85.13946651 -61.34696252 90.35950891 -50.58203125 92.4375 C-47.61287281 92.89880993 -44.64415481 93.27963393 -41.66015625 93.6328125 C-30.17520311 95.11561161 -20.42063178 99.1014249 -12.89453125 108.25 C-10.16761007 112.73300792 -8.03306863 117.53105417 -5.82666016 122.28417969 C-1.46628884 131.48001778 3.94133304 139.04815831 11.10546875 146.25 C11.69585937 146.87519531 12.28625 147.50039062 12.89453125 148.14453125 C24.60816648 159.57435594 41.54393334 164.81218269 57.54223633 164.66577148 C66.44934082 164.35837062 72.33907642 162.187014 78.98046875 156.125 C86.07420973 148.40349434 87.83332622 140.97177251 87.484375 130.58203125 C86.94108904 125.8044753 85.69595327 122.28051216 83.10546875 118.25 C82.68910156 117.57582031 82.27273438 116.90164062 81.84375 116.20703125 C76.4860319 108.93684684 68.08283307 105.85663013 60.10546875 102.25 C56.81340157 100.75478372 53.52227433 99.25764281 50.23364258 97.75488281 C47.99569515 96.73539637 45.75352459 95.72511298 43.5065918 94.72558594 C24.88395403 86.30244547 12.67976431 75.34660075 5.10546875 56.25 C2.11246254 47.6718304 0.56655973 39.09514989 -0.03662109 30.05883789 C-0.56375992 23.77470873 -2.90423692 20.05074249 -7.51953125 15.875 C-15.74911823 11.91260627 -23.24081223 13.56867251 -28.89453125 20.8125 Z " fill="#000000" transform="translate(215.89453125,66.75)"/>
<path d="M0 0 C2.05611915 3.57585939 2.48754179 6.56370816 1.4375 10.5 C-3.4999334 17.76709586 -10.76506762 23.8184955 -17 30 C-18.0282298 31.02320139 -19.05622626 32.04663733 -20.08398438 33.0703125 C-22.57414338 35.54957999 -25.06742833 38.02567538 -27.5625 40.5 C-27.08919044 42.26875236 -26.61346719 44.03685895 -26.13671875 45.8046875 C-25.87205811 46.78937012 -25.60739746 47.77405273 -25.3347168 48.78857422 C-24.57679386 51.59663052 -24.57679386 51.59663052 -23.375 54.625 C-22.26846936 58.54041611 -21.56985132 62.50858046 -22.5625 66.5 C-26.88950879 72.26934505 -33.64717231 75.09236895 -39.875 78.4375 C-42.30207333 79.75829332 -44.72540067 81.08588157 -47.1484375 82.4140625 C-47.76293259 82.75002945 -48.37742767 83.0859964 -49.01054382 83.43214417 C-56.44263944 87.50800581 -63.7433581 91.80463957 -71.04614258 96.10717773 C-71.97837646 96.65575439 -72.91061035 97.20433105 -73.87109375 97.76953125 C-75.09010376 98.49039917 -75.09010376 98.49039917 -76.33374023 99.22583008 C-81.27689258 102.05180358 -84.82492156 103.41707196 -90.5625 102.5 C-93.0625 101 -93.0625 101 -94.5625 98.5 C-95.07555521 92.47633723 -94.22518077 88.77211099 -90.984375 83.62109375 C-90.61652893 83.00532974 -90.24868286 82.38956573 -89.86968994 81.75514221 C-88.70015164 79.8055872 -87.50720867 77.87170965 -86.3125 75.9375 C-85.52571501 74.63705172 -84.74054399 73.33562553 -83.95703125 72.03320312 C-82.50704025 69.62581102 -81.04681409 67.22525495 -79.57714844 64.82983398 C-77.51225194 61.41694943 -75.52790491 57.97083901 -73.5625 54.5 C-73.95630859 53.93603516 -74.35011719 53.37207031 -74.75585938 52.79101562 C-76.54422024 50.20688708 -78.30329839 47.60405726 -80.0625 45 C-80.68253906 44.113125 -81.30257813 43.22625 -81.94140625 42.3125 C-85.62557651 36.8064873 -87.7801581 33.1681277 -86.5625 26.5 C-83.32027128 22.17390785 -79.2014006 21.00543989 -74.2578125 19.3984375 C-73.43401093 19.12006042 -72.61020935 18.84168335 -71.76144409 18.55487061 C-69.07389654 17.64985284 -66.38105682 16.76195659 -63.6875 15.875 C-61.83173429 15.25593505 -59.97626719 14.63597429 -58.12109375 14.01513672 C-54.38360339 12.765768 -50.64404304 11.522856 -46.90332031 10.28320312 C-42.08544195 8.68163134 -37.28663902 7.02951736 -32.4921875 5.359375 C-30.47878619 4.66430278 -28.46486621 3.97076429 -26.45062256 3.27813721 C-24.61154532 2.6419657 -22.77664824 1.99375017 -20.94189453 1.34521484 C-6.24507486 -3.65565358 -6.24507486 -3.65565358 0 0 Z M-48.44921875 29.03125 C-49.38701172 29.34707031 -50.32480469 29.66289063 -51.29101562 29.98828125 C-52.26748047 30.32214844 -53.24394531 30.65601563 -54.25 31 C-55.23806641 31.33386719 -56.22613281 31.66773438 -57.24414062 32.01171875 C-59.68498825 32.83712616 -62.12433789 33.66670008 -64.5625 34.5 C-63.08588516 38.36772869 -61.32193365 41.42228672 -58.9375 44.8125 C-54.50558359 51.7716308 -54.50558359 51.7716308 -54.91796875 56.375 C-56.35392314 61.10929812 -58.97689261 65.31377851 -61.5625 69.5 C-56.64808588 68.06347895 -52.56011642 65.95840385 -48.1875 63.375 C-47.54683594 63.00246094 -46.90617187 62.62992188 -46.24609375 62.24609375 C-44.68201523 61.33565998 -43.12184466 60.41851809 -41.5625 59.5 C-42.0617791 55.49607245 -42.63710949 51.87707173 -44.125 48.125 C-45.69144757 43.54255635 -46.5396776 39.30736482 -45.5625 34.5 C-44.136159 31.8107529 -42.55461528 29.84073545 -40.5625 27.5 C-43.64141726 27.5 -45.55393621 28.04860865 -48.44921875 29.03125 Z " fill="#000000" transform="translate(494.5625,9.5)"/>
</svg>
