<?xml version="1.0" encoding="UTF-8"?>
<svg version="1.1" xmlns="http://www.w3.org/2000/svg" width="512" height="512">
<path d="M0 0 C0.82177734 0.18191895 1.64355469 0.36383789 2.49023438 0.55126953 C10.15965415 2.29701419 17.60741467 4.46454624 25.0078125 7.1328125 C26.54779907 7.68727051 26.54779907 7.68727051 28.11889648 8.25292969 C30.11475528 8.98273851 32.10437607 9.72991977 34.08618164 10.49707031 C44.6814166 14.42392985 51.67802882 11.60395349 61.99871826 7.93527222 C76.10921571 2.94784549 90.19337272 -0.6580905 105 -3 C106.23234375 -3.19980469 107.4646875 -3.39960938 108.734375 -3.60546875 C115.24182179 -4.35951149 121.83174971 -4.244452 128.375 -4.25 C129.08897949 -4.25067474 129.80295898 -4.25134949 130.53857422 -4.25204468 C163.12594187 -4.203149 192.55089743 5.42433431 216.5625 28.1875 C237.77522935 50.10981009 243.65822009 77.50536897 243.26953125 107.07421875 C243.07731412 116.76129948 241.68520835 125.70676334 239 135 C238.75813965 135.85352051 238.5162793 136.70704102 238.26708984 137.58642578 C234.35843608 150.99618949 229.07069631 163.78799235 223.625 176.625 C205.47133912 219.4432399 200.06628084 258.60216667 198.97094727 305.00341797 C198.02196464 344.0522044 194.3101407 389.67697282 164.40625 418.5 C153.71230133 427.84184021 140.82781804 432.56037115 126.62109375 432.18359375 C110.5777638 431.05984337 92.71702413 425.16059936 81.58203125 412.99609375 C64.3924437 391.30750303 63.15361597 365.43869989 61.578125 338.93359375 C59.2710184 297.98159085 59.2710184 297.98159085 45 260 C44.34 260 43.68 260 43 260 C28.32799852 286.08355818 28.25080615 319.58357267 26.51928711 348.64892578 C25.15857453 370.54094499 22.93408672 392.20074704 9 410 C7.8553125 411.5778125 7.8553125 411.5778125 6.6875 413.1875 C-5.31688135 425.75022467 -23.05878696 431.68440504 -40.125 432.25 C-56.33207073 432.02798533 -68.84539992 425.43393063 -80 414 C-104.83981886 387.37610575 -110.43481152 344.92985913 -110 310 C-111.13953125 309.92523438 -112.2790625 309.85046875 -113.453125 309.7734375 C-128.79533537 308.57009478 -142.67781902 304.48334929 -157 299 C-157.25523437 299.68449219 -157.51046875 300.36898438 -157.7734375 301.07421875 C-159.18849108 304.44961726 -160.87258566 307.59974038 -162.625 310.8125 C-162.94984375 311.40998047 -163.2746875 312.00746094 -163.609375 312.62304688 C-164.40379151 314.08337135 -165.20155376 315.54187491 -166 317 C-165.21625 317.9075 -164.4325 318.815 -163.625 319.75 C-160.05894849 323.87911228 -158.68604652 327.11627858 -158.5625 332.625 C-158.50255859 334.06746094 -158.50255859 334.06746094 -158.44140625 335.5390625 C-159.86433328 344.35523979 -165.89098001 352.41616027 -170.375 360 C-171.62427522 362.12726524 -172.87295275 364.25488158 -174.12109375 366.3828125 C-175.08184814 368.01911621 -175.08184814 368.01911621 -176.06201172 369.68847656 C-179.21142236 375.07000918 -182.32514629 380.47197683 -185.4375 385.875 C-186.05858643 386.95249512 -186.67967285 388.02999023 -187.31958008 389.14013672 C-189.21357769 392.42645606 -191.10689942 395.71316385 -193 399 C-194.26294656 401.19275111 -195.52596731 403.3854595 -196.7890625 405.578125 C-197.41304932 406.6614209 -198.03703613 407.7447168 -198.67993164 408.86083984 C-200.5447447 412.09421432 -202.41490577 415.32445595 -204.28515625 418.5546875 C-206.82156225 422.9400686 -209.32436545 427.34268157 -211.80859375 431.7578125 C-213.03902324 433.92189732 -214.26949056 436.08596064 -215.5 438.25 C-216.05115479 439.24402832 -216.60230957 440.23805664 -217.17016602 441.26220703 C-221.17436175 448.26090283 -225.9525446 454.5906473 -233.796875 457.5234375 C-242.21126912 459.3435724 -250.39019468 458.91612215 -257.87890625 454.55078125 C-263.14990195 450.69703302 -267.57477954 445.49267097 -269 439 C-270.86804966 426.93180617 -267.57278105 419.50068078 -261.48046875 409.44921875 C-259.89020309 406.8183571 -258.34839266 404.16295058 -256.8125 401.5 C-254.47049796 397.44740644 -252.11167204 393.40538499 -249.73828125 389.37109375 C-245.97878995 382.97533178 -242.26549923 376.55359634 -238.5625 370.125 C-237.63473755 368.5155249 -237.63473755 368.5155249 -236.68823242 366.87353516 C-234.13778773 362.44835659 -231.58870818 358.02239281 -229.04003906 353.59619141 C-225.84954109 348.0559241 -222.65586405 342.5175762 -219.453125 336.984375 C-217.29615075 333.25653502 -215.15960785 329.51869639 -213.046875 325.765625 C-212.17714239 324.23954967 -211.3073552 322.71350545 -210.4375 321.1875 C-210.06842529 320.518396 -209.69935059 319.84929199 -209.3190918 319.15991211 C-205.9409039 313.28209577 -201.68673984 308.88789658 -195 307 C-192.2109375 306.76953125 -192.2109375 306.76953125 -189.375 306.8125 C-188.43398437 306.81894531 -187.49296875 306.82539063 -186.5234375 306.83203125 C-184 307 -184 307 -181 308 C-180.63261719 306.98873047 -180.63261719 306.98873047 -180.2578125 305.95703125 C-178.72738164 302.35909286 -176.84156692 299.06123937 -174.875 295.6875 C-174.50246094 295.04232422 -174.12992187 294.39714844 -173.74609375 293.73242188 C-172.83367787 292.15324055 -171.91724491 290.57638136 -171 289 C-172.04414063 288.67515625 -172.04414063 288.67515625 -173.109375 288.34375 C-176.74764941 286.65244406 -179.37760395 284.23516882 -182.25 281.5 C-182.82137695 280.96101074 -183.39275391 280.42202148 -183.98144531 279.86669922 C-205.90496096 258.97219625 -220.09115617 231.56294829 -221.21875 200.9375 C-221.9755767 168.40541887 -211.90370412 138.61951221 -189.3515625 114.83300781 C-179.67936995 104.95236283 -168.80304756 96.46704847 -156 91 C-155.34 91 -154.68 91 -154 91 C-154.0825 89.865625 -154.165 88.73125 -154.25 87.5625 C-154.14469061 65.16670203 -142.02529497 43.70945902 -127 28 C-126.09701172 26.98486328 -126.09701172 26.98486328 -125.17578125 25.94921875 C-94.64948779 -7.09334185 -40.92263455 -9.2159227 0 0 Z M-117.75 42.875 C-124.15372601 50.31747658 -128.85214306 57.98201693 -132.375 67.125 C-132.75144653 68.09203857 -132.75144653 68.09203857 -133.13549805 69.07861328 C-134.92282553 74.00139536 -135.61045636 78.78853782 -136 84 C-135.18716553 83.86368164 -135.18716553 83.86368164 -134.35791016 83.72460938 C-101.53282864 78.33325044 -69.9442245 81.13038006 -41.75390625 100.1953125 C-16.61996612 118.57350566 0.92933809 143.49008946 6.34375 174.46875 C8.62187794 190.78308557 8.76359004 209.12779513 4 225 C3.50693359 226.79244141 3.50693359 226.79244141 3.00390625 228.62109375 C-1.50348226 243.60933028 -9.07712352 256.94567532 -19 269 C-19.61101562 269.77472656 -20.22203125 270.54945313 -20.8515625 271.34765625 C-30.04806014 282.44215447 -42.27612662 290.494453 -55 297 C-56.03898437 297.53238281 -57.07796875 298.06476563 -58.1484375 298.61328125 C-69.22071267 303.80089686 -81.13446791 306.27124934 -93 309 C-92.25648527 342.27331106 -88.93732387 379.46437656 -65 405 C-57.40693337 411.43921827 -48.4037855 415.39946127 -38.35546875 415.2109375 C-25.68911408 414.07663708 -12.52908643 408.61912663 -4 399 C3.09269973 389.51557595 5.88640381 378.98022976 7.5234375 367.4375 C7.65359756 366.52103195 7.78375763 365.6045639 7.91786194 364.6603241 C9.16003992 355.49548688 9.76379336 346.32498307 10.2789917 337.09542847 C14.24690334 267.43084815 14.24690334 267.43084815 32 246 C36.23635297 242.31621481 40.38220518 240.76724767 46 241 C51.80347561 241.95430001 55.67413898 244.80129834 59.28125 249.359375 C76.77895103 276.24220658 77.06015101 312.99212441 78.82299805 343.94067383 C80.69458735 376.73272095 80.69458735 376.73272095 97.75 403.6875 C107.31163395 411.62239094 119.15236226 415.46330588 131.5625 415.0625 C143.01901422 413.74963046 151.86839391 407.86451971 159 399 C179.74996164 370.22519132 181.27443947 333.80947006 182.0625 299.6875 C182.79432606 269.87803079 182.79432606 269.87803079 183.95703125 255.265625 C184.03510513 254.28313278 184.11317902 253.30064056 184.19361877 252.28837585 C186.79895079 221.96106856 197.1491206 194.72199445 209.03344727 166.97070312 C221.91998533 136.70884434 233.71931102 102.61025674 222 70 C221.56429688 68.783125 221.12859375 67.56625 220.6796875 66.3125 C217.52088096 58.3032856 213.39362805 51.68198454 208 45 C207.26136719 44.03320312 207.26136719 44.03320312 206.5078125 43.046875 C193.09075482 26.21870096 169.9553059 16.37858295 149.01953125 13.47265625 C116.70333657 9.94445352 85.80160208 16.62253607 55.70703125 28.0546875 C47.76928524 30.8265988 40.78316049 30.59348047 32.875 27.9375 C32.20178711 27.71779541 31.52857422 27.49809082 30.83496094 27.27172852 C28.55262705 26.52609424 26.27605991 25.76456313 24 25 C-23.27805063 9.12640803 -80.28898373 3.01748774 -117.75 42.875 Z M-182.75 133.25 C-199.08243792 154.19747542 -206.7010385 180.11111976 -203.71142578 206.55224609 C-202.00434805 218.53386952 -198.51761645 229.25768499 -193 240 C-192.47664063 241.04414063 -191.95328125 242.08828125 -191.4140625 243.1640625 C-179.44415511 265.29379372 -158.39445115 281.74481699 -134.375 288.9375 C-126.68165175 291.08141743 -118.96234569 292.32791455 -111 293 C-110.17886719 293.0721875 -109.35773438 293.144375 -108.51171875 293.21875 C-83.26015304 294.26544702 -58.4763991 283.64308198 -40 267 C-38.83017578 265.95392578 -38.83017578 265.95392578 -37.63671875 264.88671875 C-18.58579473 246.88869554 -8.76499971 221.11268613 -8.00488281 195.22900391 C-7.94641854 168.54006343 -19.19743653 143.69004851 -37.6875 124.75 C-56.23145 106.42427314 -81.83006564 96.57971314 -107.796875 96.62939453 C-137.59000968 97.36678701 -163.46581982 111.02982007 -182.75 133.25 Z M-191 324 C-196.63066923 330.28543833 -200.53923943 338.26109012 -204.5625 345.625 C-209.23824404 354.07904083 -213.98355087 362.48132518 -218.875 370.8125 C-224.75760322 380.83900188 -230.55180178 390.91293355 -236.28466797 401.02563477 C-239.19590584 406.15290879 -242.12578804 411.25854367 -245.234375 416.26953125 C-245.70842773 417.04047119 -246.18248047 417.81141113 -246.67089844 418.60571289 C-247.51815474 419.97262179 -248.37943748 421.33100445 -249.25878906 422.67749023 C-252.18613841 427.41618501 -252.54849346 430.59422938 -252 436 C-250.10350449 439.14658666 -250.10350449 439.14658666 -247 441 C-242.92193496 441.65540331 -240.92320019 441.62830643 -237.48388672 439.28759766 C-234.92441814 436.93039099 -233.45481626 434.85924817 -231.7578125 431.8359375 C-231.17451172 430.80984375 -230.59121094 429.78375 -229.99023438 428.7265625 C-229.06694336 427.06753906 -229.06694336 427.06753906 -228.125 425.375 C-227.46528152 424.20771729 -226.80445328 423.04106118 -226.14257812 421.875 C-224.76945685 419.4538987 -223.4011325 417.03018097 -222.03613281 414.60449219 C-218.90190954 409.04408585 -215.69734621 403.52425926 -212.5 398 C-211.2509537 395.83613856 -210.00225694 393.67207532 -208.75390625 391.5078125 C-208.13531738 390.43563477 -207.51672852 389.36345703 -206.87939453 388.25878906 C-204.99019834 384.98300434 -203.10235891 381.70644107 -201.21484375 378.4296875 C-200.589729 377.34510254 -199.96461426 376.26051758 -199.32055664 375.14306641 C-198.07526639 372.98185088 -196.83094663 370.82007584 -195.58764648 368.65771484 C-192.41012636 363.14003669 -189.20261203 357.6428884 -185.9453125 352.171875 C-185.29377197 351.07246582 -184.64223145 349.97305664 -183.97094727 348.84033203 C-182.726188 346.74317462 -181.47438839 344.65017529 -180.21459961 342.56201172 C-179.6603833 341.62631348 -179.10616699 340.69061523 -178.53515625 339.7265625 C-178.044104 338.90752441 -177.55305176 338.08848633 -177.04711914 337.24462891 C-175.7181591 334.80864869 -175.7181591 334.80864869 -176 331 C-178.55687845 328.95376203 -178.55687845 328.95376203 -181.8125 327.25 C-183.43091797 326.32960938 -183.43091797 326.32960938 -185.08203125 325.390625 C-187.91263067 323.78489249 -187.91263067 323.78489249 -191 324 Z " fill="#000000" transform="translate(269,29)"/>
<path d="M0 0 C20.31997114 0.04530651 40.43250126 4.17053147 55.44824219 18.90820312 C70.05139743 35.47414805 71.64873883 53.20730208 70.62792969 74.38085938 C70.07592948 80.01570709 68.95127136 84.67942008 65.44042969 89.19335938 C61.563428 90.83031564 58.60437961 90.69773565 54.62792969 89.38085938 C52.62792969 87.81835938 52.62792969 87.81835938 51.62792969 85.38085938 C51.39865035 81.76970984 51.31538853 78.73930597 52.12402344 75.22460938 C54.47881405 61.9355585 53.69267908 47.28320837 45.81542969 36.00585938 C36.78819038 25.1007733 25.37532453 20.59263295 11.62792969 18.38085938 C7.85760698 18.04541858 4.08531871 17.87842028 0.30004883 17.8840332 C-3.27025246 17.82341761 -5.24783869 17.45931272 -8.29785156 15.53320312 C-10.95517398 12.77579323 -11.37207031 11.1911434 -11.37207031 7.38085938 C-8.57069894 1.51131936 -6.51103209 0.12013938 0 0 Z " fill="#000000" transform="translate(399.3720703125,66.619140625)"/>
</svg>
