<?xml version="1.0" encoding="UTF-8"?>
<svg version="1.1" xmlns="http://www.w3.org/2000/svg" width="512" height="512">
<path d="M0 0 C2.58038224 0.02147065 5.15798189 0.00005998 7.73828125 -0.02539062 C28.63725159 -0.06003407 49.47575786 5.5627141 65.58203125 19.52148438 C69.23830911 18.19015762 72.19524627 16.53569703 75.39453125 14.33398438 C79.92176843 11.41927119 84.49490167 8.97652588 89.39453125 6.77148438 C89.99692627 6.49022705 90.59932129 6.20896973 91.2199707 5.91918945 C103.21038754 0.69642712 115.55604653 0.0095692 128.421875 0.07543945 C130.94744501 0.08395206 133.47074501 0.05506565 135.99609375 0.0234375 C162.20385492 -0.08906548 184.09368186 9.81938746 203.14453125 27.64648438 C220.34694603 45.3351865 227.97502383 69.67576624 227.75646973 93.89230347 C227.551061 102.0375379 226.14520612 110.05416284 224.87890625 118.08789062 C224.59605362 119.93791624 224.31419456 121.78809399 224.03326416 123.63841248 C223.29580741 128.47590287 222.54379761 133.3110214 221.78887939 138.14581299 C221.03421849 142.99933621 220.29555607 147.85529366 219.5546875 152.7109375 C218.2950592 160.95008902 217.01136175 169.18516314 215.70441437 177.41694069 C215.11819297 181.11111447 214.53534681 184.80546966 213.9777832 188.50408936 C213.49084304 191.72987326 212.98504939 194.95200988 212.47265625 198.17382812 C212.34969177 199.02900528 212.22672729 199.88418243 212.10003662 200.76527405 C210.55236771 210.13411658 206.20082054 216.92011655 198.625 222.54882812 C182.63602709 232.91395177 159.88895089 242.52148438 140.58203125 242.52148438 C142.81582108 251.37339688 145.61923552 258.53346488 151.58203125 265.52148438 C152.413396 266.54483887 153.24476074 267.56819336 154.10131836 268.62255859 C157.41028634 271.892033 160.04099709 272.22267168 164.58842468 272.27677917 C165.46674454 272.25827408 166.34506439 272.23976898 167.25 272.22070312 C168.16662918 272.22729446 169.08325836 272.2338858 170.02766418 272.24067688 C172.94236799 272.2581103 175.85492954 272.23619214 178.76953125 272.20898438 C181.69441264 272.19768954 184.61866288 272.1950019 187.54353333 272.20942688 C189.35985428 272.2168236 191.17632085 272.20855991 192.99247742 272.18302917 C194.22439568 272.18367119 194.22439568 272.18367119 195.48120117 272.18432617 C196.2025676 272.177332 196.92393402 272.17033783 197.66716003 272.16313171 C200.17738181 272.63289942 201.0294077 273.52692345 202.58203125 275.52148438 C204.53171025 282.02623841 202.48439797 286.23234747 199.76171875 292.07617188 C199.14911697 293.44550369 199.14911697 293.44550369 198.5241394 294.84249878 C197.65971063 296.77062795 196.78785251 298.69544145 195.90905762 300.61706543 C194.62329964 303.4311616 193.35887062 306.25371484 192.10253906 309.08105469 C190.46684513 312.76089772 188.82802245 316.4392854 187.18359375 320.11523438 C186.77657227 321.0253125 186.36955078 321.93539063 185.95019531 322.87304688 C185.11293896 324.74092436 184.27337417 326.60776863 183.43164062 328.47363281 C176.87597896 343.01995121 172.33617937 355.34979051 171.73083496 371.39508057 C170.34854455 406.45383651 163.15556681 440.10536929 149.01953125 472.27148438 C148.66785889 473.08133789 148.31618652 473.89119141 147.95385742 474.72558594 C144.69387765 481.90876983 140.7614248 488.72859446 133.89453125 492.95898438 C133.14816406 493.43207031 132.40179688 493.90515625 131.6328125 494.39257812 C125.20686535 497.92990903 116.1530609 497.35773476 109.0625 496.06054688 C101.80744202 493.62788444 97.10653527 488.99421641 93.44140625 482.43945312 C89.8198465 474.96836786 89.64896175 467.92675982 89.50479126 459.78036499 C89.42222195 455.44291744 89.23415672 451.10973365 89.0546875 446.77539062 C89.00295631 445.46638542 89.00295631 445.46638542 88.95018005 444.13093567 C88.12311043 424.4874865 84.92337385 405.13668569 81.01953125 385.89648438 C80.87182281 385.16207123 80.72411438 384.42765808 80.57192993 383.67098999 C80.14758883 381.58479102 79.70963689 379.50201379 79.265625 377.41992188 C79.01353271 376.23060059 78.76144043 375.0412793 78.50170898 373.81591797 C77.12077096 368.86917582 75.92236477 365.41504006 71.58203125 362.52148438 C69.4714665 362.13088619 69.4714665 362.13088619 67.20703125 362.14648438 C66.45679688 362.118125 65.7065625 362.08976562 64.93359375 362.06054688 C61.37895653 362.75730301 60.03486791 363.81297745 57.58203125 366.52148438 C56.16354506 370.01198773 55.37974243 373.59594714 54.58203125 377.27148438 C54.33420898 378.36187012 54.08638672 379.45225586 53.83105469 380.57568359 C48.570665 404.54975845 45.07824934 429.0794851 44.3515625 453.61914062 C44.31514648 454.82916748 44.27873047 456.03919434 44.24121094 457.28588867 C44.17859776 459.62423781 44.13015674 461.9630271 44.09863281 464.30200195 C43.8437775 475.29305098 41.77518543 482.35389922 34.01953125 490.34570312 C27.11909215 496.50522969 20.36951933 497.25118399 11.23828125 496.95898438 C2.38648234 495.89979476 -2.79771606 491.64195648 -8.48461914 485.07055664 C-11.56906075 481.00379886 -13.49935873 476.66507058 -15.41796875 471.95898438 C-15.83457764 470.96592285 -16.25118652 469.97286133 -16.68041992 468.94970703 C-29.97016294 436.65398452 -37.21423616 403.47628366 -37.84765625 368.5703125 C-38.31572708 353.52378549 -43.91333187 341.16197198 -49.98046875 327.64648438 C-50.79567363 325.80851082 -51.60995987 323.97012954 -52.42333984 322.13134766 C-55.82670694 314.45484703 -59.26574474 306.79748166 -62.828125 299.19335938 C-63.29855225 298.18515137 -63.76897949 297.17694336 -64.25366211 296.13818359 C-65.08122235 294.37838402 -65.92088044 292.62419426 -66.77563477 290.87744141 C-68.94919234 286.27857413 -70.2026712 282.71546727 -69.41796875 277.52148438 C-67.95458984 274.84667969 -67.95458984 274.84667969 -65.41796875 272.52148438 C-62.38736389 271.84087519 -59.43205302 271.96647434 -56.33984375 272.06054688 C-54.52083401 272.06358828 -52.70182347 272.06617811 -50.8828125 272.06835938 C-48.02781923 272.10168805 -45.17349061 272.14637649 -42.31884766 272.20214844 C-30.10181694 272.99223781 -30.10181694 272.99223781 -19.359375 268.34570312 C-17.69929037 266.4784497 -17.69929037 266.4784497 -16.41796875 264.52148438 C-15.32548828 263.05775391 -15.32548828 263.05775391 -14.2109375 261.56445312 C-10.71248578 255.34214605 -8.11866691 249.45516665 -6.41796875 242.52148438 C-7.71605469 242.40160156 -9.01414062 242.28171875 -10.3515625 242.15820312 C-15.19117503 241.61647662 -19.78365678 240.59953342 -24.48046875 239.33398438 C-25.71047607 239.00406494 -25.71047607 239.00406494 -26.96533203 238.66748047 C-43.78655233 234.02904929 -65.55724736 227.67934912 -74.80957031 211.73608398 C-79.07078683 203.02797141 -79.766355 193.09410963 -81.15234375 183.60742188 C-81.47765725 181.46589479 -81.80444381 179.32459102 -82.13262939 177.1835022 C-82.9889525 171.5697342 -83.82478956 165.95310191 -84.65643311 160.33563232 C-85.50547018 154.62740034 -86.37496243 148.92228841 -87.2421875 143.21679688 C-88.50726795 134.87114436 -89.76576341 126.52455209 -91.00683594 118.17529297 C-91.13564651 117.31274399 -91.26445709 116.45019501 -91.39717102 115.56150818 C-95.47396123 88.03366581 -94.25975895 61.60728763 -77.64453125 38.00195312 C-58.16462354 12.75758293 -31.90354761 -0.31467839 0 0 Z M-59.57421875 42.82617188 C-70.77758591 55.96858335 -76.7521408 72.13754677 -76.6796875 89.35864258 C-76.67695831 90.1802226 -76.67422913 91.00180262 -76.67141724 91.848279 C-76.54013364 100.84464481 -75.24140598 109.57644082 -73.79296875 118.43945312 C-73.5226608 120.16087871 -73.2536441 121.88250748 -72.98583984 123.60432434 C-72.28839095 128.06629325 -71.57381883 132.52534234 -70.85522461 136.98394775 C-70.12066286 141.56183419 -69.40290863 146.14235396 -68.68359375 150.72265625 C-67.27784345 159.65820294 -65.85392815 168.5907461 -64.41796875 177.52148438 C-60.72204204 176.68736502 -57.87927255 175.21554488 -54.54296875 173.39648438 C-23.65648238 157.47083394 15.54024663 153.50743768 49.83203125 153.28320312 C51.07221008 153.27345459 52.31238892 153.26370605 53.59014893 153.25366211 C57.58748212 153.22870802 61.58463483 153.2152311 65.58203125 153.20898438 C66.26273178 153.2076865 66.94343231 153.20638863 67.64476013 153.20505142 C89.85083432 153.17296455 111.63656547 153.92788482 133.58203125 157.52148438 C135.31646484 157.79436279 135.31646484 157.79436279 137.0859375 158.07275391 C156.48088133 161.2162855 176.3871398 166.11706922 193.38671875 176.27148438 C195.45065876 177.68641977 195.45065876 177.68641977 197.58203125 177.52148438 C198.91809349 172.3994853 200.01209198 167.35615126 200.81884766 162.1184082 C200.92642899 161.42611115 201.03401031 160.73381409 201.14485168 160.02053833 C201.49525539 157.75714776 201.83986957 155.49292956 202.18359375 153.22851562 C202.4273017 151.63440607 202.67106697 150.04030527 202.91488647 148.44621277 C203.42366495 145.11227585 203.92908133 141.77784774 204.43261719 138.44311523 C205.07343994 134.20353002 205.72665333 129.96595648 206.38298988 125.72874928 C206.89060077 122.43771704 207.38940196 119.14539123 207.88590622 115.85266685 C208.12274777 114.29154211 208.36269256 112.73088444 208.60600662 111.17075539 C212.08407576 88.80854354 211.26047505 67.80380065 197.64453125 48.64648438 C196.30617308 46.92573816 194.95302903 45.21633989 193.58203125 43.52148438 C193.0509375 42.81507812 192.51984375 42.10867187 191.97265625 41.38085938 C180.84381503 27.38716794 162.90719164 19.82579972 145.66796875 17.05273438 C142.96582458 16.76578101 140.29788776 16.60896995 137.58203125 16.52148438 C136.51726562 16.48152344 135.4525 16.4415625 134.35546875 16.40039062 C114.29579531 16.01549847 93.40035858 19.42591514 78.2265625 33.74414062 C77.47761719 34.47503906 76.72867188 35.2059375 75.95703125 35.95898438 C73.14403735 38.49316826 71.07931366 40.17453646 67.26953125 40.64648438 C62.17454387 40.1713042 59.1184759 36.96595002 55.43945312 33.65625 C42.78907518 22.39567637 26.38754954 17.06283861 9.58203125 16.52148438 C8.51726562 16.48152344 7.4525 16.4415625 6.35546875 16.40039062 C-19.95542715 15.89555402 -41.27684537 23.26919671 -59.57421875 42.82617188 Z M-31.35546875 181.45898438 C-32.30784424 181.77053467 -33.26021973 182.08208496 -34.24145508 182.40307617 C-43.16615681 185.49454685 -52.81754924 189.57367436 -59.41796875 196.52148438 C-60.74091352 199.45651789 -60.74091352 199.45651789 -60.41796875 202.52148438 C-50.7340443 216.98959107 -26.76492086 221.61604999 -10.81640625 225.11132812 C-8.33066581 225.60576576 -8.33066581 225.60576576 -5.41796875 225.52148438 C-5.33160156 224.75964844 -5.24523437 223.9978125 -5.15625 223.21289062 C-3.65721117 212.1970181 -0.25204236 205.66817527 8.0078125 198.24804688 C14.49660102 193.89593075 20.54414216 193.07733301 28.14404297 193.11743164 C29.52621506 193.10713676 29.52621506 193.10713676 30.93630981 193.09663391 C33.96160595 193.07843541 36.98637998 193.08219388 40.01171875 193.08789062 C42.12867398 193.08332518 44.24562773 193.07801852 46.36257935 193.07200623 C50.79239942 193.06308849 55.22203909 193.06548269 59.65185547 193.07543945 C65.3096985 193.08692137 70.96691667 193.06672231 76.62467766 193.03752232 C80.99492302 193.01911539 85.36501992 193.01946185 89.73529434 193.02515984 C91.8203532 193.02531253 93.90542245 193.01931125 95.99044418 193.00686836 C98.91443027 192.99187695 101.83727832 193.00269552 104.76123047 193.01977539 C105.61038025 193.01010742 106.45953003 193.00043945 107.33441162 192.99047852 C115.85289202 193.09390775 123.79956761 195.86268936 130.0546875 201.77929688 C136.11208039 208.6887527 137.89880287 216.66742939 139.58203125 225.52148438 C156.70199844 223.50327686 180.19978932 218.44533453 192.08203125 205.02148438 C192.9450793 203.87662472 193.79263207 202.71831539 194.58203125 201.52148438 C192.77174875 195.76149459 189.3792903 192.63061333 184.296875 189.49414062 C183.04587639 188.84162029 181.78614676 188.20564782 180.51953125 187.58398438 C179.82835205 187.24334961 179.13717285 186.90271484 178.42504883 186.55175781 C119.49953923 158.67302209 29.00818225 161.68346575 -31.35546875 181.45898438 Z M14.58203125 214.52148438 C12.1220144 218.21150965 11.46654236 220.73511466 11.40625 225.06445312 C11.01760348 241.8497814 8.95536719 255.62982845 0.58203125 270.52148438 C0.25203125 271.18148437 -0.07796875 271.84148437 -0.41796875 272.52148438 C43.80203125 272.52148438 88.02203125 272.52148438 133.58203125 272.52148438 C132.19651214 269.05768659 130.76276267 265.80131283 129.14453125 262.45898438 C124.25805383 251.54729291 123.1817199 241.47889883 123.04785156 229.61816406 C122.9043998 222.63135757 121.8525567 218.29657103 117.33203125 212.77148438 C112.07378331 208.46928152 106.06411143 208.22416182 99.49462891 208.24682617 C98.71802414 208.24171524 97.94141937 208.23660431 97.14128113 208.2313385 C94.59280532 208.21752238 92.0446024 208.21839331 89.49609375 208.22070312 C87.71161805 208.21681163 85.92714327 208.21247602 84.14266968 208.2077179 C80.40888461 208.2002727 76.67519413 208.20053447 72.94140625 208.20581055 C68.17471777 208.21160091 63.4084184 208.19467639 58.6417942 208.17146587 C54.95787318 208.15667878 51.27404478 208.15586362 47.59009933 208.1589756 C45.83356328 208.15846482 44.07702171 208.15327317 42.32051468 208.14316368 C27.15493671 207.43033753 27.15493671 207.43033753 14.58203125 214.52148438 Z M-47.41796875 288.52148438 C-46.702523 292.09871314 -46.18422465 294.38189897 -44.73144531 297.53881836 C-44.21520599 298.67171547 -44.21520599 298.67171547 -43.6885376 299.82749939 C-43.31565613 300.63272537 -42.94277466 301.43795135 -42.55859375 302.26757812 C-41.97921051 303.53892357 -41.97921051 303.53892357 -41.38812256 304.83595276 C-39.74361613 308.44435819 -38.08716096 312.04723305 -36.43066406 315.65014648 C-28.22728944 333.52505755 -21.38892088 349.77183323 -20.98046875 369.70898438 C-20.14074565 395.3125416 -15.80714734 420.29850797 -7.41796875 444.52148438 C-7.1952832 445.1727832 -6.97259766 445.82408203 -6.74316406 446.49511719 C-4.03734506 454.32252871 -0.92765396 461.89020324 2.70703125 469.33398438 C3.0316333 470.01009766 3.35623535 470.68621094 3.69067383 471.3828125 C5.48959888 474.95234747 6.99734993 477.62249773 10.58203125 479.52148438 C15.02682205 480.40408147 18.59029414 480.09120569 22.51953125 477.83398438 C26.61465155 473.24248586 26.90538411 468.5388112 27.07421875 462.59179688 C27.13705699 460.99175863 27.2004769 459.39174315 27.2644043 457.79174805 C27.29513031 456.95340424 27.32585632 456.11506042 27.35751343 455.25131226 C28.30125744 430.54929748 31.19152649 406.44015298 36.08203125 382.20898438 C36.22546967 381.48987885 36.36890808 380.77077332 36.51669312 380.02987671 C41.32735688 356.17922061 41.32735688 356.17922061 50.51953125 349.33398438 C58.15619955 344.81432355 65.91233534 344.47227156 74.58203125 345.52148438 C81.81291599 347.53006347 87.71293347 352.07640903 91.58203125 358.52148438 C94.98545055 366.43378431 96.34959761 375.11500176 98.01953125 383.52148438 C98.1719931 384.28680481 98.32445496 385.05212524 98.48153687 385.84063721 C102.38499551 405.61458573 105.20019511 425.45547131 106.08984375 445.60351562 C106.12834946 446.44813354 106.16685516 447.29275146 106.20652771 448.16296387 C106.38883515 452.28093232 106.53910761 456.39621811 106.63598633 460.51708984 C106.68916125 462.01206051 106.74276896 463.50701587 106.796875 465.00195312 C106.829021 466.31059326 106.86116699 467.6192334 106.89428711 468.9675293 C107.78585843 473.57477237 109.30441848 475.22274777 112.58203125 478.52148438 C116.24252414 480.35173082 120.74251583 480.08257209 124.60546875 478.90429688 C127.46374959 476.90463004 128.77651261 474.2429375 130.33203125 471.20898438 C130.84527954 470.21862183 130.84527954 470.21862183 131.36889648 469.20825195 C147.28873663 437.56134103 153.47257537 402.52729295 154.81176758 367.43164062 C155.519269 350.10142654 160.92420498 336.39729493 168.01953125 320.77148438 C168.88844583 318.83576912 169.75629208 316.89957393 170.62304688 314.96289062 C172.21926976 311.40031671 173.82147313 307.84058248 175.43139648 304.28417969 C175.78652313 303.49676392 176.14164978 302.70934814 176.50753784 301.89807129 C177.24967239 300.25660262 177.9966671 298.61732571 178.74758911 296.9798584 C179.29804398 295.76828064 179.29804398 295.76828064 179.85961914 294.53222656 C180.19079239 293.80880066 180.52196564 293.08537476 180.86317444 292.34002686 C181.7045692 290.53740273 181.7045692 290.53740273 181.58203125 288.52148438 C106.01203125 288.52148438 30.44203125 288.52148438 -47.41796875 288.52148438 Z " fill="#000000" transform="translate(190.41796875,7.478515625)"/>
<path d="M0 0 C0.02684679 2.64590014 0.04676357 5.29153096 0.0625 7.9375 C0.07087891 8.69224609 0.07925781 9.44699219 0.08789062 10.22460938 C0.09652441 12.14994313 0.05224333 14.07535581 0 16 C-1.70247036 17.70247036 -4.10933232 17.45341813 -6.4375 17.75 C-16.49607631 19.37466316 -25.5957066 23.91293412 -31.65625 32.2890625 C-36.53556807 40.01464944 -38.711023 46.97716097 -40 56 C-45.61 56 -51.22 56 -57 56 C-57.96714064 41.97646077 -52.57087174 29.08722676 -43.81640625 18.3125 C-32.12053255 5.71398908 -17.21088207 -0.8988275 0 0 Z " fill="#000000" transform="translate(186,40)"/>
</svg>
