<?xml version="1.0" encoding="UTF-8"?>
<svg version="1.1" xmlns="http://www.w3.org/2000/svg" width="512" height="512">
<path d="M0 0 C1.50626953 0.50853516 1.50626953 0.50853516 3.04296875 1.02734375 C9.26684464 3.387545 14.77512198 6.61801187 20.4375 10.0625 C34.28312648 18.38207468 47.41148947 20.94006014 63.37109375 18.48046875 C71.24197069 16.44507 77.79922559 12.31444582 84.6887207 8.15136719 C92.40606645 3.5661337 100.35885326 0.39139454 109 -2 C109.68215576 -2.19142578 110.36431152 -2.38285156 111.06713867 -2.58007812 C132.01725664 -7.87591364 155.13010697 -3.73391354 173.83203125 6.55859375 C180.58153374 10.6460547 186.38338288 15.47456173 192 21 C192.7734375 21.76054688 193.546875 22.52109375 194.34375 23.3046875 C205.6060464 35.06838751 213.41270438 50.90461446 216 67 C216.11085938 67.67933594 216.22171875 68.35867187 216.3359375 69.05859375 C223.65163176 122.9376934 202.80633375 184.17533824 172.81616211 228.33520508 C150.99131781 260.48140847 136.88729807 294.39880077 127.49227905 332.01530457 C126.96837007 334.11089467 126.44070711 336.2055138 125.91259766 338.30004883 C125.23537435 340.98648855 124.57560445 343.67633731 123.92724609 346.36987305 C121.32134255 356.8241049 118.52785517 366.94771464 109 373 C101.98242101 377.07422356 93.44322855 377.07786704 85.6328125 375.53125 C78.36425342 373.15553419 73.5843571 368.60538244 70.125 361.875 C67.95094669 357.25333701 66.87787183 353.38242677 66.86196899 348.2694397 C66.85651566 347.32181259 66.85106232 346.37418549 66.84544373 345.39784241 C66.8444014 344.36501633 66.84335907 343.33219025 66.84228516 342.26806641 C66.83720444 341.17496658 66.83212372 340.08186676 66.82688904 338.9556427 C66.8161884 336.5815473 66.80756702 334.20744184 66.80076981 331.83333206 C66.78898217 328.07595799 66.76953005 324.31869892 66.74765015 320.56137085 C66.68602531 309.87818668 66.63172685 299.19502904 66.59863281 288.51171875 C66.57830382 281.9777373 66.54240544 275.4439375 66.49787521 268.91007614 C66.4837071 266.41982878 66.47499096 263.92954422 66.47182083 261.43925858 C66.46691703 257.95618908 66.4437721 254.47367871 66.41650391 250.99072266 C66.41951004 249.96194504 66.42251617 248.93316742 66.4256134 247.87321472 C66.3631372 242.5043736 66.06140147 238.61516916 63 234 C58.60628126 229.93581017 55.16835185 228.60826862 49.125 228.73046875 C45.3869708 229.20459378 42.84022482 230.56832918 40 233 C35.60800633 238.97801038 35.43806089 245.03529744 35.51757812 252.21435547 C35.51170937 253.85987396 35.51170937 253.85987396 35.50572205 255.53863525 C35.49976466 257.90992536 35.50288509 260.28125218 35.5141449 262.65252304 C35.53145412 266.41151587 35.52387203 270.16974284 35.5098877 273.92874146 C35.48242984 282.58766889 35.49155624 291.24642723 35.50258636 299.90536499 C35.51306294 308.47501042 35.50778615 317.04436859 35.47593689 325.61398697 C35.46886605 329.30658353 35.48549225 332.99858222 35.50305176 336.69113159 C35.49734116 338.96970944 35.49052254 341.24828487 35.48242188 343.52685547 C35.49939369 345.05305008 35.49939369 345.05305008 35.51670837 346.6100769 C35.44491088 355.09809693 33.57197024 362.44204208 27.8125 368.875 C20.68285998 375.23752685 13.85413801 376.67682402 4.37890625 376.390625 C-0.34944937 375.84399429 -3.96668486 374.4787183 -8 372 C-8.9075 371.443125 -9.815 370.88625 -10.75 370.3125 C-16.96233834 363.92759671 -19.21099365 355.75030743 -21.3125 347.3125 C-21.60318359 346.19544678 -21.89386719 345.07839355 -22.19335938 343.92749023 C-23.14003392 340.28776778 -24.07088034 336.64424016 -25 333 C-31.32761348 308.125216 -31.32761348 308.125216 -40 284 C-40.48025635 282.83162598 -40.48025635 282.83162598 -40.97021484 281.63964844 C-48.62992208 263.22525318 -58.43028717 245.90707536 -69.671875 229.453125 C-81.83878292 211.57728525 -91.55287649 192.27340895 -99 172 C-99.41741455 170.87343994 -99.41741455 170.87343994 -99.84326172 169.72412109 C-106.54460019 151.39957998 -110.41098611 132.30664644 -113 113 C-113.09498779 112.35957764 -113.18997559 111.71915527 -113.2878418 111.05932617 C-114.2502088 103.82291636 -114.25729987 96.53441147 -114.29516602 89.24633789 C-114.30662863 87.71955048 -114.32698892 86.19280131 -114.35668945 84.66625977 C-114.82859916 60.28250091 -107.02962472 39.20890798 -90.2109375 21.2421875 C-66.80669126 -2.49286081 -31.6687438 -10.86707743 0 0 Z M-71 28 C-72.14082031 28.87591797 -72.14082031 28.87591797 -73.3046875 29.76953125 C-86.60667981 40.70109932 -94.73049406 57.05787429 -97 74 C-98.71298801 96.25891373 -95.38930075 119.42366905 -90 141 C-89.81711426 141.74507812 -89.63422852 142.49015625 -89.44580078 143.2578125 C-82.73026512 170.18936635 -70.82744242 195.61984325 -55.51318359 218.70849609 C-35.25055504 249.39339954 -19.96780645 280.93815865 -11.015625 316.75 C-10.75224838 317.80045502 -10.48887177 318.85091003 -10.21751404 319.93319702 C-8.88277488 325.27534663 -7.57284798 330.62198769 -6.29907227 335.97900391 C-5.8103515 337.97826173 -5.32134956 339.97745084 -4.83203125 341.9765625 C-4.62076599 342.89751709 -4.40950073 343.81847168 -4.1918335 344.76733398 C-2.79516335 350.39600784 -1.20989672 353.94602538 3 358 C7.33777726 359.41963619 9.1745356 359.38937 13.3125 357.4375 C16.85979734 354.22018381 17.81019078 351.46714269 18.17853928 346.67934418 C18.25814511 343.81911542 18.26694716 340.96581476 18.25537109 338.10449219 C18.25899155 337.01752548 18.262612 335.93055878 18.26634216 334.81065369 C18.27322421 332.45515531 18.27574384 330.09964104 18.27439499 327.744133 C18.27342812 324.01064823 18.28639213 320.27745007 18.30337524 316.54400635 C18.34959428 305.93055497 18.37432679 295.31715534 18.38085938 284.70361328 C18.38588411 278.20617803 18.41018408 271.70904189 18.44618607 265.21170807 C18.45596223 262.74150644 18.458328 260.27126354 18.45301437 257.80104828 C18.44591544 254.33807087 18.46328593 250.87597971 18.48583984 247.41308594 C18.47358116 245.8962043 18.47358116 245.8962043 18.46107483 244.34867859 C18.56985358 234.91533984 21.24222265 226.75124571 27.83203125 219.82421875 C35.4278568 213.43277635 44.12168027 210.46257846 54 211 C63.80733945 212.29300744 69.94008817 215.84781744 76.75 222.8125 C83.50513162 232.3822698 84.14975551 241.52459255 84.12597656 252.90478516 C84.12877876 254.51824074 84.12877876 254.51824074 84.13163757 256.16429138 C84.13562905 258.490869 84.13771526 260.81745051 84.13809967 263.14403152 C84.14152601 268.08957627 84.16289474 273.0349908 84.18333054 277.98048973 C84.22132405 287.18134765 84.25260815 296.38206237 84.25048828 305.58300781 C84.2497026 311.9908683 84.27299658 318.39824616 84.3123703 324.80598068 C84.32284675 327.24681811 84.32434233 329.68771111 84.31671906 332.12855911 C84.30712867 335.53757585 84.32821926 338.94512029 84.35644531 342.35400391 C84.34624863 343.36296219 84.33605194 344.37192047 84.32554626 345.41145325 C84.39477486 350.06623864 84.46673466 352.28723869 87.32147217 356.10287476 C90.69049842 358.48906043 92.88069118 359 97 359 C99.85479056 357.65943121 101.58724025 356.70463987 103.19628906 353.95776367 C105.92730076 345.70044075 108.04201176 337.3153404 110.1171875 328.87426758 C119.65166872 290.2765394 133.6148843 255.16702082 155.65625 221.9921875 C178.42365534 187.61714454 192.587788 150.8891445 198 110 C198.09498779 109.32404785 198.18997559 108.6480957 198.2878418 107.95166016 C201.20099917 85.18752871 200.71917909 61.61211537 187.08203125 42.28125 C185.13069868 39.77508979 183.10677539 37.37634311 181 35 C180.46890625 34.37480469 179.9378125 33.74960938 179.390625 33.10546875 C168.42965968 21.08639044 151.06512508 13.95890826 135.01953125 12.78125 C118.16375532 12.28851112 103.89560653 17.32733915 89.75 26 C79.46438783 32.27628008 68.19065186 36.64969391 56 37 C55.28585938 37.05027344 54.57171875 37.10054687 53.8359375 37.15234375 C39.50098233 37.75163117 27.35152713 33.92143728 14.99707031 27.09814453 C-13.53441941 11.40931314 -43.5927084 6.42693384 -71 28 Z " fill="#000000" transform="translate(114,70)"/>
<path d="M0 0 C0.87863708 -0.00817749 1.75727417 -0.01635498 2.66253662 -0.02478027 C5.56993948 -0.04958574 8.47729348 -0.06614226 11.38476562 -0.08056641 C12.38111526 -0.08589008 13.3774649 -0.09121376 14.40400696 -0.09669876 C19.68274159 -0.12341551 24.96145276 -0.14279094 30.24023438 -0.15722656 C34.59331408 -0.17053675 38.94592182 -0.19833781 43.29882812 -0.23925781 C48.56845264 -0.28878848 53.83765084 -0.31337315 59.10749817 -0.32045364 C61.10720983 -0.3271338 63.10691319 -0.34227056 65.10649109 -0.36634445 C80.51100493 -0.54115357 92.63867682 1.09761622 104.29101562 12.19287109 C114.03104585 22.4666016 116.03355321 34.4646071 115.89228821 48.10015869 C115.89447253 49.68206867 115.89885766 51.26397686 115.90523404 52.8458755 C115.91634637 57.16299857 115.89650904 61.4794944 115.87134373 65.79653764 C115.84965894 70.46303579 115.85706481 75.12950137 115.8608551 79.79603577 C115.86347104 87.8712012 115.84784464 95.94616393 115.81966591 104.02127838 C115.77895143 115.69636107 115.76600056 127.3713462 115.75972595 139.04649219 C115.74879523 157.99068571 115.71555422 176.9347713 115.66821289 195.87890625 C115.62228565 214.27636171 115.58690922 232.67378781 115.56567383 251.07128906 C115.56436021 252.2061817 115.56304659 253.34107433 115.56169317 254.51035765 C115.55516777 260.204041 115.54884928 265.89772456 115.54263365 271.59140825 C115.49083871 318.79197442 115.40142624 365.99240869 115.29101562 413.19287109 C105.06101562 413.19287109 94.83101562 413.19287109 84.29101562 413.19287109 C67.15413529 385.39421765 62.52968691 363.16444331 63.3645308 330.75215387 C63.48580792 325.22082895 63.4946572 319.68915713 63.51701355 314.15670776 C63.57535724 303.747341 63.73025484 293.34190491 63.92265385 282.93424594 C64.1372998 271.05748962 64.24005076 259.18051456 64.33486712 247.30229211 C64.53184461 222.93033134 64.86458802 198.56182426 65.29101562 174.19287109 C63.99674652 174.20286385 63.99674652 174.20286385 62.67633057 174.21305847 C54.49792268 174.27346373 46.31959099 174.31899387 38.14101028 174.34830761 C33.93749635 174.36388532 29.73416856 174.38497699 25.53076172 174.41918945 C21.46531119 174.45206754 17.40003837 174.46978328 13.33446503 174.47750282 C11.79251055 174.48299578 10.2505645 174.49372032 8.70868683 174.51006126 C-6.19839898 174.66159517 -17.92365444 172.95665104 -29.39648438 162.81787109 C-40.64465936 150.04967246 -42.21167193 139.90723225 -41.70898438 123.19287109 C-33.78898437 123.19287109 -25.86898438 123.19287109 -17.70898438 123.19287109 C-17.70898438 99.10287109 -17.70898438 75.01287109 -17.70898438 50.19287109 C-25.62898438 50.19287109 -33.54898437 50.19287109 -41.70898438 50.19287109 C-42.20276592 34.76219796 -40.7883113 23.09033517 -29.93164062 11.25537109 C-21.3896716 3.15010805 -11.51564254 0.05931561 0 0 Z M-19.70898438 26.19287109 C-22.07203911 29.41467969 -22.07203911 29.41467969 -22.70898438 33.19287109 C-21.63680664 33.19651672 -20.56462891 33.20016235 -19.45996094 33.20391846 C-9.33756528 33.24091857 0.78452756 33.29874615 10.9066925 33.37677383 C16.1101708 33.41622116 21.31348055 33.44842318 26.51708984 33.46386719 C31.54233762 33.47905174 36.56712198 33.51352949 41.59216309 33.56118011 C43.50577763 33.57597532 45.41945834 33.58391104 47.33312988 33.58475494 C50.02141265 33.58713196 52.70842232 33.61427009 55.39648438 33.64697266 C56.57361244 33.63942711 56.57361244 33.63942711 57.77452087 33.63172913 C64.68812692 33.76118266 69.71792923 36.08761859 75.04101562 40.44287109 C82.00045632 48.94885417 81.8856219 56.91670828 81.82226562 67.44287109 C81.82496472 69.02653237 81.82885061 70.61019201 81.8338623 72.19384766 C81.8397378 75.50227743 81.831258 78.81027328 81.8125 82.11865234 C81.7897111 86.3419245 81.80284476 90.56417963 81.82678986 94.78741455 C81.84130105 98.05443877 81.83661766 101.32122513 81.82627869 104.58825684 C81.82362606 106.14465457 81.8268292 107.70107448 81.8361969 109.25744629 C81.87970719 118.51643571 81.78298523 125.74903174 75.65039062 133.18115234 C75.11929688 133.61814453 74.58820313 134.05513672 74.04101562 134.50537109 C73.52023437 134.95525391 72.99945313 135.40513672 72.46289062 135.86865234 C66.31065653 139.61974471 60.62734344 140.63844621 53.58007812 140.62524414 C52.33474556 140.64053162 52.33474556 140.64053162 51.06425476 140.65612793 C48.34810477 140.68607479 45.63230849 140.69549561 42.91601562 140.70458984 C41.02171676 140.72145014 39.127429 140.73960219 37.2331543 140.75898743 C32.26844755 140.80634691 27.3037858 140.83624702 22.33892822 140.86242676 C17.26427323 140.89230337 12.18977308 140.93880924 7.11523438 140.98388672 C-2.82609064 141.06975987 -12.76744767 141.13717608 -22.70898438 141.19287109 C-19.54035261 147.77172462 -15.63308855 152.08725422 -9.14648438 155.56787109 C-3.26755675 157.07528843 2.5743411 157.33567233 8.61303711 157.30639648 C9.81425957 157.30661552 9.81425957 157.30661552 11.03974915 157.30683899 C13.66389761 157.30614714 16.28797344 157.29838909 18.91210938 157.29052734 C20.74056459 157.28866058 22.5690203 157.28723789 24.3974762 157.28623962 C29.19291584 157.28243483 33.98832484 157.27262207 38.78375244 157.26153564 C43.68395575 157.25127759 48.58416404 157.24673261 53.484375 157.24169922 C63.08660195 157.23099786 72.68880623 157.21394607 82.29101562 157.19287109 C82.27304066 158.79580804 82.27304066 158.79580804 82.25470257 160.43112755 C81.96492773 186.5436833 81.7519268 212.65602834 81.61745739 238.76985741 C81.55068458 251.39891401 81.45980326 264.02690274 81.31030273 276.65527344 C81.17992053 287.67405151 81.09667001 298.69205558 81.06786519 309.71158373 C81.05105064 315.5361499 81.01210484 321.35850368 80.91652489 327.18235397 C79.55561253 363.45797638 79.55561253 363.45797638 95.29101562 395.19287109 C96.28101563 395.52287109 97.27101563 395.85287109 98.29101562 396.19287109 C98.38256693 350.6116101 98.45305222 305.03035883 98.49527694 259.44902403 C98.50027978 254.06798527 98.50545707 248.68694669 98.51074219 243.3059082 C98.51231605 241.69900334 98.51231605 241.69900334 98.51392171 240.05963575 C98.53132792 222.71276394 98.56286682 205.36594514 98.59962681 188.01910479 C98.63703018 170.22023932 98.65925021 152.42140161 98.6673696 134.62249845 C98.67285862 123.63921899 98.69019656 112.65608937 98.72268149 101.67285603 C98.7438219 94.14169684 98.75021673 86.61061515 98.74502113 79.07942844 C98.74245863 74.73401391 98.74639258 70.38886126 98.76783752 66.04349327 C98.78733996 62.06262364 98.78826188 58.08219137 98.7746112 54.10130136 C98.77292473 52.66372604 98.77796782 51.22612314 98.79054835 49.78860188 C98.87045211 40.09189971 97.84092886 32.7839014 92.04101562 24.88037109 C85.47488486 18.46347057 78.37489487 17.04836772 69.45239258 17.01586914 C68.27351219 17.00601234 68.27351219 17.00601234 67.07081604 16.99595642 C64.47364192 16.97627079 61.87652556 16.9645703 59.27929688 16.95458984 C58.38952841 16.95051432 57.49975994 16.94643879 56.58302879 16.94223976 C51.87184254 16.92139742 47.16068524 16.90708877 42.44946289 16.89770508 C37.59855644 16.88665518 32.74811051 16.85226645 27.89736652 16.81253338 C24.15426314 16.78630885 20.41126844 16.77800799 16.66808128 16.7744236 C14.88081954 16.76957134 13.0935622 16.75799638 11.30639076 16.7393856 C-1.00548883 16.61916218 -10.53627996 17.23856441 -19.70898438 26.19287109 Z M0.29101562 50.19287109 C0.29101562 74.28287109 0.29101562 98.37287109 0.29101562 123.19287109 C14.98632812 123.34755859 14.98632812 123.34755859 29.97851562 123.50537109 C33.06541748 123.55089111 36.15231934 123.59641113 39.33276367 123.64331055 C41.78107618 123.65791438 44.22940082 123.67065529 46.67773438 123.68115234 C47.94766235 123.70673218 49.21759033 123.73231201 50.52600098 123.75866699 C55.45821772 123.76111474 59.1625318 123.75819313 63.60693359 121.53173828 C66.40450376 115.98526545 65.94027503 110.39980666 65.84960938 104.28271484 C65.84535555 102.90939279 65.84303028 101.53606354 65.84254456 100.16273499 C65.83639044 97.29020398 65.81374629 94.41845623 65.77807617 91.54614258 C65.73276141 87.86851846 65.71804724 84.19160187 65.71433926 80.51372433 C65.70990606 77.68006954 65.69459489 74.84656245 65.67546272 72.01297188 C65.66229686 69.99889607 65.65404233 67.98479009 65.64585876 65.97068787 C65.62987137 64.74584183 65.61388397 63.52099579 65.59741211 62.2590332 C65.58677231 61.18157333 65.57613251 60.10411346 65.56517029 58.9940033 C65.28589389 56.14054052 64.93670724 54.52715606 63.29101562 52.19287109 C60.09288785 49.94485539 57.25728432 49.9494255 53.42089844 49.96582031 C52.22352051 49.96606201 51.02614258 49.96630371 49.79248047 49.96655273 C47.91230225 49.98190063 47.91230225 49.98190063 45.99414062 49.99755859 C44.26043213 50.00057983 44.26043213 50.00057983 42.49169922 50.00366211 C38.17476431 50.01412501 33.85788598 50.04204757 29.54101562 50.06787109 C15.06226563 50.12974609 15.06226563 50.12974609 0.29101562 50.19287109 Z " fill="#000000" transform="translate(396.708984375,98.80712890625)"/>
<path d="M0 0 C3.46208825 0.67947526 6.15822209 2.07456728 9.25 3.75 C29.72482603 14.20147946 53.54786927 16.53509641 75.5625 9.64453125 C81.6131103 7.52761799 87.26173176 4.64618593 92.875 1.57421875 C96 0 96 0 99 0 C101.04296875 2.51953125 101.04296875 2.51953125 103.1875 5.8125 C103.90292969 6.89144531 104.61835938 7.97039062 105.35546875 9.08203125 C107 12 107 12 107 15 C88.72196126 29.73917695 60.53084928 34.11869616 37.79980469 31.77294922 C20.63991492 29.59629206 5.95557173 23.40221227 -9 15 C-7.61219205 11.10993227 -5.7847773 8.03441292 -3.375 4.6875 C-2.74335937 3.80449219 -2.11171875 2.92148438 -1.4609375 2.01171875 C-0.97882813 1.34785156 -0.49671875 0.68398437 0 0 Z " fill="#000000" transform="translate(116,109)"/>
<path d="M0 0 C5.61 0 11.22 0 17 0 C17 5.28 17 10.56 17 16 C22.61 16 28.22 16 34 16 C34 21.94 34 27.88 34 34 C28.39 34 22.78 34 17 34 C17 39.28 17 44.56 17 50 C11.39 50 5.78 50 0 50 C0 44.72 0 39.44 0 34 C-5.61 34 -11.22 34 -17 34 C-17 28.06 -17 22.12 -17 16 C-11.39 16 -5.78 16 0 16 C0 10.72 0 5.44 0 0 Z M1 17 C1 22.28 1 27.56 1 33 C5.95 33 10.9 33 16 33 C16 27.72 16 22.44 16 17 C11.05 17 6.1 17 1 17 Z " fill="#000000" transform="translate(322,322)"/>
<path d="M0 0 C5.61 0 11.22 0 17 0 C17 5.28 17 10.56 17 16 C22.61 16 28.22 16 34 16 C34 21.94 34 27.88 34 34 C28.39 34 22.78 34 17 34 C17 39.28 17 44.56 17 50 C11.39 50 5.78 50 0 50 C0 44.72 0 39.44 0 34 C-5.61 34 -11.22 34 -17 34 C-17 28.06 -17 22.12 -17 16 C-11.39 16 -5.78 16 0 16 C0 10.72 0 5.44 0 0 Z M1 17 C1 22.28 1 27.56 1 33 C5.95 33 10.9 33 16 33 C16 27.72 16 22.44 16 17 C11.05 17 6.1 17 1 17 Z " fill="#000000" transform="translate(355,0)"/>
<path d="M0 0 C5.94 0 11.88 0 18 0 C18 5.28 18 10.56 18 16 C23.28 16 28.56 16 34 16 C34 21.94 34 27.88 34 34 C28.72 34 23.44 34 18 34 C18 39.28 18 44.56 18 50 C12.06 50 6.12 50 0 50 C0 44.72 0 39.44 0 34 C-5.28 34 -10.56 34 -16 34 C-16 28.06 -16 22.12 -16 16 C-10.72 16 -5.44 16 0 16 C0 10.72 0 5.44 0 0 Z M1 17 C1 22.28 1 27.56 1 33 C6.28 33 11.56 33 17 33 C17 27.72 17 22.44 17 17 C11.72 17 6.44 17 1 17 Z " fill="#000000" transform="translate(24,454)"/>
</svg>
