<?xml version="1.0" encoding="UTF-8"?>
<svg version="1.1" xmlns="http://www.w3.org/2000/svg" width="512" height="512">
<path d="M0 0 C0.99084595 0.24012817 0.99084595 0.24012817 2.00170898 0.48510742 C5.21474254 1.26818838 8.42494744 2.06222288 11.63476562 2.85839844 C41.50589149 10.08363657 74.82686075 8.66788673 104.453125 1.0859375 C134.03364062 -6.47925205 161.30442837 -5.42244714 188.19140625 9.4140625 C194.24246147 13.10024079 200.51704984 17.18739682 205.0625 22.6875 C205.9375 26.375 205.9375 26.375 205.0625 29.6875 C203 32.6875 203 32.6875 200.0625 34.6875 C194.30818786 34.53679182 190.96876232 32.56322319 186.625 29.0625 C168.8928903 15.65341854 148.00963619 11.39956284 126.0625 13.6875 C120.80541199 14.59706616 115.62276088 15.7548772 110.4375 17 C109.77052094 17.15999481 109.10354187 17.31998962 108.41635132 17.48483276 C106.42175064 17.96502279 104.42758525 18.44697457 102.43359375 18.9296875 C70.4462252 26.66522151 35.64338397 26.18417872 3.72140503 18.45254517 C-23.96951898 11.75719348 -48.80010637 10.43078164 -73.9375 25.6875 C-77.51916443 28.12495485 -80.74751406 30.76054799 -83.9375 33.6875 C-84.69289062 34.35136719 -85.44828125 35.01523437 -86.2265625 35.69921875 C-100.18210734 48.67164101 -109.26373335 67.94116786 -110.34375 87.0078125 C-110.38575146 88.94250481 -110.41683204 90.8774622 -110.4375 92.8125 C-110.47875 93.72386719 -110.52 94.63523437 -110.5625 95.57421875 C-110.81805652 119.56458747 -98.98220119 145.72306613 -92.15283203 168.59643555 C-91.01319115 172.41468705 -89.87880297 176.23446823 -88.747509 180.05520058 C-88.11349908 182.19027153 -87.47328862 184.32341908 -86.83291626 186.45658875 C-86.447676 187.75635812 -86.06275996 189.05622365 -85.67822266 190.35620117 C-85.34102203 191.48595871 -85.00382141 192.61571625 -84.65640259 193.77970886 C-83.9375 196.6875 -83.9375 196.6875 -83.9375 200.6875 C-82.65416779 200.68963753 -82.65416779 200.68963753 -81.34490967 200.69181824 C-73.28143568 200.7096489 -65.21851065 200.75126386 -57.15530014 200.81959057 C-53.00987261 200.85387964 -48.86481434 200.87897344 -44.71923828 200.88305664 C-40.71831693 200.88733564 -36.71822883 200.91576365 -32.71756744 200.96093178 C-31.1914073 200.97391982 -29.66514751 200.97820979 -28.1389389 200.97365379 C-26.00023991 200.96875638 -23.86398444 200.99479383 -21.72558594 201.02807617 C-20.5086908 201.03473801 -19.29179565 201.04139984 -18.0380249 201.04826355 C-14.9375 201.6875 -14.9375 201.6875 -12.50933838 204.00215149 C-10.9375 206.6875 -10.9375 206.6875 -11 210.3125 C-12.25496032 214.83035714 -12.25496032 214.83035714 -14.9375 216.6875 C-17.66856511 217.59785504 -19.23643239 217.80965713 -22.04174805 217.80102539 C-23.2726844 217.80091209 -23.2726844 217.80091209 -24.52848816 217.80079651 C-25.40982925 217.79563522 -26.29117035 217.79047394 -27.19921875 217.78515625 C-28.10501175 217.7837413 -29.01080475 217.78232635 -29.94404602 217.78086853 C-32.83773091 217.77527001 -35.73133849 217.76271781 -38.625 217.75 C-40.58658742 217.74498481 -42.54817606 217.74042193 -44.50976562 217.73632812 C-49.31904021 217.72530107 -54.128257 217.70803747 -58.9375 217.6875 C-58.81632812 218.24211914 -58.69515625 218.79673828 -58.5703125 219.36816406 C-58.02177744 221.89037045 -57.47957981 224.41389872 -56.9375 226.9375 C-56.74671875 227.81019531 -56.5559375 228.68289062 -56.359375 229.58203125 C-56.17890625 230.42636719 -55.9984375 231.27070313 -55.8125 232.140625 C-55.64492187 232.91567383 -55.47734375 233.69072266 -55.3046875 234.48925781 C-54.9375 236.6875 -54.9375 236.6875 -54.9375 240.6875 C17.0025 240.6875 88.9425 240.6875 163.0625 240.6875 C163.7225 236.0675 164.3825 231.4475 165.0625 226.6875 C165.69208165 223.67949877 166.34140706 220.67488505 167.0625 217.6875 C165.88028398 217.69164807 165.88028398 217.69164807 164.6741848 217.69587994 C145.49482996 217.76213973 126.31549797 217.81178057 107.13605309 217.84293652 C97.86100529 217.85840386 88.58603391 217.87949085 79.31103516 217.91381836 C71.22672494 217.94372476 63.14247006 217.96307597 55.05810606 217.96976548 C50.77768517 217.97367564 46.4974226 217.98286228 42.21705246 218.00469017 C38.18696554 218.02507494 34.15710196 218.03132979 30.12696838 218.02682304 C28.64914867 218.02764736 27.17132137 218.03360125 25.6935463 218.04511642 C23.67257361 218.06008989 21.6514807 218.05465503 19.63046265 218.04826355 C18.50034445 218.05102893 17.37022625 218.05379431 16.20586205 218.05664349 C12.58524657 217.63145332 10.17060776 216.56555052 7.0625 214.6875 C5.51663124 211.59576248 5.76890479 209.09320448 6.0625 205.6875 C7.62250137 203.49337387 7.62250137 203.49337387 10.0625 201.6875 C12.65438385 201.29093273 14.82476836 201.13949582 17.41497803 201.16851807 C18.1575187 201.16101681 18.90005938 201.15351556 19.66510129 201.145787 C22.15429623 201.12548007 24.64258289 201.13361799 27.13183594 201.14160156 C28.91566368 201.13286815 30.69948359 201.12238318 32.48329163 201.11027527 C37.32800367 201.08236619 42.17246071 201.07901167 47.01724148 201.07999516 C52.07952553 201.07687027 57.14169402 201.05126092 62.20391846 201.02801514 C71.79088604 200.98741906 81.37778555 200.96710594 90.96482587 200.95404124 C101.87891967 200.93818342 112.79289741 200.89977293 123.70692396 200.85944796 C146.15874371 200.77699963 168.61056032 200.72293834 191.0625 200.6875 C194.29109642 189.76135644 197.51643106 178.83425581 200.73766136 167.90593815 C202.23367582 162.83094596 203.73079112 157.75628408 205.23046875 152.68237305 C206.67901297 147.78131174 208.12460463 142.8793883 209.56819534 137.97686577 C210.11811956 136.111173 210.66908807 134.24578771 211.22114182 132.38072395 C211.99707846 129.75862212 212.76921817 127.13542907 213.54052734 124.51196289 C213.76710526 123.7495076 213.99368317 122.98705231 214.22712708 122.20149231 C220.40194036 101.11949706 221.34373603 78.54344198 210.93359375 58.515625 C209.40569912 55.30910173 209.37587193 52.14187626 210.0625 48.6875 C212.63622384 45.65958959 214.21496594 44.82587291 218.125 44.1875 C221.78984452 44.81130332 222.65642445 45.91455749 225.0625 48.6875 C236.6894887 68.62913759 238.54154634 94.13694675 233.2265625 116.23828125 C232.91290489 117.54557945 232.91290489 117.54557945 232.59291077 118.87928772 C228.89921512 133.80068308 224.42939838 148.52770388 220.07836914 163.26733398 C218.75082684 167.76606739 217.43792498 172.26893625 216.12844753 176.77295589 C215.10858653 180.27266241 214.079376 183.76956749 213.04750252 187.26574898 C212.55903159 188.92609067 212.07383849 190.58740058 211.59210014 192.24970818 C210.92068516 194.56262726 210.23628903 196.87132372 209.54858398 199.17944336 C209.35575333 199.85423737 209.16292267 200.52903137 208.96424866 201.22427368 C206.81202193 208.34086081 203.65461799 213.12775629 197.0625 216.6875 C192.40733064 217.90189201 187.84206535 217.7699063 183.0625 217.6875 C183.02511719 218.2959375 182.98773438 218.904375 182.94921875 219.53125 C181.00653886 245.4336485 181.00653886 245.4336485 174.0625 252.6875 C168.68372005 256.37264935 163.80770901 257.25524252 157.40625 257.078125 C156.61851196 257.07246521 155.83077393 257.06680542 155.01916504 257.06097412 C152.53295966 257.03879902 150.04826072 256.98864337 147.5625 256.9375 C145.86460433 256.91741039 144.16668579 256.89916396 142.46875 256.8828125 C138.33276361 256.8389969 134.1978861 256.77010605 130.0625 256.6875 C130.0625 259.3275 130.0625 261.9675 130.0625 264.6875 C130.949375 265.1 131.83625 265.5125 132.75 265.9375 C139.24422963 269.36841377 142.52301445 272.85715956 145.0625 279.6875 C146.66972418 286.33069328 145.75597922 291.4167437 143.0625 297.6875 C138.82113825 304.42378042 132.58598681 306.96443386 125.0625 308.6875 C123.5185881 317.00663693 122.58005404 325.24319721 122.0625 333.6875 C123.279375 334.079375 124.49625 334.47125 125.75 334.875 C132.1655418 337.29638615 135.61225614 341.89601923 139.0625 347.6875 C141.23189677 353.11099192 140.59495212 359.00349741 138.5 364.3125 C135.50384177 370.40994482 131.16899597 374.05038146 124.875 376.5 C122.26643413 377.31250412 119.71145921 378.04728591 117.0625 378.6875 C115.12066043 387.28117299 114.08175153 395.94796032 113.0625 404.6875 C113.96742188 404.79964844 114.87234375 404.91179687 115.8046875 405.02734375 C121.21041023 406.122748 125.08020613 409.15149276 128.4609375 413.4765625 C131.62202622 418.92439624 132.03691304 424.53331236 131.0625 430.6875 C129.16463071 436.59944682 126.44143393 441.39696291 121.10546875 444.73046875 C117.87677103 446.24295621 114.54664299 447.21427856 111.1015625 448.109375 C109.08551375 448.50201545 109.08551375 448.50201545 108.0625 449.6875 C107.65217944 452.75020899 107.29761812 455.80257992 106.9765625 458.875 C106.76593735 460.79039896 106.55498919 462.70576242 106.34375 464.62109375 C106.01517387 467.64428753 105.68958907 470.66772453 105.37011719 473.69189453 C105.0602166 476.60812619 104.73790206 479.52278771 104.4140625 482.4375 C104.32331451 483.32848389 104.23256653 484.21946777 104.1390686 485.13745117 C103.41148729 491.58886926 102.51133123 498.67691016 98.30859375 503.84375 C97.71175781 504.2871875 97.11492187 504.730625 96.5 505.1875 C95.90058594 505.6515625 95.30117188 506.115625 94.68359375 506.59375 C91.13254233 508.98964012 88.52047624 508.83139749 84.24536133 508.86450195 C83.19377335 508.87435875 83.19377335 508.87435875 82.12094116 508.88441467 C79.79547012 508.90416066 77.47006381 508.91581522 75.14453125 508.92578125 C74.3497254 508.92985678 73.55491955 508.9339323 72.73602867 508.93813133 C68.52641433 508.95900106 64.31683264 508.97329689 60.10717773 508.98266602 C55.76716931 508.99371161 51.42767627 509.02808706 47.08784962 509.06783772 C43.74457372 509.09404097 40.40141969 509.10236128 37.05805016 509.10594749 C35.45892558 509.11080662 33.85980621 509.12240143 32.26078224 509.14098549 C30.01564969 509.16544942 27.77183757 509.16439914 25.52661133 509.1574707 C24.25135086 509.16333694 22.97609039 509.16920319 21.66218567 509.17524719 C16.29396806 508.44786894 12.67855172 506.23034132 8.734375 502.46484375 C6.52960403 498.80224525 5.93116044 495.43869509 5.3125 491.25 C5.18746094 490.51201172 5.06242188 489.77402344 4.93359375 489.01367188 C4.26254185 484.86568623 3.92889965 480.90259106 4.0625 476.6875 C3.36125 476.73390625 2.66 476.7803125 1.9375 476.828125 C-5.66322965 477.11728319 -10.98921252 476.319221 -16.69140625 471.07421875 C-21.72506922 465.60390068 -23.38572935 460.30591813 -23.1875 452.921875 C-22.49220548 446.70768027 -19.2629199 442.0129199 -14.9375 437.6875 C-10.50457446 434.81159376 -6.22808352 433.21655835 -0.9375 432.6875 C-1.07027344 432.10484375 -1.20304687 431.5221875 -1.33984375 430.921875 C-2.78843876 424.19701058 -3.48960657 417.54734142 -3.9375 410.6875 C-5.236875 410.914375 -6.53625 411.14125 -7.875 411.375 C-14.01569497 412.02088157 -18.90771012 410.86002375 -23.953125 407.2421875 C-28.51226108 403.1236402 -30.98383609 398.76710746 -31.9375 392.6875 C-32.29390536 385.51484213 -30.47894054 380.21621022 -25.9375 374.6875 C-20.73843942 369.24662265 -17.95626083 369.09312825 -9.9375 366.6875 C-10.2675 359.4275 -10.5975 352.1675 -10.9375 344.6875 C-12.5875 345.0175 -14.2375 345.3475 -15.9375 345.6875 C-23.00996268 345.06020331 -28.34006989 342.50138262 -33.1875 337.25 C-37.59703349 330.79318311 -37.83237066 324.31696426 -36.9375 316.6875 C-34.8523239 311.07631797 -30.9118933 306.93998793 -25.9375 303.6875 C-22.9675 303.0275 -19.9975 302.3675 -16.9375 301.6875 C-18.5875 286.8375 -20.2375 271.9875 -21.9375 256.6875 C-33.1409694 256.80583685 -33.1409694 256.80583685 -44.34399414 256.95776367 C-45.76187457 256.96653602 -47.17976264 256.97417818 -48.59765625 256.98046875 C-49.67750793 257.0034906 -49.67750793 257.0034906 -50.7791748 257.02697754 C-56.6154848 257.0299588 -61.03885879 255.82581739 -65.83251953 252.28955078 C-70.52913399 247.01069748 -71.60366241 241.39326036 -72.8125 234.5625 C-73.02390625 233.49128906 -73.2353125 232.42007813 -73.453125 231.31640625 C-74.33756424 226.70468738 -75.05794487 222.39550877 -74.9375 217.6875 C-76.113125 217.72875 -77.28875 217.77 -78.5 217.8125 C-84.43346666 217.80201684 -90.33628446 216.56220782 -94.9375 212.6875 C-99.92761145 204.78629212 -102.27021051 195.73378121 -104.84375 186.84765625 C-105.29470528 185.31540843 -105.74642186 183.78338448 -106.19885254 182.25157166 C-107.1423642 179.05013911 -108.07977723 175.84701141 -109.01220703 172.64233398 C-110.19062905 168.59236066 -111.37943397 164.54553777 -112.57218933 160.4997654 C-120.66170741 133.05484603 -120.66170741 133.05484603 -124.03125 120.30859375 C-124.2211853 119.59083267 -124.41112061 118.87307159 -124.60681152 118.13356018 C-131.15633961 92.73408927 -127.05342901 65.92486286 -114.0234375 43.375 C-109.64315583 36.53408201 -104.54826291 30.5430962 -98.9375 24.6875 C-98.35226563 24.05070312 -97.76703125 23.41390625 -97.1640625 22.7578125 C-72.33613322 -3.46887336 -33.48973656 -8.13057526 0 0 Z M-5.9375 256.6875 C-3.99224745 276.77451861 -3.99224745 276.77451861 -0.9375 296.6875 C9.96326918 295.10319909 20.51694258 292.00395775 31.12890625 289.12890625 C33.17421723 288.57809594 35.21962401 288.02764125 37.26512146 287.4775238 C41.53645418 286.32782168 45.80698979 285.17522161 50.0769043 284.02026367 C55.52819236 282.54579833 60.98084787 281.07647176 66.43403721 279.60905552 C71.66615869 278.20085349 76.89754367 276.78992437 82.12890625 275.37890625 C83.11537203 275.11310823 84.10183781 274.84731022 85.11819649 274.57345772 C87.93410524 273.81422765 90.74947769 273.05304079 93.56469727 272.29125977 C94.3810817 272.07141922 95.19746613 271.85157867 96.03858948 271.62507629 C101.74466432 270.07793825 107.40514007 268.40441432 113.0625 266.6875 C113.3925 263.3875 113.7225 260.0875 114.0625 256.6875 C74.4625 256.6875 34.8625 256.6875 -5.9375 256.6875 Z M113.47460938 282.25366211 C112.85179014 282.4217636 112.22897091 282.58986509 111.58727837 282.76306057 C109.52457181 283.32201412 107.46553352 283.89341991 105.40625 284.46484375 C103.9281652 284.86787302 102.44985732 285.27008494 100.97134399 285.67153931 C96.99145367 286.75446303 93.01455755 287.84801496 89.03818512 288.94377518 C84.89664779 290.08338619 80.75272221 291.21423841 76.60888672 292.34545898 C71.51142078 293.73731806 66.4141016 295.12968977 61.31784058 296.5259552 C50.73733634 299.42312795 40.14688594 302.27991134 29.54451752 305.09599876 C27.31646112 305.68803221 25.08874065 306.2813117 22.86114502 306.87507629 C22.14326939 307.06640986 21.42539375 307.25774343 20.68576431 307.45487499 C19.26325823 307.83403666 17.84076005 308.21322795 16.41827011 308.59245014 C12.96950813 309.51125739 9.51995276 310.42686298 6.06860352 311.33590698 C2.25411952 312.34073965 -1.55661352 313.35934102 -5.3671875 314.37890625 C-6.48974945 314.67181549 -7.6123114 314.96472473 -8.76889038 315.26651001 C-9.79374542 315.54280243 -10.81860046 315.81909485 -11.87451172 316.10375977 C-12.76161835 316.33877701 -13.64872498 316.57379425 -14.56271362 316.81593323 C-17.1598851 317.76911722 -18.91504264 318.80079515 -20.9375 320.6875 C-21.43760524 323.72980823 -21.43760524 323.72980823 -20.9375 326.6875 C-19.01092613 329.03719475 -19.01092613 329.03719475 -15.59570312 329.01538086 C-9.65372533 328.85578573 -4.08560298 327.06511006 1.59375 325.44140625 C2.7842395 325.11083725 3.974729 324.78026825 5.20129395 324.43968201 C8.99114271 323.38612678 12.77700428 322.31908102 16.5625 321.25 C20.34840733 320.18610175 24.13509613 319.12526492 27.92370605 318.07102966 C30.27605355 317.41595147 32.62681423 316.75513994 34.97570801 316.08778381 C49.82136795 311.94045598 49.82136795 311.94045598 54.5 313.5 C56.0625 314.6875 56.0625 314.6875 57.0625 316.6875 C57.3416016 319.89716839 57.48613928 321.96115308 55.84156799 324.78083801 C53.72165535 327.05278989 52.334803 327.54009555 49.34741211 328.3190918 C48.39309799 328.57583176 47.43878387 328.83257172 46.45555115 329.09709167 C45.42736771 329.35766861 44.39918427 329.61824554 43.33984375 329.88671875 C42.28342178 330.16723587 41.22699982 330.44775299 40.13856506 330.73677063 C36.76255917 331.63023081 33.38163609 332.50311754 30 333.375 C26.61606396 334.26194871 23.23323552 335.15300283 19.85072327 336.04536438 C17.74506076 336.59927249 15.63833967 337.14917439 13.53050232 337.69474792 C12.57934036 337.9420314 11.62817841 338.18931488 10.64819336 338.4440918 C9.80896835 338.66074997 8.96974335 338.87740814 8.10508728 339.10063171 C6.02112283 339.63200802 6.02112283 339.63200802 4.0625 340.6875 C4.36856349 343.97979866 4.68344203 347.27119514 5 350.5625 C5.08701172 351.49964844 5.17402344 352.43679688 5.26367188 353.40234375 C5.35068359 354.29824219 5.43769531 355.19414062 5.52734375 356.1171875 C5.605896 356.94460449 5.68444824 357.77202148 5.76538086 358.62451172 C5.96027363 360.7456666 5.96027363 360.7456666 7.0625 362.6875 C19.00722632 359.95491292 30.85290333 356.94051912 42.6796875 353.73828125 C44.39692599 353.27535774 46.11422251 352.81264946 47.83157349 352.35014343 C51.38995246 351.39124292 54.94785622 350.43060714 58.50537109 349.46850586 C63.06527222 348.23534445 67.62603212 347.00539576 72.18710136 345.77656269 C76.55993683 344.59827197 80.93231796 343.41829947 85.3046875 342.23828125 C86.54958765 341.90257331 86.54958765 341.90257331 87.8196373 341.56008339 C90.15719411 340.92942213 92.49441977 340.29754919 94.83154297 339.6652832 C95.52340698 339.47879715 96.215271 339.2923111 96.92810059 339.10017395 C99.66692414 338.35806854 102.36967119 337.5851096 105.0625 336.6875 C105.39925279 333.79202736 105.73201734 330.89618928 106.0625 328 C106.15789062 327.18337891 106.25328125 326.36675781 106.3515625 325.52539062 C106.80120522 321.55889948 107.19284543 317.68747537 107.0625 313.6875 C100.3485006 314.23558158 94.17018261 316.00672169 87.74609375 317.9453125 C83.75997959 318.74845321 80.99449773 318.68872563 77.0625 317.6875 C74.59306471 313.98334707 74.59336911 312.06605495 75.0625 307.6875 C77.73388838 305.17457282 80.27315321 304.12591385 83.78344727 303.20117188 C84.71443741 302.95081177 85.64542755 302.70045166 86.60462952 302.44250488 C87.60264084 302.18304077 88.60065216 301.92357666 89.62890625 301.65625 C91.74414345 301.08725007 93.85937773 300.51823932 95.97460938 299.94921875 C99.30747187 299.06449256 102.64122701 298.1832171 105.9753418 297.30322266 C109.19548625 296.45005648 112.41221936 295.58484463 115.62890625 294.71875 C117.12895958 294.32955383 117.12895958 294.32955383 118.65931702 293.93249512 C119.587155 293.68213501 120.51499298 293.4317749 121.47094727 293.17382812 C122.28717056 292.95859497 123.10339386 292.74336182 123.9443512 292.52160645 C126.31705359 291.58725927 127.47658545 290.67013507 129.0625 288.6875 C130.39743024 285.72806497 130.39743024 285.72806497 129.0625 283 C127.21929976 280.31961806 127.21929976 280.31961806 123.84924316 280.44508362 C120.16474121 280.68095481 117.02910838 281.27926059 113.47460938 282.25366211 Z M111.92208862 350.66542053 C110.69545753 350.99101959 110.69545753 350.99101959 109.44404602 351.32319641 C108.11025154 351.68540535 108.11025154 351.68540535 106.74951172 352.05493164 C105.8055806 352.307034 104.86164948 352.55913635 103.88911438 352.81887817 C100.7555146 353.65706702 97.62387182 354.50234146 94.4921875 355.34765625 C92.29586143 355.93666469 90.0994178 356.52523489 87.90286255 357.11338806 C82.09524314 358.66972864 76.2892564 360.23207789 70.48358154 361.7956543 C63.53626482 363.66536366 56.58693304 365.52756889 49.63785172 367.39070702 C44.07418892 368.88295056 38.51142483 370.37838497 32.95062256 371.8812561 C24.04491106 374.28683375 15.14146795 376.6897641 6.19628906 378.94482422 C4.35068893 379.41679482 4.35068893 379.41679482 2.46780396 379.89830017 C0.35029734 380.43659496 -1.77062938 380.96174235 -3.89578247 381.4690094 C-9.34273732 382.86422956 -12.3742665 384.27554539 -15.9375 388.6875 C-15.05653182 391.73084462 -14.58435796 393.30756943 -11.79658508 394.94496155 C-7.99599784 395.93201933 -5.66331336 395.21912325 -1.87963867 394.19311523 C-1.18460047 394.00922052 -0.48956226 393.82532581 0.2265377 393.63585854 C2.53675953 393.0206281 4.84032422 392.38344918 7.14453125 391.74609375 C8.77903998 391.30613656 10.41392101 390.86756051 12.04914856 390.43028259 C16.42553208 389.25586781 20.79654 388.06252069 25.16669464 386.86516571 C29.6706591 385.63425575 34.17902304 384.41968547 38.68701172 383.20361328 C45.83977018 381.27214787 52.98980194 379.33089701 60.13818359 377.38330078 C68.68413183 375.05590516 77.23954848 372.76659826 85.80078125 370.49609375 C89.08812651 369.62081412 92.37523568 368.74465598 95.66220093 367.86795044 C97.6672302 367.33413488 99.67278015 366.80227089 101.67886353 366.27243042 C104.40513458 365.5509716 107.12862732 364.81986929 109.8515625 364.0859375 C110.62490433 363.88371078 111.39824615 363.68148407 112.19502258 363.47312927 C116.22219837 362.37606778 119.67795355 361.16413482 123.0625 358.6875 C124.30651278 356.30141389 124.30651278 356.30141389 124.0625 353.6875 C122.47916667 351.27083333 122.47916667 351.27083333 120.0625 349.6875 C116.86123823 349.6875 114.90510818 349.86409404 111.92208862 350.66542053 Z M87.09692383 385.69116211 C86.29815323 385.90413437 85.49938263 386.11710663 84.67640686 386.33653259 C82.03943156 387.04103368 79.40446811 387.75275975 76.76953125 388.46484375 C74.93927447 388.95603246 73.10892547 389.44687767 71.27848816 389.93739319 C67.44530034 390.96576816 63.61306339 391.99759366 59.78149414 393.03198242 C54.85980938 394.36047346 49.9361497 395.68146381 45.01179981 397.00003719 C41.23400918 398.01227662 37.45713443 399.02789758 33.68054771 400.04461861 C31.86462796 400.53316717 30.04845641 401.02078073 28.23203468 401.50745964 C25.70040071 402.18642928 23.16999658 402.8697979 20.63989258 403.55444336 C19.50457092 403.85762482 19.50457092 403.85762482 18.34631348 404.16693115 C14.92428197 404.88347416 14.92428197 404.88347416 12.0625 406.6875 C12.12787591 408.87759298 12.26608734 411.06564679 12.4375 413.25 C12.52773437 414.44753906 12.61796875 415.64507812 12.7109375 416.87890625 C13.07578594 420.83143104 13.54934314 424.7518478 14.0625 428.6875 C24.7934642 425.95731624 35.51652515 423.19722377 46.23529053 420.41955566 C49.18594759 419.65553544 52.13716867 418.89371635 55.08837891 418.13183594 C60.23758536 416.80088075 65.38345732 415.45759378 70.52749634 414.10681152 C72.54980242 413.57753999 74.5730624 413.05189983 76.59725952 412.52990723 C79.45290736 411.79268963 82.30483778 411.04247141 85.15625 410.2890625 C86.01410599 410.07059662 86.87196198 409.85213074 87.7558136 409.62704468 C88.54473495 409.41576935 89.33365631 409.20449402 90.14648438 408.98681641 C90.83367554 408.80744537 91.5208667 408.62807434 92.22888184 408.44326782 C94.41204895 407.54342537 95.56544284 406.50134568 97.0625 404.6875 C97.65475403 402.37949116 97.65475403 402.37949116 97.79296875 399.80078125 C97.87353516 398.86298828 97.95410156 397.92519531 98.03710938 396.95898438 C98.14249023 395.49428711 98.14249023 395.49428711 98.25 394 C98.33185547 393.01193359 98.41371094 392.02386719 98.49804688 391.00585938 C98.69833026 388.56711463 98.88597846 386.12806084 99.0625 383.6875 C94.78680962 383.6875 91.17867118 384.58133285 87.09692383 385.69116211 Z M100.94604492 421.48828125 C99.86187286 421.77624321 99.86187286 421.77624321 98.75579834 422.07002258 C96.35056528 422.70981658 93.94678485 423.35490447 91.54296875 424 C89.84801231 424.45198462 88.15296776 424.90363895 86.45783997 425.35498047 C81.96559853 426.55202956 77.47456369 427.75354635 72.98376465 428.95599365 C67.65803125 430.38106431 62.33082157 431.80060437 57.00386238 433.22108459 C52.66239461 434.3790998 48.32139977 435.53883144 43.98141479 436.70239258 C35.98452713 438.84563827 27.98474695 440.97455083 19.97119141 443.0546875 C17.89809654 443.59589796 15.82516927 444.13774478 13.75231361 444.67987061 C11.860524 445.17195982 9.96656821 445.6556979 8.07255554 446.13916016 C6.94815567 446.4335498 5.8237558 446.72793945 4.6652832 447.03125 C3.69677933 447.28068359 2.72827545 447.53011719 1.73042297 447.78710938 C-1.15225273 448.75997636 -3.44653095 449.9435966 -5.9375 451.6875 C-7.09960219 454.08101495 -7.09960219 454.08101495 -6.9375 456.6875 C-5.77438232 458.91543156 -5.77438232 458.91543156 -3.9375 460.6875 C4.20650994 462.04572225 14.29759266 457.67380635 22.171875 455.49609375 C23.74461591 455.06756271 25.31755758 454.6397679 26.89068604 454.21266174 C31.03041798 453.08673331 35.16751981 451.95143202 39.30407715 450.81390381 C43.40442619 449.68779938 47.50691482 448.56955631 51.609375 447.45117188 C56.43682422 446.1350224 61.26405402 444.81812182 66.08972168 443.49545288 C73.71903284 441.40581478 81.35253402 439.33572117 89.00195312 437.32080078 C89.70441792 437.13539388 90.40688271 436.94998697 91.13063431 436.75896168 C94.41584884 435.89235104 97.7021224 435.03057815 100.99066162 434.17662048 C102.1335968 433.87607254 103.27653198 433.5755246 104.45410156 433.26586914 C105.4465387 433.00761856 106.43897583 432.74936798 107.46148682 432.48329163 C109.87562284 431.7446759 111.92817143 431.03523768 114.0625 429.6875 C115.23360449 426.8278994 115.23360449 426.8278994 115.0625 423.6875 C113.43669918 421.22797777 113.43669918 421.22797777 111.0625 419.6875 C107.48756707 419.6875 104.36775692 420.56450177 100.94604492 421.48828125 Z M90.0625 452.6875 C54.9175 462.0925 54.9175 462.0925 19.0625 471.6875 C19.83490042 482.34730768 19.83490042 482.34730768 22.0625 492.6875 C24.72479522 494.01864761 26.76847328 493.82929023 29.74975586 493.84863281 C31.53687233 493.86304413 31.53687233 493.86304413 33.36009216 493.87774658 C35.2991317 493.8841214 35.2991317 493.8841214 37.27734375 493.890625 C38.61251325 493.89637633 39.94768273 493.90213406 41.28285217 493.90789795 C44.0830219 493.91840584 46.88316293 493.92425008 49.68334961 493.92773438 C53.27261373 493.93322301 56.86149923 493.95725923 60.45064449 493.98570633 C63.20871595 494.00432213 65.96669593 494.00953769 68.72482491 494.01107025 C70.69191497 494.01557252 72.65895609 494.03422278 74.6259613 494.05303955 C75.82052444 494.05003845 77.01508759 494.04703735 78.24584961 494.04394531 C79.29904892 494.04759094 80.35224823 494.05123657 81.43736267 494.05499268 C84.07393186 493.89394975 84.07393186 493.89394975 85.8808136 492.37760925 C87.83112082 489.5881786 87.91898141 486.39892316 88.265625 483.09765625 C88.35253601 482.35672226 88.43944702 481.61578827 88.5289917 480.85240173 C88.70978856 479.28715365 88.88422202 477.72115924 89.05273438 476.15454102 C89.31136544 473.76050215 89.59150995 471.36972464 89.875 468.97851562 C90.04815556 467.45587425 90.22007198 465.93309134 90.390625 464.41015625 C90.47387024 463.69650406 90.55711548 462.98285187 90.6428833 462.24757385 C91.02160084 458.64329017 90.95702815 456.26561262 90.0625 452.6875 Z " fill="#000000" transform="translate(201.9375,3.3125)"/>
<path d="M0 0 C11.79765819 2.42850698 23.1550798 3.08952015 35.17578125 3.12890625 C35.96774902 3.13185699 36.7597168 3.13480774 37.57568359 3.1378479 C55.30742021 3.15280291 72.29332915 1.1105496 89.43164062 -3.60424805 C92.48731904 -4.23500004 95.12688499 -4.42361421 98.23828125 -4.18359375 C101.56102529 -1.7276525 103.01446133 -0.25792935 103.86328125 3.81640625 C103.0034559 7.94356795 101.50824329 9.16191722 98.23828125 11.81640625 C95.16717088 13.06233187 92.03840973 13.75922039 88.80078125 14.44140625 C87.86613037 14.64596436 86.93147949 14.85052246 85.96850586 15.0612793 C83.06369657 15.67695011 80.1535607 16.2525928 77.23828125 16.81640625 C76.40683594 16.98446777 75.57539063 17.1525293 74.71875 17.32568359 C49.42086353 22.25550194 20.46294823 21.99407537 -4.76171875 16.81640625 C-5.70934082 16.62353027 -6.65696289 16.4306543 -7.63330078 16.23193359 C-26.56023641 12.27264845 -26.56023641 12.27264845 -29.76171875 8.81640625 C-30.75324284 6.17776018 -30.9145382 3.62375608 -30.76171875 0.81640625 C-25.80647482 -8.84631942 -8.35374283 -1.75078443 0 0 Z " fill="#000000" transform="translate(219.76171875,47.18359375)"/>
</svg>
