<?xml version="1.0" encoding="UTF-8"?>
<svg version="1.1" xmlns="http://www.w3.org/2000/svg" width="512" height="512">
<path d="M0 0 C1.22251465 0.29801514 1.22251465 0.29801514 2.46972656 0.60205078 C15.27827854 3.77448434 27.17057322 8.18027522 39 14 C39.7110791 14.34401855 40.4221582 14.68803711 41.15478516 15.04248047 C69.18707461 28.72376849 93.58513261 49.9013794 112 75 C112.76828125 76.03511719 113.5365625 77.07023437 114.328125 78.13671875 C131.8526759 102.55466817 149.57804933 137.83922598 144.53515625 168.859375 C142.3220309 179.17856303 137.90799207 187.9799871 129 194 C126.30047609 195.54258509 125.18478412 196 122 196 C121.98582031 196.56203125 121.97164063 197.1240625 121.95703125 197.703125 C121.67803636 202.61946733 121.02761112 207.12567752 119.57421875 211.83203125 C116.33216976 220.9882284 116.33216976 220.9882284 117.16015625 230.265625 C118.97238036 232.82215345 118.97238036 232.82215345 121.09765625 234.83203125 C126.47808628 240.96373282 125.62401249 250.32020726 125.19091797 258.02246094 C124.00626563 270.29315653 116.70961939 281.54711861 107.390625 289.28125 C101.06950662 293.82584492 92.6283462 298.60432563 84.5625 297.73828125 C81.41314097 297.5222429 79.83843601 297.54266713 77 299 C72.73144777 304.86343386 70.27694683 312.1691595 68 319 C68.8971875 318.48050781 69.794375 317.96101563 70.71875 317.42578125 C93.95812341 304.30185152 119.71926054 300.44667745 145.87109375 306.96484375 C170.51129633 313.85515907 193.19781632 329.19674674 205.98339844 351.73339844 C219.51437019 376.24160924 224.11628769 403.96425347 216.36572266 431.23144531 C208.12713981 456.92089757 190.89506808 478.40402466 167.02978516 491.04345703 C154.62715125 497.25854449 140.92742494 501.49394822 127 502 C126.00871094 502.03996094 125.01742188 502.07992188 123.99609375 502.12109375 C106.10586445 502.48707919 89.61679807 498.34340262 73.8671875 490.0390625 C68.10609126 487.95125378 62.31722968 490.71853734 56.65307617 492.37402344 C44.19433707 496.01014773 31.82902229 499.03609581 19 501 C17.61651367 501.22429687 17.61651367 501.22429687 16.20507812 501.453125 C-17.68641078 506.73373308 -55.16836061 506.68996668 -89 501 C-90.06025391 500.82307617 -91.12050781 500.64615234 -92.21289062 500.46386719 C-160.79229131 488.61089017 -160.79229131 488.61089017 -174.9921875 468.6953125 C-179.06915929 461.83715066 -180.04604664 455.88558239 -179 448 C-176.65477385 440.35629996 -172.30432672 435.65164608 -166 431 C-165.44328613 430.58024902 -164.88657227 430.16049805 -164.31298828 429.72802734 C-142.49702471 413.36463176 -117.64327488 399.71929734 -91.69140625 391.21875 C-90.47324219 390.8165625 -89.25507813 390.414375 -88 390 C-87.28690674 389.76555176 -86.57381348 389.53110352 -85.83911133 389.28955078 C-81.30222486 387.7127968 -78.8520215 386.52789224 -76.67578125 382.05078125 C-75.48497172 378.43705291 -75.17164257 374.78471875 -75 371 C-76.48886719 370.29037109 -76.48886719 370.29037109 -78.0078125 369.56640625 C-92.87262545 362.37815345 -105.71551213 354.04414538 -118 343 C-118.65355469 342.43023437 -119.30710937 341.86046875 -119.98046875 341.2734375 C-131.68982712 330.42628841 -141.9611284 314.1166148 -147 299 C-148.45019531 298.85304688 -148.45019531 298.85304688 -149.9296875 298.703125 C-165.23104817 296.945741 -176.30863391 292.29363667 -186.43359375 280.171875 C-192.54632193 271.69637159 -195.39701105 262.57121312 -195.375 252.1875 C-195.37338867 251.39577393 -195.37177734 250.60404785 -195.37011719 249.78833008 C-195.21250079 242.24978506 -193.76222273 236.13549607 -188.6875 230.375 C-186.23011055 226.91645189 -187.33554678 223.96920226 -188 220 C-188.14155518 219.09491699 -188.28311035 218.18983398 -188.42895508 217.25732422 C-188.92399264 214.24389924 -189.48750887 211.24912317 -190.0625 208.25 C-190.22943359 207.22261719 -190.39636719 206.19523438 -190.56835938 205.13671875 C-191.50687818 199.67630816 -191.50687818 199.67630816 -194.83862305 195.51806641 C-196.86169621 194.5365454 -198.88623235 193.7608807 -201 193 C-208.62273993 187.39791325 -213.05616874 178.57106225 -214.71875 169.37890625 C-218.88358083 134.15137879 -199.68983392 97.32768712 -178.76025391 70.40527344 C-167.0359707 55.57573931 -153.38176227 42.00250453 -138 31 C-137.4210498 30.58202148 -136.84209961 30.16404297 -136.24560547 29.73339844 C-113.53003393 13.50176163 -87.63992007 2.3598871 -60 -2 C-58.92226318 -2.1743457 -57.84452637 -2.34869141 -56.73413086 -2.52832031 C-38.64400723 -4.81338856 -17.70020419 -4.5413387 0 0 Z M-69 13 C-69.68449219 13.16628906 -70.36898437 13.33257813 -71.07421875 13.50390625 C-116.94901076 24.95140518 -157.28323801 56.96436306 -181.57421875 97.19140625 C-192.98247872 116.70742331 -206.04472207 144.23497015 -201.50390625 167.546875 C-199.81400737 173.84819284 -197.43359392 179.27680482 -192.1875 183.4375 C-183.87566899 185.57482797 -173.93967985 183.42573564 -166.375 179.7109375 C-158.75299687 174.89568552 -153.9597326 169.59129636 -151.640625 160.8203125 C-151 159 -151 159 -149 158 C-146 157.8125 -146 157.8125 -143 158 C-140.68508271 160.31491729 -140.66787556 161.1715829 -140.1875 164.3125 C-139.23162975 168.88597148 -137.86299423 171.16713757 -134 174 C-125.96774349 177.6814509 -116.35753278 176.01122755 -108.1875 173.375 C-99.88292628 170.01448836 -93.79426108 164.10788869 -90 156 C-89.08314256 153.35300571 -88.28952485 150.71301613 -87.578125 148.00390625 C-87 146 -87 146 -86 145 C-83.32941149 144.85884839 -80.67567762 144.95752893 -78 145 C-77.79246094 145.65226563 -77.58492188 146.30453125 -77.37109375 146.9765625 C-74.16488937 156.07198748 -69.80272687 159.64720879 -61.4375 164.125 C-46.84966721 171.04556986 -33.95776962 173.12749345 -18.46484375 168.265625 C-9.74539506 165.08061781 0.90319381 161.15663559 5.30859375 152.3984375 C6.30384186 149.95336429 7.19980892 147.51488625 8 145 C10.64 145 13.28 145 16 145 C16.17015625 145.556875 16.3403125 146.11375 16.515625 146.6875 C20.05896886 157.84526365 24.03904691 165.7746227 34.49609375 171.7109375 C42.30722281 175.73226759 52.46177387 177.36883832 61 174.875 C64.86984075 173.30047166 66.98968495 171.77939229 69 168 C69.87769878 164.69214101 70.50057002 161.38429527 71 158 C78.41265823 157.51392405 78.41265823 157.51392405 80.8125 159.5 C81.82608478 161.63386269 82.64050668 163.71850281 83.4375 165.9375 C86.31013284 173.78646144 91.61853919 177.48116663 99 181 C106.17485816 183.47154497 114.47908702 185.95221243 121.75 182.8125 C127.80888272 177.93173337 130.78399632 171.82836963 131.875 164.25 C134.00392019 130.27983874 113.53879458 95.61072102 92 71 C89.99650577 68.73389855 87.97470824 66.48583524 85.9375 64.25 C85.46707275 63.73091064 84.99664551 63.21182129 84.51196289 62.67700195 C58.12055395 34.16521887 16.84105941 11.67564633 -22.4465332 9.83886719 C-26.40207796 9.79278213 -30.35668189 9.75333338 -34.3125 9.75 C-35.02930939 9.74932526 -35.74611877 9.74865051 -36.48464966 9.74795532 C-47.57058196 9.76453363 -58.21216099 10.2870187 -69 13 Z M-82 167 C-82.39832031 167.53109375 -82.79664063 168.0621875 -83.20703125 168.609375 C-85.8046875 172.07291667 -88.40234375 175.53645833 -91 179 C-89.69675781 179.07347656 -89.69675781 179.07347656 -88.3671875 179.1484375 C-87.21476562 179.22320312 -86.06234375 179.29796875 -84.875 179.375 C-83.73804688 179.44460937 -82.60109375 179.51421875 -81.4296875 179.5859375 C-78.04606384 179.99443876 -75.18387559 180.80967569 -72 182 C-71.375 184.8125 -71.375 184.8125 -71 188 C-71.99 189.485 -71.99 189.485 -73 191 C-75.27148438 191.40063477 -75.27148438 191.40063477 -78.09375 191.44140625 C-79.125 191.46783203 -80.15625 191.49425781 -81.21875 191.52148438 C-82.3015625 191.53501953 -83.384375 191.54855469 -84.5 191.5625 C-91.49427791 191.67821416 -98.08212152 191.97638552 -104.91015625 193.58398438 C-107.92335772 194.18380859 -110.12419588 194.07842654 -113 193 C-114.15625 190.44140625 -114.15625 190.44140625 -115 188 C-115.75023437 188.02320313 -116.50046875 188.04640625 -117.2734375 188.0703125 C-127.3367894 188.24775195 -135.44809246 187.52310695 -144 182 C-144.66 181.67 -145.32 181.34 -146 181 C-147.81950731 262.15661802 -147.81950731 262.15661802 -110.73461914 331.66601562 C-95.07701687 347.71241874 -75.40135618 357.89244609 -54 364 C-53.10152344 364.26683594 -52.20304687 364.53367187 -51.27734375 364.80859375 C-26.73018539 370.91380466 -1.99163268 360.96487664 19 349 C18.67515625 348.25878906 18.3503125 347.51757812 18.015625 346.75390625 C16.39329043 342.35488367 16.31903941 338.15637521 17.75 333.625 C19.40525278 331.47317138 20.38639757 330.82534814 23 330 C28.98986597 329.59390739 34.21011024 330.49891747 40 332 C74.15003894 296.94259288 76.27350381 247.45268793 76.0625 201 C76.05746954 199.04948033 76.0529094 197.09895939 76.04882812 195.1484375 C76.03795747 190.43225948 76.02078019 185.71614434 76 181 C75.21641113 181.42297363 74.43282227 181.84594727 73.62548828 182.28173828 C63.20051023 187.73512385 63.20051023 187.73512385 56.875 187.875 C55.26238281 187.93300781 55.26238281 187.93300781 53.6171875 187.9921875 C52.07812965 187.9967817 50.5390647 188 49 188 C48.67 189.98 48.34 191.96 48 194 C43.94469521 194.1763176 40.47796689 193.9481773 36.5234375 193.01953125 C29.46886338 191.55442029 22.39858319 191.61123229 15.21875 191.52148438 C14.1875 191.49505859 13.15625 191.46863281 12.09375 191.44140625 C11.16240234 191.42795166 10.23105469 191.41449707 9.27148438 191.40063477 C8.52189453 191.26842529 7.77230469 191.13621582 7 191 C5 188 5 188 5.375 184.8125 C5.58125 183.884375 5.7875 182.95625 6 182 C10.98229776 180.08373163 15.72684667 179.4452885 21 179 C17.49102731 174.81576108 13.91939465 170.80411834 10 167 C9.36835938 167.43570313 8.73671875 167.87140625 8.0859375 168.3203125 C-8.38184691 179.28301624 -26.99231362 185.98339646 -46.8984375 182.2734375 C-57.84833346 179.5415162 -67.38605714 175.23086011 -76.90625 169.234375 C-79.06971734 167.86043297 -79.06971734 167.86043297 -82 167 Z M-167.875 192.9375 C-171.57416428 194.23081684 -175.13753265 195.32299926 -179 196 C-178.41257341 204.37082889 -176.25218493 211.93572493 -174 220 C-169.05 219.67 -164.1 219.34 -159 219 C-159 209.76 -159 200.52 -159 191 C-162.39172968 191 -164.67978458 191.81797938 -167.875 192.9375 Z M89 191 C89 200.24 89 209.48 89 219 C93.95 219.33 98.9 219.66 104 220 C104.83745208 216.56345556 105.6701249 213.12587441 106.5 209.6875 C106.85771484 208.22280273 106.85771484 208.22280273 107.22265625 206.72851562 C107.56103516 205.32182617 107.56103516 205.32182617 107.90625 203.88671875 C108.11572266 203.02264404 108.32519531 202.15856934 108.54101562 201.26831055 C109.09916347 198.89564564 109.09916347 198.89564564 109 196 C107.71416016 195.70996094 107.71416016 195.70996094 106.40234375 195.4140625 C105.25894531 195.15367187 104.11554688 194.89328125 102.9375 194.625 C101.81214844 194.36976563 100.68679688 194.11453125 99.52734375 193.8515625 C95.99330085 192.99838271 92.49568838 191.99876811 89 191 Z M-173.2578125 234.26171875 C-177.63472552 237.33847864 -179.95720759 239.94516232 -182 245 C-183.31260015 254.98049125 -182.01992906 263.52485662 -176.046875 271.66015625 C-169.29866448 279.67070685 -163.21585001 283.86305558 -152.81054688 284.84936523 C-152.21306641 284.89907471 -151.61558594 284.94878418 -151 285 C-151.49768157 281.05562782 -152.05554803 277.12209927 -152.625 273.1875 C-152.76550781 272.06794922 -152.90601563 270.94839844 -153.05078125 269.79492188 C-153.80205898 263.41853616 -153.80205898 263.41853616 -157.8203125 258.8046875 C-162.00874349 257.74144297 -162.00874349 257.74144297 -166.25 256.9375 C-170.78378378 256.21621622 -170.78378378 256.21621622 -173 254 C-173.4375 251.0625 -173.4375 251.0625 -173 248 C-171.1875 246.0625 -171.1875 246.0625 -168 245 C-164.25702504 245.06308385 -160.72496418 245.50633005 -157 246 C-157.33 241.38 -157.66 236.76 -158 232 C-163.64933841 230.5876654 -168.15139159 231.40813059 -173.2578125 234.26171875 Z M88 232 C87.15318867 237.08086796 86.90961901 241.84828377 87 247 C87.88042969 246.82082031 88.76085937 246.64164063 89.66796875 246.45703125 C90.82941406 246.24433594 91.99085938 246.03164062 93.1875 245.8125 C94.33605469 245.59207031 95.48460937 245.37164062 96.66796875 245.14453125 C100.52155623 244.97737681 102.05420011 245.55794284 105 248 C105.4375 251.0625 105.4375 251.0625 105 254 C101.95979674 257.04020326 98.26843583 257.16261263 94.140625 258.0234375 C90.32075561 259.21120783 87.98530662 260.29800152 85 263 C83.72033553 266.1119785 83.16642498 269.25186012 82.625 272.5625 C82.46128906 273.42552734 82.29757812 274.28855469 82.12890625 275.17773438 C81.51231631 278.51198336 81 281.60243711 81 285 C89.63591772 284.72142201 95.63354329 281.96647594 102.046875 276.140625 C109.28518427 268.4073886 112.40005614 259.5621483 112.2734375 249.078125 C111.81014281 243.86275047 110.15325021 240.23321175 106.52734375 236.47265625 C101.47967638 232.35576443 94.30499669 229.89833444 88 232 Z M65 338 C63.37981245 339.29769799 61.75488061 340.58949739 60.125 341.875 C59.40570313 342.44992187 58.68640625 343.02484375 57.9453125 343.6171875 C52.48900916 347.49576457 44.53443613 346.56927193 38.2109375 345.55078125 C36.12858211 345.08473028 34.06182117 344.54981898 32 344 C32.39832031 344.72445313 32.79664063 345.44890625 33.20703125 346.1953125 C34.29961589 348.18908008 35.38529907 350.18664177 36.46484375 352.1875 C37.55834811 354.19086677 38.70072836 356.1678806 39.875 358.125 C42.66301722 365.24993289 40.63363994 372.5500316 38.5625 379.625 C31.89539827 403.00654446 35.36825219 424.01223824 46.125 445.5 C56.86160853 464.68243204 74.79707707 478.54946381 95.625 485.375 C120.03831791 492.12825563 143.41804985 489.05910592 165.4296875 476.609375 C169.53580407 474.03837192 173.27034545 471.08224282 177 468 C177.82113281 467.3709375 178.64226562 466.741875 179.48828125 466.09375 C196.12331779 452.22690772 204.56706851 429.9232108 207 409 C209.08001906 386.00581667 200.15488183 363.78148318 185.75 346.25 C170.95163378 328.975842 149.40136257 319.18879417 127 317 C104.05367047 315.37522884 82.60585474 323.54696676 65 338 Z M18.875 362.6875 C17.90691406 363.23019531 16.93882812 363.77289063 15.94140625 364.33203125 C14.97074219 364.88246094 14.00007812 365.43289063 13 366 C11.27158124 366.95968158 9.54249233 367.91815797 7.8125 368.875 C6.54141844 369.5828878 5.27048327 370.29103897 4 371 C4.16648714 377.53840403 5.11815195 383.3087664 10 388 C14.01557637 390.05704129 18.42430978 392 23 392 C23.81783278 388.64711088 24.62829214 385.29248023 25.4375 381.9375 C25.66759766 380.99455078 25.89769531 380.05160156 26.13476562 379.08007812 C28.77011079 370.29874158 28.77011079 370.29874158 28.0625 361.5625 C27.711875 361.046875 27.36125 360.53125 27 360 C23.42579934 360 21.96590825 360.93950773 18.875 362.6875 Z M-61 375 C-61.30292969 376.00160156 -61.60585937 377.00320313 -61.91796875 378.03515625 C-67.06762878 394.5901594 -67.06762878 394.5901594 -72.72900391 398.05957031 C-77.41662588 400.3755844 -82.06163409 402.06677968 -87.0625 403.5625 C-105.31575199 409.0481826 -105.31575199 409.0481826 -121 419 C-120.76157031 424.96074217 -119.16827224 428.85084828 -115 433 C-102.00169947 442.63349224 -85.9206062 446.23961284 -70 447 C-69.17757812 447.04125 -68.35515625 447.0825 -67.5078125 447.125 C-36.46061316 447.8799471 -5.2416507 437.78163396 18 417 C18.95003906 416.22914063 19.90007812 415.45828125 20.87890625 414.6640625 C23.42414221 412.0691688 23.42414221 412.0691688 22.8125 408.1875 C22.544375 407.135625 22.27625 406.08375 22 405 C20.75863281 404.61328125 19.51726562 404.2265625 18.23828125 403.828125 C16.59617265 403.30265025 14.9542555 402.77657694 13.3125 402.25 C12.49587891 401.99734375 11.67925781 401.7446875 10.83789062 401.484375 C5.24116692 399.67167097 0.89591517 397.85891971 -2.4765625 392.7734375 C-5.25286479 386.97530958 -7.37190441 381.22117826 -9 375 C-10.00675781 375.2165625 -11.01351562 375.433125 -12.05078125 375.65625 C-28.79562609 379.05562488 -44.36578228 378.85454976 -61 375 Z M-138.78125 428.34375 C-139.53656006 428.84455078 -140.29187012 429.34535156 -141.07006836 429.86132812 C-141.8719458 430.40208984 -142.67382324 430.94285156 -143.5 431.5 C-144.31283447 432.04591797 -145.12566895 432.59183594 -145.96313477 433.15429688 C-157.18717553 440.30487926 -157.18717553 440.30487926 -166 450 C-166.63608095 454.92962733 -166.84648682 456.68539365 -164.12109375 460.91796875 C-160.41236479 465.0842256 -155.55286057 467.13859314 -150.5625 469.4375 C-149.54551025 469.91268066 -148.52852051 470.38786133 -147.48071289 470.87744141 C-117.02119473 484.74599297 -82.3280724 491.0679424 -48.95703125 491.203125 C-47.83092941 491.20882507 -46.70482758 491.21452515 -45.54460144 491.22039795 C-43.16882244 491.22979199 -40.79303074 491.23635948 -38.41723633 491.24023438 C-34.86710374 491.24985207 -31.31757321 491.28089401 -27.76757812 491.3125 C-7.33396184 491.4085979 12.40873174 489.34639853 32.375 485 C33.56609375 484.7525 34.7571875 484.505 35.984375 484.25 C42.76719517 482.81258116 49.40029755 481.1275977 56 479 C54.41814981 475.6363907 52.76540408 473.69117834 50 471.1875 C38.08249341 459.4615932 30.30082226 444.04537537 26 428 C22.62478335 429.53847085 19.83505173 431.52348878 16.875 433.75 C-12.98266632 455.5073558 -51.57251717 462.22937033 -87.89453125 457.3515625 C-103.44874339 454.65130688 -118.89099431 448.67371447 -128.6796875 435.7890625 C-130.79600822 432.57273327 -132.19075535 429.77925594 -133 426 C-135.61091777 426 -136.61206341 426.90242318 -138.78125 428.34375 Z " fill="#000000" transform="translate(290,6)"/>
<path d="M0 0 C6.55522739 1.98799053 10.84509828 1.030329 17.30078125 -1.09375 C27.02675363 -4.24963711 35.50390333 -3.97448312 44.98828125 -0.09375 C52.50735523 3.95498214 57.18990534 9.95297111 59.98828125 17.90625 C64.55632092 36.98264101 56.82935425 55.01736827 48.56640625 71.79296875 C45.753815 77.60044884 43.98984737 83.37402043 42.50488281 89.63037109 C41.31589802 94.63905854 40.01869776 99.59658865 38.55078125 104.53125 C38.36966797 105.18182373 38.18855469 105.83239746 38.00195312 106.50268555 C36.4063252 111.74497678 33.94380602 116.28360895 28.99609375 119 C24.13502759 120.04886075 20.64798692 120.05688338 15.98828125 117.90625 C8.50149182 110.21149419 8.39594127 96.02484147 6.98828125 85.90625 C6.91311279 86.50050781 6.83794434 87.09476562 6.76049805 87.70703125 C6.40885703 90.44148536 6.04242264 93.17376837 5.67578125 95.90625 C5.55783203 96.84082031 5.43988281 97.77539062 5.31835938 98.73828125 C3.47040329 112.2899592 3.47040329 112.2899592 -1.32421875 117.34375 C-5.44524003 119.7396926 -8.40224182 120.23471468 -13.07421875 119.28125 C-18.31678172 116.82728436 -20.90752178 113.71724314 -23.01171875 108.40625 C-24.24662768 104.78352889 -25.18994351 101.17898557 -25.94921875 97.43359375 C-28.15412174 86.74449323 -31.33102474 77.38966719 -36.07421875 67.53125 C-43.88521684 51.20720793 -49.34709556 34.90652754 -45.28125 16.62109375 C-42.22380101 8.3472624 -36.89410044 2.80332304 -29.01171875 -1.09375 C-19.12925161 -5.00218475 -9.77168251 -3.21512468 0 0 Z M-29.38671875 15.28125 C-34.5292895 23.58847967 -34.22515063 33.30443585 -32.20703125 42.62109375 C-29.63995954 50.77375942 -25.9802577 58.32523409 -22.25146484 65.99487305 C-17.40086062 76.06410757 -14.73139134 86.46034571 -12.4050293 97.34814453 C-11.54055935 101.54571354 -11.54055935 101.54571354 -9.01171875 104.90625 C-8.93655029 104.3486499 -8.86138184 103.7910498 -8.78393555 103.21655273 C-4.29797135 70.20758715 -4.29797135 70.20758715 -0.01171875 62.90625 C4.0276474 60.21333923 7.2472502 60.02148012 11.98828125 60.90625 C18.36843848 65.62201839 18.87046535 73.46672139 19.98828125 80.90625 C20.66592306 85.80465694 21.32146131 90.70590486 21.89892578 95.6171875 C22.01220215 96.53242188 22.12547852 97.44765625 22.2421875 98.390625 C22.33830322 99.21272461 22.43441895 100.03482422 22.53344727 100.88183594 C22.84709081 103.12166197 22.84709081 103.12166197 24.98828125 104.90625 C25.16367432 104.14183594 25.33906738 103.37742187 25.51977539 102.58984375 C28.88990821 88.07436401 32.30424946 74.25828473 38.98828125 60.90625 C44.99644152 48.50713808 51.30108361 34.39425037 46.80078125 20.53125 C44.72819092 15.80496924 41.88342041 12.79064827 37.17578125 10.59375 C30.69687147 9.19633809 26.43954789 9.62544342 20.30078125 11.90625 C10.10708375 15.49648308 1.68005106 14.49258353 -8.296875 10.80859375 C-15.75786418 8.32875418 -23.77285628 9.66738753 -29.38671875 15.28125 Z " fill="#000000" transform="translate(402.01171875,358.09375)"/>
<path d="M0 0 C1.74676025 -0.00430527 1.74676025 -0.00430527 3.52880859 -0.00869751 C5.97949716 -0.0107299 8.43020226 -0.00525814 10.88085938 0.00732422 C14.61365326 0.02338867 18.34536445 0.00744629 22.078125 -0.01171875 C24.46875237 -0.00973617 26.85937907 -0.0058922 29.25 0 C30.90974854 -0.00910904 30.90974854 -0.00910904 32.60302734 -0.0184021 C40.40228192 0.05174637 47.63089526 0.85916833 54 5.7109375 C58.21938906 10.03078821 59.7926477 13.46325241 60.0625 19.4609375 C59.72562772 30.24085061 55.65118765 39.61506263 49.625 48.3984375 C49.026875 49.3059375 48.42875 50.2134375 47.8125 51.1484375 C39.14628875 60.06225478 27.11515734 64.2633287 14.875 64.5859375 C2.83053238 64.38819251 -8.90348854 60.51233142 -17.85546875 52.1484375 C-26.5561791 42.12808214 -30.773343 29.60566204 -30.65625 16.53515625 C-30.182376 11.25014487 -27.7921475 8.815585 -24.1875 5.2109375 C-16.58317314 0.3103713 -8.84543108 -0.04854553 0 0 Z M-17.375 17.3984375 C-17.95914702 21.02537132 -17.95914702 21.02537132 -17.375 24.3984375 C-16.3185147 25.67890383 -16.3185147 25.67890383 -13.90098572 25.51869202 C-12.80178299 25.51647141 -11.70258026 25.51425079 -10.57006836 25.51196289 C-8.70825172 25.51184959 -8.70825172 25.51184959 -6.80882263 25.51173401 C-5.4441626 25.50662661 -4.07950298 25.5014106 -2.71484375 25.49609375 C-1.32621817 25.4942295 0.06240807 25.49280563 1.45103455 25.49180603 C5.11221115 25.48798137 8.7733483 25.47815153 12.43450928 25.46710205 C16.16792263 25.45688682 19.90134234 25.45230817 23.63476562 25.44726562 C30.96486177 25.43652921 38.29492536 25.41945341 45.625 25.3984375 C47.080276 22.48788549 47.07567148 20.61751952 46.625 17.3984375 C41.33122848 12.40678071 35.86365057 12.81516088 28.875 12.8671875 C27.17778809 12.86144714 27.17778809 12.86144714 25.44628906 12.85559082 C23.05923572 12.85287452 20.67215246 12.86021583 18.28515625 12.87695312 C14.63734394 12.89836504 10.99150125 12.87714004 7.34375 12.8515625 C5.020829 12.85420582 2.69790922 12.85933089 0.375 12.8671875 C-0.71264648 12.85909058 -1.80029297 12.85099365 -2.92089844 12.84265137 C-8.94811597 12.9170644 -12.91812699 13.12758389 -17.375 17.3984375 Z M-10.375 38.3984375 C-7.58153577 43.98536596 -3.68994153 46.94612598 2.0234375 49.44921875 C11.31881463 52.54279063 20.63352716 52.48159051 29.625 48.3984375 C35.94264159 44.50049964 35.94264159 44.50049964 39.625 38.3984375 C23.125 38.3984375 6.625 38.3984375 -10.375 38.3984375 Z " fill="#000000" transform="translate(240.375,267.6015625)"/>
<path d="M0 0 C3.41395096 2.85048332 5.28571854 6.04829766 7.375 9.9375 C12.16170181 18.26132252 18.04440858 21.75476273 26.390625 26.15625 C29.36961372 28.26116418 30.0944923 29.51434083 31 33 C31.125 36.4375 31.125 36.4375 30 40 C27.01298523 43.11890893 23.4323843 45.30676272 19.5625 47.1796875 C12.62399204 50.67062432 9.62110979 55.02820773 6.04321289 61.70678711 C4.12419858 65.28372842 2.63229097 68.03756382 -1 70 C-5.56001773 70.57904987 -7.75925828 70.84733581 -11.5625 68.25 C-14.71541602 64.56629004 -16.8814647 60.09433607 -19.15625 55.83984375 C-23.053347 49.83732358 -29.24401447 47.06712392 -35.35546875 43.68359375 C-38 42 -38 42 -40 39 C-40.67119062 32.06436356 -40.67119062 32.06436356 -38.40625 28.47265625 C-35.62348638 25.61309558 -32.64957366 24.05059493 -29.125 22.3125 C-22.32778338 18.70823232 -19.43285864 14.89841117 -16 8 C-14.97619161 6.45285532 -13.91492579 4.92964532 -12.8125 3.4375 C-12.34457031 2.79683594 -11.87664062 2.15617187 -11.39453125 1.49609375 C-8.11093873 -2.02663996 -4.27070538 -0.97402053 0 0 Z M-5 17 C-6.15842044 18.6998232 -7.30122266 20.41029577 -8.4375 22.125 C-12.49175963 27.82745229 -16.75794767 30.96851147 -23 34 C-20.91113659 36.21135848 -18.77164015 37.8730011 -16.25 39.5625 C-11.30332915 43.18089812 -8.24383521 47.87068558 -5 53 C-3.51969719 51.05223315 -2.07013655 49.10499229 -0.7109375 47.0703125 C3.04265973 41.60454811 7.30842696 38.33905618 13 35 C12.34 34.484375 11.68 33.96875 11 33.4375 C10.01 32.633125 9.02 31.82875 8 31 C7.34902344 30.47921875 6.69804687 29.9584375 6.02734375 29.421875 C1.4854431 25.65252193 -1.40069623 22.30691187 -4 17 C-4.33 17 -4.66 17 -5 17 Z " fill="#000000" transform="translate(142,334)"/>
<path d="M0 0 C3.4375 0.75 3.4375 0.75 5.4375 2.75 C6.125 5.8125 6.125 5.8125 5.4375 9.75 C0.42754547 16.29526318 -7.14209487 23.03979744 -14.5625 26.75 C-19.24517178 27.32128596 -22.65893787 27.22735358 -26.875 25 C-27.761875 24.2575 -28.64875 23.515 -29.5625 22.75 C-30.34625 22.151875 -31.13 21.55375 -31.9375 20.9375 C-34.29704231 17.76119304 -34.12207802 15.59709889 -33.5625 11.75 C-31.53015105 9.41656232 -30.20788819 8.8688873 -27.1875 8.3125 C-23.65647393 8.90100434 -21.47116362 10.72675602 -18.5625 12.75 C-17.73105469 11.97914063 -16.89960938 11.20828125 -16.04296875 10.4140625 C-14.94541233 9.4009335 -13.84775056 8.38791863 -12.75 7.375 C-12.20279297 6.86710937 -11.65558594 6.35921875 -11.09179688 5.8359375 C-4.42002745 -0.31017736 -4.42002745 -0.31017736 0 0 Z " fill="#000000" transform="translate(425.5625,384.25)"/>
<path d="M0 0 C1.7890625 1.41796875 1.7890625 1.41796875 3 3 C3.63316583 8.90954774 3.63316583 8.90954774 1.875 11.9375 C-0.94030182 13.5328377 -2.79599336 13.36969307 -6 13 C-7.134375 12.505 -8.26875 12.01 -9.4375 11.5 C-13.41515193 9.82519919 -15.72966522 9.46620815 -20 10 C-21.81157999 10.92076549 -21.81157999 10.92076549 -23.5625 12.0625 C-27 14 -27 14 -30.3125 13.875 C-33 13 -33 13 -35 11 C-35.55953164 6.76354619 -35.54493181 4.74928123 -33 1.25 C-22.89980962 -6.32514278 -11.01621753 -5.56393419 0 0 Z " fill="#000000" transform="translate(328,225)"/>
<path d="M0 0 C2.47951669 1.49182539 4.2485195 2.71690112 5.8828125 5.1328125 C6.38580566 9.24058999 6.21030595 10.64157233 3.8828125 14.1328125 C1.1953125 15.0703125 1.1953125 15.0703125 -2.1171875 15.1328125 C-3.87331506 14.14299515 -5.62870583 13.14846134 -7.33203125 12.0703125 C-10.35378104 10.48339795 -12.79232705 10.71720494 -16.1171875 11.1328125 C-18.4568428 12.11793052 -20.79046885 13.11751709 -23.1171875 14.1328125 C-26.3046875 14.6328125 -26.3046875 14.6328125 -29.1171875 14.1328125 C-31.5546875 11.9453125 -31.5546875 11.9453125 -33.1171875 9.1328125 C-33.04947144 6.28873801 -32.68201506 4.81804218 -30.87109375 2.62109375 C-22.39915588 -4.56778894 -9.52842475 -4.88374458 0 0 Z " fill="#000000" transform="translate(213.1171875,223.8671875)"/>
<path d="M0 0 C2.39245643 3.58868464 2.58016866 5.58148801 1.875 9.8125 C0.3125 11.8125 0.3125 11.8125 -2.125 12.8125 C-6.24723252 12.59166611 -9.57151554 11.94459068 -13.125 9.8125 C-13.640625 10.328125 -14.15625 10.84375 -14.6875 11.375 C-17.125 12.8125 -17.125 12.8125 -20.75 12.6875 C-24.125 11.8125 -24.125 11.8125 -26.125 8.8125 C-26.72756734 4.85277178 -26.50491048 3.3348769 -24.125 0.0625 C-16.60730622 -5.57577034 -7.6322636 -5.34258452 0 0 Z " fill="#000000" transform="translate(268.125,242.1875)"/>
</svg>
