<?xml version="1.0" encoding="UTF-8"?>
<svg id="_Слой_1" data-name="Слой_1" xmlns="http://www.w3.org/2000/svg" version="1.1" xmlns:xlink="http://www.w3.org/1999/xlink" viewBox="0 0 1038.8 209">
  <!-- Generator: Adobe Illustrator 30.6.0, SVG Export Plug-In . SVG Version: 2.1.4 Build 109)  -->
  <defs>
    <style>
      .st0 {
        fill: #fff;
      }

      .st1 {
        mask: url(#mask);
      }

      .st2, .st3 {
        fill: #d97144;
      }

      .st2, .st4 {
        stroke: #000;
      }

      .st4 {
        fill: none;
        stroke-linecap: round;
        stroke-width: 4px;
      }
    </style>
    <mask id="mask" x="259" y="46" width="780" height="96" maskUnits="userSpaceOnUse">
      <g id="path-2-outside-1_0_1">
        <rect class="st0" x="259" y="46" width="780" height="96"/>
        <path d="M283.3,97.3l-3.2-.3v31c0,2.6.2,4.4.5,5.6.3,1.1,1.2,1.8,2.4,2.2,1.4.3,3.6.5,6.7.8,0,.9,0,1.7,0,2.6-1.2,0-2.8,0-4.7-.1h-5.6c-1.8,0-3.3-.1-4.5-.1s-2.6,0-4.5.1h-5.4c-1.8,0-3.3.1-4.5.1,0-.9,0-1.7,0-2.6,3-.3,5.1-.5,6.4-.8,1.4-.3,2.2-.9,2.4-1.8.3-1,.5-2.6.5-4.9V60.3c0-2.6-.2-4.4-.5-5.5s-1.2-1.8-2.6-2.2c-1.3-.3-3.4-.6-6.3-.8,0-.9,0-1.7,0-2.6,1.2,0,2.7,0,4.5.1,1.9,0,3.7,0,5.5.1h9.5c2.2,0,4.4-.1,6.7-.1,2.2,0,3.8-.1,4.9-.1,4.9,0,9.4.7,13.6,2.2s7.6,3.8,10.1,7c2.6,3.2,4,7.4,4,12.8s-1.9,11.4-5.6,15.4c-3.8,3.9-8.8,6.9-15.1,8.8v.4c1.2.6,2.3,1.4,3.3,2.3,1.1.9,2.3,2.1,3.7,3.8,1,1.3,2.5,3.3,4.4,6.1,2,2.8,4,5.9,6.1,9.2,2.2,3.2,4.2,6.3,6,9.1,2,3.1,3.6,5.3,5,6.7,1.4,1.3,2.9,2.1,4.5,2.6,1.6.3,3.8.6,6.5.9,0,.9,0,1.7,0,2.6-1.2,0-2.7,0-4.6-.1h-5.5c-1.7,0-3-.1-4-.1s-2,0-2.9.1h-2.8c-.9-1.6-2.3-3.8-4.1-6.7-1.8-2.9-3.8-6.1-6-9.5-2.2-3.4-4.4-6.7-6.7-10-2.1-3.3-4.1-6.1-5.8-8.4-1.5-2-2.7-3.5-3.8-4.5-1.1-.9-2.3-1.6-3.6-1.9-1.2-.3-2.8-.6-4.9-.8ZM280.1,93.2c1.1.2,2.1.3,2.9.4h2.4c6.8,0,12.3-1.7,16.4-5,4.2-3.4,6.3-8.7,6.3-15.9s-1.7-11.3-5.2-14.6c-3.5-3.4-8.7-5.1-15.5-5.1s-4.6.1-7.3.4v39.8ZM433.2,93.6c0,9.2-1.9,17.4-5.8,24.4-3.8,7-9.3,12.5-16.3,16.5-7,4-15.3,6-24.8,6s-17.6-2-24.4-5.9c-6.8-3.9-12.1-9.3-15.7-16.1-3.7-6.9-5.5-14.8-5.5-23.6s1.9-17.1,5.8-24.2c3.8-7.1,9.3-12.6,16.3-16.6,7.1-4.1,15.4-6.1,25-6.1s17.5,2,24.2,5.9c6.8,3.8,12.1,9.2,15.7,16.1,3.8,6.8,5.6,14.7,5.6,23.6ZM421.8,94.8c0-5.4-.6-10.6-1.9-15.7s-3.3-9.7-6-13.8c-2.7-4.1-6.3-7.3-10.8-9.7-4.4-2.5-9.8-3.7-16.1-3.7s-11.7,1.2-16.1,3.7c-4.4,2.4-8,5.6-10.8,9.7-2.7,4.1-4.7,8.7-6,13.7-1.3,4.9-1.9,10-1.9,15.1s.6,10.2,1.9,15.2,3.3,9.6,6.1,13.8c2.8,4.2,6.5,7.5,11,10,4.5,2.5,10,3.7,16.4,3.7s11.6-1.2,16-3.6c4.4-2.4,8-5.5,10.6-9.5,2.6-4,4.6-8.5,5.8-13.6s1.8-10.2,1.8-15.4ZM503.3,61.9l-21.4,37.9v28.2c0,2.6.1,4.4.4,5.6.3,1.1,1.2,1.8,2.6,2.2,1.4.3,3.6.5,6.8.8,0,.9,0,1.7,0,2.6-1.3,0-2.9,0-4.7-.1h-5.6c-1.8,0-3.3-.1-4.5-.1s-2.7,0-4.6.1h-5.5c-1.9,0-3.5.1-4.7.1,0-.9,0-1.7,0-2.6,3.2-.3,5.4-.5,6.7-.8,1.4-.3,2.2-1,2.6-1.9.3-.9.5-2.5.5-4.7v-28.4l-21.9-39.4c-1.5-2.8-2.8-4.8-3.7-6-.9-1.3-1.9-2.1-3.2-2.6-1.2-.4-3.1-.7-5.6-.9,0-.9,0-1.7,0-2.6,2.2,0,4.6,0,7.2.1,2.6,0,5.1.1,7.4.1s4.1,0,6.5-.1c2.5,0,4.8-.1,7-.1,0,.9,0,1.7,0,2.6-2.6,0-4.5.3-5.6.8-1.1.3-1.7,1-1.7,1.9s.6,2.2,1.8,4.4l20,36.2,20-36.2c.6-1,1-1.8,1.3-2.4.3-.7.5-1.2.5-1.7,0-.9-.7-1.6-2-1.9-1.3-.4-3.5-.8-6.5-1,0-.9,0-1.7,0-2.6,1.5,0,3.6,0,6.1.1,2.6,0,4.6.1,6.1.1s3.9,0,5.8-.1c2,0,3.9-.1,5.8-.1,0,.9,0,1.7,0,2.6-2.6.2-4.5.5-5.9.9-1.4.4-2.6,1.3-3.6,2.7-1,1.4-2.4,3.5-4.1,6.5ZM506.1,139.1c0-.9,0-1.7,0-2.6,2.8-.3,4.9-.6,6.3-.9,1.5-.4,2.6-1.3,3.5-2.7.9-1.5,1.8-3.8,2.9-6.9l28.4-76.5c.7-.3,1.5-.4,2.4-.5,1-.2,1.8-.3,2.4-.3l28.7,78.1c1.1,3,2,5.1,2.7,6.4.8,1.3,1.8,2.1,3.2,2.4s3.5.6,6.4.9c0,.9,0,1.7,0,2.6-2.2,0-4.7,0-7.6-.1-2.7,0-5.2-.1-7.6-.1s-4.7,0-6.8.1c-2,0-4.3.1-6.7.1,0-.9,0-1.7,0-2.6,3-.3,4.9-.5,5.9-.8,1-.3,1.5-1.1,1.5-2.3s0-.9-.3-1.5c-.2-.7-.4-1.5-.8-2.4l-8.8-24.7h-30.5l-8.3,23.3c-.9,2.3-1.3,4-1.3,5s.6,2.2,1.9,2.6c1.3.3,3.4.6,6.3.9,0,.9,0,1.7,0,2.6-2.1,0-4.2,0-6.3-.1-2,0-4-.1-6.1-.1s-3.6,0-5.8.1c-2,0-4,.1-5.9.1ZM533,100.9h27.5l-13.8-38.5-13.7,38.5ZM604.4,139.1c0-.9,0-1.7,0-2.6,2.9-.3,5-.5,6.3-.8,1.3-.3,2-1,2.3-1.9.3-.9.5-2.5.5-4.7V60.4c0-2.6-.2-4.4-.5-5.5-.3-1.1-1.2-1.8-2.4-2.2-1.2-.4-3.2-.7-6.1-.9,0-.9,0-1.7,0-2.6,2,0,4.4,0,7.3.1,2.9,0,5.2.1,6.9.1h4.4c1.8,0,3.6-.1,5.4-.1,1.9,0,3.4-.1,4.6-.1,0,.9,0,1.7,0,2.6-3,.3-5.1.5-6.4.8-1.3.3-2.1.9-2.4,1.8-.3.9-.4,2.6-.4,4.9v73.3c0,1.2,0,2,.1,2.4h18.7c3,0,5.4-.2,7.3-.6s3.4-1.3,4.5-2.6c.9-1,1.9-2.5,2.9-4.5,1.1-2,2.1-4.5,2.9-7.4.8,0,1.5,0,2.3,0-.7,3.8-1.3,7.5-1.9,10.9-.5,3.4-.9,6.1-1.3,8.2h-13.2c-4.7,0-9.4-.1-14.2-.1h-13.1c-1.2,0-2.7,0-4.5.1h-5.4c-1.8,0-3.3.1-4.6.1ZM691.5,49.5h5.8c2.3,0,4.6-.1,6.9-.1,2.3,0,4.2-.1,5.8-.1,17.7,0,31.2,3.8,40.7,11.4,9.6,7.6,14.3,18.7,14.3,33.3s-1.4,14.8-4.1,20.6c-2.7,5.7-6.5,10.5-11.4,14.2-4.9,3.7-10.6,6.4-17.2,8.2-6.5,1.7-13.5,2.6-21.1,2.6s-6.8-.1-10.6-.4c-3.8-.2-6.9-.3-9.5-.3s-2.6,0-4.5.1h-5.5c-1.8,0-3.3.1-4.6.1,0-.9,0-1.7,0-2.6,2.9-.3,5-.5,6.3-.8,1.3-.3,2-.9,2.3-1.8.3-1,.5-2.6.5-4.9V60.4c0-2.6-.2-4.4-.6-5.5-.3-1.1-1.2-1.8-2.4-2.2-1.3-.4-3.4-.7-6.3-.9,0-.9,0-1.7,0-2.6,2.1,0,4.6,0,7.4.1,2.8,0,5.4.1,7.8.1ZM695.9,53.6v80.5c2.7.5,5.5.9,8.2,1.2,2.8.3,5.5.4,8.1.4,13.9,0,24.4-3.5,31.4-10.6,7-7.1,10.5-16.8,10.5-29.2s-3.9-23.6-11.8-31.2c-7.9-7.7-19.3-11.5-34.3-11.5s-4.7,0-7,.3c-2.3,0-4,.2-5,.3ZM784,139.1c0-.9,0-1.7,0-2.6,2.9-.3,5-.5,6.3-.8,1.3-.3,2-1,2.3-1.9.3-.9.5-2.5.5-4.7V60.4c0-2.6-.2-4.4-.5-5.5-.3-1.1-1.2-1.8-2.4-2.2-1.2-.4-3.2-.7-6.1-.9,0-.9,0-1.7,0-2.6,2.1,0,3.9,0,5.4.1,1.5,0,3.3,0,5.2.1h19.5c3.8,0,7.3-.1,10.5-.1h8.1c2.1,0,3.4-.1,3.7-.1.5,4.9,1.2,10,2.2,15.5-.9,0-1.8,0-2.6,0-.7-2.3-1.4-4.1-2.2-5.5-.8-1.5-1.6-2.6-2.4-3.3-1.1-1-2.5-1.7-4.2-2-1.6-.3-3.7-.5-6.1-.5h-17.7v37.4h13.4c3,0,5.2-.2,6.7-.5,1.5-.3,2.5-1.2,3.1-2.6.6-1.5,1.1-3.8,1.5-6.9.9,0,1.8,0,2.7,0,0,.6,0,2.1-.1,4.5,0,2.3-.1,4.9-.1,7.8s0,5.2.1,7.6c0,2.3.1,3.8.1,4.6-.8,0-1.7,0-2.7,0-.3-3.4-.8-5.8-1.4-7.2-.6-1.5-1.6-2.3-2.9-2.7-1.4-.3-3.4-.5-6.1-.5h-14.2v40.2h17c3.1,0,5.7-.2,7.8-.5,2.2-.4,3.9-1.2,5.1-2.4.9-.9,1.7-2.2,2.7-4.1,1-1.9,2-4.1,3.1-6.7.8,0,1.6,0,2.4,0-.7,3.4-1.3,6.7-1.8,9.9-.4,3.2-.8,5.8-1,7.8h-20.9c-3.8,0-7.2-.1-10.2-.1h-7c-2.9,0-5.3,0-7.2.1h-4.7c-1.4,0-2.9.1-4.6.1ZM935.3,139.6l-60.8-78.7v64.8c0,2.4,0,4.2.1,5.5.2,1.2.6,2.1,1.2,2.8.7.6,1.7,1.2,2.9,1.7,1.3.4,3.1.7,5.5.9,0,.9,0,1.7,0,2.6-1.9,0-4,0-6.3-.1-2.2,0-4.1-.1-5.6-.1s-3.5,0-5.8.1c-2.2,0-4.2.1-6,.1,0-.9,0-1.7,0-2.6,3-.3,5.1-.7,6.4-1.2,1.3-.4,2-1.2,2.3-2.4.3-1.3.5-3.3.5-6.1v-63.6c0-3.3-.2-5.7-.5-7.2-.3-1.5-1.2-2.6-2.7-3.1-1.4-.5-3.6-.9-6.8-1.3,0-.8,0-1.6,0-2.4,2,0,4,0,6.1.1,2.2,0,4.4.1,6.5.1h2.4c1.5,0,2.7,0,3.8-.1l57.1,74.1v-60.7c0-2.3,0-4.1-.1-5.4,0-1.4-.5-2.3-1.2-2.9-1.3-1.5-4.4-2.3-9.5-2.7,0-.9,0-1.7,0-2.4,1.8,0,4,0,6.7.1h11.9c2.3,0,4.4-.1,6.3-.1,0,.8,0,1.6,0,2.4-3,.3-5.2.8-6.5,1.3-1.3.4-2.1,1.3-2.4,2.6-.3,1.2-.4,3.2-.4,6v77.4c-.6.2-1.5.3-2.6.4-1,0-1.9.1-2.7.1ZM984.7,139.1c0-.9,0-1.7,0-2.6,3.1-.3,5.2-.5,6.5-.8,1.4-.3,2.2-.9,2.4-1.8.3-1,.5-2.6.5-4.9V53.2h-16.3c-3.4,0-6,.4-7.7,1.2-1.7.8-3,2.1-4,4.1-.9,1.9-1.9,4.7-2.9,8.3-.8,0-1.6,0-2.4,0,.4-3,.8-6,1.2-9.1.3-3.2.6-6,.9-8.6,4,.2,8.8.3,14.5.4h44.2c5.5,0,10.3-.2,14.3-.4.2,2.5.4,5.3.8,8.4.3,3.2.7,6.2,1,9.2-.9,0-1.8,0-2.6,0-1.1-3.7-2.1-6.5-3.1-8.4-.9-2-2.3-3.3-4-4-1.6-.8-4.1-1.2-7.6-1.2h-16.1v74.8c0,2.6.1,4.4.4,5.6.3,1.1,1.2,1.8,2.4,2.2,1.4.3,3.6.5,6.7.8,0,.9,0,1.7,0,2.6-1.3,0-2.9,0-4.7-.1h-5.4c-1.8,0-3.3-.1-4.5-.1-1.8,0-4.2,0-7.2.1-3,0-5.5.1-7.4.1Z"/>
      </g>
    </mask>
  </defs>
  <path class="st3" d="M283.3,97.3l-3.2-.3v31c0,2.6.2,4.4.5,5.6.3,1.1,1.2,1.8,2.4,2.2,1.4.3,3.6.5,6.7.8,0,.9,0,1.7,0,2.6-1.2,0-2.8,0-4.7-.1h-5.6c-1.8,0-3.3-.1-4.5-.1s-2.6,0-4.5.1h-5.4c-1.8,0-3.3.1-4.5.1,0-.9,0-1.7,0-2.6,3-.3,5.1-.5,6.4-.8,1.4-.3,2.2-.9,2.4-1.8.3-1,.5-2.6.5-4.9V60.3c0-2.6-.2-4.4-.5-5.5s-1.2-1.8-2.6-2.2c-1.3-.3-3.4-.6-6.3-.8,0-.9,0-1.7,0-2.6,1.2,0,2.7,0,4.5.1,1.9,0,3.7,0,5.5.1h9.5c2.2,0,4.4-.1,6.7-.1,2.2,0,3.8-.1,4.9-.1,4.9,0,9.4.7,13.6,2.2s7.6,3.8,10.1,7c2.6,3.2,4,7.4,4,12.8s-1.9,11.4-5.6,15.4c-3.8,3.9-8.8,6.9-15.1,8.8v.4c1.2.6,2.3,1.4,3.3,2.3,1.1.9,2.3,2.1,3.7,3.8,1,1.3,2.5,3.3,4.4,6.1,2,2.8,4,5.9,6.1,9.2,2.2,3.2,4.2,6.3,6,9.1,2,3.1,3.6,5.3,5,6.7,1.4,1.3,2.9,2.1,4.5,2.6,1.6.3,3.8.6,6.5.9,0,.9,0,1.7,0,2.6-1.2,0-2.7,0-4.6-.1h-5.5c-1.7,0-3-.1-4-.1s-2,0-2.9.1h-2.8c-.9-1.6-2.3-3.8-4.1-6.7-1.8-2.9-3.8-6.1-6-9.5-2.2-3.4-4.4-6.7-6.7-10-2.1-3.3-4.1-6.1-5.8-8.4-1.5-2-2.7-3.5-3.8-4.5-1.1-.9-2.3-1.6-3.6-1.9-1.2-.3-2.8-.6-4.9-.8ZM280.1,93.2c1.1.2,2.1.3,2.9.4h2.4c6.8,0,12.3-1.7,16.4-5,4.2-3.4,6.3-8.7,6.3-15.9s-1.7-11.3-5.2-14.6c-3.5-3.4-8.7-5.1-15.5-5.1s-4.6.1-7.3.4v39.8ZM433.2,93.6c0,9.2-1.9,17.4-5.8,24.4-3.8,7-9.3,12.5-16.3,16.5-7,4-15.3,6-24.8,6s-17.6-2-24.4-5.9c-6.8-3.9-12.1-9.3-15.7-16.1-3.7-6.9-5.5-14.8-5.5-23.6s1.9-17.1,5.8-24.2c3.8-7.1,9.3-12.6,16.3-16.6,7.1-4.1,15.4-6.1,25-6.1s17.5,2,24.2,5.9c6.8,3.8,12.1,9.2,15.7,16.1,3.8,6.8,5.6,14.7,5.6,23.6ZM421.8,94.8c0-5.4-.6-10.6-1.9-15.7s-3.3-9.7-6-13.8c-2.7-4.1-6.3-7.3-10.8-9.7-4.4-2.5-9.8-3.7-16.1-3.7s-11.7,1.2-16.1,3.7c-4.4,2.4-8,5.6-10.8,9.7-2.7,4.1-4.7,8.7-6,13.7-1.3,4.9-1.9,10-1.9,15.1s.6,10.2,1.9,15.2,3.3,9.6,6.1,13.8c2.8,4.2,6.5,7.5,11,10,4.5,2.5,10,3.7,16.4,3.7s11.6-1.2,16-3.6c4.4-2.4,8-5.5,10.6-9.5,2.6-4,4.6-8.5,5.8-13.6s1.8-10.2,1.8-15.4ZM503.3,61.9l-21.4,37.9v28.2c0,2.6.1,4.4.4,5.6.3,1.1,1.2,1.8,2.6,2.2,1.4.3,3.6.5,6.8.8,0,.9,0,1.7,0,2.6-1.3,0-2.9,0-4.7-.1h-5.6c-1.8,0-3.3-.1-4.5-.1s-2.7,0-4.6.1h-5.5c-1.9,0-3.5.1-4.7.1,0-.9,0-1.7,0-2.6,3.2-.3,5.4-.5,6.7-.8,1.4-.3,2.2-1,2.6-1.9.3-.9.5-2.5.5-4.7v-28.4l-21.9-39.4c-1.5-2.8-2.8-4.8-3.7-6-.9-1.3-1.9-2.1-3.2-2.6-1.2-.4-3.1-.7-5.6-.9,0-.9,0-1.7,0-2.6,2.2,0,4.6,0,7.2.1,2.6,0,5.1.1,7.4.1s4.1,0,6.5-.1c2.5,0,4.8-.1,7-.1,0,.9,0,1.7,0,2.6-2.6,0-4.5.3-5.6.8-1.1.3-1.7,1-1.7,1.9s.6,2.2,1.8,4.4l20,36.2,20-36.2c.6-1,1-1.8,1.3-2.4.3-.7.5-1.2.5-1.7,0-.9-.7-1.6-2-1.9-1.3-.4-3.5-.8-6.5-1,0-.9,0-1.7,0-2.6,1.5,0,3.6,0,6.1.1,2.6,0,4.6.1,6.1.1s3.9,0,5.8-.1c2,0,3.9-.1,5.8-.1,0,.9,0,1.7,0,2.6-2.6.2-4.5.5-5.9.9-1.4.4-2.6,1.3-3.6,2.7-1,1.4-2.4,3.5-4.1,6.5ZM506.1,139.1c0-.9,0-1.7,0-2.6,2.8-.3,4.9-.6,6.3-.9,1.5-.4,2.6-1.3,3.5-2.7.9-1.5,1.8-3.8,2.9-6.9l28.4-76.5c.7-.3,1.5-.4,2.4-.5,1-.2,1.8-.3,2.4-.3l28.7,78.1c1.1,3,2,5.1,2.7,6.4.8,1.3,1.8,2.1,3.2,2.4s3.5.6,6.4.9c0,.9,0,1.7,0,2.6-2.2,0-4.7,0-7.6-.1-2.7,0-5.2-.1-7.6-.1s-4.7,0-6.8.1c-2,0-4.3.1-6.7.1,0-.9,0-1.7,0-2.6,3-.3,4.9-.5,5.9-.8,1-.3,1.5-1.1,1.5-2.3s0-.9-.3-1.5c-.2-.7-.4-1.5-.8-2.4l-8.8-24.7h-30.5l-8.3,23.3c-.9,2.3-1.3,4-1.3,5s.6,2.2,1.9,2.6c1.3.3,3.4.6,6.3.9,0,.9,0,1.7,0,2.6-2.1,0-4.2,0-6.3-.1-2,0-4-.1-6.1-.1s-3.6,0-5.8.1c-2,0-4,.1-5.9.1ZM533,100.9h27.5l-13.8-38.5-13.7,38.5ZM604.4,139.1c0-.9,0-1.7,0-2.6,2.9-.3,5-.5,6.3-.8,1.3-.3,2-1,2.3-1.9.3-.9.5-2.5.5-4.7V60.4c0-2.6-.2-4.4-.5-5.5-.3-1.1-1.2-1.8-2.4-2.2-1.2-.4-3.2-.7-6.1-.9,0-.9,0-1.7,0-2.6,2,0,4.4,0,7.3.1,2.9,0,5.2.1,6.9.1h4.4c1.8,0,3.6-.1,5.4-.1,1.9,0,3.4-.1,4.6-.1,0,.9,0,1.7,0,2.6-3,.3-5.1.5-6.4.8-1.3.3-2.1.9-2.4,1.8-.3.9-.4,2.6-.4,4.9v73.3c0,1.2,0,2,.1,2.4h18.7c3,0,5.4-.2,7.3-.6s3.4-1.3,4.5-2.6c.9-1,1.9-2.5,2.9-4.5,1.1-2,2.1-4.5,2.9-7.4.8,0,1.5,0,2.3,0-.7,3.8-1.3,7.5-1.9,10.9-.5,3.4-.9,6.1-1.3,8.2h-13.2c-4.7,0-9.4-.1-14.2-.1h-13.1c-1.2,0-2.7,0-4.5.1h-5.4c-1.8,0-3.3.1-4.6.1ZM691.5,49.5h5.8c2.3,0,4.6-.1,6.9-.1,2.3,0,4.2-.1,5.8-.1,17.7,0,31.2,3.8,40.7,11.4,9.6,7.6,14.3,18.7,14.3,33.3s-1.4,14.8-4.1,20.6c-2.7,5.7-6.5,10.5-11.4,14.2-4.9,3.7-10.6,6.4-17.2,8.2-6.5,1.7-13.5,2.6-21.1,2.6s-6.8-.1-10.6-.4c-3.8-.2-6.9-.3-9.5-.3s-2.6,0-4.5.1h-5.5c-1.8,0-3.3.1-4.6.1,0-.9,0-1.7,0-2.6,2.9-.3,5-.5,6.3-.8,1.3-.3,2-.9,2.3-1.8.3-1,.5-2.6.5-4.9V60.4c0-2.6-.2-4.4-.6-5.5-.3-1.1-1.2-1.8-2.4-2.2-1.3-.4-3.4-.7-6.3-.9,0-.9,0-1.7,0-2.6,2.1,0,4.6,0,7.4.1,2.8,0,5.4.1,7.8.1ZM695.9,53.6v80.5c2.7.5,5.5.9,8.2,1.2,2.8.3,5.5.4,8.1.4,13.9,0,24.4-3.5,31.4-10.6,7-7.1,10.5-16.8,10.5-29.2s-3.9-23.6-11.8-31.2c-7.9-7.7-19.3-11.5-34.3-11.5s-4.7,0-7,.3c-2.3,0-4,.2-5,.3ZM784,139.1c0-.9,0-1.7,0-2.6,2.9-.3,5-.5,6.3-.8,1.3-.3,2-1,2.3-1.9.3-.9.5-2.5.5-4.7V60.4c0-2.6-.2-4.4-.5-5.5-.3-1.1-1.2-1.8-2.4-2.2-1.2-.4-3.2-.7-6.1-.9,0-.9,0-1.7,0-2.6,2.1,0,3.9,0,5.4.1,1.5,0,3.3,0,5.2.1h19.5c3.8,0,7.3-.1,10.5-.1h8.1c2.1,0,3.4-.1,3.7-.1.5,4.9,1.2,10,2.2,15.5-.9,0-1.8,0-2.6,0-.7-2.3-1.4-4.1-2.2-5.5-.8-1.5-1.6-2.6-2.4-3.3-1.1-1-2.5-1.7-4.2-2-1.6-.3-3.7-.5-6.1-.5h-17.7v37.4h13.4c3,0,5.2-.2,6.7-.5,1.5-.3,2.5-1.2,3.1-2.6.6-1.5,1.1-3.8,1.5-6.9.9,0,1.8,0,2.7,0,0,.6,0,2.1-.1,4.5,0,2.3-.1,4.9-.1,7.8s0,5.2.1,7.6c0,2.3.1,3.8.1,4.6-.8,0-1.7,0-2.7,0-.3-3.4-.8-5.8-1.4-7.2-.6-1.5-1.6-2.3-2.9-2.7-1.4-.3-3.4-.5-6.1-.5h-14.2v40.2h17c3.1,0,5.7-.2,7.8-.5,2.2-.4,3.9-1.2,5.1-2.4.9-.9,1.7-2.2,2.7-4.1,1-1.9,2-4.1,3.1-6.7.8,0,1.6,0,2.4,0-.7,3.4-1.3,6.7-1.8,9.9-.4,3.2-.8,5.8-1,7.8h-20.9c-3.8,0-7.2-.1-10.2-.1h-7c-2.9,0-5.3,0-7.2.1h-4.7c-1.4,0-2.9.1-4.6.1ZM935.3,139.6l-60.8-78.7v64.8c0,2.4,0,4.2.1,5.5.2,1.2.6,2.1,1.2,2.8.7.6,1.7,1.2,2.9,1.7,1.3.4,3.1.7,5.5.9,0,.9,0,1.7,0,2.6-1.9,0-4,0-6.3-.1-2.2,0-4.1-.1-5.6-.1s-3.5,0-5.8.1c-2.2,0-4.2.1-6,.1,0-.9,0-1.7,0-2.6,3-.3,5.1-.7,6.4-1.2,1.3-.4,2-1.2,2.3-2.4.3-1.3.5-3.3.5-6.1v-63.6c0-3.3-.2-5.7-.5-7.2-.3-1.5-1.2-2.6-2.7-3.1-1.4-.5-3.6-.9-6.8-1.3,0-.8,0-1.6,0-2.4,2,0,4,0,6.1.1,2.2,0,4.4.1,6.5.1h2.4c1.5,0,2.7,0,3.8-.1l57.1,74.1v-60.7c0-2.3,0-4.1-.1-5.4,0-1.4-.5-2.3-1.2-2.9-1.3-1.5-4.4-2.3-9.5-2.7,0-.9,0-1.7,0-2.4,1.8,0,4,0,6.7.1h11.9c2.3,0,4.4-.1,6.3-.1,0,.8,0,1.6,0,2.4-3,.3-5.2.8-6.5,1.3-1.3.4-2.1,1.3-2.4,2.6-.3,1.2-.4,3.2-.4,6v77.4c-.6.2-1.5.3-2.6.4-1,0-1.9.1-2.7.1ZM984.7,139.1c0-.9,0-1.7,0-2.6,3.1-.3,5.2-.5,6.5-.8,1.4-.3,2.2-.9,2.4-1.8.3-1,.5-2.6.5-4.9V53.2h-16.3c-3.4,0-6,.4-7.7,1.2-1.7.8-3,2.1-4,4.1-.9,1.9-1.9,4.7-2.9,8.3-.8,0-1.6,0-2.4,0,.4-3,.8-6,1.2-9.1.3-3.2.6-6,.9-8.6,4,.2,8.8.3,14.5.4h44.2c5.5,0,10.3-.2,14.3-.4.2,2.5.4,5.3.8,8.4.3,3.2.7,6.2,1,9.2-.9,0-1.8,0-2.6,0-1.1-3.7-2.1-6.5-3.1-8.4-.9-2-2.3-3.3-4-4-1.6-.8-4.1-1.2-7.6-1.2h-16.1v74.8c0,2.6.1,4.4.4,5.6.3,1.1,1.2,1.8,2.4,2.2,1.4.3,3.6.5,6.7.8,0,.9,0,1.7,0,2.6-1.3,0-2.9,0-4.7-.1h-5.4c-1.8,0-3.3-.1-4.5-.1-1.8,0-4.2,0-7.2.1-3,0-5.5.1-7.4.1Z"/>
  <g class="st1">
    <path d="M283.3,97.3v-1c0,0,0,0,0,0v1ZM280.1,97v-1c0,0-1,0-1,0v1.1h1ZM280.6,133.6l-1,.3h0s0,0,0,0l1-.3ZM283.1,135.8l-.3,1h0s0,0,0,0l.2-1ZM289.7,136.6h1c0,0,0-.9,0-.9h-.8c0,0,0,.9,0,.9ZM289.7,139.1v1h.9v-.9c0,0-.9,0-.9,0ZM285,139v-1s0,0,0,0h0v1ZM279.3,139v1s0,0,0,0h0v-1ZM270.4,139v1h0s0-1,0-1ZM265,139v-1h0s0,1,0,1ZM260.5,139.1h-1c0,0,0,1,0,1h.9v-1ZM260.5,136.6v-1c0,0-.9,0-.9,0v.8c0,0,.9,0,.9,0ZM266.9,135.8l-.2-1h0s.2,1,.2,1ZM269.4,134l-.9-.3h0s0,0,0,0l1,.3ZM269.4,54.8l1-.3h0l-1,.3ZM266.8,52.6l-.3,1h0s0,0,0,0l.2-1ZM260.5,51.8h-1c0,0,0,.9,0,.9h.9c0,0,0-.9,0-.9ZM260.5,49.3v-1h-.9v.9c0,0,.9,0,.9,0ZM265,49.4v1s0,0,0,0h0v-1ZM270.5,49.5v1s0,0,0,0h0v-1ZM280,49.5v1h0s0-1,0-1ZM286.6,49.4v1h0s0-1,0-1ZM305.1,51.4l-.3.9h0l.3-.9ZM315.2,58.5l-.8.6h0s0,0,0,0l.8-.6ZM313.5,86.6l.7.7h0l-.7-.7ZM298.4,95.5l-.3-1-.7.2v.7h1ZM298.4,95.9h-1v.6l.6.3.4-.9ZM301.7,98.2l-.7.7h0s0,0,0,0l.6-.8ZM305.5,102l-.8.6h0l.8-.6ZM309.8,108.2l-.8.6h0s0,0,0,0l.8-.6ZM315.9,117.4l-.8.5h0s0,0,0,0l.8-.6ZM322,126.5l-.8.5h0s.8-.5.8-.5ZM327,133.1l-.7.7h0s0,0,0,0l.7-.7ZM331.4,135.7l-.3,1h0s0,0,0,0l.2-1ZM338,136.6h1c0,0,0-.9,0-.9h-.8c0,0,0,.9,0,.9ZM338,139.1v1h.9v-.9c0,0-.9,0-.9,0ZM333.4,139v-1s0,0,0,0h0v1ZM327.9,139v1c0,0,0,0,0,0h0v-1ZM320.9,139v1h0s0-1,0-1ZM318.1,139l-.9.5.3.5h.6v-1ZM314,132.3l-.9.5h0s.8-.5.8-.5ZM308,122.9l.8-.5h0l-.8.5ZM301.4,112.9l-.8.5h0s0,0,0,0l.8-.6ZM295.6,104.4l-.8.6h0s0,0,0,0l.8-.6ZM291.8,100l.6-.8h0l-.6.8ZM288.2,98l-.3,1h0s0,0,0,0l.3-1ZM280.1,93.2h-1v.9h.8c0,.1.2-.9.2-.9ZM283.1,93.6v1c0,0,0,0,0,0h0v-1ZM301.9,88.6l.6.8h0s-.6-.8-.6-.8ZM302.9,58.1l-.7.7h0s.7-.7.7-.7ZM280.1,53.4v-1c0,0-1,0-1,0v.9h1ZM283.3,97.3v-1c0,0-3.1-.3-3.1-.3v1c0,0-.2,1-.2,1l3.2.3v-1ZM280.1,97h-1v31h2v-31h-1ZM280.1,128h-1c0,2.6.2,4.6.6,5.9l1-.3,1-.3c-.3-1.1-.5-2.8-.5-5.4h-1ZM280.6,133.6l-1,.3c.5,1.5,1.6,2.4,3.1,2.8l.3-1,.3-1c-1-.3-1.5-.8-1.7-1.5l-1,.3ZM283.1,135.8l-.2,1c1.4.3,3.7.5,6.8.8v-1c0,0,.2-1,.2-1-3.1-.3-5.2-.5-6.6-.8l-.2,1ZM289.7,136.6h-1c0,.9,0,1.7,0,2.5h1c0,.1,1,.2,1,.2,0-.9,0-1.8,0-2.8h-1ZM289.7,139.1v-1c-1.2,0-2.7,0-4.7-.1v1s0,1,0,1c2,0,3.6.1,4.8.1v-1ZM285,139v-1h-5.6v2h5.6v-1ZM279.3,139v-1c-1.8,0-3.3-.1-4.5-.1v2c1.2,0,2.6,0,4.4.1v-1ZM274.9,138.9v-1c-1.1,0-2.6,0-4.5.1v1s0,1,0,1c1.9,0,3.3-.1,4.4-.1v-1ZM270.4,139v-1h-5.4v2h5.4v-1ZM265,139v-1c-1.8,0-3.3.1-4.5.1v2c1.2,0,2.7,0,4.5-.1v-1ZM260.5,139.1h1c0-.9,0-1.7,0-2.5h-1c0-.1-1-.2-1-.2,0,.9,0,1.8,0,2.8h1ZM260.5,136.6v1c3.1-.3,5.3-.5,6.6-.8l-.2-1-.2-1c-1.2.2-3.3.5-6.3.8v1ZM266.9,135.8l.2,1c1.6-.3,2.8-1.1,3.2-2.5l-1-.3-1-.3c-.1.4-.5.9-1.7,1.1l.2,1ZM269.4,134l.9.3c.4-1.2.6-2.9.6-5.2h-2c0,2.2-.2,3.7-.5,4.5l.9.3ZM269.9,129.1h1V60.3h-2v68.9h1ZM269.9,60.3h1c0-2.6-.2-4.5-.6-5.8l-1,.3-1,.3c.3,1,.5,2.7.5,5.2h1ZM269.4,54.8l1-.3c-.5-1.5-1.7-2.4-3.3-2.9l-.2,1-.2,1c1.1.3,1.6.8,1.8,1.5l1-.3ZM266.8,52.6l.3-1c-1.4-.4-3.6-.6-6.5-.8v1c0,0-.1,1-.1,1,2.9.2,4.9.4,6.1.7l.3-1ZM260.5,51.8h1c0-.9,0-1.7,0-2.5h-1c0,0-1-.2-1-.2,0,.9,0,1.8,0,2.8h1ZM260.5,49.3v1c1.2,0,2.6,0,4.4.1v-1s0-1,0-1c-1.8,0-3.3-.1-4.5-.1v1ZM265,49.4v1c1.9,0,3.7,0,5.5.1v-1s0-1,0-1c-1.8,0-3.7-.1-5.6-.1v1ZM270.5,49.5v1h4.5v-2h-4.5v1ZM275,49.5v1h5v-2h-5v1ZM280,49.5v1c2.2,0,4.5-.1,6.7-.1v-2c-2.2,0-4.5,0-6.7.1v1ZM286.6,49.4v1c2.3,0,3.9-.1,4.9-.1v-2c-1,0-2.7,0-4.9.1v1ZM291.5,49.3v1c4.8,0,9.2.7,13.2,2.1l.3-.9.3-.9c-4.3-1.5-8.9-2.2-13.9-2.2v1ZM305.1,51.4l-.3.9c4,1.4,7.2,3.6,9.7,6.7l.8-.6.8-.6c-2.7-3.4-6.2-5.9-10.6-7.4l-.3.9ZM315.2,58.5l-.8.6c2.5,2.9,3.7,6.9,3.7,12.2h2c0-5.5-1.4-10.1-4.2-13.4l-.8.6ZM319.1,71.3h-1c0,6.1-1.8,11-5.4,14.7l.7.7.7.7c4-4.1,5.9-9.5,5.9-16.1h-1ZM313.5,86.6l-.7-.7c-3.6,3.8-8.5,6.6-14.7,8.6l.3,1,.3,1c6.4-2,11.6-5,15.5-9.1l-.7-.7ZM298.4,95.5h-1v.4h2v-.4h-1ZM298.4,95.9l-.4.9c1.1.6,2.1,1.3,3.1,2.1l.7-.7.7-.7c-1.1-1-2.3-1.8-3.6-2.5l-.4.9ZM301.7,98.2l-.6.8c1,.8,2.2,2,3.5,3.7l.8-.6.8-.6c-1.4-1.7-2.7-3.1-3.9-4l-.6.8ZM305.5,102l-.8.6c1,1.2,2.4,3.3,4.3,6.1l.8-.6.8-.6c-1.9-2.8-3.4-4.9-4.4-6.2l-.8.6ZM309.8,108.2l-.8.6c2,2.8,4,5.9,6.1,9.2l.8-.5.8-.5c-2.1-3.3-4.2-6.4-6.2-9.2l-.8.6ZM315.9,117.4l-.8.6c2.2,3.2,4.2,6.3,6,9.1l.8-.5.8-.5c-1.8-2.8-3.8-5.9-6-9.1l-.8.6ZM322,126.5l-.8.5c2,3.1,3.7,5.4,5.1,6.8l.7-.7.7-.7c-1.3-1.3-2.9-3.4-4.9-6.5l-.8.5ZM327,133.1l-.7.7c1.5,1.4,3.1,2.3,4.9,2.8l.3-1,.3-1c-1.4-.4-2.8-1.1-4-2.3l-.7.7ZM331.4,135.7l-.2,1c1.7.4,3.9.7,6.6.9v-1c0,0,.2-1,.2-1-2.7-.3-4.8-.5-6.4-.9l-.2,1ZM338,136.6h-1c0,.9,0,1.7,0,2.5h1c0,.1,1,.2,1,.2,0-.9,0-1.8,0-2.8h-1ZM338,139.1v-1c-1.2,0-2.7,0-4.6-.1v1s0,1,0,1c1.9,0,3.4.1,4.7.1v-1ZM333.4,139v-1h-5.5v2h5.5v-1ZM327.9,139v-1c-1.7,0-3-.1-4-.1v2c.9,0,2.2,0,3.9.1v-1ZM323.9,138.9v-1c-1.1,0-2.1,0-3,.1v1c0,0,.2,1,.2,1,.9,0,1.9-.1,2.9-.1v-1ZM320.9,139v-1h-2.8v2h2.8v-1ZM318.1,139l.9-.5c-.9-1.6-2.3-3.9-4.1-6.7l-.8.5-.8.5c1.8,2.8,3.1,5,4.1,6.6l.9-.5ZM314,132.3l.9-.5c-1.8-2.9-3.8-6.1-6-9.5l-.8.5-.8.5c2.2,3.4,4.2,6.6,6,9.5l.9-.5ZM308,122.9l.8-.5c-2.2-3.4-4.4-6.8-6.7-10l-.8.6-.8.6c2.2,3.2,4.4,6.6,6.6,10l.8-.5ZM301.4,112.9l.8-.5c-2.1-3.3-4.1-6.2-5.8-8.5l-.8.6-.8.6c1.7,2.3,3.6,5.1,5.7,8.4l.8-.5ZM295.6,104.4l.8-.6c-1.5-2.1-2.8-3.6-4-4.7l-.6.8-.6.8c1,.9,2.2,2.3,3.7,4.3l.8-.6ZM291.8,100l.6-.8c-1.2-1-2.5-1.7-4-2.1l-.3,1-.3,1c1.1.3,2.2.9,3.2,1.7l.6-.8ZM288.2,98l.3-1c-1.3-.4-3-.6-5.1-.8v1c0,0-.2,1-.2,1,2,.2,3.6.4,4.7.7l.3-1ZM280.1,93.2l-.2,1c1.1.2,2.1.3,3,.4v-1c0,0,.2-1,.2-1-.8,0-1.8-.2-2.9-.4l-.2,1ZM283.1,93.6v1h2.4v-2h-2.4v1ZM285.5,93.6v1c7,0,12.7-1.7,17-5.2l-.6-.8-.6-.8c-3.9,3.1-9.1,4.8-15.8,4.8v1ZM301.9,88.6l.6.8c4.5-3.7,6.6-9.3,6.6-16.6h-2c0,7-2,11.9-5.9,15.1l.6.8ZM308.1,72.7h1c0-6.6-1.8-11.7-5.6-15.3l-.7.7-.7.7c3.2,3.1,4.9,7.6,4.9,13.9h1ZM302.9,58.1l.7-.7c-3.7-3.7-9.2-5.4-16.2-5.4v2c6.7,0,11.5,1.7,14.8,4.8l.7-.7ZM287.4,53v-1c-2.2,0-4.6.1-7.4.4v1c0,0,.2,1,.2,1,2.7-.3,5.1-.4,7.2-.4v-1ZM280.1,53.4h-1v39.8h2v-39.8h-1ZM427.4,118l.9.5h0s-.9-.5-.9-.5ZM411.2,134.5l-.5-.9h0l.5.9ZM361.9,134.6l-.5.9.5-.9ZM346.2,118.5l-.9.5h0s.9-.5.9-.5ZM346.4,70.8l-.9-.5h0l.9.5ZM362.7,54.1l.5.9h0s-.5-.9-.5-.9ZM411.8,53.9l-.5.9h0s0,0,0,0l.5-.9ZM427.6,70l-.9.5h0s0,0,0,0l.9-.5ZM419.9,79.1l1-.2h0l-1,.2ZM413.9,65.3l.8-.6h0l-.8.6ZM403.1,55.5l-.5.9h0s0,0,0,0l.5-.9ZM370.9,55.5l.5.9h0s0,0,0,0l-.5-.9ZM360.1,65.3l-.8-.6h0l.8.6ZM354.1,79l1,.2h0s-1-.2-1-.2ZM360.2,123.1l-.8.6h0l.8-.6ZM371.3,133.1l-.5.9h0l.5-.9ZM403.6,133.2l-.5-.9h0s.5.9.5.9ZM414.3,123.8l.8.6h0s-.8-.6-.8-.6ZM433.2,93.6h-1c0,9.1-1.9,17.1-5.6,24l.9.5.9.5c3.9-7.2,5.9-15.6,5.9-24.9h-1ZM427.4,118l-.9-.5c-3.8,6.8-9,12.2-15.9,16.1l.5.9.5.9c7.2-4.1,12.7-9.7,16.6-16.9l-.9-.5ZM411.2,134.5l-.5-.9c-6.8,3.9-14.9,5.9-24.3,5.9v2c9.7,0,18.2-2,25.3-6.1l-.5-.9ZM386.4,140.5v-1c-9.3,0-17.3-1.9-23.9-5.8l-.5.9-.5.9c7,4,15.3,6,24.9,6v-1ZM361.9,134.6l.5-.9c-6.7-3.8-11.8-9.1-15.4-15.7l-.9.5-.9.5c3.8,7,9.1,12.5,16.1,16.5l.5-.9ZM346.2,118.5l.9-.5c-3.6-6.8-5.4-14.4-5.4-23.1h-2c0,8.9,1.9,16.9,5.6,24l.9-.5ZM340.7,95h1c0-8.9,1.9-16.8,5.6-23.7l-.9-.5-.9-.5c-3.9,7.2-5.9,15.5-5.9,24.7h1ZM346.4,70.8l.9.5c3.8-6.9,9-12.3,15.9-16.2l-.5-.9-.5-.9c-7.2,4.1-12.7,9.8-16.6,17l.9.5ZM362.7,54.1l.5.9c6.9-4,15-6,24.5-6v-2c-9.7,0-18.2,2.1-25.5,6.3l.5.9ZM387.6,48v1c9.2,0,17.1,1.9,23.7,5.8l.5-.9.5-.9c-6.9-4-15.2-6-24.7-6v1ZM411.8,53.9l-.5.9c6.7,3.7,11.8,9,15.4,15.7l.9-.5.9-.5c-3.8-7.1-9.1-12.6-16.1-16.5l-.5.9ZM427.6,70l-.9.5c3.7,6.7,5.5,14.3,5.5,23.1h2c0-9-1.9-17-5.8-24l-.9.5ZM421.8,94.8h1c0-5.5-.6-10.8-1.9-16l-1,.2-1,.2c1.3,5,1.9,10.2,1.9,15.5h1ZM419.9,79.1l1-.2c-1.3-5.2-3.4-9.9-6.2-14.1l-.8.6-.8.6c2.7,4,4.6,8.5,5.9,13.5l1-.2ZM413.9,65.3l.8-.6c-2.8-4.2-6.5-7.6-11.1-10.1l-.5.9-.5.9c4.3,2.3,7.8,5.4,10.4,9.4l.8-.6ZM403.1,55.5l.5-.9c-4.6-2.6-10.2-3.8-16.6-3.8v2c6.2,0,11.4,1.2,15.6,3.6l.5-.9ZM387,51.8v-1c-6.4,0-12,1.3-16.6,3.8l.5.9.5.9c4.3-2.4,9.5-3.6,15.6-3.6v-1ZM370.9,55.5l-.5-.9c-4.6,2.5-8.3,5.8-11.1,10.1l.8.6.8.6c2.6-4,6.1-7.1,10.4-9.4l-.5-.9ZM360.1,65.3l-.8-.6c-2.8,4.2-4.8,8.9-6.2,14l1,.2,1,.2c1.3-4.9,3.2-9.4,5.9-13.4l-.8-.6ZM354.1,79l-1-.2c-1.3,5-2,10.1-2,15.4h2c0-5,.6-10,1.9-14.9l-1-.2ZM352.2,94.1h-1c0,5.2.7,10.4,2,15.5l1-.2,1-.2c-1.3-5-1.9-9.9-1.9-15h-1ZM354.1,109.3l-1,.2c1.3,5.1,3.4,9.9,6.3,14.1l.8-.6.8-.6c-2.7-4.1-4.8-8.6-6-13.5l-1,.2ZM360.2,123.1l-.8.6c2.9,4.3,6.7,7.8,11.4,10.3l.5-.9.5-.9c-4.4-2.4-7.9-5.6-10.7-9.7l-.8.6ZM371.3,133.1l-.5.9c4.7,2.6,10.3,3.8,16.9,3.8v-2c-6.3,0-11.6-1.2-15.9-3.6l-.5.9ZM387.6,136.8v1c6.4,0,11.9-1.2,16.5-3.7l-.5-.9-.5-.9c-4.2,2.3-9.3,3.5-15.5,3.5v1ZM403.6,133.2l.5.9c4.6-2.5,8.2-5.7,11-9.8l-.8-.6-.8-.6c-2.5,3.8-6,6.8-10.3,9.2l.5.9ZM414.3,123.8l.8.6c2.7-4.1,4.7-8.7,5.9-13.9l-1-.2-1-.2c-1.2,4.9-3,9.3-5.6,13.2l.8.6ZM420,110.2l1,.2c1.2-5.1,1.8-10.3,1.8-15.6h-2c0,5.1-.6,10.2-1.8,15.1l1,.2ZM503.3,61.9l-.9-.5h0s.9.5.9.5ZM481.9,99.8l-.9-.5v.2c-.1,0-.1.3-.1.3h1ZM482.3,133.6l-1,.2h0s0,0,0,0l1-.3ZM484.9,135.8l-.2,1h0s0,0,0,0l.2-1ZM491.6,136.6h1c0,0,0-.9,0-.9h-.8c0,0,0,.9,0,.9ZM491.6,139.1v1h.9v-.9c0,0-.9,0-.9,0ZM486.9,139v-1s0,0,0,0h0v1ZM481.3,139v1s0,0,0,0h0v-1ZM472.2,139v1h0s0-1,0-1ZM466.7,139v-1h0s0,1,0,1ZM461.9,139.1h-1c0,0,0,1,0,1h.9v-1ZM461.9,136.6v-1c0,0-.9,0-.9,0v.8c0,0,.9,0,.9,0ZM468.6,135.8l.2,1h0s0,0,0,0l-.2-1ZM471.2,133.9l-.9-.3h0l.9.3ZM471.7,100.7h1v-.5c-.1,0-1,.5-1,.5ZM449.8,61.3l-.9.5h0s.9-.5.9-.5ZM446.1,55.3l-.8.6h0s0,0,0,0l.8-.6ZM442.9,52.7l-.3.9h0s0,0,0,0l.3-.9ZM437.2,51.8h-1c0,0,0,.9,0,.9h.8c0,0,0-.9,0-.9ZM437.2,49.3v-1h-.9v.9c0,0,.9,0,.9,0ZM444.4,49.4v1s0,0,0,0v-1ZM458.4,49.4v-1h0v1ZM465.4,49.3h1c0,0,0-1,0-1h-.9v1ZM465.4,51.8v1s.9,0,.9,0v-.9c0,0-.9,0-.9,0ZM459.8,52.6l.3,1h0s0,0,0,0l-.4-.9ZM459.9,58.9l.9-.5h0s-.9.5-.9.5ZM479.9,95.1l-.9.5.9,1.6.9-1.6-.9-.5ZM499.8,58.9l-.9-.5h0s0,0,0,0l.9.5ZM501.1,56.4l-.9-.4h0s0,0,0,0l.9.4ZM499.6,52.9l-.3.9h0s0,0,0,0l.2-1ZM493,51.8h-1c0,0,0,.9,0,.9h.8c0,0,0-.9,0-.9ZM493,49.3v-1h-.9v.9c0,0,.9,0,.9,0ZM499.2,49.4v1h0v-1ZM511.1,49.4v-1s0,0,0,0v1ZM516.9,49.3h1c0,0,0-1,0-1h-.9v1ZM516.9,51.8v1c0,0,.9,0,.9,0v-.8c0,0-.9,0-.9,0ZM507.4,55.4l-.8-.6h0l.8.6ZM503.3,61.9l-.9-.5-21.4,37.9.9.5.9.5,21.4-37.9-.9-.5ZM481.9,99.8h-1v28.2h2v-28.2h-1ZM481.9,128h-1c0,2.6.1,4.5.4,5.8l1-.2,1-.2c-.2-1.1-.4-2.9-.4-5.4h-1ZM482.3,133.6l-1,.3c.5,1.5,1.7,2.4,3.3,2.9l.2-1,.2-1c-1.1-.3-1.6-.8-1.8-1.5l-1,.3ZM484.9,135.8l-.2,1c1.4.3,3.7.5,6.9.8v-1c0,0,.2-1,.2-1-3.2-.3-5.4-.5-6.7-.8l-.2,1ZM491.6,136.6h-1c0,.9,0,1.7,0,2.5h1c0,.1,1,.2,1,.2,0-.9,0-1.8,0-2.8h-1ZM491.6,139.1v-1c-1.3,0-2.8,0-4.7-.1v1s0,1,0,1c1.9,0,3.5.1,4.8.1v-1ZM486.9,139v-1h-5.6v2h5.6v-1ZM481.3,139v-1c-1.8,0-3.3-.1-4.5-.1v2c1.2,0,2.6,0,4.4.1v-1ZM476.8,138.9v-1c-1.2,0-2.8,0-4.7.1v1s0,1,0,1c1.9,0,3.4-.1,4.6-.1v-1ZM472.2,139v-1h-5.5v2h5.5v-1ZM466.7,139v-1c-1.9,0-3.5.1-4.7.1v2c1.3,0,2.9,0,4.8-.1v-1ZM461.9,139.1h1c0-.9,0-1.7,0-2.5h-1c0-.1-1-.2-1-.2,0,.9,0,1.8,0,2.8h1ZM461.9,136.6v1c3.2-.3,5.5-.5,6.9-.8l-.2-1-.2-1c-1.2.2-3.4.5-6.5.8v1ZM468.6,135.8l.2,1c1.5-.4,2.8-1.2,3.3-2.5l-.9-.3-.9-.3c-.2.5-.7,1-1.9,1.3l.2,1ZM471.2,133.9l.9.3c.4-1.1.6-2.9.6-5.1h-2c0,2.2-.2,3.6-.5,4.4l.9.3ZM471.7,129.1h1v-28.4h-2v28.4h1ZM471.7,100.7l.9-.5-21.9-39.4-.9.5-.9.5,21.9,39.4.9-.5ZM449.8,61.3l.9-.5c-1.5-2.8-2.8-4.9-3.8-6.2l-.8.6-.8.6c.9,1.1,2.1,3.1,3.6,5.9l.9-.5ZM446.1,55.3l.8-.6c-1-1.4-2.2-2.4-3.7-3l-.3.9-.3.9c1,.3,1.9,1,2.7,2.2l.8-.6ZM442.9,52.7l.3-.9c-1.3-.5-3.3-.8-5.9-1v1c0,0-.1,1-.1,1,2.5.2,4.3.5,5.4.8l.3-.9ZM437.2,51.8h1c0-.9,0-1.7,0-2.5h-1c0,0-1-.2-1-.2,0,.9,0,1.8,0,2.8h1ZM437.2,49.3v1c2.2,0,4.6,0,7.1.1v-1s0-1,0-1c-2.6,0-5-.1-7.2-.1v1ZM444.4,49.4v1c2.6,0,5.1.1,7.4.1v-2c-2.3,0-4.8,0-7.4-.1v1ZM451.8,49.5v1c2,0,4.2,0,6.6-.1v-1s0-1,0-1c-2.4,0-4.5.1-6.5.1v1ZM458.4,49.4v1c2.5,0,4.8-.1,7-.1v-2c-2.2,0-4.6,0-7.1.1v1ZM465.4,49.3h-1c0,.9,0,1.7,0,2.5h1c0,0,1,.2,1,.2,0-.9,0-1.8,0-2.8h-1ZM465.4,51.8v-1c-2.7,0-4.7.3-6,.8l.4.9.4.9c.9-.4,2.7-.6,5.3-.7v-1ZM459.8,52.6l-.3-1c-.7.2-1.3.5-1.7,1-.5.5-.7,1.2-.7,1.8h2c0-.3,0-.4.2-.5.1-.1.3-.3.8-.4l-.3-1ZM458.1,54.5h-1c0,.6.2,1.3.5,2,.3.8.8,1.7,1.4,2.8l.9-.5.9-.5c-.6-1-1-1.9-1.3-2.6-.3-.7-.4-1.1-.4-1.3h-1ZM459.9,58.9l-.9.5,20,36.2.9-.5.9-.5-20-36.2-.9.5ZM479.9,95.1l.9.5,20-36.2-.9-.5-.9-.5-20,36.2.9.5ZM499.8,58.9l.9.5c.6-1,1.1-1.9,1.3-2.5l-.9-.4-.9-.4c-.2.5-.6,1.3-1.2,2.3l.9.5ZM501.1,56.4l.9.4c.4-.7.6-1.5.6-2.1h-2c0,.2,0,.6-.4,1.2l.9.4ZM501.6,54.8h1c0-.7-.3-1.4-.8-1.9-.5-.5-1.2-.8-2-1l-.2,1-.2,1c.6.1.9.3,1.1.5.1.1.2.3.2.5h1ZM499.6,52.9l.3-.9c-1.4-.5-3.7-.8-6.8-1.1v1c0,0-.2,1-.2,1,3.1.3,5.1.6,6.3,1l.3-.9ZM493,51.8h1c0-.9,0-1.7,0-2.5h-1c0,0-1-.2-1-.2,0,.9,0,1.8,0,2.8h1ZM493,49.3v1c1.5,0,3.6,0,6.1.1v-1s0-1,0-1c-2.6,0-4.6-.1-6.2-.1v1ZM499.2,49.4v1c2.5,0,4.6.1,6.1.1v-2c-1.5,0-3.6,0-6.1-.1v1ZM505.3,49.5v1c2,0,3.9,0,5.8-.1v-1s0-1,0-1c-1.9,0-3.8.1-5.7.1v1ZM511.1,49.4v1c2,0,3.9-.1,5.8-.1v-2c-1.9,0-3.8,0-5.8.1v1ZM516.9,49.3h-1c0,.9,0,1.7,0,2.5h1c0,0,1,.2,1,.2,0-.9,0-1.8,0-2.8h-1ZM516.9,51.8v-1c-2.7.2-4.7.5-6.2.9l.3,1,.3,1c1.3-.4,3.1-.7,5.7-.9v-1ZM511,52.7l-.3-1c-1.6.5-3,1.5-4.1,3l.8.6.8.6c.9-1.2,2-2,3.1-2.3l-.3-1ZM507.4,55.4l-.8-.6c-1.1,1.4-2.5,3.6-4.2,6.6l.9.5.9.5c1.7-3,3-5.1,4-6.4l-.8-.6ZM506.1,139.1h-1c0,0,0,1,0,1h.9v-1ZM506.1,136.6v-1c0,0-.9,0-.9,0v.8c0,0,.9,0,.9,0ZM512.4,135.7l.2,1h0s0,0,0,0l-.3-1ZM515.8,133l.8.5h0s0,0,0,0l-.9-.5ZM518.8,126.1l-.9-.3h0s0,0,0,0l.9.3ZM547.2,49.5l-.4-.9-.4.2-.2.4.9.3ZM549.6,49v1c0,0,.1,0,.1,0h0s-.2-1-.2-1ZM552,48.8l.9-.3-.2-.7h-.7v1ZM580.7,126.8l-.9.3h0s.9-.3.9-.3ZM583.4,133.2l-.9.5h0s0,0,0,0l.9-.5ZM586.6,135.7l-.2,1h0l.2-1ZM593,136.6h1c0,0,0-.9,0-.9h-.8c0,0,0,.9,0,.9ZM593,139.1v1h.9v-.9c0,0-.9,0-.9,0ZM585.5,139v1s0,0,0,0v-1ZM571.1,139v-1h0v1ZM564.5,139.1h-1c0,0,0,1,0,1h.9v-1ZM564.5,136.6v-1c0,0-.9,0-.9,0v.8c0,0,.9,0,.9,0ZM570.3,135.8l.3,1h0s0,0,0,0l-.3-.9ZM571.6,132l-1,.2h0s0,0,0,0l1-.3ZM570.9,129.5l-.9.3h0s.9-.3.9-.3ZM562,104.8l.9-.3-.2-.7h-.7v1ZM531.6,104.8v-1h-.7l-.2.7.9.3ZM523.2,128.1l.9.3h0s-.9-.3-.9-.3ZM523.9,135.7l-.3,1h0l.3-1ZM530.2,136.6h1c0,0,0-.9,0-.9h-.8c0,0,0,.9,0,.9ZM530.2,139.1v1h.9v-.9c0,0-.9,0-.9,0ZM523.9,139v1s0,0,0,0v-1ZM512,139v-1h0v1ZM533,100.9l-.9-.3-.5,1.3h1.4v-1ZM560.5,100.9v1h1.4l-.5-1.3-.9.3ZM546.7,62.3l.9-.3-.9-2.6-.9,2.6.9.3ZM506.1,139.1h1c0-.9,0-1.7,0-2.5h-1c0-.1-1-.2-1-.2,0,.9,0,1.8,0,2.8h1ZM506.1,136.6v1c2.9-.3,5.1-.6,6.5-.9l-.2-1-.2-1c-1.3.3-3.3.6-6.1.9v1ZM512.4,135.7l.3,1c1.7-.5,3-1.6,4-3.1l-.8-.5-.8-.5c-.7,1.2-1.7,1.9-2.9,2.3l.3,1ZM515.8,133l.9.5c.9-1.5,1.9-3.9,3-7.1l-.9-.3-.9-.3c-1.1,3.1-2.1,5.4-2.9,6.7l.9.5ZM518.8,126.1l.9.3,28.4-76.5-.9-.3-.9-.3-28.4,76.5.9.3ZM547.2,49.5l.4.9c.6-.2,1.3-.4,2.2-.5v-1c0,0-.2-1-.2-1-1,0-1.9.3-2.7.6l.4.9ZM549.6,49l.2,1c1-.2,1.8-.2,2.3-.2v-2c-.7,0-1.6,0-2.6.3l.2,1ZM552,48.8l-.9.3,28.7,78.1.9-.3.9-.3-28.7-78.1-.9.3ZM580.7,126.8l-.9.3c1.1,3,2,5.2,2.7,6.5l.9-.5.9-.5c-.6-1.2-1.5-3.3-2.6-6.3l-.9.3ZM583.4,133.2l-.9.5c.9,1.5,2.2,2.5,3.8,2.9l.2-1,.2-1c-1.1-.3-1.9-.9-2.6-2l-.9.5ZM586.6,135.7l-.2,1c1.4.4,3.6.7,6.6.9v-1c0,0,.2-1,.2-1-2.9-.3-5-.5-6.2-.9l-.2,1ZM593,136.6h-1c0,.9,0,1.7,0,2.5h1c0,.1,1,.2,1,.2,0-.9,0-1.8,0-2.8h-1ZM593,139.1v-1c-2.2,0-4.7,0-7.5-.1v1s0,1,0,1c2.8,0,5.4.1,7.6.1v-1ZM585.5,139v-1c-2.7,0-5.2-.1-7.6-.1v2c2.3,0,4.8,0,7.5.1v-1ZM577.9,138.9v-1c-2.4,0-4.7,0-6.8.1v1s0,1,0,1c2.1,0,4.4-.1,6.7-.1v-1ZM571.1,139v-1c-2.1,0-4.3.1-6.7.1v2c2.4,0,4.6,0,6.7-.1v-1ZM564.5,139.1h1c0-.9,0-1.7,0-2.5h-1c0-.1-1-.2-1-.2,0,.9,0,1.8,0,2.8h1ZM564.5,136.6v1c3.1-.3,5.1-.5,6.2-.8l-.3-1-.3-1c-.8.2-2.7.5-5.7.7v1ZM570.3,135.8l.3.9c.7-.2,1.3-.6,1.7-1.2.4-.6.6-1.3.6-2h-2c0,.5,0,.7-.2.9-.1.2-.3.3-.6.4l.3.9ZM571.9,133.5h1c0-.6-.1-1.2-.3-1.8l-1,.3-1,.3c.2.5.2,1,.2,1.3h1ZM571.6,132l1-.2c-.2-.7-.5-1.6-.8-2.5l-.9.3-.9.3c.3.9.6,1.7.7,2.3l1-.2ZM570.9,129.5l.9-.3-8.8-24.7-.9.3-.9.3,8.8,24.7.9-.3ZM562,104.8v-1h-30.5v2h30.5v-1ZM531.6,104.8l-.9-.3-8.3,23.3.9.3.9.3,8.3-23.3-.9-.3ZM523.2,128.1l-.9-.3c-.9,2.3-1.3,4.1-1.3,5.3h2c0-.8.4-2.3,1.2-4.6l-.9-.3ZM522,133.1h-1c0,.8.2,1.6.7,2.3.5.6,1.2,1,2,1.3l.3-1,.3-1c-.5-.1-.7-.3-.9-.5-.2-.2-.3-.5-.3-1.1h-1ZM523.9,135.7l-.3,1c1.4.4,3.5.7,6.4.9v-1c0,0,.2-1,.2-1-2.9-.3-4.9-.5-6.1-.9l-.3,1ZM530.2,136.6h-1c0,.9,0,1.7,0,2.5h1c0,.1,1,.2,1,.2,0-.9,0-1.8,0-2.8h-1ZM530.2,139.1v-1c-2.1,0-4.2,0-6.2-.1v1s0,1,0,1c2.1,0,4.2.1,6.3.1v-1ZM523.9,139v-1c-1.9,0-4-.1-6.1-.1v2c2.1,0,4.2,0,6.1.1v-1ZM517.7,138.9v-1c-1.7,0-3.7,0-5.8.1v1s0,1,0,1c2.1,0,4-.1,5.7-.1v-1ZM512,139v-1c-2.1,0-4,.1-5.9.1v2c1.9,0,3.9,0,5.9-.1v-1ZM533,100.9v1h27.5v-2h-27.5v1ZM560.5,100.9l.9-.3-13.8-38.5-.9.3-.9.3,13.8,38.5.9-.3ZM546.7,62.3l-.9-.3-13.7,38.5.9.3.9.3,13.7-38.5-.9-.3ZM604.4,139.1h-1c0,0,0,1,0,1h.9v-1ZM604.4,136.6v-1c0,0-.9,0-.9,0v.8c0,0,.9,0,.9,0ZM610.7,135.8l.2,1h0s0,0,0,0l-.3-1ZM613,133.9l-.9-.3h0s0,0,0,0l1,.3ZM613,54.9l-1,.3h0l1-.3ZM610.6,52.7l-.3.9h0s0,0,0,0l.3-1ZM604.4,51.8h-1c0,0,0,.9,0,.9h.9c0,0,0-.9,0-.9ZM604.4,49.3v-1h-.9v.9c0,0,.9,0,.9,0ZM611.7,49.4v-1s0,1,0,1ZM623,49.5v1h0s0-1,0-1ZM628.3,49.4v1h0s0-1,0-1ZM633,49.3h1c0,0,0-1,0-1h-.9v1ZM633,51.8v1c0,0,.9,0,.9,0v-.8c0,0-.9,0-.9,0ZM626.6,52.6l.2,1h0l-.2-1ZM624.1,54.4l-.9-.3h0s0,0,0,0l1,.3ZM623.9,135l-1,.2.2.8h.8v-1ZM649.8,134.4l.2,1h0l-.2-1ZM654.3,131.8l-.7-.7h0s0,0,0,0l.8.7ZM657.3,127.4l-.9-.5h0s0,0,0,0l.9.5ZM660.2,119.9v-1c-.1,0-.8,0-.8,0l-.2.6,1,.3ZM662.5,119.9l1,.2.2-1.1h-1.1c0-.1-.1.9-.1.9ZM660.6,130.8l-1-.2h0s0,0,0,0h1ZM659.3,139v1h.8v-.8c.1,0-.8-.2-.8-.2ZM646.1,139v1s0,0,0,0h0v-1ZM614.4,139v1h0s0-1,0-1ZM609,139v-1h0s0,1,0,1ZM604.4,139.1h1c0-.9,0-1.7,0-2.5h-1c0-.1-1-.2-1-.2,0,.9,0,1.8,0,2.8h1ZM604.4,136.6v1c3-.3,5.1-.5,6.5-.8l-.2-1-.2-1c-1.2.2-3.3.5-6.2.8v1ZM610.7,135.8l.3,1c1.5-.4,2.6-1.2,3-2.6l-1-.3-1-.3c-.1.5-.5.9-1.6,1.2l.3,1ZM613,133.9l.9.3c.4-1.1.6-2.9.6-5.1h-2c0,2.2-.2,3.6-.5,4.4l.9.3ZM613.5,129.1h1V60.4h-2v68.7h1ZM613.5,60.4h1c0-2.6-.2-4.5-.6-5.8l-1,.3-1,.3c.3,1,.5,2.7.5,5.2h1ZM613,54.9l1-.3c-.5-1.5-1.6-2.4-3.1-2.8l-.3,1-.3,1c1,.3,1.5.8,1.7,1.5l1-.3ZM610.6,52.7l.3-.9c-1.3-.5-3.5-.8-6.4-1v1c0,0-.1,1-.1,1,2.9.2,4.8.5,5.9.8l.3-.9ZM604.4,51.8h1c0-.9,0-1.7,0-2.5h-1c0,0-1-.2-1-.2,0,.9,0,1.8,0,2.8h1ZM604.4,49.3v1c1.9,0,4.4,0,7.3.1v-1s0-1,0-1c-2.9,0-5.3-.1-7.3-.1v1ZM611.7,49.4v1c2.9,0,5.2.1,6.9.1v-2c-1.7,0-4,0-6.9-.1v1ZM618.6,49.5v1h4.4v-2h-4.4v1ZM623,49.5v1c1.8,0,3.6-.1,5.4-.1v-2c-1.8,0-3.6,0-5.4.1v1ZM628.3,49.4v1c1.9,0,3.4-.1,4.6-.1v-2c-1.2,0-2.8,0-4.7.1v1ZM633,49.3h-1c0,.9,0,1.7,0,2.5h1c0,0,1,.2,1,.2,0-.9,0-1.8,0-2.8h-1ZM633,51.8v-1c-3.1.3-5.3.5-6.6.8l.2,1,.2,1c1.2-.2,3.3-.5,6.3-.8v-1ZM626.6,52.6l-.2-1c-1.5.3-2.7,1.1-3.2,2.4l.9.3.9.3c.2-.5.6-.9,1.7-1.2l-.2-1ZM624.1,54.4l-1-.3c-.3,1.1-.4,2.8-.4,5.1h2c0-2.3.1-3.8.3-4.6l-1-.3ZM623.7,59.3h-1v68.2h2V59.3h-1ZM623.7,127.5h-1v.2h0v.2h0v.2h0v.2h0v.2h0v.2h0v.2h0v.2h0v.2h0v.2h0v.2h0v.2h0v.2h0v.2h0v.2h0v.2h0v.2h0v.2h0v.2h0v.2h0v.2h0v.2h0v.2h0v.2h0v.2h0v.2h0v.2h0v.2h0v.2h0v.2h0v.2h0v.2h0c0,.1,1,.1,1,.1h1v-.2h0v-.2h0v-.2h0v-.2h0v-.2h0v-.2h0v-.2h0v-.2h0v-.2h0v-.2h0v-.2h0v-.2h0v-.2h0v-.2h0v-.2h0v-.2h0v-.2h0v-.2h0v-.2h0v-.2h0v-.2h0v-.2h0v-.2h0v-.2h0v-.2h0v-.2h0v-.2h0v-.2h0v-.2h0v-.2h0v-.2h0v-.2h0c0-.1-1-.1-1-.1ZM623.7,132.6h-1c0,1.2,0,2.1.1,2.6l1-.2,1-.2c0-.3-.1-1-.1-2.2h-1ZM623.9,135v1h18.7v-2h-18.7v1ZM642.6,135v1c3,0,5.5-.2,7.5-.7l-.2-1-.2-1c-1.8.4-4.1.6-7.1.6v1ZM649.8,134.4l.2,1c2.1-.5,3.7-1.4,5-2.9l-.8-.7-.8-.7c-1,1.1-2.2,1.9-3.9,2.2l.2,1ZM654.3,131.8l.7.7c1-1.1,2-2.7,3.1-4.7l-.9-.5-.9-.5c-1,1.9-1.9,3.3-2.8,4.3l.7.7ZM657.3,127.4l.9.5c1.2-2.1,2.2-4.7,3-7.6l-1-.3-1-.3c-.8,2.9-1.8,5.3-2.9,7.2l.9.5ZM660.2,119.9v1c.8,0,1.5,0,2.2,0v-1c.1,0,.2-1,.2-1-.8,0-1.7,0-2.5,0v1ZM662.5,119.9l-1-.2c-.7,3.8-1.3,7.5-1.9,10.9l1,.2,1,.2c.6-3.4,1.2-7,1.9-10.9l-1-.2ZM660.6,130.8h-1c-.5,3.3-.9,6-1.3,8l1,.2,1,.2c.3-2.1.8-4.8,1.3-8.2h-1ZM659.3,139v-1h-13.2v2h13.2v-1ZM646.1,139v-1c-4.7,0-9.4-.1-14.2-.1v2c4.8,0,9.5,0,14.2.1v-1ZM631.9,138.9v-1h-13.1v2h13.1v-1ZM618.9,138.9v-1c-1.2,0-2.7,0-4.5.1v1s0,1,0,1c1.8,0,3.3-.1,4.4-.1v-1ZM614.4,139v-1h-5.4v2h5.4v-1ZM609,139v-1c-1.8,0-3.3.1-4.6.1v2c1.3,0,2.9,0,4.7-.1v-1ZM697.3,49.5v1h0s0-1,0-1ZM704.2,49.4v1h0s0-1,0-1ZM750.6,60.7l-.6.8h0s.6-.8.6-.8ZM760.9,114.6l.9.4h0s-.9-.4-.9-.4ZM749.5,128.8l.6.8h0s-.6-.8-.6-.8ZM732.3,137l.3,1h0s-.3-1-.3-1ZM700.6,139.1v-1c0,0,0,0,0,0h0s0,1,0,1ZM686.6,139v1h0s0-1,0-1ZM681.1,139v-1h0s0,1,0,1ZM676.5,139.1h-1c0,0,0,1,0,1h.9v-1ZM676.5,136.6v-1c0,0-.9,0-.9,0v.8c0,0,.9,0,.9,0ZM682.8,135.8l.2,1h0l-.2-1ZM685.1,134l-.9-.3h0s0,0,0,0l1,.3ZM685,54.9l-1,.3h0s0,0,0,0l.9-.4ZM682.5,52.7l-.3.9h0s0,0,0,0l.3-1ZM676.3,51.8h-1c0,0,0,.9,0,.9h.9c0,0,0-.9,0-.9ZM676.3,49.3v-1h-.9v.9c0,0,.9,0,.9,0ZM683.7,49.4v1s0-1,0-1ZM695.9,53.6v-1c0,0-1,0-1,0v.9h1ZM695.9,134.1h-1v.8l.8.2.2-1ZM704.1,135.3v1c0,0,0,0,0,0v-1ZM743.5,125l-.7-.7h0l.7.7ZM742.2,64.6l-.7.7h0s.7-.7.7-.7ZM700.9,53.4v1s0,0,0,0h0s0-1,0-1ZM691.5,49.5v1h5.8v-2h-5.8v1ZM697.3,49.5v1c2.3,0,4.6-.1,6.9-.1v-2c-2.3,0-4.6,0-6.9.1v1ZM704.2,49.4v1c2.3,0,4.2-.1,5.8-.1v-2c-1.6,0-3.5,0-5.8.1v1ZM709.9,49.3v1c17.5,0,30.8,3.8,40.1,11.2l.6-.8.6-.8c-9.7-7.8-23.5-11.6-41.3-11.6v1ZM750.6,60.7l-.6.8c9.3,7.4,14,18.1,14,32.5h2c0-14.8-4.9-26.2-14.7-34.1l-.6.8ZM765,93.9h-1c0,7.8-1.3,14.5-4,20.2l.9.4.9.4c2.8-6,4.2-13,4.2-21h-1ZM760.9,114.6l-.9-.4c-2.7,5.6-6.4,10.2-11.1,13.8l.6.8.6.8c5-3.9,8.9-8.7,11.7-14.6l-.9-.4ZM749.5,128.8l-.6-.8c-4.8,3.6-10.4,6.3-16.8,8l.3,1,.3,1c6.7-1.8,12.5-4.6,17.5-8.4l-.6-.8ZM732.3,137l-.3-1c-6.4,1.7-13.3,2.5-20.9,2.5v2c7.7,0,14.8-.9,21.4-2.6l-.3-1ZM711.2,139.5v-1c-3.2,0-6.7-.1-10.6-.4v1c0,0-.1,1-.1,1,3.9.3,7.4.4,10.7.4v-1ZM700.6,139.1v-1c-3.7-.2-6.9-.3-9.5-.3v2c2.5,0,5.7,0,9.4.3v-1ZM691.1,138.9v-1c-1.1,0-2.6,0-4.5.1v1s0,1,0,1c1.9,0,3.3-.1,4.4-.1v-1ZM686.6,139v-1h-5.5v2h5.5v-1ZM681.1,139v-1c-1.8,0-3.3.1-4.6.1v2c1.3,0,2.9,0,4.7-.1v-1ZM676.5,139.1h1c0-.9,0-1.7,0-2.5h-1c0-.1-1-.2-1-.2,0,.9,0,1.8,0,2.8h1ZM676.5,136.6v1c3-.3,5.1-.5,6.5-.8l-.2-1-.2-1c-1.2.2-3.3.5-6.2.8v1ZM682.8,135.8l.2,1c1.5-.3,2.7-1.1,3.1-2.5l-1-.3-1-.3c-.1.4-.5.9-1.5,1.1l.2,1ZM685.1,134l.9.3c.4-1.2.6-2.9.6-5.2h-2c0,2.2-.2,3.7-.5,4.5l.9.3ZM685.6,129.1h1V60.4h-2v68.7h1ZM685.6,60.4h1c0-2.6-.2-4.6-.7-5.9l-.9.4-.9.4c.4.9.6,2.6.6,5.1h1ZM685,54.9l1-.3c-.5-1.5-1.6-2.4-3.1-2.8l-.3,1-.3,1c1,.3,1.5.8,1.7,1.5l1-.3ZM682.5,52.7l.3-.9c-1.4-.5-3.6-.8-6.5-.9v1c0,0-.1,1-.1,1,2.9.2,4.9.5,6,.8l.3-.9ZM676.3,51.8h1c0-.9,0-1.7,0-2.5h-1c0,0-1-.2-1-.2,0,.9,0,1.8,0,2.8h1ZM676.3,49.3v1c2.1,0,4.6,0,7.4.1v-1s0-1,0-1c-2.8,0-5.3-.1-7.5-.1v1ZM683.7,49.4v1c2.8,0,5.4.1,7.8.1v-2c-2.4,0-5,0-7.8-.1v1ZM695.9,53.6h-1v80.5h2V53.6h-1ZM695.9,134.1l-.2,1c2.8.5,5.5.9,8.3,1.2v-1c0,0,.2-1,.2-1-2.7-.3-5.4-.6-8.1-1.1l-.2,1ZM704.1,135.3v1c2.8.3,5.5.4,8.1.4v-2c-2.5,0-5.2-.1-8-.4v1ZM712.1,135.7v1c14.1,0,24.8-3.6,32.1-10.9l-.7-.7-.7-.7c-6.7,6.8-16.9,10.3-30.6,10.3v1ZM743.5,125l.7.7c7.2-7.3,10.8-17.3,10.8-29.9h-2c0,12.2-3.4,21.6-10.2,28.5l.7.7ZM754,95.9h1c0-13.4-4-24.1-12.1-32l-.7.7-.7.7c7.6,7.4,11.5,17.5,11.5,30.5h1ZM742.2,64.6l.7-.7c-8.1-7.9-19.8-11.8-35-11.8v2c14.9,0,26,3.8,33.6,11.2l.7-.7ZM707.9,53.1v-1c-2.3,0-4.7,0-7.1.3v1c0,0,.1,1,.1,1,2.4-.2,4.7-.3,7-.3v-1ZM700.9,53.4v-1c-2.3,0-4,.2-5.1.3v1c0,0,.2,1,.2,1,1,0,2.6-.2,4.9-.3v-1ZM784,139.1h-1c0,0,0,1,0,1h.9v-1ZM784,136.6v-1c0,0-.9,0-.9,0v.8c0,0,.9,0,.9,0ZM790.3,135.8l.2,1h0s0,0,0,0l-.3-1ZM792.6,133.9l-.9-.3h0s0,0,0,0l1,.3ZM792.6,54.9l-1,.3h0l1-.3ZM790.2,52.7l-.3.9h0s0,0,0,0l.3-1ZM784,51.8h-1c0,0,0,.9,0,.9h.9c0,0,0-.9,0-.9ZM784,49.3v-1h-.9v.9c0,0,.9,0,.9,0ZM789.4,49.4v1c0,0,0,0,0,0h0v-1ZM794.7,49.5v1s0,0,0,0h0v-1ZM814.1,49.5v1h0s0-1,0-1ZM832.7,49.4v1h0s0-1,0-1ZM836.4,49.3h1c0-.1,0-1,0-1h-.9v1ZM838.6,64.8v1c0,0,1.2,0,1.2,0l-.2-1.1-1,.2ZM836,64.8l-1,.3.2.6h.7c0,0,.1-.9.1-.9ZM833.8,59.3l-.9.5h0s0,0,0,0l.9-.5ZM831.4,55.9l-.7.7h0s.7-.7.7-.7ZM827.2,53.9l-.2,1h0s.2-1,.2-1ZM803.4,53.4v-1h-1v1h1ZM803.4,90.7h-1v1h1v-1ZM823.5,90.2l-.2-1h0l.2,1ZM826.5,87.7l.9.4h0s0,0,0,0l-.9-.4ZM828.1,80.8v-1c0,0-.9,0-.9,0v.8c-.1,0,.9.1.9.1ZM830.8,80.8h1v-.9h-.9c0,0,0,.9,0,.9ZM830.6,85.2h1s0,0,0,0h-1ZM830.6,100.6h-1s1,0,1,0ZM830.8,105.2v1c.1,0,1,0,1,0v-.9h-1ZM828.1,105.2h-1c0,.1,0,.9,0,.9h.8c0,0,0-.9,0-.9ZM826.7,98l-.9.4h0s0,0,0,0l.9-.4ZM803.4,94.8v-1h-1v1h1ZM803.4,135h-1v1h1v-1ZM828.2,134.5l.2,1h0s0,0,0,0l-.2-1ZM833.3,132.1l.7.7h0l-.7-.7ZM836,128l-.9-.5h0s0,0,0,0l.9.4ZM839.1,121.3v-1c-.1,0-.7,0-.7,0l-.2.6.9.4ZM841.5,121.3l1,.2.2-1.1h-1.1c0-.1,0,.9,0,.9ZM839.7,131.2l-1-.2h0s0,0,0,0h1ZM838.7,139v1h.9v-.9c.1,0-.9-.1-.9-.1ZM817.8,139v1s0,0,0,0h0v-1ZM793.4,139v1h0s0-1,0-1ZM788.6,139v-1h0s0,1,0,1ZM784,139.1h1c0-.9,0-1.7,0-2.5h-1c0-.1-1-.2-1-.2,0,.9,0,1.8,0,2.8h1ZM784,136.6v1c3-.3,5.1-.5,6.5-.8l-.2-1-.2-1c-1.2.2-3.3.5-6.2.8v1ZM790.3,135.8l.3,1c1.5-.4,2.6-1.2,3-2.6l-1-.3-1-.3c-.1.5-.5.9-1.6,1.2l.3,1ZM792.6,133.9l.9.3c.4-1.1.6-2.9.6-5.1h-2c0,2.2-.2,3.6-.5,4.4l.9.3ZM793.1,129.1h1V60.4h-2v68.7h1ZM793.1,60.4h1c0-2.6-.2-4.5-.6-5.8l-1,.3-1,.3c.3,1,.5,2.7.5,5.2h1ZM792.6,54.9l1-.3c-.5-1.5-1.6-2.4-3.1-2.8l-.3,1-.3,1c1,.3,1.5.8,1.7,1.5l1-.3ZM790.2,52.7l.3-.9c-1.3-.5-3.5-.8-6.4-1v1c0,0-.1,1-.1,1,2.9.2,4.8.5,5.9.8l.3-.9ZM784,51.8h1c0-.9,0-1.7,0-2.5h-1c0,0-1-.2-1-.2,0,.9,0,1.8,0,2.8h1ZM784,49.3v1c2.1,0,3.9,0,5.3.1v-1c0,0,.1-1,.1-1-1.5,0-3.3-.1-5.4-.1v1ZM789.4,49.4v1c1.5,0,3.3,0,5.2.1v-1s0-1,0-1c-2,0-3.7-.1-5.3-.1v1ZM794.7,49.5v1h8.3v-2h-8.3v1ZM803,49.5v1h11.1v-2h-11.1v1ZM814.1,49.5v1c3.8,0,7.3-.1,10.5-.1v-2c-3.3,0-6.8,0-10.5.1v1ZM824.6,49.4v1h8.1v-2h-8.1v1ZM832.7,49.4v1c2.2,0,3.4-.1,3.7-.1v-2c-.4,0-1.6,0-3.8.1v1ZM836.4,49.3h-1c.5,5,1.2,10.2,2.2,15.7l1-.2,1-.2c-.9-5.4-1.7-10.6-2.2-15.4h-1ZM838.6,64.8v-1c-1,0-1.8,0-2.5,0v1c-.1,0-.2,1-.2,1,.8,0,1.8,0,2.8,0v-1ZM836,64.8l1-.3c-.7-2.3-1.4-4.3-2.3-5.7l-.9.5-.9.5c.7,1.3,1.4,3,2.1,5.3l1-.3ZM833.8,59.3l.9-.5c-.8-1.5-1.7-2.7-2.6-3.6l-.7.7-.7.7c.7.7,1.5,1.7,2.2,3.1l.9-.5ZM831.4,55.9l.7-.7c-1.3-1.2-2.8-1.9-4.7-2.3l-.2,1-.2,1c1.6.3,2.8.9,3.7,1.8l.7-.7ZM827.2,53.9l.2-1c-1.7-.4-3.8-.5-6.4-.5v2c2.4,0,4.4.2,5.9.5l.2-1ZM821,53.4v-1h-17.7v2h17.7v-1ZM803.4,53.4h-1v37.4h2v-37.4h-1ZM803.4,90.7v1h13.4v-2h-13.4v1ZM816.8,90.7v1c3,0,5.3-.2,6.9-.5l-.2-1-.2-1c-1.3.3-3.5.5-6.4.5v1ZM823.5,90.2l.2,1c1.8-.4,3-1.5,3.8-3.1l-.9-.4-.9-.4c-.5,1.1-1.2,1.7-2.4,2l.2,1ZM826.5,87.7l.9.4c.6-1.6,1.2-4,1.6-7.2h-1c0-.1-1-.3-1-.3-.4,3.1-.9,5.3-1.5,6.7l.9.4ZM828.1,80.8v1c1,0,1.8,0,2.6,0v-1c.1,0,.2-1,.2-1-.9,0-1.9,0-2.9,0v1ZM830.8,80.8h-1c0,.6,0,2-.1,4.4h1s1,0,1,0c0-2.4.1-3.9.1-4.5h-1ZM830.6,85.2h-1c0,2.3-.1,4.9-.1,7.8h2c0-2.9,0-5.5.1-7.8h-1ZM830.5,93h-1c0,2.7,0,5.2.1,7.6h1s1,0,1,0c0-2.4-.1-4.9-.1-7.5h-1ZM830.6,100.6h-1c0,2.3.1,3.9.1,4.6h2c0-.8,0-2.3-.1-4.6h-1ZM830.8,105.2v-1c-.8,0-1.6,0-2.6,0v1c0,0-.2,1-.2,1,1.1,0,2,0,2.9,0v-1ZM828.1,105.2h1c-.3-3.5-.8-6-1.5-7.6l-.9.4-.9.4c.5,1.2,1,3.5,1.3,6.9h1ZM826.7,98l.9-.4c-.7-1.7-1.9-2.8-3.6-3.3l-.2,1-.2,1c1,.3,1.8.9,2.3,2.1l.9-.4ZM823.7,95.4l.2-1c-1.5-.4-3.6-.5-6.4-.5v2c2.7,0,4.7.2,5.9.5l.2-1ZM817.6,94.8v-1h-14.2v2h14.2v-1ZM803.4,94.8h-1v40.2h2v-40.2h-1ZM803.4,135v1h17v-2h-17v1ZM820.4,135v1c3.1,0,5.8-.2,8-.5l-.2-1-.2-1c-2.1.3-4.6.5-7.7.5v1ZM828.2,134.5l.2,1c2.4-.5,4.3-1.3,5.6-2.7l-.7-.7-.7-.7c-1,1-2.5,1.8-4.6,2.2l.2,1ZM833.3,132.1l.7.7c1-1,1.9-2.4,2.9-4.4l-.9-.4-.9-.4c-.9,1.8-1.8,3.1-2.5,3.8l.7.7ZM836,128l.9.5c1-1.9,2.1-4.2,3.1-6.8l-.9-.4-.9-.4c-1,2.5-2,4.7-3,6.5l.9.5ZM839.1,121.3v1c.8,0,1.5,0,2.3,0v-1c.1,0,.2-1,.2-1-.9,0-1.8,0-2.6,0v1ZM841.5,121.3l-1-.2c-.7,3.4-1.3,6.7-1.8,9.9l1,.2,1,.2c.5-3.1,1.1-6.4,1.8-9.8l-1-.2ZM839.7,131.2h-1c-.4,3-.8,5.6-1,7.7h1c0,.1,1,.2,1,.2.3-2,.6-4.6,1-7.8h-1ZM838.7,139v-1h-9.7v2h9.7v-1ZM829,139v-1h-11.1v2h11.1v-1ZM817.8,139v-1c-3.7,0-7.2-.1-10.2-.1v2c3.1,0,6.5,0,10.2.1v-1ZM807.6,138.9v-1h-7v2h7v-1ZM800.5,138.9v-1c-2.9,0-5.3,0-7.2.1v1s0,1,0,1c1.9,0,4.2-.1,7.1-.1v-1ZM793.4,139v-1h-4.7v2h4.7v-1ZM788.6,139v-1c-1.4,0-2.9.1-4.6.1v2c1.7,0,3.3,0,4.7-.1v-1ZM935.3,139.6l-.8.6.3.4h.5v-1ZM874.5,60.9l.8-.6-1.8-2.3v2.9h1ZM874.6,131.2h-1c0,0,0,.1,0,.1h0s1-.1,1-.1ZM875.7,134l-.8.7h0s0,0,0,0l.7-.8ZM878.7,135.7l-.4.9h0s0,0,0,0l.3-.9ZM884.2,136.6h1c0,0,0-.9,0-.9h-.8c0,0,0,.9,0,.9ZM884.2,139.1v1h.9v-.9c0,0-.9,0-.9,0ZM877.9,139v1s0,0,0,0v-1ZM866.5,139v-1h0v1ZM860.5,139.1h-1c0,0,0,1,0,1h.9v-1ZM860.5,136.6v-1c-.1,0-.9,0-.9,0v.8c0,0,.9,0,.9,0ZM866.9,135.4l-.3-.9h0l.3.9ZM869.2,133l-1-.3h0s0,0,0,0l1,.2ZM869.2,56.1l-1,.2h0s1-.2,1-.2ZM866.5,53l-.4.9h0s0,0,0,0l.3-.9ZM859.7,51.7h-1c0,.1,0,.9,0,.9h.8c0,0,.1-.9.1-.9ZM859.7,49.3v-1h-.9v.9c0,0,.9,0,.9,0ZM865.9,49.4v1s0,0,0,0v-1ZM878.7,49.4l.8-.6-.3-.4h-.5s0,1,0,1ZM935.8,123.5l-.8.6,1.8,2.3v-2.9h-1ZM935.6,57.5h-1c0,0,1,0,1,0ZM934.5,54.5l-.8.7h0s0,0,0,0l.7-.8ZM925,51.8h-1c0,0,0,.9,0,.9h.8c0,0,0-.9,0-.9ZM925,49.4v-1h-.9v.9c0,0,.9.1.9.1ZM931.7,49.5v1s0,0,0,0h0v-1ZM943.6,49.5v1h0s0-1,0-1ZM949.8,49.4h1c0-.1,0-1,0-1h-.9v1ZM949.8,51.8v1c.1,0,.9,0,.9,0v-.8c0,0-.9,0-.9,0ZM943.3,53.1l.3.9h0s0,0,0,0l-.4-.9ZM940.9,55.7l-1-.3h0s0,0,0,0l1,.2ZM940.5,139.1l.3,1,.7-.2v-.8h-1ZM937.9,139.5v-1h0v1ZM935.3,139.6l.8-.6-60.8-78.7-.8.6-.8.6,60.8,78.7.8-.6ZM874.5,60.9h-1v64.8h2V60.9h-1ZM874.5,125.7h-1c0,2.4,0,4.3.1,5.6h1c0,0,1-.1,1-.1,0-1.2-.1-3.1-.1-5.4h-1ZM874.6,131.2h-1c.2,1.5.6,2.6,1.4,3.5l.8-.7.8-.7c-.4-.5-.8-1.2-.9-2.3h-1ZM875.7,134l-.7.8c.8.7,1.9,1.3,3.2,1.8l.4-.9.4-.9c-1.2-.5-2.1-1-2.7-1.5l-.7.8ZM878.7,135.7l-.3.9c1.4.5,3.3.8,5.7.9v-1c0,0,.1-1,.1-1-2.4-.2-4.1-.5-5.3-.8l-.3.9ZM884.2,136.6h-1c0,.9,0,1.7,0,2.5h1c0,.1,1,.2,1,.2,0-.9,0-1.8,0-2.8h-1ZM884.2,139.1v-1c-1.9,0-3.9,0-6.2-.1v1s0,1,0,1c2.3,0,4.4.1,6.3.1v-1ZM877.9,139v-1c-2.2,0-4.1-.1-5.6-.1v2c1.5,0,3.4,0,5.6.1v-1ZM872.3,138.9v-1c-1.6,0-3.5,0-5.8.1v1s0,1,0,1c2.3,0,4.2-.1,5.7-.1v-1ZM866.5,139v-1c-2.2,0-4.2.1-6,.1v2c1.8,0,3.8,0,6.1-.1v-1ZM860.5,139.1h1c0-.9,0-1.7,0-2.5h-1c0-.1-1-.2-1-.2,0,.9,0,1.8,0,2.8h1ZM860.5,136.6v1c3.1-.3,5.3-.7,6.7-1.2l-.3-.9-.3-.9c-1.2.4-3.2.8-6.2,1.1v1ZM866.9,135.4l.3.9c1.6-.5,2.6-1.6,3-3.2l-1-.2-1-.2c-.2.8-.7,1.4-1.6,1.7l.3.9ZM869.2,133l1,.3c.4-1.4.5-3.6.5-6.4h-2c0,2.8-.2,4.7-.5,5.9l1,.3ZM869.7,126.8h1v-63.6h-2v63.6h1ZM869.7,63.2h1c0-3.3-.2-5.8-.5-7.4l-1,.2-1,.2c.3,1.3.5,3.6.5,6.9h1ZM869.2,56.1l1-.2c-.4-1.9-1.5-3.2-3.3-3.8l-.3.9-.3.9c1.1.4,1.8,1.1,2,2.3l1-.2ZM866.5,53l.4-.9c-1.5-.6-3.9-1-7-1.3v1c-.1,0-.2,1-.2,1,3.1.3,5.3.8,6.5,1.2l.4-.9ZM859.7,51.7h1c0-.8,0-1.5,0-2.3h-1c0,0-1-.2-1-.2,0,.9,0,1.8,0,2.6h1ZM859.7,49.3v1c1.9,0,4,0,6.1.1v-1s0-1,0-1c-2.1,0-4.2-.1-6.2-.1v1ZM865.9,49.4v1c2.2,0,4.4.1,6.5.1v-2c-2.1,0-4.3,0-6.5-.1v1ZM872.4,49.5v1h2.4v-2h-2.4v1ZM874.8,49.5v1c1.5,0,2.8,0,3.9-.1v-1c0,0-.2-1-.2-1-1.1,0-2.3.1-3.8.1v1ZM878.7,49.4l-.8.6,57.1,74.1.8-.6.8-.6-57.1-74.1-.8.6ZM935.8,123.5h1v-60.7h-2v60.7h1ZM935.8,62.8h1c0-2.3,0-4.1-.1-5.4h-1c0,0-1,.1-1,.1,0,1.2.1,3,.1,5.3h1ZM935.6,57.5h1c0-1.6-.5-2.9-1.5-3.7l-.7.8-.7.8c.4.3.7,1,.8,2.3h1ZM934.5,54.5l.8-.7c-.8-.9-2.2-1.6-3.8-2.1-1.7-.5-3.8-.8-6.3-1v1c0,0-.1,1-.1,1,2.5.2,4.5.5,5.9.9,1.5.4,2.4.9,2.9,1.5l.8-.7ZM925,51.8h1c0-.9,0-1.6,0-2.3h-1c0-.1-1-.2-1-.2,0,.8,0,1.7,0,2.6h1ZM925,49.4v1c1.8,0,4,0,6.6.1v-1s0-1,0-1c-2.7,0-4.9-.1-6.7-.1v1ZM931.7,49.5v1h6.3v-2h-6.3v1ZM937.9,49.5v1h5.6v-2h-5.6v1ZM943.6,49.5v1c2.3,0,4.4-.1,6.3-.1v-2c-1.9,0-4,0-6.3.1v1ZM949.8,49.4h-1c0,.8,0,1.5,0,2.3h1c0,0,1,.2,1,.2,0-.9,0-1.8,0-2.6h-1ZM949.8,51.8v-1c-3.1.3-5.4.8-6.9,1.3l.4.9.4.9c1.2-.5,3.3-.9,6.3-1.2v-1ZM943.3,53.1l-.3-.9c-1.6.5-2.7,1.6-3.1,3.3l1,.3,1,.3c.3-.9.8-1.5,1.8-1.9l-.3-.9ZM940.9,55.7l-1-.2c-.3,1.3-.4,3.4-.4,6.2h2c0-2.8.1-4.7.4-5.8l-1-.2ZM940.5,61.7h-1v77.4h2V61.7h-1ZM940.5,139.1l-.3-1c-.5.1-1.3.3-2.4.3v1c0,0,.2,1,.2,1,1.1,0,2.1-.2,2.8-.4l-.3-1ZM937.9,139.5v-1c-1.1,0-2,.1-2.7.1v2c.8,0,1.7,0,2.8-.1v-1ZM984.7,139.1h-1c0,0,0,1,0,1h.9v-1ZM984.7,136.6v-1c0,0-.9,0-.9,0v.8c0,0,.9,0,.9,0ZM991.3,135.8l-.2-1h0s.2,1,.2,1ZM993.7,134l-.9-.3h0s0,0,0,0l1,.3ZM994.2,53.2h1v-1h-1v1ZM970.3,54.4l-.4-.9h0l.4.9ZM966.3,58.5l.9.4h0s-.9-.4-.9-.4ZM963.4,66.8v1c.1,0,.8,0,.8,0l.2-.6-1-.3ZM960.9,66.8h-1c0-.1-.2.9-.2.9h1c0,.1,0-.9,0-.9ZM962.1,57.7h1c0,.1,0,.1,0,.1h-1ZM963,49.1v-1c0,0-.9,0-.9,0v.9c0,0,.9,0,.9,0ZM977.4,49.5v1s0,0,0,0h0v-1ZM1021.6,49.5v1h0s0-1,0-1ZM1035.9,49.1h1c0,0,0-1,0-1h-1s0,1,0,1ZM1037.7,66.8v1c0,0,1.1,0,1.1,0v-1c-.1,0-1.1.1-1.1.1ZM1035.2,66.8l-1,.3.2.6h.7c0,0,.1-.9.1-.9ZM1032.1,58.4l.9-.4h0l-.9.4ZM1028.1,54.4l-.4.9h0s0,0,0,0l.4-.9ZM1004.5,53.2v-1h-1v1h1ZM1004.8,133.6l-1,.2h0s0,0,0,0l1-.3ZM1007.3,135.8l-.3,1h0s0,0,0,0l.2-1ZM1013.9,136.6h1c0,0,0-.9,0-.9h-.8c0,0,0,.9,0,.9ZM1013.9,139.1v1h.9v-.9c0,0-.9,0-.9,0ZM1009.2,139v-1c0,0,0,0,0,0h0v1ZM1003.8,139v1s0,0,0,0h0v-1ZM992.2,139v-1h0v1ZM984.7,139.1h1c0-.9,0-1.7,0-2.5h-1c0-.1-1-.2-1-.2,0,.9,0,1.8,0,2.8h1ZM984.7,136.6v1c3.2-.3,5.4-.5,6.7-.8l-.2-1-.2-1c-1.2.2-3.3.5-6.4.8v1ZM991.3,135.8l.2,1c1.6-.3,2.8-1.1,3.2-2.5l-1-.3-1-.3c-.1.4-.5.9-1.7,1.1l.2,1ZM993.7,134l1,.3c.4-1.2.6-2.9.6-5.2h-2c0,2.2-.2,3.7-.5,4.5l.9.3ZM994.2,129.1h1V53.2h-2v75.9h1ZM994.2,53.2v-1h-16.3v2h16.3v-1ZM978,53.2v-1c-3.5,0-6.2.4-8.1,1.2l.4.9.4.9c1.5-.7,3.9-1.1,7.3-1.1v-1ZM970.3,54.4l-.4-.9c-2,.9-3.4,2.4-4.5,4.6l.9.4.9.4c.9-1.8,2-3,3.5-3.6l-.4-.9ZM966.3,58.5l-.9-.4c-1,2-2,4.8-3,8.5l1,.3,1,.3c1-3.6,2-6.4,2.9-8.1l-.9-.4ZM963.4,66.8v-1c-.8,0-1.5,0-2.3,0v1c-.1,0-.2,1-.2,1,.9,0,1.8,0,2.6,0v-1ZM960.9,66.8h1c.4-2.9.8-5.9,1.2-9h-1c0-.1-1-.2-1-.2-.3,3.1-.7,6.1-1.1,9.1h1ZM962.1,57.7h1c.3-3.1.6-5.9.9-8.5h-1c0,0-1-.2-1-.2-.3,2.6-.6,5.4-.9,8.6h1ZM963,49.1v1c4,.2,8.8.3,14.5.4v-1s0-1,0-1c-5.6,0-10.4-.2-14.4-.4v1ZM977.4,49.5v1h22v-2h-22v1ZM999.5,49.5v1h22.2v-2h-22.2v1ZM1021.6,49.5v1c5.6,0,10.3-.2,14.4-.4v-1c0,0,0-1,0-1-4,.2-8.8.3-14.3.4v1ZM1035.9,49.1h-1c.2,2.6.4,5.4.8,8.6h1c0-.1,1-.2,1-.2-.3-3.1-.6-6-.8-8.4h-1ZM1036.7,57.6h-1c.3,3.3.7,6.3,1,9.3h1c0-.1,1-.2,1-.2-.3-3-.7-6.1-1-9.2h-1ZM1037.7,66.8v-1c-1,0-1.8,0-2.4,0v1c-.1,0-.2,1-.2,1,.8,0,1.8,0,2.8,0v-1ZM1035.2,66.8l1-.3c-1.1-3.7-2.2-6.6-3.1-8.6l-.9.4-.9.4c.9,1.9,1.9,4.7,3,8.3l1-.3ZM1032.1,58.4l.9-.4c-1-2.1-2.5-3.7-4.5-4.5l-.4.9-.4.9c1.4.6,2.6,1.7,3.4,3.5l.9-.4ZM1028.1,54.4l.4-.9c-1.8-.9-4.5-1.2-8-1.2v2c3.4,0,5.7.4,7.1,1.1l.4-.9ZM1020.6,53.2v-1h-16.1v2h16.1v-1ZM1004.5,53.2h-1v74.8h2V53.2h-1ZM1004.5,128h-1c0,2.6.1,4.5.4,5.8l1-.2,1-.2c-.2-1.1-.4-2.9-.4-5.4h-1ZM1004.8,133.6l-1,.3c.5,1.5,1.6,2.4,3.1,2.8l.3-1,.3-1c-1-.3-1.5-.8-1.7-1.5l-1,.3ZM1007.3,135.8l-.2,1c1.4.3,3.7.5,6.8.8v-1c0,0,.2-1,.2-1-3.1-.3-5.2-.5-6.6-.8l-.2,1ZM1013.9,136.6h-1c0,.9,0,1.7,0,2.5h1c0,.1,1,.2,1,.2,0-.9,0-1.8,0-2.8h-1ZM1013.9,139.1v-1c-1.3,0-2.8,0-4.7-.1v1c0,0,0,1,0,1,1.9,0,3.5.1,4.8.1v-1ZM1009.2,139v-1h-5.4v2h5.4v-1ZM1003.8,139v-1c-1.8,0-3.3-.1-4.5-.1v2c1.2,0,2.6,0,4.4.1v-1ZM999.3,138.9v-1c-1.8,0-4.2,0-7.2.1v1s0,1,0,1c3,0,5.4-.1,7.1-.1v-1ZM992.2,139v-1c-3,0-5.5.1-7.4.1v2c2,0,4.5,0,7.5-.1v-1Z"/>
  </g>
  <path class="st2" d="M137.3,2.5c7.2,0,13.9,1.5,19.3,4.8,5.3,3.3,9.4,8.4,11.5,15.8h0c3.4,12.4,3.4,24.9,1.3,38.4l-.2,1.1.9-.6,22-13.4-20.7,96.9c-1.4,2.2-3.5,3.9-6.1,5.2-2.4,1.3-5.2,2.3-7.8,3.1-.7-3.6-.2-7.5,3.2-11.6l.4-.5-.6-.3-7.4-3.5-.6-.3v.6c-2.1,10.2-4.3,26.8-8.2,41-1.9,7.1-4.3,13.4-7.2,18-3,4.6-6.4,7.2-10.6,7.1-4.1-.1-7.4-3.3-10.2-8.5-2.8-5.1-4.9-12-6.9-19.1-2-7.1-3.7-14.4-5.7-20.3-1-3-2-5.6-3.2-7.7-1.2-2.1-2.5-3.7-4-4.5l-.3-.2h0c-.6-.2-1.2,0-1.7.2-.6.3-1.3,1-1.8,1.7-1.2,1.6-2.4,3.9-3.5,6.6-2.2,5.4-4.3,12.4-5.7,17.5-2,7.3-4,15.9-7,22.7-1.5,3.4-3.2,6.3-5.2,8.3-2,2-4.3,3.2-7,3.1-3.9,0-7.3-2.8-10.1-7.4-2.9-4.6-5.2-10.8-7.1-17.8-3.8-13.9-6-30.1-7.8-40v-.6c0,0-.6.2-.6.2l-7.1,2.1-.8.2.6.6c2.9,3.1,3.8,7.2,3.7,11.9-5.5-1.7-9.9-3.9-13.4-7.3L.7,48.7l20.5,12.4.9.5v-1c-1.4-9.3-2-19-.7-27.8,1.3-8.7,4.6-16.4,11.1-21.5,8.9-6.9,19.1-8,29.5-6.2,10.5,1.8,21.2,6.5,31,11h.2c0,.1.2,0,.2,0,12.6-8.1,29.2-13.7,43.7-13.6ZM143.1,136c-30.6-4.2-63.3-4.5-94.3.3h-.5c0,0,0,.6,0,.6,1.9,15.2,4.6,29.5,8.8,44.1l.4,1.4c1.4,4.9,3.6,8.8,6.6,13.2l.5.7.4-.7c3.2-5.9,5-10.9,6.7-16.6l.3-1.2,7.6-25.6h0c1.7-5.8,5.2-11.1,10-15,5-4,12.6-1.9,16.6,4l.2.3c4.7,7.3,6.7,15,9.3,23.3l8.1,26.6h0c.1.4.4.8.7,1.2.3.4.7.8,1,1.1.8.7,1.6,1.4,2,1.7l.5.3.3-.5c9.4-17.2,12-38.8,15.2-58.5v-.5c0,0-.4,0-.4,0ZM63.3,98.8l-16.5,25.7-22.2-12.9-1-.6.2,1.1,4.1,20.1v.6c.1,0,.7-.2.7-.2,31-10.6,75-10.2,108-6.5,9.7,1.1,17.7,3.2,28,6.5h.2c0,0,.2,0,.2,0h0s.2-.1.2-.1v-.2s4.1-20.4,4.1-20.4l.2-1.1-1,.6-22.3,13.1-16.5-25.6-.3-.4-.4.3-32.6,20.4-32.4-20.5-.4-.3-.3.4ZM177.6,68.3l-40.1,25-.4.3.3.4,11.6,17.8.3.4.4-.2,22.3-13.4h.2c0-.1,0-.3,0-.3l6.2-29.4.2-1.1-1,.6ZM14.3,68.6l6.1,29.6v.2s.2.1.2.1l22.5,13.2-.2.3h2.8l-1.2-.7,10.9-17.4.3-.4-.4-.3-40.3-25.2-1-.6.2,1.1ZM96,47.7l-27.4,42.7-.3.4.4.3,27.3,16.9v.6l.8-.5,27.3-17.1.4-.3-.3-.4-27.4-42.6-.4-.7-.4.7ZM139.7,11.5c-12-.2-23.3,2.4-34.2,8.6l-.9.5,1,.4c8.1,3.1,14.9,4.5,23.2,5.8v9c-15.7-1.7-29.6-6.9-43.9-13.5-10-4.6-20-9.1-31.2-9.1s-21.2,7.4-23.1,19.2c-2,12.1-.1,24.3,3.3,36.5v.2c0,0,.2.1.2.1l26.3,16.3.4.3.3-.4,35.5-55.2,35.4,55.2.3.4.4-.3,26.1-16.2h.2c0-.1,0-.3,0-.3,2.6-13.5,3.8-27.4,1.3-40.8h0s0,0,0,0v-.5c-1.3-5-3.8-9-7.2-11.7-3.4-2.8-7.8-4.3-12.8-4.5h-.5Z"/>
  <path class="st4" d="M220,2v205"/>
</svg>