<?xml version="1.0" encoding="UTF-8"?>
<svg version="1.1" xmlns="http://www.w3.org/2000/svg" width="512" height="512">
<path d="M0 0 C13.66486543 5.88979767 29.56509592 6.82652704 43.671875 1.75097656 C48.28683907 -0.14475119 52.89080177 -2.06622631 57.48583984 -4.00976562 C84.08677031 -15.08101902 116.45988774 -16.91065036 143.49609375 -6.21386719 C145.3221495 -5.36752112 147.13554048 -4.49318222 148.93359375 -3.58886719 C149.85140625 -3.14800781 150.76921875 -2.70714844 151.71484375 -2.25292969 C171.83610833 7.97726382 184.59856345 25.43136873 191.93359375 46.41113281 C209.49013829 102.07822526 187.65698642 162.86570639 161.93359375 212.41113281 C160.56374985 214.99370994 159.17593414 217.56634398 157.78515625 220.13769531 C142.40986954 248.63469126 134.14535488 277.19621528 127.54501343 308.75440979 C114.05032837 373.22043288 114.05032837 373.22043288 95.93359375 385.41113281 C89.05442858 388.9584003 81.14907701 389.63309663 73.6328125 387.87207031 C65.9329304 385.23293935 61.53351995 380.56612631 57.93359375 373.41113281 C54.62679302 365.87283327 52.53037158 358.2342064 50.9375 350.18847656 C50.76524902 349.32026779 50.59299805 348.45205902 50.41552734 347.55754089 C48.77686272 339.02873521 47.68152823 330.46689478 46.72412109 321.83859253 C46.42341491 319.13201577 46.11141225 316.42692631 45.796875 313.72192383 C44.98339443 306.70761381 44.18874709 299.69122145 43.40234375 292.67382812 C41.75186854 255.12606617 41.75186854 255.12606617 25.93359375 223.41113281 C23.43359375 222.66113281 23.43359375 222.66113281 20.93359375 223.41113281 C14.07185197 230.91616289 11.84640008 240.88960197 9.93359375 250.61425781 C9.76162476 251.4838765 9.58965576 252.35349518 9.41247559 253.24946594 C7.77808363 261.78344602 6.68200487 270.35107533 5.72412109 278.9836731 C5.42341491 281.69024985 5.11141225 284.39533931 4.796875 287.1003418 C3.98339443 294.11465182 3.18874709 301.13104417 2.40234375 308.1484375 C-4.56893455 370.2341091 -4.56893455 370.2341091 -19.50390625 384.78613281 C-25.50918569 388.5943588 -32.12969046 389.2366926 -39.06640625 388.41113281 C-50.28851512 385.48886554 -56.19571055 380.26686177 -62.06640625 370.41113281 C-66.41306467 362.07767004 -69.49779023 353.53000509 -71.9375 344.46191406 C-72.19362061 343.51550552 -72.44974121 342.56909698 -72.71362305 341.5940094 C-76.04507105 329.03135408 -78.6103838 316.29945073 -81.24365234 303.57641602 C-84.27118173 289.00220776 -87.55834434 274.60718324 -92.06640625 260.41113281 C-92.28438873 259.72322662 -92.50237122 259.03532043 -92.72695923 258.3265686 C-96.58650891 246.47983152 -102.37608895 235.60995226 -108.14865112 224.60339355 C-130.39270294 182.10030121 -150.58749992 136.61631413 -150.44140625 87.72363281 C-150.44086243 87.03035889 -150.4403186 86.33708496 -150.4397583 85.62280273 C-150.34589769 59.44695671 -143.61764415 34.44098065 -126.06640625 14.41113281 C-125.4734375 13.72277344 -124.88046875 13.03441406 -124.26953125 12.32519531 C-92.7383191 -21.76624347 -38.75729064 -16.90594483 0 0 Z M-117.234375 24.24316406 C-136.85215281 47.45823162 -139.02497756 77.22578939 -136.85107422 106.29003906 C-136.29502308 111.7513687 -135.30075239 117.06562661 -134.06640625 122.41113281 C-133.86772949 123.28576172 -133.66905273 124.16039062 -133.46435547 125.06152344 C-128.09920789 148.12964862 -119.84368985 169.88409788 -110.06640625 191.41113281 C-109.5564209 192.55074463 -109.5564209 192.55074463 -109.03613281 193.71337891 C-105.10362219 202.49066276 -100.72726011 210.93579522 -96.06640625 219.34863281 C-80.16267145 248.20187897 -72.78215671 278.73050838 -66.09375 310.81347656 C-61.01203928 345.35435168 -61.01203928 345.35435168 -42.81640625 373.03613281 C-38.34863648 375.2700177 -35.04392633 375.67310755 -30.06640625 375.41113281 C-26.07003875 374.06111232 -24.9043386 371.92446941 -23.06640625 368.22363281 C-17.6080931 356.46228926 -15.4170923 343.99103673 -13.69140625 331.22363281 C-13.48451866 329.74924741 -13.27748184 328.27488295 -13.0703125 326.80053711 C-11.7649346 317.35353866 -10.64714774 307.88882977 -9.58984375 298.41113281 C-9.46324371 297.28301682 -9.33664368 296.15490082 -9.20620728 294.99259949 C-8.58153125 289.40897172 -7.97095672 283.82442344 -7.38525391 278.23657227 C-1.71146455 225.59102063 -1.71146455 225.59102063 12.484375 213.04003906 C17.50974397 209.57385379 23.04359634 209.60486516 28.93359375 210.41113281 C35.01415423 211.98873527 38.40429115 215.40004844 41.56640625 220.71582031 C52.8650288 242.99024763 54.07845062 269.89405513 56.7522583 294.36761475 C57.47736947 301.00215506 58.21410928 307.63535318 58.96875 314.26660156 C59.0490703 314.97276863 59.1293906 315.6789357 59.21214485 316.40650177 C61.43237158 346.71485534 61.43237158 346.71485534 73.93359375 373.41113281 C77.66282704 375.81733935 80.43584018 375.55892343 84.6953125 374.93847656 C90.597977 373.54779645 94.15427323 369.54230498 97.5 364.76269531 C108.94615075 345.98726547 111.68562832 320.9745026 116.03540039 299.80273438 C122.36673467 269.10957734 131.28832121 241.5345489 146.27856445 214.01882935 C171.53524687 167.63298804 196.3393978 107.3691394 180.6796875 53.97363281 C174.49329977 34.40546567 163.04092815 19.22750749 144.93359375 9.41113281 C120.55816115 -2.73116343 92.94145676 -2.06902653 67.55859375 6.28613281 C62.60737411 7.97148709 57.84030029 9.83149585 53.12109375 12.09863281 C43.59198709 16.63005815 33.37311537 17.8656443 22.93359375 18.41113281 C26.19480883 23.4388394 29.45680427 24.73242339 34.93359375 26.41113281 C36.08859375 26.80300781 37.24359375 27.19488281 38.43359375 27.59863281 C39.25859375 27.86675781 40.08359375 28.13488281 40.93359375 28.41113281 C42.36256311 33.65068713 42.36256311 33.65068713 40.55859375 36.84863281 C36.52927653 39.24703592 33.36840873 38.49837777 28.93359375 37.41113281 C21.00224051 35.08164445 15.78988651 30.03576842 9.93359375 24.41113281 C-9.44451725 6.12801781 -34.57273533 -0.27242497 -60.84375 0.13378906 C-82.29965987 0.94337004 -102.28407038 8.50119361 -117.234375 24.24316406 Z " fill="#000000" transform="translate(194.06640625,120.5888671875)"/>
<path d="M0 0 C0.74121094 -0.01933594 1.48242188 -0.03867187 2.24609375 -0.05859375 C5.6429074 0.66888573 7.10071562 1.96808218 9.5625 4.4375 C11.8570754 8.04864259 13.72257461 11.88497797 15.63671875 15.70703125 C20.17614148 24.36796161 26.31681514 28.63148011 34.8125 33.125 C36.21607846 33.87417281 37.61722329 34.62792691 39.015625 35.38671875 C39.93069824 35.87144653 39.93069824 35.87144653 40.86425781 36.3659668 C43.50128307 38.02984027 45.28398555 39.49619167 46.1796875 42.5234375 C46.26476562 43.27882812 46.34984375 44.03421875 46.4375 44.8125 C46.53804688 45.56273437 46.63859375 46.31296875 46.7421875 47.0859375 C46.48497867 50.45201824 45.72672295 51.79682498 43.5625 54.4375 C40.56434612 56.50713516 37.39597748 58.21764045 34.1875 59.9375 C25.68307009 64.53762345 20.17097693 68.67893272 15.5 77.375 C8.91414783 89.41211199 8.91414783 89.41211199 5.75 91.8125 C1.69616779 92.97073778 -1.9124237 93.04802487 -5.84765625 91.47265625 C-9.61946286 88.50868756 -11.28755985 84.7884761 -13.4375 80.5625 C-17.11559266 73.40171335 -20.68933805 68.0080625 -27.5625 63.5 C-28.33078125 62.99597656 -29.0990625 62.49195313 -29.890625 61.97265625 C-32.63627554 60.31768591 -35.4532225 58.88604932 -38.3125 57.4375 C-41.68524042 55.61886546 -43.32356263 54.58625157 -45.6875 51.5 C-46.63206779 47.64301486 -46.54929149 45.25928324 -45.4375 41.4375 C-41.06828625 36.2632104 -35.63176137 33.51001221 -29.76367188 30.36328125 C-20.64466352 25.25663657 -16.41767834 18.09532422 -11.6953125 9.046875 C-8.84000251 3.73841136 -6.53992819 0.01133436 0 0 Z M-0.4375 16.4375 C-1.39192671 18.07366007 -2.34163394 19.7127591 -3.26708984 21.36547852 C-9.86376422 33.04382132 -17.35598344 39.47577968 -29.4375 45.4375 C-29.4375 46.0975 -29.4375 46.7575 -29.4375 47.4375 C-28.53386719 47.90800781 -27.63023437 48.37851562 -26.69921875 48.86328125 C-25.50766014 49.49189878 -24.31626228 50.12082109 -23.125 50.75 C-22.53009766 51.05873047 -21.93519531 51.36746094 -21.32226562 51.68554688 C-18.24574762 53.31833576 -15.82984462 54.92127994 -13.4375 57.4375 C-12.7775 57.4375 -12.1175 57.4375 -11.4375 57.4375 C-11.19 57.96085937 -10.9425 58.48421875 -10.6875 59.0234375 C-9.08099465 62.12600095 -7.26889843 65.0897953 -5.4375 68.0625 C-5.08171875 68.64773437 -4.7259375 69.23296875 -4.359375 69.8359375 C-2.86084793 72.27383975 -1.46857028 74.40642972 0.5625 76.4375 C1.0471875 75.5196875 1.531875 74.601875 2.03125 73.65625 C8.98938718 60.77763879 16.32646587 53.89410202 29.5625 47.4375 C29.5625 46.7775 29.5625 46.1175 29.5625 45.4375 C28.6446875 44.96441406 27.726875 44.49132812 26.78125 44.00390625 C14.92229183 37.69852972 8.42378804 30.63087521 1.91015625 18.74609375 C1.46542969 17.98425781 1.02070313 17.22242187 0.5625 16.4375 C0.2325 16.4375 -0.0975 16.4375 -0.4375 16.4375 Z " fill="#000000" transform="translate(379.4375,2.5625)"/>
<path d="M0 0 C3.53107903 2.70055209 4.88437329 5.85369449 6.82421875 9.78125 C10.41066142 16.5660866 13.57479832 20.51570259 20.57421875 23.96875 C22.39569539 24.99463914 24.20824133 26.0365391 26.01171875 27.09375 C26.83542969 27.55007812 27.65914063 28.00640625 28.5078125 28.4765625 C30.83864313 30.1596954 31.64041435 31.26939192 32.57421875 33.96875 C32.57421875 38.81552121 32.52667381 40.91332682 29.26171875 44.53125 C25.22496222 47.44832224 20.75532021 49.76418636 16.37890625 52.125 C10.44473163 56.0260173 7.64699039 62.17284164 4.2578125 68.2265625 C1.86218223 72.12849393 0.73523635 73.66206611 -3.73828125 74.84375 C-8.13617602 74.99283118 -9.75930902 74.37399329 -13.42578125 71.96875 C-15.26509356 69.47927057 -16.61738676 66.80030814 -17.98828125 64.03125 C-22.44361048 55.17638279 -27.91485916 51.48628037 -36.51757812 46.96875 C-39.94287112 45.09308154 -42.24930241 43.80004621 -43.42578125 39.96875 C-43.9279632 35.24823972 -43.30239138 32.73003189 -40.42578125 28.96875 C-37.94072509 27.31265886 -35.28774525 26.03968533 -32.61328125 24.71875 C-25.82844465 21.13230733 -21.87882866 17.96817043 -18.42578125 10.96875 C-17.39989211 9.14727336 -16.35799215 7.33472742 -15.30078125 5.53125 C-14.84445312 4.70753906 -14.388125 3.88382812 -13.91796875 3.03515625 C-10.4804068 -1.72523713 -5.24951369 -2.23167732 0 0 Z M-6.42578125 16.96875 C-7.47907995 18.6235062 -8.46750436 20.31971219 -9.42578125 22.03125 C-13.45721783 28.60885706 -18.57458134 32.54315004 -25.42578125 35.96875 C-25.42578125 36.62875 -25.42578125 37.28875 -25.42578125 37.96875 C-23.77102505 39.0220487 -22.07481906 40.01047311 -20.36328125 40.96875 C-13.78567419 45.00018658 -9.85138121 50.11755009 -6.42578125 56.96875 C-5.76578125 56.96875 -5.10578125 56.96875 -4.42578125 56.96875 C-3.46639432 55.46580948 -2.58348501 53.91374493 -1.73828125 52.34375 C2.35438019 45.3035757 7.10025502 41.25000237 14.57421875 37.96875 C14.57421875 37.30875 14.57421875 36.64875 14.57421875 35.96875 C12.91946255 34.9154513 11.22325656 33.92702689 9.51171875 32.96875 C2.93411169 28.93731342 -1.00018129 23.81994991 -4.42578125 16.96875 C-5.08578125 16.96875 -5.74578125 16.96875 -6.42578125 16.96875 Z " fill="#000000" transform="translate(450.42578125,124.03125)"/>
<path d="M0 0 C3.19670394 3.43257724 5.19281153 7.19003989 7.375 11.3125 C11.20846905 18.06470886 16.06877755 21.00000282 22.92578125 24.31640625 C25.96089278 25.97858296 27.35610513 27.00061287 29 30 C29.58767282 34.62792345 29.84427068 36.77726315 27.1875 40.625 C24.34975838 42.73939572 21.7014147 44.21738395 18.5625 45.8125 C10.57035295 50.01776395 7.16063283 56.25703353 3.17578125 64.1171875 C2 66 2 66 -1 68 C-6.59016393 68.63114754 -6.59016393 68.63114754 -9 68 C-12.93406882 64.69948521 -15.04783692 61.27321838 -17.375 56.75 C-20.91088002 50.39513041 -25.36731697 47.2791095 -31.80810547 44.06738281 C-36.33715169 41.75452969 -38.27582661 39.80214219 -40 35 C-40.0625 31.9375 -40.0625 31.9375 -39 29 C-35.65005408 25.56415803 -32.01479188 23.39704345 -27.875 21 C-21.18322661 17.0448623 -18.26169164 11.93154668 -14.46484375 5.3046875 C-10.63518571 -0.72064115 -7.01142623 -1.72210469 0 0 Z M-6 17 C-6.87471834 18.36201818 -7.72397503 19.74040563 -8.5625 21.125 C-11.29087483 25.31995888 -14.1491288 28.00841901 -18.265625 30.80859375 C-20.14058111 32.01893758 -20.14058111 32.01893758 -22 34 C-21.02160156 34.60134766 -21.02160156 34.60134766 -20.0234375 35.21484375 C-14.30223905 38.93615424 -10.56540899 42.34104656 -7.15625 48.27734375 C-6.58390625 49.13005859 -6.58390625 49.13005859 -6 50 C-5.34 50 -4.68 50 -4 50 C-3.1138664 48.67978068 -2.29185128 47.31633406 -1.5 45.9375 C1.9915538 40.44829105 6.52504968 37.36503863 12 34 C11.39414062 33.55011719 10.78828125 33.10023438 10.1640625 32.63671875 C8.53472273 31.40442026 6.94437429 30.12031191 5.375 28.8125 C3.23295035 26.79777556 3.23295035 26.79777556 1 27 C0.7525 26.46375 0.505 25.9275 0.25 25.375 C-1.30084957 22.42838581 -3.08305558 19.72082434 -5 17 C-5.33 17 -5.66 17 -6 17 Z " fill="#000000" transform="translate(317,151)"/>
</svg>
