<svg width="1144" height="205" viewBox="0 0 1144 205" fill="none" xmlns="http://www.w3.org/2000/svg">
<path d="M288.955 122.759L285.328 122.358V163.777C285.328 167.251 285.555 169.656 285.895 171.259C286.235 172.729 287.255 173.664 288.615 174.199C290.202 174.6 292.695 174.867 296.209 175.268C296.209 176.47 296.209 177.539 296.209 178.741C294.849 178.741 293.035 178.741 290.882 178.608H284.535C282.495 178.608 280.795 178.474 279.434 178.474C278.074 178.474 276.488 178.474 274.334 178.608H268.214C266.174 178.608 264.473 178.741 263.113 178.741C263.113 177.539 263.113 176.47 263.113 175.268C266.514 174.867 268.894 174.6 270.367 174.199C271.954 173.798 272.861 172.996 273.087 171.794C273.427 170.458 273.654 168.32 273.654 165.247V73.3238C273.654 69.85 273.427 67.445 273.087 65.9753C272.747 64.5056 271.727 63.5704 270.141 63.0359C268.667 62.6351 266.287 62.2343 263 61.967C263 60.7646 263 59.6957 263 58.4932C264.36 58.4932 266.06 58.4932 268.1 58.6268C270.254 58.6268 272.294 58.6268 274.334 58.7604H285.102C287.595 58.7604 290.089 58.6268 292.695 58.6268C295.189 58.6268 297.002 58.4932 298.249 58.4932C303.803 58.4932 308.903 59.4285 313.663 61.4326C318.424 63.4367 322.277 66.5098 325.111 70.7853C328.058 75.0607 329.645 80.6723 329.645 87.8872C329.645 95.1021 327.491 103.119 323.297 108.463C318.99 113.674 313.323 117.682 306.183 120.221V120.755C307.543 121.557 308.79 122.626 309.923 123.828C311.17 125.031 312.53 126.634 314.117 128.905C315.25 130.642 316.95 133.314 319.104 137.055C321.371 140.796 323.637 144.938 326.018 149.347C328.511 153.623 330.778 157.765 332.818 161.506C335.085 165.648 336.898 168.587 338.485 170.458C340.072 172.195 341.772 173.264 343.585 173.932C345.399 174.332 347.892 174.733 350.953 175.134C350.953 176.337 350.953 177.405 350.953 178.608C349.593 178.608 347.892 178.608 345.739 178.474H339.505C337.578 178.474 336.105 178.341 334.972 178.341C333.838 178.341 332.705 178.341 331.685 178.474H328.511C327.491 176.337 325.904 173.397 323.864 169.522C321.824 165.648 319.557 161.372 317.064 156.83C314.57 152.287 312.077 147.878 309.47 143.469C307.09 139.06 304.823 135.318 302.896 132.245C301.196 129.573 299.836 127.569 298.589 126.233C297.342 125.031 295.982 124.095 294.509 123.694C293.149 123.294 291.335 122.893 288.955 122.626V122.759ZM285.328 117.281C286.575 117.548 287.708 117.682 288.615 117.816H291.335C299.042 117.816 305.276 115.544 309.923 111.135C314.684 106.593 317.064 99.5112 317.064 89.8914C317.064 80.2715 315.137 74.7935 311.17 70.3844C307.203 65.8417 301.309 63.5704 293.602 63.5704C285.895 63.5704 288.388 63.704 285.328 64.1048V117.281ZM458.853 117.816C458.853 130.108 456.7 141.064 452.28 150.416C447.973 159.769 441.739 167.117 433.805 172.462C425.871 177.806 416.464 180.478 405.696 180.478C394.929 180.478 385.748 177.806 378.041 172.595C370.334 167.385 364.327 160.17 360.247 151.084C356.053 141.865 354.013 131.31 354.013 119.553C354.013 107.795 356.166 96.7054 360.587 87.2192C364.894 77.7329 371.127 70.3844 379.061 65.0401C387.108 59.5621 396.516 56.8899 407.397 56.8899C418.277 56.8899 427.231 59.5621 434.825 64.7728C442.532 69.85 448.539 77.0649 452.62 86.2839C456.927 95.3693 458.967 105.924 458.967 117.816H458.853ZM445.932 119.419C445.932 112.204 445.252 105.256 443.779 98.4424C442.306 91.6283 440.039 85.4823 436.979 80.0043C433.918 74.5263 429.838 70.2508 424.738 67.0442C419.751 63.704 413.63 62.1007 406.49 62.1007C399.349 62.1007 393.229 63.704 388.242 67.0442C383.255 70.2508 379.175 74.5263 376.001 80.0043C372.941 85.4823 370.674 91.6283 369.201 98.3087C367.727 104.856 367.047 111.67 367.047 118.484C367.047 125.298 367.727 132.112 369.201 138.792C370.674 145.473 372.941 151.619 376.114 157.23C379.288 162.842 383.482 167.251 388.582 170.591C393.682 173.932 399.916 175.535 407.17 175.535C414.424 175.535 420.317 173.932 425.304 170.725C430.291 167.518 434.372 163.376 437.319 158.032C440.265 152.688 442.532 146.675 443.892 139.861C445.252 133.047 445.932 126.233 445.932 119.285V119.419ZM538.305 75.4616L514.05 126.099V163.777C514.05 167.251 514.164 169.656 514.504 171.259C514.844 172.729 515.864 173.664 517.451 174.199C519.037 174.6 521.531 174.867 525.158 175.268C525.158 176.47 525.158 177.539 525.158 178.741C523.684 178.741 521.871 178.741 519.831 178.608H513.484C511.444 178.608 509.743 178.474 508.383 178.474C507.023 178.474 505.323 178.474 503.17 178.608H496.936C494.782 178.608 492.969 178.741 491.609 178.741C491.609 177.539 491.609 176.47 491.609 175.268C495.236 174.867 497.729 174.6 499.203 174.199C500.79 173.798 501.696 172.863 502.15 171.66C502.49 170.458 502.716 168.32 502.716 165.381V127.436L477.895 74.7935C476.195 71.0525 474.721 68.3803 473.701 66.777C472.681 65.0401 471.548 63.9712 470.074 63.3031C468.714 62.7687 466.561 62.3679 463.727 62.1007C463.727 60.8982 463.727 59.8293 463.727 58.6268C466.221 58.6268 468.941 58.6268 471.888 58.7604C474.834 58.7604 477.668 58.894 480.275 58.894C482.882 58.894 484.922 58.894 487.642 58.7604C490.476 58.7604 493.082 58.6268 495.576 58.6268C495.576 59.8293 495.576 60.8982 495.576 62.1007C492.629 62.1007 490.476 62.5015 489.229 63.1695C487.982 63.5704 487.302 64.5056 487.302 65.7081C487.302 66.9106 487.982 68.6475 489.342 71.5869L512.01 119.953L534.679 71.5869C535.359 70.2508 535.812 69.1819 536.152 68.3803C536.492 67.445 536.719 66.777 536.719 66.1089C536.719 64.9064 535.925 63.9712 534.452 63.5704C532.978 63.0359 530.485 62.5015 527.085 62.2343C527.085 61.0318 527.085 59.9629 527.085 58.7604C528.785 58.7604 531.165 58.7604 533.998 58.894C536.945 58.894 539.212 59.0276 540.912 59.0276C542.612 59.0276 545.333 59.0276 547.486 58.894C549.753 58.894 551.906 58.7604 554.06 58.7604C554.06 59.9629 554.06 61.0318 554.06 62.2343C551.113 62.5015 548.959 62.9023 547.373 63.4367C545.786 63.9712 544.426 65.1737 543.292 67.0442C542.159 68.9147 540.572 71.7205 538.645 75.7288L538.305 75.4616ZM541.479 178.608C541.479 177.405 541.479 176.337 541.479 175.134C544.653 174.733 547.033 174.332 548.62 173.932C550.32 173.397 551.566 172.195 552.586 170.324C553.607 168.32 554.627 165.247 555.873 161.105L588.062 58.894C588.856 58.4932 589.762 58.3596 590.782 58.226C591.916 57.9588 592.822 57.8252 593.503 57.8252L626.031 162.174C627.278 166.182 628.298 168.988 629.092 170.725C629.998 172.462 631.132 173.531 632.719 173.932C634.305 174.332 636.685 174.733 639.972 175.134C639.972 176.337 639.972 177.405 639.972 178.608C637.479 178.608 634.645 178.608 631.358 178.474C628.298 178.474 625.465 178.341 622.745 178.341C620.024 178.341 617.418 178.341 615.037 178.474C612.771 178.474 610.164 178.608 607.443 178.608C607.443 177.405 607.443 176.337 607.443 175.134C610.844 174.733 612.997 174.466 614.131 174.065C615.264 173.664 615.831 172.595 615.831 170.992C615.831 169.389 615.831 169.79 615.491 168.988C615.264 168.053 615.037 166.984 614.584 165.781L604.61 132.78H570.041L560.634 163.911C559.614 166.984 559.16 169.255 559.16 170.591C559.16 171.927 559.84 173.531 561.314 174.065C562.787 174.466 565.167 174.867 568.454 175.268C568.454 176.47 568.454 177.539 568.454 178.741C566.074 178.741 563.694 178.741 561.314 178.608C559.047 178.608 556.78 178.474 554.4 178.474C552.02 178.474 550.32 178.474 547.826 178.608C545.559 178.608 543.292 178.741 541.139 178.741L541.479 178.608ZM571.968 127.569H603.137L587.495 76.1296L571.968 127.569ZM652.893 178.608C652.893 177.405 652.893 176.337 652.893 175.134C656.18 174.733 658.56 174.466 660.034 174.065C661.507 173.664 662.301 172.729 662.641 171.527C662.981 170.324 663.207 168.186 663.207 165.247V73.4574C663.207 69.9836 662.981 67.5786 662.641 66.1089C662.301 64.6392 661.28 63.704 659.92 63.1695C658.56 62.6351 656.293 62.2343 653.007 61.967C653.007 60.7646 653.007 59.6957 653.007 58.4932C655.273 58.4932 657.994 58.4932 661.28 58.6268C664.567 58.6268 667.174 58.7604 669.101 58.7604H674.088C676.128 58.7604 678.168 58.6268 680.208 58.6268C682.362 58.6268 684.062 58.4932 685.422 58.4932C685.422 59.6957 685.422 60.7646 685.422 61.967C682.022 62.3679 679.642 62.6351 678.168 63.0359C676.695 63.4367 675.788 64.2384 675.448 65.4409C675.108 66.6434 674.995 68.9147 674.995 71.9877V169.923C674.995 171.527 674.995 172.595 675.108 173.13H696.303C699.703 173.13 702.423 172.863 704.577 172.328C706.73 171.794 708.43 170.591 709.677 168.854C710.697 167.518 711.831 165.514 712.964 162.842C714.211 160.17 715.344 156.83 716.251 152.955C717.158 152.955 717.951 152.955 718.858 152.955C718.064 158.032 717.384 162.976 716.704 167.518C716.138 172.061 715.684 175.668 715.231 178.474H700.27C694.943 178.474 689.616 178.341 684.175 178.341H669.328C667.968 178.341 666.268 178.341 664.227 178.474H658.107C656.067 178.474 654.367 178.608 652.893 178.608ZM751.613 58.894H758.187C760.794 58.894 763.401 58.7604 766.008 58.7604C768.614 58.7604 770.768 58.6268 772.581 58.6268C792.643 58.6268 807.944 63.704 818.711 73.8583C829.592 84.0126 834.919 98.8432 834.919 118.35C834.919 137.857 833.332 138.124 830.272 145.874C827.212 153.489 822.905 159.903 817.351 164.846C811.797 169.79 805.337 173.397 797.856 175.802C790.489 178.073 782.555 179.276 773.942 179.276C765.328 179.276 766.234 179.142 761.927 178.741C757.62 178.474 754.107 178.341 751.16 178.341C748.213 178.341 748.213 178.341 746.06 178.474H739.826C737.786 178.474 736.086 178.608 734.612 178.608C734.612 177.405 734.612 176.337 734.612 175.134C737.899 174.733 740.279 174.466 741.753 174.065C743.226 173.664 744.019 172.863 744.359 171.66C744.699 170.324 744.926 168.186 744.926 165.113V73.4574C744.926 69.9836 744.7 67.5786 744.246 66.1089C743.906 64.6392 742.886 63.704 741.526 63.1695C740.052 62.6351 737.672 62.2343 734.385 61.967C734.385 60.7646 734.385 59.6957 734.385 58.4932C736.766 58.4932 739.599 58.4932 742.773 58.6268C745.946 58.6268 748.893 58.7604 751.613 58.7604V58.894ZM756.6 64.372V171.927C759.661 172.595 762.834 173.13 765.894 173.531C769.068 173.932 772.128 174.065 775.075 174.065C790.829 174.065 802.73 169.389 810.664 159.903C818.598 150.416 822.565 137.456 822.565 120.889C822.565 104.321 818.145 89.3569 809.191 79.2026C800.237 68.9147 787.316 63.8376 770.315 63.8376C753.313 63.8376 764.988 63.8376 762.381 64.2384C759.774 64.2384 757.847 64.5056 756.714 64.6392L756.6 64.372ZM856.454 178.608C856.454 177.405 856.454 176.337 856.454 175.134C859.741 174.733 862.121 174.466 863.594 174.065C865.068 173.664 865.861 172.729 866.201 171.527C866.541 170.324 866.768 168.186 866.768 165.247V73.4574C866.768 69.9836 866.541 67.5786 866.201 66.1089C865.861 64.6392 864.841 63.704 863.481 63.1695C862.121 62.6351 859.854 62.2343 856.567 61.967C856.567 60.7646 856.567 59.6957 856.567 58.4932C858.947 58.4932 860.987 58.4932 862.688 58.6268C864.388 58.6268 866.428 58.6268 868.581 58.7604H890.683C894.99 58.7604 898.957 58.6268 902.584 58.6268H911.764C914.144 58.6268 915.618 58.4932 915.958 58.4932C916.525 65.0401 917.318 71.8541 918.451 79.2026C917.431 79.2026 916.411 79.2026 915.504 79.2026C914.711 76.1296 913.918 73.7247 913.011 71.8541C912.104 69.85 911.198 68.3803 910.291 67.445C909.044 66.1089 907.457 65.1737 905.53 64.7728C903.717 64.372 901.337 64.1048 898.617 64.1048H878.555V114.075H893.743C897.143 114.075 899.637 113.807 901.337 113.407C903.037 113.006 904.17 111.803 904.85 109.933C905.531 107.929 906.097 104.856 906.551 100.714C907.571 100.714 908.591 100.714 909.611 100.714C909.611 101.515 909.611 103.52 909.497 106.726C909.497 109.799 909.384 113.273 909.384 117.148C909.384 121.022 909.384 124.095 909.497 127.302C909.497 130.375 909.611 132.379 909.611 133.448C908.704 133.448 907.684 133.448 906.551 133.448C906.211 128.905 905.644 125.699 904.964 123.828C904.284 121.824 903.15 120.755 901.677 120.221C900.09 119.82 897.823 119.553 894.763 119.553H878.669V173.264H897.937C901.45 173.264 904.397 172.996 906.777 172.595C909.271 172.061 911.197 170.992 912.558 169.389C913.578 168.186 914.484 166.449 915.618 163.911C916.751 161.372 917.885 158.433 919.131 154.959C920.038 154.959 920.945 154.959 921.852 154.959C921.058 159.502 920.378 163.911 919.811 168.186C919.358 172.462 918.905 175.936 918.678 178.608H894.99C890.683 178.608 886.829 178.474 883.429 178.474H875.495C872.208 178.474 869.488 178.474 867.335 178.608H862.007C860.421 178.608 858.721 178.741 856.794 178.741L856.454 178.608ZM1027.94 179.276L959.027 74.1255V160.704C959.027 163.911 959.027 166.316 959.141 168.053C959.367 169.656 959.821 170.859 960.501 171.794C961.294 172.595 962.428 173.397 963.788 174.065C965.261 174.6 967.301 175 970.022 175.268C970.022 176.47 970.022 177.539 970.022 178.741C967.868 178.741 965.488 178.741 962.881 178.608C960.388 178.608 958.234 178.474 956.534 178.474C954.834 178.474 952.567 178.474 949.96 178.608C947.467 178.608 945.2 178.741 943.16 178.741C943.16 177.539 943.16 176.47 943.16 175.268C946.56 174.867 948.94 174.332 950.414 173.664C951.887 173.13 952.68 172.061 953.02 170.458C953.36 168.721 953.587 166.049 953.587 162.308V77.3321C953.587 72.923 953.36 69.7164 953.02 67.7122C952.68 65.7081 951.66 64.2384 949.96 63.5704C948.373 62.9023 945.88 62.3679 942.253 61.8334C942.253 60.7646 942.253 59.6957 942.253 58.6268C944.52 58.6268 946.787 58.6268 949.167 58.7604C951.66 58.7604 954.154 58.894 956.534 58.894H959.254C960.954 58.894 962.314 58.894 963.561 58.7604L1028.28 157.765V76.6641C1028.28 73.591 1028.28 71.1861 1028.17 69.4492C1028.17 67.5786 1027.6 66.3761 1026.81 65.5745C1025.33 63.5704 1021.82 62.5015 1016.04 61.967C1016.04 60.7646 1016.04 59.6957 1016.04 58.7604C1018.08 58.7604 1020.57 58.7604 1023.63 58.894H1037.12C1039.73 58.894 1042.11 58.7604 1044.26 58.7604C1044.26 59.8293 1044.26 60.8982 1044.26 61.967C1040.86 62.3679 1038.37 63.0359 1036.89 63.704C1035.42 64.2384 1034.51 65.4409 1034.17 67.1778C1033.83 68.7811 1033.72 71.4533 1033.72 75.1944V178.608C1033.04 178.875 1032.02 179.009 1030.77 179.142C1029.64 179.142 1028.62 179.276 1027.71 179.276H1027.94ZM1083.93 178.608C1083.93 177.405 1083.93 176.337 1083.93 175.134C1087.44 174.733 1089.82 174.466 1091.3 174.065C1092.88 173.664 1093.79 172.863 1094.02 171.66C1094.36 170.324 1094.58 168.186 1094.58 165.113V63.8376H1076.11C1072.26 63.8376 1069.31 64.372 1067.38 65.4409C1065.45 66.5098 1063.98 68.2467 1062.85 70.9189C1061.83 73.4574 1060.69 77.1985 1059.56 82.0084C1058.65 82.0084 1057.75 82.0084 1056.84 82.0084C1057.29 78.0001 1057.75 73.9919 1058.2 69.85C1058.54 65.5745 1058.88 61.8334 1059.22 58.3596C1063.75 58.6268 1069.19 58.7604 1075.66 58.894H1125.75C1131.99 58.894 1137.43 58.6268 1141.96 58.3596C1142.19 61.6998 1142.41 65.4409 1142.87 69.5828C1143.21 73.8583 1143.66 77.8665 1144 81.8748C1142.98 81.8748 1141.96 81.8748 1141.05 81.8748C1139.81 76.9313 1138.67 73.1902 1137.54 70.6516C1136.52 67.9795 1134.93 66.2425 1133.01 65.3073C1131.19 64.2384 1128.36 63.704 1124.39 63.704H1106.14V163.644C1106.14 167.117 1106.26 169.522 1106.6 171.126C1106.94 172.595 1107.96 173.531 1109.32 174.065C1110.9 174.466 1113.4 174.733 1116.91 175.134C1116.91 176.337 1116.91 177.405 1116.91 178.608C1115.44 178.608 1113.62 178.608 1111.58 178.474H1105.46C1103.42 178.474 1101.72 178.341 1100.36 178.341C1098.32 178.341 1095.6 178.341 1092.2 178.474C1088.8 178.474 1085.97 178.608 1083.82 178.608H1083.93Z" fill="url(#paint0_linear_73_27)"/>
<path d="M167.182 28.0012C173.727 28.0012 179.818 29.3168 184.727 32.2112C189.545 35.1056 193.273 39.5787 195.182 46.0692C198.273 56.9451 198.273 67.9087 196.364 79.7494L196.182 80.7142L197 80.1879L217 68.4349L198.182 153.425C196.909 155.354 195 156.845 192.636 157.986C190.455 159.126 187.909 160.003 185.545 160.705C184.909 157.547 185.364 154.126 188.455 150.53L188.818 150.092L188.273 149.829L181.545 146.759L181 146.496V147.022C179.091 155.968 177.091 170.528 173.545 182.983C171.818 189.21 169.636 194.736 167 198.77C164.273 202.805 161.182 205.085 157.364 204.998C153.636 204.91 150.636 202.103 148.091 197.542C145.545 193.069 143.636 187.017 141.818 180.79C140 174.563 138.455 168.16 136.636 162.985C135.727 160.354 134.818 158.073 133.727 156.231C132.636 154.39 131.455 152.986 130.091 152.285L129.818 152.109C129.273 151.934 128.727 152.109 128.273 152.285C127.727 152.548 127.091 153.162 126.636 153.776C125.545 155.179 124.455 157.196 123.455 159.564C121.455 164.301 119.545 170.44 118.273 174.913C116.455 181.316 114.636 188.859 111.909 194.823C110.545 197.805 109 200.349 107.182 202.103C105.364 203.857 103.273 204.91 100.818 204.822C97.2727 204.822 94.1818 202.366 91.6364 198.332C89 194.297 86.9091 188.859 85.1818 182.72C81.7273 170.528 79.7273 156.319 78.0909 147.636V147.11L77.5455 147.285L71.0909 149.127L70.3636 149.302L70.9091 149.829C73.5455 152.548 74.3636 156.144 74.2727 160.266C69.2727 158.775 65.2727 156.845 62.0909 153.863L43 68.5226L61.6364 79.3985L62.4545 79.8371V78.96C61.1818 70.8031 60.6364 62.2953 61.8182 54.5769C63 46.9463 66 40.1927 71.9091 35.7195C80 29.6676 89.2727 28.7028 98.7273 30.2816C108.273 31.8603 118 35.9827 126.909 39.9296H127.091C127.091 40.0173 127.273 39.9296 127.273 39.9296C138.727 32.8251 153.818 27.9134 167 28.0012H167.182ZM172.455 145.092C144.636 141.409 114.909 141.146 86.7273 145.356H86.2727V145.882C88 159.214 90.4545 171.756 94.2727 184.561L94.6364 185.789C95.9091 190.087 97.9091 193.508 100.636 197.367L101.091 197.981L101.455 197.367C104.364 192.192 106 187.807 107.545 182.807L107.818 181.755L114.727 159.301C116.273 154.214 119.455 149.566 123.818 146.145C128.364 142.637 135.273 144.478 138.909 149.653L139.091 149.916C143.364 156.319 145.182 163.073 147.545 170.353L154.909 193.683C155 194.034 155.273 194.385 155.545 194.736C155.818 195.086 156.182 195.437 156.455 195.7C157.182 196.314 157.909 196.928 158.273 197.191L158.727 197.455L159 197.016C167.545 181.93 169.909 162.985 172.818 145.706V145.268H172.455V145.092ZM99.9091 112.465L84.9091 135.006L64.7273 123.691L63.8182 123.165L64 124.13L67.7273 141.759V142.286C67.8182 142.286 68.3636 142.11 68.3636 142.11C96.5455 132.813 136.545 133.164 166.545 136.409C175.364 137.374 182.636 139.216 192 142.11H192.182H192.364L192.545 142.023V141.847L196.273 123.955L196.455 122.99L195.545 123.516L175.273 135.006L160.273 112.552L160 112.202L159.636 112.465L130 130.357L100.545 112.377L100.182 112.114L99.9091 112.465ZM203.818 85.7136L167.364 107.641L167 107.904L167.273 108.255L177.818 123.867L178.091 124.218L178.455 124.042L198.727 112.289H198.909C198.909 112.202 198.909 112.026 198.909 112.026L204.545 86.2398L204.727 85.275L203.818 85.8013V85.7136ZM55.3636 85.9767L60.9091 111.938V112.114L61.0909 112.202L81.5455 123.779L81.3636 124.042H83.9091L82.8182 123.428L92.7273 108.167L93 107.816L92.6364 107.553L56 85.4504L55.0909 84.9242L55.2727 85.889L55.3636 85.9767ZM129.636 67.6455L104.727 105.097L104.455 105.448L104.818 105.711L129.636 120.534V121.06L130.364 120.622L155.182 105.623L155.545 105.36L155.273 105.01L130.364 67.6455L130 67.0316L129.636 67.6455ZM169.364 35.8949C158.455 35.7195 148.182 38 138.273 43.4379L137.455 43.8765L138.364 44.2273C145.727 46.9463 151.909 48.1742 159.455 49.3144V57.2082C145.182 55.7171 132.545 51.1563 119.545 45.3675C110.455 41.3329 101.364 37.386 91.1818 37.386C81 37.386 71.9091 43.8765 70.1818 54.2261C68.3636 64.8389 70.0909 75.5393 73.1818 86.2398V86.4152L73.3636 86.5029L97.2727 100.799L97.6364 101.063L97.9091 100.712L130.182 52.2965L162.364 100.712L162.636 101.063L163 100.799L186.727 86.5907H186.909C186.909 86.5029 186.909 86.3275 186.909 86.3275C189.273 74.4868 190.364 62.2953 188.091 50.5423V50.1038C186.909 45.7183 184.636 42.21 181.545 39.8418C178.455 37.386 174.455 36.0704 169.909 35.8949H169.455H169.364Z" fill="url(#paint1_linear_73_27)"/>
<defs>
<linearGradient id="paint0_linear_73_27" x1="253.953" y1="56.8899" x2="1142.76" y2="188.852" gradientUnits="userSpaceOnUse">
<stop stop-color="#F58626"/>
<stop offset="0.572115" stop-color="#5F799A"/>
</linearGradient>
<linearGradient id="paint1_linear_73_27" x1="43" y1="28" x2="188.5" y2="205" gradientUnits="userSpaceOnUse">
<stop offset="0.1875" stop-color="#F58626"/>
<stop offset="0.841346" stop-color="#5F799A"/>
</linearGradient>
</defs>
</svg>
